<svg width="24.000000" height="22.000000" viewBox="0 0 24 22" fill="none" xmlns="http://www.w3.org/2000/svg" xmlns:xlink="http://www.w3.org/1999/xlink">
	<desc>
			Created with Pixso.
	</desc>
	<defs/>
	<path id="Vector" d="M2.15 22C1.53 22 1.02 21.78 0.61 21.36C0.2 20.94 0 20.41 0 19.77L0 6.34C0 5.71 0.2 5.18 0.61 4.76C1.02 4.33 1.54 4.12 2.15 4.12L8 4.12L8 2.22C8 1.58 8.2 1.06 8.61 0.63C9.02 0.21 9.54 0 10.15 0L13.84 0C14.46 0 14.97 0.21 15.38 0.63C15.79 1.06 16 1.58 16 2.22L16 4.12L21.84 4.12C22.46 4.12 22.97 4.33 23.38 4.76C23.79 5.18 23.99 5.71 24 6.34L24 19.77C24 20.41 23.79 20.93 23.38 21.36C22.97 21.78 22.46 21.99 21.84 22L2.15 22ZM9.33 4.12L14.66 4.12L14.66 2.22C14.66 2 14.58 1.81 14.41 1.63C14.24 1.46 14.05 1.37 13.84 1.37L10.15 1.37C9.94 1.37 9.76 1.46 9.58 1.63C9.41 1.81 9.33 2 9.33 2.22L9.33 4.12ZM22.66 14.43L14.66 14.43L14.66 16.5L9.33 16.5L9.33 14.43L1.33 14.43L1.33 19.77C1.33 19.99 1.41 20.18 1.58 20.36C1.76 20.53 1.94 20.62 2.15 20.62L21.84 20.62C22.05 20.62 22.23 20.53 22.41 20.36C22.58 20.18 22.66 19.99 22.66 19.77L22.66 14.43ZM10.66 15.12L13.33 15.12L13.33 12.37L10.66 12.37L10.66 15.12ZM1.33 13.06L9.33 13.06L9.33 11L14.66 11L14.66 13.06L22.66 13.06L22.66 6.34C22.66 6.13 22.58 5.94 22.41 5.76C22.24 5.58 22.05 5.49 21.84 5.5L2.15 5.5C1.94 5.5 1.76 5.58 1.58 5.76C1.41 5.93 1.33 6.13 1.33 6.34L1.33 13.06Z" fill="#8B57C2" fill-opacity="1.000000" fill-rule="nonzero"/>
</svg>
