<svg width="48.000000" height="48.000000" viewBox="0 0 48 48" fill="none" xmlns="http://www.w3.org/2000/svg" xmlns:xlink="http://www.w3.org/1999/xlink">
	<desc>
			Created with Pixso.
	</desc>
	<defs>
		<clipPath id="clip3_1792">
			<rect id="icon/education" rx="23.500000" width="47.000000" height="47.000000" transform="translate(0.500000 0.500000)" fill="white" fill-opacity="0"/>
		</clipPath>
	</defs>
	<rect id="icon/education" rx="23.500000" width="47.000000" height="47.000000" transform="translate(0.500000 0.500000)" fill="#FFFFFF" fill-opacity="0"/>
	<g clip-path="url(#clip3_1792)">
		<path id="Vector" d="M30.22 29.58L24 33L17.77 29.58L17.77 25.96L16 25L16 30.59L24 35L32 30.59L32 25L30.22 25.96L30.22 29.58Z" fill="#8B57C2" fill-opacity="1.000000" fill-rule="nonzero"/>
		<path id="Vector" d="M24 13L12 19.49L12 21.04L24 28L34.28 22.03L34.28 26.97L36 26.97L36 19.49L24 13ZM32.57 20.98L30.85 21.97L24 25.95L17.14 21.97L15.42 20.98L14.24 20.29L24 15.01L33.75 20.29L32.57 20.98Z" fill="#8B57C2" fill-opacity="1.000000" fill-rule="nonzero"/>
	</g>
	<rect id="icon/education" rx="23.500000" width="47.000000" height="47.000000" transform="translate(0.500000 0.500000)" stroke="#8B57C2" stroke-opacity="1.000000" stroke-width="1.000000"/>
</svg>
