<svg width="48.000000" height="48.000000" viewBox="0 0 48 48" fill="none" xmlns="http://www.w3.org/2000/svg" xmlns:xlink="http://www.w3.org/1999/xlink">
	<desc>
			Created with Pixso.
	</desc>
	<defs>
		<clipPath id="clip3_1803">
			<rect id="icon/medicine" rx="23.500000" width="47.000000" height="47.000000" transform="translate(0.500000 0.500000)" fill="white" fill-opacity="0"/>
		</clipPath>
	</defs>
	<rect id="icon/medicine" rx="23.500000" width="47.000000" height="47.000000" transform="translate(0.500000 0.500000)" fill="#FFFFFF" fill-opacity="0"/>
	<g clip-path="url(#clip3_1803)">
		<path id="Vector" d="M18.93 14.43C19.22 14.15 19.6 14 20 14L28 14C28.19 14 28.39 14.03 28.57 14.11C28.75 14.18 28.92 14.3 29.06 14.43C29.2 14.57 29.31 14.74 29.38 14.92C29.46 15.1 29.5 15.3 29.5 15.5C29.5 15.69 29.46 15.89 29.38 16.07C29.31 16.25 29.2 16.42 29.06 16.56C28.92 16.7 28.75 16.81 28.57 16.88C28.39 16.96 28.19 17 28 17L20 17C19.6 17 19.22 16.84 18.93 16.56C18.65 16.27 18.5 15.89 18.5 15.5C18.5 15.1 18.65 14.72 18.93 14.43ZM19.07 20.14C19.27 20.05 19.49 20 19.71 20L28.28 20C28.5 20 28.72 20.05 28.92 20.14C29.13 20.24 29.3 20.38 29.45 20.56L31.66 23.32C31.88 23.58 32 23.91 32 24.26L32 32.5C32 32.89 31.84 33.28 31.56 33.56C31.27 33.84 30.89 34 30.5 34L17.5 34C17.1 34 16.72 33.84 16.43 33.56C16.15 33.28 16 32.89 16 32.5L16 24.26C15.99 23.91 16.11 23.58 16.33 23.32L18.55 20.56C18.69 20.38 18.86 20.24 19.07 20.14Z" stroke="#8B57C2" stroke-opacity="1.000000" stroke-width="2.000000" stroke-linejoin="round"/>
		<path id="Vector" d="M21 27L27 27M24 24L24 30" stroke="#8B57C2" stroke-opacity="1.000000" stroke-width="2.000000" stroke-linejoin="round"/>
	</g>
	<rect id="icon/medicine" rx="23.500000" width="47.000000" height="47.000000" transform="translate(0.500000 0.500000)" stroke="#8B57C2" stroke-opacity="1.000000" stroke-width="1.000000"/>
</svg>
