<svg width="48.000000" height="48.000000" viewBox="0 0 48 48" fill="none" xmlns="http://www.w3.org/2000/svg" xmlns:xlink="http://www.w3.org/1999/xlink">
	<desc>
			Created with Pixso.
	</desc>
	<defs>
		<clipPath id="clip8_233">
			<rect id="icon/business" rx="23.500000" width="47.000000" height="47.000000" transform="translate(0.500000 0.500000)" fill="white" fill-opacity="0"/>
		</clipPath>
	</defs>
	<rect id="icon/business" rx="23.500000" width="47.000000" height="47.000000" transform="translate(0.500000 0.500000)" fill="#FFFFFF" fill-opacity="0"/>
	<g clip-path="url(#clip8_233)">
		<path id="Vector" d="M14.15 35C13.54 35 13.02 34.78 12.61 34.36C12.2 33.94 12 33.41 12 32.77L12 19.34C12 18.71 12.2 18.18 12.61 17.76C13.02 17.33 13.54 17.12 14.15 17.12L20 17.12L20 15.22C20 14.58 20.2 14.06 20.61 13.63C21.02 13.21 21.54 13 22.15 13L25.84 13C26.46 13 26.97 13.21 27.38 13.63C27.79 14.06 28 14.58 28 15.22L28 17.12L33.84 17.12C34.46 17.12 34.97 17.33 35.38 17.76C35.79 18.18 35.99 18.71 36 19.34L36 32.77C36 33.41 35.79 33.93 35.38 34.36C34.97 34.78 34.46 34.99 33.84 35L14.15 35ZM21.33 17.12L26.66 17.12L26.66 15.22C26.66 15 26.58 14.81 26.41 14.63C26.24 14.46 26.05 14.37 25.84 14.37L22.15 14.37C21.94 14.37 21.76 14.46 21.58 14.63C21.41 14.81 21.33 15 21.33 15.22L21.33 17.12ZM34.66 27.43L26.66 27.43L26.66 29.5L21.33 29.5L21.33 27.43L13.33 27.43L13.33 32.77C13.33 32.99 13.41 33.18 13.58 33.36C13.76 33.53 13.94 33.62 14.15 33.62L33.84 33.62C34.05 33.62 34.23 33.53 34.41 33.36C34.58 33.18 34.66 32.99 34.66 32.77L34.66 27.43ZM22.66 28.12L25.33 28.12L25.33 25.37L22.66 25.37L22.66 28.12ZM13.33 26.06L21.33 26.06L21.33 24L26.66 24L26.66 26.06L34.66 26.06L34.66 19.34C34.66 19.13 34.58 18.94 34.41 18.76C34.24 18.58 34.05 18.49 33.84 18.5L14.15 18.5C13.94 18.5 13.76 18.58 13.58 18.76C13.41 18.93 13.33 19.13 13.33 19.34L13.33 26.06Z" fill="#8B57C2" fill-opacity="1.000000" fill-rule="nonzero"/>
	</g>
	<rect id="icon/business" rx="23.500000" width="47.000000" height="47.000000" transform="translate(0.500000 0.500000)" stroke="#8B57C2" stroke-opacity="1.000000" stroke-width="1.000000"/>
</svg>
