<svg width="48.000000" height="48.000000" viewBox="0 0 48 48" fill="none" xmlns="http://www.w3.org/2000/svg" xmlns:xlink="http://www.w3.org/1999/xlink">
	<desc>
			Created with Pixso.
	</desc>
	<defs>
		<clipPath id="clip3_1810">
			<rect id="icon/car" rx="23.500000" width="47.000000" height="47.000000" transform="translate(0.500000 0.500000)" fill="white" fill-opacity="0"/>
		</clipPath>
	</defs>
	<rect id="icon/car" rx="23.500000" width="47.000000" height="47.000000" transform="translate(0.500000 0.500000)" fill="#FFFFFF" fill-opacity="0"/>
	<g clip-path="url(#clip3_1810)">
		<path id="Vector" d="M16 31.37L16 32.03C16 32.55 15.78 33.05 15.41 33.42C15.03 33.79 14.53 34 14 34C13.46 34 12.96 33.79 12.58 33.42C12.21 33.05 12 32.55 12 32.03L12 31.37L12 22.18L15.3 14.59C15.51 14.11 15.85 13.71 16.29 13.43C16.72 13.15 17.23 12.99 17.76 13L30.24 13C30.76 13 31.27 13.15 31.71 13.43C32.14 13.71 32.48 14.11 32.69 14.59L36 22.18L36 31.37L36 32.03C36 32.55 35.78 33.05 35.41 33.42C35.03 33.79 34.53 34 34 34C33.46 34 32.96 33.79 32.58 33.42C32.21 33.05 32 32.55 32 32.03L32 31.37M12 22.18L36 22.18M36 31.37L32 31.37L16 31.37L12 31.37" stroke="#8B57C2" stroke-opacity="1.000000" stroke-width="2.000000" stroke-linejoin="round"/>
	</g>
	<rect id="icon/car" rx="23.500000" width="47.000000" height="47.000000" transform="translate(0.500000 0.500000)" stroke="#8B57C2" stroke-opacity="1.000000" stroke-width="1.000000"/>
</svg>
