<svg width="48.000000" height="48.000000" viewBox="0 0 48 48" fill="none" xmlns="http://www.w3.org/2000/svg" xmlns:xlink="http://www.w3.org/1999/xlink">
	<desc>
			Created with Pixso.
	</desc>
	<defs>
		<clipPath id="clip3_1787">
			<rect id="icon/smm" rx="23.500000" width="47.000000" height="47.000000" transform="translate(0.500000 0.500000)" fill="white" fill-opacity="0"/>
		</clipPath>
	</defs>
	<rect id="icon/smm" rx="23.500000" width="47.000000" height="47.000000" transform="translate(0.500000 0.500000)" fill="#FFFFFF" fill-opacity="0"/>
	<g clip-path="url(#clip3_1787)">
		<path id="Vector" d="M34.74 15.03C34.91 15.43 35 15.86 35 16.3C35 16.73 34.91 17.16 34.74 17.56C34.58 17.96 34.33 18.33 34.03 18.63L19.23 33.44L13 35L14.55 28.85L29.36 13.97C29.94 13.38 30.73 13.03 31.55 13C32.38 12.96 33.19 13.24 33.82 13.77L34.03 13.96C34.33 14.27 34.58 14.63 34.74 15.03ZM22.34 35L34.81 35M31.69 17.86L33.25 19.41" stroke="#8B57C2" stroke-opacity="1.000000" stroke-width="2.000000" stroke-linejoin="round"/>
	</g>
	<rect id="icon/smm" rx="23.500000" width="47.000000" height="47.000000" transform="translate(0.500000 0.500000)" stroke="#8B57C2" stroke-opacity="1.000000" stroke-width="1.000000"/>
</svg>
