<svg width="24.000000" height="24.000000" viewBox="0 0 24 24" fill="none" xmlns="http://www.w3.org/2000/svg" xmlns:xlink="http://www.w3.org/1999/xlink">
	<desc>
			Created with Pixso.
	</desc>
	<defs>
		<clipPath id="clip33_898">
			<rect id="mdi:email-outline" width="24.000000" height="24.000000" fill="white" fill-opacity="0"/>
		</clipPath>
	</defs>
	<rect id="mdi:email-outline" width="24.000000" height="24.000000" fill="#FFFFFF" fill-opacity="0"/>
	<g clip-path="url(#clip33_898)">
		<path id="Vector" d="M22 6C22 4.9 21.1 4 20 4L4 4C2.89 4 2 4.9 2 6L2 18C2 19.09 2.89 20 4 20L20 20C21.1 20 22 19.09 22 18L22 6ZM20 6L12 11L4 6L20 6ZM20 18L4 18L4 8L12 13L20 8L20 18Z" fill="#EF85EC" fill-opacity="1.000000" fill-rule="nonzero"/>
	</g>
</svg>
