<svg width="24.000000" height="24.000000" viewBox="0 0 24 24" fill="none" xmlns="http://www.w3.org/2000/svg" xmlns:xlink="http://www.w3.org/1999/xlink">
	<desc>
			Created with Pixso.
	</desc>
	<defs>
		<clipPath id="clip33_868">
			<rect id="bi:youtube" width="24.000000" height="24.000000" fill="white" fill-opacity="0"/>
		</clipPath>
	</defs>
	<rect id="bi:youtube" width="24.000000" height="24.000000" fill="#FFFFFF" fill-opacity="0"/>
	<g clip-path="url(#clip33_868)">
		<path id="Vector" d="M12.07 2.99L12.21 2.99C13.44 3 19.69 3.04 21.37 3.5C21.88 3.63 22.34 3.9 22.72 4.28C23.09 4.65 23.36 5.12 23.49 5.63C23.64 6.2 23.75 6.95 23.82 7.73L23.84 7.88L23.87 8.27L23.88 8.43C23.98 9.8 23.99 11.09 23.99 11.37L23.99 11.48C23.99 11.77 23.98 13.14 23.87 14.57L23.86 14.73L23.85 14.88C23.77 15.74 23.66 16.59 23.49 17.22C23.36 17.73 23.09 18.19 22.72 18.57C22.34 18.94 21.88 19.21 21.37 19.35C19.63 19.82 13.02 19.85 12.1 19.85L11.89 19.85C11.42 19.85 9.51 19.84 7.5 19.77L7.24 19.76L7.11 19.76L6.85 19.75L6.6 19.74C4.93 19.66 3.35 19.55 2.62 19.35C2.11 19.21 1.64 18.94 1.27 18.57C0.9 18.19 0.63 17.73 0.49 17.22C0.33 16.59 0.22 15.74 0.14 14.88L0.13 14.72L0.12 14.57C0.04 13.55 0 12.53 0 11.51L0 11.33C0 11.01 0.01 9.89 0.09 8.66L0.1 8.51L0.11 8.43L0.12 8.27L0.15 7.88L0.17 7.73C0.24 6.95 0.34 6.19 0.5 5.63C0.63 5.12 0.9 4.65 1.27 4.28C1.65 3.9 2.11 3.63 2.62 3.5C3.35 3.3 4.93 3.18 6.6 3.11L6.85 3.09L7.11 3.09L7.24 3.08L7.5 3.07C8.93 3.03 10.35 3 11.78 3L12.07 2.99ZM9.59 7.81L9.59 15.04L15.83 11.42L9.59 7.81Z" fill="#FFFFFF" fill-opacity="1.000000" fill-rule="nonzero"/>
	</g>
</svg>
