<svg width="73.000000" height="73.000000" viewBox="0 0 73 73" fill="none" xmlns="http://www.w3.org/2000/svg" xmlns:xlink="http://www.w3.org/1999/xlink">
	<desc>
			Created with Pixso.
	</desc>
	<defs>
		<linearGradient x1="36.500000" y1="0.500000" x2="36.500000" y2="72.500000" id="paint_linear_3_1992_0" gradientUnits="userSpaceOnUse">
			<stop stop-color="#9567B0"/>
			<stop offset="1.000000" stop-color="#DC8887"/>
		</linearGradient>
	</defs>
	<path id="Vector" d="M72.5 0.5L72.5 72.5L0.5 72.5L0.5 0.5L72.5 0.5ZM0.5 0.5L22.1 0.5L22.1 22.1L0.5 22.1L0.5 0.5M0.5 0.5L14.9 0.5L14.9 14.89L0.5 14.89L0.5 0.5M0.5 0.5L7.7 0.5L7.7 7.7L0.5 7.7L0.5 0.5M0.5 0.5L29.3 0.5L29.3 29.29L0.5 29.29L0.5 0.5M0.5 0.5L36.5 0.5L36.5 36.5L0.5 36.5L0.5 0.5M0.5 0.5L43.7 0.5L43.7 43.7L0.5 43.7L0.5 0.5M0.5 0.5L50.9 0.5L50.9 50.89L0.5 50.89L0.5 0.5M0.5 0.5L58.1 0.5L58.1 58.1L0.5 58.1L0.5 0.5M0.5 0.5L65.3 0.5L65.3 65.29L0.5 65.29L0.5 0.5M72.5 72.5L7.01 7.01" stroke="url(#paint_linear_3_1992_0)" stroke-opacity="1.000000" stroke-width="1.000000"/>
</svg>
