<svg width="72.000000" height="72.000000" viewBox="0 0 72 72" fill="none" xmlns="http://www.w3.org/2000/svg" xmlns:xlink="http://www.w3.org/1999/xlink">
	<desc>
			Created with Pixso.
	</desc>
	<defs>
		<linearGradient x1="36.000000" y1="0.000000" x2="36.000000" y2="72.000000" id="paint_linear_3_1987_0" gradientUnits="userSpaceOnUse">
			<stop stop-color="#9567B0"/>
			<stop offset="1.000000" stop-color="#DC8887"/>
		</linearGradient>
	</defs>
	<path id="Vector" d="M54 66.86C59.42 69.98 65.62 71.66 72 71.66L72 70.23L71.99 70.23C71.92 64.23 70.34 58.4 67.46 53.25C70.35 48.06 71.94 42.2 71.99 36.16L72 36.16C72 36.11 71.99 36.05 71.99 36C71.99 35.94 72 35.88 72 35.83L71.99 35.83C71.94 29.79 70.35 23.93 67.46 18.74C70.39 13.49 71.98 7.54 71.99 1.43L72 1.43L72 0C65.51 0 59.2 1.74 53.71 4.96C48.35 1.95 42.26 0.33 36 0.33C29.62 0.33 23.42 2.01 18 5.13C12.57 2.01 6.37 0.33 0 0.33L0 1.32L0 1.32L0 1.33L0 1.76L0 1.76C0.07 7.76 1.65 13.59 4.53 18.74C1.64 23.93 0.05 29.79 0 35.83L0 35.83C0 35.88 0 35.94 0 36C0 36.05 0 36.11 0 36.16L0 36.16C0.05 42.2 1.64 48.06 4.53 53.25C1.6 58.5 0.01 64.45 0 70.56L0 70.56L0 72C6.48 72 12.79 70.25 18.28 67.03C23.64 70.04 29.73 71.66 36 71.66C42.37 71.66 48.57 69.98 54 66.86ZM54 65.2C56.32 63.79 58.48 62.1 60.43 60.15C62.53 58.07 64.32 55.75 65.8 53.25C64.32 50.75 62.53 48.43 60.43 46.34C55.29 41.22 48.68 37.88 41.59 36.72C40.23 36.93 38.85 37.07 37.46 37.13C37.79 45.78 41.38 54.01 47.56 60.15C49.51 62.1 51.67 63.79 54 65.2ZM55.41 66.01C57.57 64.63 59.6 63.01 61.45 61.17C63.43 59.2 65.15 57.02 66.6 54.69C69.1 59.44 70.48 64.75 70.55 70.2C65.21 69.98 60.03 68.53 55.41 66.01ZM36.02 37.16C36.36 46.18 40.1 54.76 46.54 61.17C48.39 63.01 50.42 64.63 52.58 66.01C47.54 68.75 41.85 70.23 36 70.23C30.25 70.23 24.66 68.81 19.69 66.16C21.75 64.82 23.68 63.26 25.45 61.5C31.97 55.01 35.73 46.3 35.98 37.16L36 37.16L36.02 37.16ZM37.45 34.86C38.84 34.92 40.23 35.06 41.59 35.27C48.68 34.11 55.29 30.77 60.43 25.65C62.53 23.56 64.32 21.24 65.8 18.74C64.32 16.24 62.53 13.92 60.43 11.84C58.4 9.82 56.15 8.07 53.72 6.63C51.5 8 49.43 9.64 47.56 11.5C41.31 17.73 37.7 26.09 37.45 34.86ZM52.3 5.83C50.24 7.17 48.31 8.73 46.54 10.49C40.02 16.98 36.26 25.69 36.01 34.83L36 34.83L35.97 34.83C35.63 25.81 31.89 17.23 25.45 10.82C23.6 8.98 21.57 7.36 19.41 5.98C24.45 3.24 30.14 1.76 36 1.76C41.74 1.76 47.33 3.18 52.3 5.83ZM55.13 5.81C57.4 7.22 59.52 8.9 61.45 10.82C63.43 12.79 65.15 14.97 66.6 17.3C69.15 12.45 70.53 7.03 70.55 1.46C65.1 1.68 59.82 3.19 55.13 5.81ZM10.54 10.82C12.39 8.98 14.42 7.36 16.58 5.98C11.96 3.46 6.78 2.01 1.44 1.79C1.51 7.24 2.89 12.55 5.39 17.3C6.84 14.97 8.56 12.79 10.54 10.82ZM11.56 11.84C13.51 9.89 15.67 8.2 18 6.79C20.32 8.2 22.48 9.89 24.43 11.84C30.61 17.98 34.2 26.21 34.53 34.86C33.14 34.92 31.76 35.06 30.4 35.27C23.31 34.11 16.7 30.77 11.56 25.65C9.46 23.56 7.67 21.24 6.19 18.74C7.67 16.24 9.46 13.92 11.56 11.84ZM5.39 51.8C2.84 46.97 1.46 41.55 1.44 36C1.46 30.44 2.84 25.02 5.39 20.19C6.84 22.52 8.56 24.69 10.54 26.66C15.1 31.2 20.76 34.4 26.9 36C20.76 37.59 15.1 40.79 10.54 45.33C8.56 47.3 6.84 49.47 5.39 51.8ZM66.6 51.8C69.15 46.97 70.53 41.55 70.55 36C70.53 30.44 69.15 25.02 66.6 20.19C65.15 22.52 63.43 24.69 61.45 26.66C56.89 31.2 51.23 34.4 45.09 36C51.23 37.59 56.89 40.79 61.45 45.33C63.43 47.3 65.15 49.47 66.6 51.8ZM11.56 60.15C13.59 62.17 15.84 63.92 18.27 65.36C20.49 63.99 22.56 62.35 24.43 60.49C30.68 54.26 34.29 45.9 34.54 37.13C33.15 37.07 31.77 36.93 30.4 36.72C23.31 37.88 16.7 41.22 11.56 46.34C9.46 48.43 7.67 50.75 6.19 53.25C7.67 55.75 9.46 58.07 11.56 60.15ZM1.44 70.53C6.89 70.31 12.17 68.8 16.86 66.18C14.59 64.77 12.47 63.09 10.54 61.17C8.56 59.2 6.84 57.02 5.39 54.69C2.84 59.54 1.46 64.96 1.44 70.53Z" fill="url(#paint_linear_3_1987_0)" fill-opacity="1.000000" fill-rule="evenodd"/>
</svg>
