<svg width="72.000000" height="72.000000" viewBox="0 0 72 72" fill="none" xmlns="http://www.w3.org/2000/svg" xmlns:xlink="http://www.w3.org/1999/xlink">
	<desc>
			Created with Pixso.
	</desc>
	<defs>
		<linearGradient x1="36.000000" y1="0.000000" x2="36.000000" y2="72.000000" id="paint_linear_3_454_0" gradientUnits="userSpaceOnUse">
			<stop stop-color="#9567B0"/>
			<stop offset="1.000000" stop-color="#DC8887"/>
		</linearGradient>
	</defs>
	<rect id="icon/1" width="72.000000" height="72.000000" fill="#FFFFFF" fill-opacity="0"/>
	<path id="Vector" d="M59.33 23.27C59.33 23.57 59.32 23.86 59.31 24.16C60.2 24.82 61.05 25.56 61.86 26.37C63.64 28.17 65.08 30.18 66.17 32.33C66.75 30.28 67.04 28.17 67.04 26.06C67.04 24.12 66.79 22.18 66.3 20.29C63.9 17.3 60.76 14.93 57.16 13.45C58.55 16.43 59.33 19.76 59.33 23.27ZM59.26 25.01C58.97 28.93 57.71 32.59 55.7 35.74C57.18 38.1 58.26 40.74 58.84 43.57C59.38 43.12 59.91 42.64 60.41 42.13C62.97 39.56 64.79 36.53 65.86 33.31C64.78 30.98 63.28 28.79 61.36 26.87C60.69 26.2 59.99 25.58 59.26 25.01ZM55.27 36.38C53.81 38.53 51.98 40.42 49.9 41.96C49.95 42.61 49.98 43.25 49.98 43.9C49.98 45.34 49.85 46.77 49.58 48.19C52.66 47.47 55.61 46.09 58.23 44.06C57.7 41.29 56.69 38.7 55.27 36.38ZM49.23 42.44C47.78 43.44 46.2 44.28 44.54 44.93C43.88 46.26 43.09 47.51 42.2 48.68C44.41 48.9 46.65 48.79 48.84 48.35C49.13 46.88 49.28 45.39 49.28 43.9C49.28 43.41 49.26 42.93 49.23 42.44ZM43.56 45.29C41.51 45.99 39.34 46.42 37.08 46.52C36.64 46.71 36.2 46.9 35.75 47.06C37.57 47.82 39.46 48.32 41.38 48.58C42.2 47.56 42.93 46.46 43.56 45.29ZM35.16 46.53C34.94 46.52 34.72 46.51 34.5 46.5C34.61 46.55 34.71 46.6 34.82 46.65C34.93 46.61 35.05 46.57 35.16 46.53ZM32.67 46.31C31.21 46.1 29.79 45.76 28.43 45.29C28.89 46.13 29.39 46.94 29.95 47.71C31.26 47.57 32.56 47.32 33.84 46.95C33.45 46.75 33.05 46.54 32.67 46.31ZM27.45 44.93C25.78 44.28 24.2 43.43 22.74 42.43C22.74 42.6 22.74 42.77 22.74 42.94C22.74 44.44 22.88 45.93 23.17 47.39C25.14 47.79 27.14 47.91 29.13 47.78C28.51 46.87 27.95 45.92 27.45 44.93ZM22.06 41.94C19.99 40.4 18.18 38.52 16.72 36.38C15.45 38.47 14.5 40.77 13.94 43.22C16.52 45.19 19.41 46.52 22.43 47.23C22.17 45.82 22.04 44.38 22.04 42.94C22.04 42.61 22.05 42.27 22.06 41.94ZM16.29 35.74C14.44 32.84 13.22 29.5 12.81 25.91C12.06 26.5 11.34 27.14 10.65 27.83C8.96 29.52 7.59 31.42 6.55 33.45C7.65 36.26 9.34 38.9 11.6 41.17C12.16 41.73 12.74 42.25 13.33 42.74C13.94 40.23 14.95 37.87 16.29 35.74ZM12.73 25.09C12.69 24.49 12.66 23.88 12.66 23.27C12.66 19.76 13.44 16.43 14.83 13.45C11.09 14.98 7.84 17.49 5.41 20.64C5.12 22.11 4.97 23.61 4.97 25.1C4.97 27.63 5.39 30.15 6.23 32.57C7.26 30.69 8.57 28.92 10.16 27.33C10.97 26.51 11.83 25.76 12.73 25.09ZM15.3 12.51C17.56 8.19 21.15 4.66 25.53 2.46C20.45 2.93 15.49 5.12 11.6 9.03C8.72 11.92 6.78 15.4 5.78 19.09C8.33 16.17 11.59 13.89 15.3 12.51ZM27.29 1.67C29.98 0.59 32.92 0 36 0C40 0 43.76 1 47.06 2.77C52.12 3.35 57.03 5.58 60.91 9.48C63.9 12.5 65.92 16.12 66.94 19.96C70.11 23.96 72 29 72 34.49C72 39.12 70.65 43.43 68.33 47.07C67.52 51.63 65.37 55.99 61.86 59.52C59.07 62.32 55.75 64.26 52.23 65.35C48.03 69.46 42.3 72 36 72C30.42 72 25.29 70.01 21.28 66.71C17.2 65.74 13.33 63.67 10.16 60.47C6.34 56.64 4.12 51.81 3.5 46.82C1.28 43.24 0 39.01 0 34.49C0 29.17 1.77 24.27 4.76 20.34C5.65 16.01 7.77 11.89 11.11 8.53C15.58 4.03 21.43 1.74 27.29 1.67ZM48.68 3.73C52.05 5.91 54.82 8.94 56.69 12.51C60.2 13.81 63.32 15.93 65.8 18.63C64.72 15.47 62.92 12.5 60.41 9.98C57.08 6.64 52.98 4.55 48.68 3.73ZM13.36 23.27C13.36 23.72 13.37 24.17 13.4 24.61C15.93 22.85 18.73 21.65 21.63 21.01C22.34 17.76 23.74 14.63 25.84 11.87C25.07 11.79 24.29 11.75 23.5 11.75C20.79 11.75 18.2 12.22 15.79 13.08C14.24 16.14 13.36 19.6 13.36 23.27ZM13.46 25.42C13.8 28.94 14.94 32.23 16.71 35.09C18.02 33.15 19.6 31.42 21.41 29.96C21.19 28.67 21.09 27.36 21.09 26.06C21.09 24.62 21.22 23.18 21.48 21.77C18.65 22.43 15.92 23.65 13.46 25.42ZM17.12 35.74C18.48 37.78 20.17 39.6 22.11 41.1C22.25 39.29 22.6 37.48 23.16 35.74C22.44 34.13 21.9 32.45 21.56 30.75C19.85 32.18 18.35 33.86 17.12 35.74ZM22.78 41.6C24.09 42.54 25.51 43.35 27.01 44C26.44 42.71 25.98 41.37 25.64 39.97C24.87 38.92 24.19 37.82 23.61 36.67C23.15 38.29 22.87 39.94 22.78 41.6ZM27.97 44.38C28.99 44.77 30.04 45.08 31.13 45.32C30 44.54 28.92 43.64 27.92 42.63C27.52 42.22 27.13 41.81 26.77 41.38C27.1 42.42 27.5 43.42 27.97 44.38ZM32.91 45.64C33.92 45.77 34.95 45.85 36 45.85C36.3 45.85 36.6 45.84 36.9 45.83C39.33 44.73 41.61 43.18 43.6 41.17C44.47 40.3 45.26 39.37 45.95 38.4C46.17 37.13 46.29 35.82 46.29 34.49C46.29 33.8 46.26 33.12 46.2 32.45C45.24 30.8 44.06 29.24 42.65 27.83C41.97 27.15 41.26 26.52 40.53 25.94C39.06 25.64 37.55 25.48 36 25.48C33.9 25.48 31.87 25.77 29.94 26.31C29.75 26.5 29.55 26.68 29.37 26.87C28.01 28.23 26.86 29.73 25.92 31.31C25.78 32.35 25.7 33.41 25.7 34.49C25.7 36.27 25.91 38.01 26.3 39.68C26.93 40.53 27.64 41.35 28.41 42.13C29.79 43.52 31.31 44.68 32.91 45.64ZM38.78 45.68C40.6 45.45 42.36 45.01 44.02 44.38C44.7 42.99 45.24 41.52 45.62 39.98C45.14 40.56 44.64 41.13 44.1 41.67C42.48 43.29 40.68 44.63 38.78 45.68ZM44.98 44C46.46 43.36 47.87 42.56 49.16 41.63C48.99 39.87 48.61 38.12 48.03 36.43C47.6 37.2 47.14 37.95 46.62 38.67C46.29 40.53 45.73 42.32 44.98 44ZM49.82 41.15C51.78 39.64 53.49 37.81 54.87 35.74C53.6 33.81 52.05 32.08 50.28 30.62C49.87 32.32 49.26 33.99 48.47 35.59C49.14 37.39 49.59 39.26 49.82 41.15ZM55.28 35.09C57.2 31.98 58.39 28.37 58.6 24.5C56.13 22.71 53.38 21.48 50.54 20.81C50.8 22.23 50.93 23.66 50.93 25.1C50.93 26.69 50.77 28.28 50.45 29.85C52.31 31.34 53.94 33.11 55.28 35.09ZM58.63 23.66C58.63 23.53 58.63 23.4 58.63 23.27C58.63 19.6 57.75 16.14 56.2 13.08C53.79 12.22 51.2 11.75 48.5 11.75C47.93 11.75 47.37 11.77 46.82 11.81C48.56 14.35 49.75 17.15 50.38 20.06C53.29 20.7 56.09 21.9 58.63 23.66ZM55.71 12.17C53.63 8.51 50.56 5.48 46.85 3.46C43.95 3.14 41 3.39 38.17 4.2C40.31 5.29 42.31 6.73 44.1 8.53C44.92 9.36 45.67 10.23 46.34 11.14C47.05 11.08 47.77 11.05 48.5 11.05C51.01 11.05 53.44 11.44 55.71 12.17ZM45.19 2.63C42.38 1.39 39.27 0.69 36 0.69C33.64 0.69 31.36 1.05 29.22 1.72C31.97 1.91 34.69 2.59 37.24 3.75C39.82 2.92 42.51 2.54 45.19 2.63ZM27.42 2.37C22.7 4.3 18.77 7.78 16.28 12.17C18.55 11.44 20.98 11.05 23.5 11.05C24.46 11.05 25.42 11.1 26.36 11.22C26.84 10.62 27.36 10.04 27.92 9.48C30.36 7.03 33.22 5.23 36.26 4.09C33.44 2.92 30.43 2.34 27.42 2.37ZM34.78 47.4C33.36 47.86 31.9 48.18 30.43 48.36C31.99 50.37 33.87 52.11 36 53.51C37.82 52.31 39.45 50.87 40.86 49.22C38.78 48.9 36.73 48.29 34.78 47.4ZM29.61 48.45C27.52 48.63 25.41 48.53 23.33 48.14C24.06 51.25 25.44 54.24 27.48 56.88C30.32 56.38 32.97 55.36 35.34 53.92C33.14 52.43 31.2 50.58 29.61 48.45ZM22.58 47.99C19.46 47.3 16.46 45.97 13.78 43.98C13.51 45.41 13.36 46.88 13.36 48.39C13.36 50.82 13.74 53.16 14.43 55.36C17.21 56.56 20.27 57.23 23.5 57.23C24.58 57.23 25.65 57.15 26.7 57C24.65 54.27 23.28 51.19 22.58 47.99ZM13.16 43.51C12.45 42.94 11.76 42.33 11.11 41.67C8.93 39.48 7.27 36.97 6.14 34.29C4.73 37.33 4.02 40.61 4.02 43.9C4.02 44.79 4.08 45.68 4.18 46.57C6.45 50.18 9.71 53.1 13.58 54.97C12.98 52.88 12.66 50.67 12.66 48.39C12.66 46.71 12.83 45.08 13.16 43.51ZM5.78 33.41C4.78 30.74 4.28 27.92 4.28 25.1C4.28 24.04 4.35 22.98 4.49 21.93C2.09 25.53 0.7 29.85 0.7 34.49C0.7 38.34 1.66 41.97 3.36 45.15C3.33 44.73 3.32 44.32 3.32 43.9C3.32 40.3 4.14 36.7 5.78 33.41ZM46.86 37.05C47.16 36.56 47.44 36.06 47.7 35.55C47.49 35 47.25 34.46 46.99 33.93C46.99 34.11 47 34.3 47 34.49C47 35.35 46.95 36.21 46.86 37.05ZM48.11 34.71C48.8 33.23 49.32 31.7 49.67 30.13C48.54 29.27 47.32 28.5 46.04 27.86C46.46 29.27 46.74 30.73 46.89 32.24C47.35 33.04 47.76 33.87 48.11 34.71ZM49.83 29.37C50.09 27.96 50.23 26.53 50.23 25.1C50.23 23.61 50.08 22.12 49.79 20.65C47.32 20.16 44.79 20.08 42.3 20.42C43.77 22.38 44.94 24.57 45.75 26.93C47.19 27.6 48.56 28.42 49.83 29.37ZM49.63 19.9C48.97 17.07 47.77 14.34 46.01 11.88C42.61 12.25 39.43 13.36 36.65 15.06C38.59 16.37 40.33 17.97 41.8 19.78C44.39 19.38 47.05 19.42 49.63 19.9ZM45.53 11.23C44.94 10.46 44.3 9.73 43.6 9.03C41.69 7.1 39.51 5.6 37.2 4.51C33.99 5.59 30.97 7.41 28.41 9.98C27.98 10.42 27.56 10.87 27.17 11.33C30.37 11.83 33.36 12.98 36 14.63C38.82 12.86 42.06 11.67 45.53 11.23ZM60.91 42.63C60.29 43.24 59.65 43.82 58.99 44.35C59.21 45.66 59.33 47.01 59.33 48.39C59.33 50.67 59.01 52.88 58.41 54.97C62.2 53.14 65.4 50.3 67.67 46.8C67.88 45.52 67.99 44.23 67.99 42.94C67.99 39.98 67.42 37.02 66.27 34.24C65.14 37.3 63.35 40.17 60.91 42.63ZM58.36 44.84C55.65 46.88 52.6 48.25 49.43 48.94C48.81 51.81 47.64 54.58 45.94 57.09C46.78 57.18 47.63 57.23 48.5 57.23C51.72 57.23 54.78 56.56 57.56 55.36C58.25 53.16 58.63 50.82 58.63 48.39C58.63 47.18 58.54 46 58.36 44.84ZM48.68 49.1C46.37 49.53 44.01 49.6 41.69 49.33C40.24 51.09 38.54 52.64 36.65 53.92C39.2 55.47 42.08 56.53 45.16 56.98C46.86 54.56 48.03 51.88 48.68 49.1ZM67.33 21.68C67.6 23.12 67.74 24.59 67.74 26.06C67.74 28.49 67.36 30.92 66.61 33.26C68 36.33 68.69 39.64 68.69 42.94C68.69 43.72 68.65 44.49 68.58 45.26C70.31 42.05 71.29 38.38 71.29 34.49C71.29 29.74 69.83 25.32 67.33 21.68ZM26.65 11.97C24.54 14.64 23.12 17.69 22.38 20.86C24.74 20.42 27.15 20.35 29.53 20.64C31.13 18.47 33.1 16.57 35.34 15.06C32.74 13.48 29.8 12.4 26.65 11.97ZM22.22 21.61C21.93 23.07 21.79 24.56 21.79 26.06C21.79 27.19 21.87 28.33 22.04 29.46C23.34 28.48 24.75 27.63 26.24 26.93C26.93 24.92 27.89 23.02 29.07 21.3C26.79 21.05 24.48 21.16 22.22 21.61ZM22.17 30.25C22.46 31.78 22.9 33.29 23.5 34.76C23.97 33.49 24.55 32.26 25.24 31.08C25.4 29.98 25.64 28.9 25.95 27.86C24.61 28.53 23.35 29.33 22.17 30.25ZM23.91 35.69C24.32 36.56 24.77 37.4 25.29 38.22C25.1 37 25 35.76 25 34.49C25 33.96 25.01 33.44 25.05 32.93C24.61 33.83 24.23 34.75 23.91 35.69ZM36 54.34C33.58 55.86 30.88 56.94 27.98 57.5C28.42 58.02 28.88 58.53 29.36 59.02C31.63 61.29 34.25 62.98 37.05 64.09C39.07 63.05 40.96 61.67 42.65 59.97C43.39 59.23 44.07 58.44 44.69 57.62C41.54 57.11 38.59 55.97 36 54.34ZM27.19 57.64C25.99 57.83 24.75 57.93 23.5 57.93C20.4 57.93 17.44 57.33 14.73 56.25C16.13 60.11 18.52 63.49 21.61 66.06C26.47 67.18 31.63 66.66 36.21 64.51C33.55 63.37 31.05 61.7 28.87 59.52C28.27 58.91 27.71 58.29 27.19 57.64ZM13.86 55.88C10.08 54.18 6.83 51.51 4.43 48.19C5.25 52.51 7.32 56.63 10.65 59.97C13.38 62.72 16.64 64.61 20.09 65.66C17.27 63.01 15.11 59.65 13.86 55.88ZM48.5 57.93C47.47 57.93 46.47 57.86 45.48 57.74C44.78 58.69 44 59.61 43.14 60.47C41.56 62.07 39.8 63.38 37.93 64.42C42.42 65.99 47.31 66.09 51.85 64.73C54.23 62.36 56.09 59.47 57.26 56.25C54.55 57.33 51.59 57.93 48.5 57.93ZM67.29 48.56C64.92 51.71 61.77 54.24 58.13 55.88C57.09 59.01 55.43 61.85 53.28 64.25C56.23 63.14 58.99 61.4 61.36 59.02C64.35 56.02 66.33 52.39 67.29 48.56ZM45.99 30.79C45.8 29.65 45.53 28.53 45.18 27.45C44.18 27 43.14 26.62 42.07 26.32C42.44 26.64 42.8 26.98 43.14 27.33C44.22 28.41 45.17 29.57 45.99 30.79ZM44.86 26.54C44.04 24.36 42.91 22.35 41.5 20.54C39.55 20.88 37.63 21.48 35.8 22.34C37.56 23.09 39.25 24.07 40.82 25.28C42.22 25.58 43.57 26 44.86 26.54ZM41 19.92C39.56 18.2 37.88 16.7 36 15.47C33.82 16.9 31.9 18.69 30.32 20.76C31.89 21.01 33.43 21.41 34.92 21.98C36.86 21.01 38.91 20.32 41 19.92ZM29.85 21.4C28.74 22.98 27.82 24.7 27.13 26.54C27.93 26.21 28.75 25.92 29.6 25.68C30.99 24.39 32.49 23.31 34.08 22.43C32.7 21.94 31.29 21.6 29.85 21.4ZM26.81 27.45C26.59 28.12 26.41 28.81 26.25 29.51C26.91 28.56 27.66 27.64 28.48 26.78C27.91 26.98 27.36 27.2 26.81 27.45ZM50.75 65.75C46.24 66.82 41.47 66.53 37.09 64.86C32.65 67.1 27.64 67.82 22.84 67.02C26.55 69.71 31.09 71.29 36 71.29C41.63 71.29 46.79 69.2 50.75 65.75ZM34.96 22.75C33.61 23.45 32.32 24.3 31.1 25.3C32.68 24.96 34.32 24.78 36 24.78C37.09 24.78 38.17 24.85 39.23 25C37.87 24.09 36.44 23.34 34.96 22.75Z" fill="url(#paint_linear_3_454_0)" fill-opacity="1.000000" fill-rule="evenodd"/>
</svg>
