<svg width="72.000000" height="72.000000" viewBox="0 0 72 72" fill="none" xmlns="http://www.w3.org/2000/svg" xmlns:xlink="http://www.w3.org/1999/xlink">
	<desc>
			Created with Pixso.
	</desc>
	<defs>
		<linearGradient x1="36.000000" y1="0.000000" x2="36.000000" y2="72.000000" id="paint_linear_3_1982_0" gradientUnits="userSpaceOnUse">
			<stop stop-color="#9567B0"/>
			<stop offset="1.000000" stop-color="#DC8887"/>
		</linearGradient>
	</defs>
	<path id="Vector" d="M41.51 41.51Q40.37 42.65 38.99 43.22L38.99 43.22Q37.61 43.79 36 43.79Q34.38 43.79 33 43.22L33 43.22Q32.92 43.19 32.83 43.15Q31.55 42.58 30.48 41.51Q30.34 41.37 30.21 41.22Q29.27 40.19 28.77 38.99Q28.7 38.82 28.64 38.64Q28.2 37.42 28.2 36.01L28.2 35.98Q28.2 35.89 28.2 35.79Q28.23 34.29 28.77 33Q29.34 31.62 30.48 30.48L30.49 30.48Q30.63 30.34 30.77 30.21Q31.8 29.27 33 28.77Q34.38 28.2 35.99 28.2L36 28.2Q36.1 28.2 36.2 28.2Q37.7 28.23 38.99 28.77Q39.07 28.8 39.16 28.84Q40.43 29.41 41.5 30.47L41.51 30.48L41.52 30.49Q42.65 31.63 43.22 33L43.22 33Q43.29 33.17 43.35 33.35Q43.79 34.58 43.79 35.99L43.79 36L43.79 36Q43.79 36.1 43.79 36.2Q43.76 37.7 43.22 38.99Q42.65 40.37 41.51 41.51ZM43.79 40.64L42.22 42.22L40.64 43.79L43.79 43.79L43.79 40.64ZM43.79 44.79L39.64 44.79L36.7 47.73L43.79 54.82L43.79 44.79ZM44.79 55.82L44.79 44.79L55.82 44.79L58.73 47.71L53.83 50.46Q52.75 51.06 51.91 51.91Q51.06 52.75 50.46 53.83L47.71 58.73L44.79 55.82ZM43.79 56.23L36 48.44L28.2 56.23L28.2 60.36L33.61 58.83Q34.8 58.5 36 58.5Q37.19 58.5 38.38 58.83L43.79 60.36L43.79 56.23ZM44.79 60.64L44.79 57.23L47.2 59.64L46.39 61.09L44.79 60.64ZM43.79 61.4L38.11 59.79Q37.05 59.5 36 59.5Q34.94 59.5 33.88 59.79L28.2 61.39L28.2 63.68Q28.2 65.13 28.54 66.32L29.19 67.5Q30.05 69.02 31.14 69.97Q32.34 70.79 34.03 71.23Q35.06 71.5 36 71.55Q36.93 71.5 37.97 71.23Q39.65 70.79 40.85 69.97Q41.94 69.02 42.8 67.5L43.45 66.32Q43.79 65.13 43.79 63.68L43.79 61.4ZM44.79 63.94Q44.79 63.81 44.79 63.68L44.79 61.68L45.89 61.98L44.79 63.94ZM44.71 65.1L43.64 67.01C43.15 68.18 42.39 69.18 41.48 69.96C39.91 71.37 37.94 72.02 36 71.99C34.05 72.02 32.08 71.37 30.51 69.96C29.6 69.18 28.84 68.18 28.35 67.01L27.28 65.1L25.61 62.12L25.36 61.68L24.86 61.81L21.58 62.74L19.47 63.33C18.29 63.81 17.06 63.98 15.86 63.89C13.75 63.78 11.9 62.84 10.54 61.45C9.15 60.09 8.21 58.25 8.1 56.13C8.09 55.92 8.08 55.7 8.08 55.49C8.08 54.5 8.26 53.49 8.66 52.52L9.25 50.41L10.17 47.13L10.31 46.63L9.87 46.38L6.89 44.71L4.98 43.64C3.8 43.15 2.81 42.39 2.03 41.48C0.64 39.93 0 38.01 0 36.09C0 36.06 0 36.03 0 36C0 35.96 0 35.93 0 35.9C0 33.98 0.64 32.06 2.03 30.51C2.81 29.6 3.8 28.84 4.98 28.35L6.89 27.28L9.87 25.61L10.31 25.36L10.17 24.86L9.25 21.58L8.66 19.47C8.26 18.5 8.08 17.49 8.08 16.5C8.08 16.29 8.09 16.07 8.1 15.86C8.21 13.75 9.15 11.9 10.54 10.54C11.9 9.15 13.75 8.21 15.86 8.1C17.06 8.01 18.29 8.18 19.47 8.66L21.58 9.25L24.86 10.18L25.36 10.31L25.61 9.87L27.28 6.89L28.35 4.98C28.84 3.81 29.6 2.81 30.51 2.03C32.08 0.62 34.05 -0.03 36 0C37.94 -0.03 39.91 0.62 41.48 2.03C42.39 2.81 43.15 3.81 43.64 4.98L44.71 6.89L46.38 9.87L46.63 10.31L47.13 10.18L50.41 9.25L52.52 8.66C53.7 8.18 54.93 8.01 56.13 8.1C58.25 8.21 60.09 9.15 61.45 10.54C62.84 11.9 63.78 13.74 63.89 15.86C63.9 16.07 63.91 16.29 63.91 16.5C63.91 17.49 63.73 18.5 63.33 19.47L62.74 21.58L61.82 24.86L61.68 25.36L62.12 25.61L65.1 27.28L67.01 28.35C68.19 28.84 69.18 29.6 69.96 30.51C71.35 32.06 72 33.98 72 35.9C72 35.93 71.99 35.96 71.99 36C71.99 36.03 72 36.06 72 36.09C72 38.01 71.35 39.93 69.96 41.48C69.18 42.39 68.19 43.15 67.01 43.64L65.1 44.71L62.12 46.38L61.68 46.63L61.82 47.13L62.74 50.41L63.33 52.52C63.73 53.49 63.91 54.5 63.91 55.49C63.91 55.7 63.9 55.92 63.89 56.13C63.78 58.25 62.84 60.09 61.45 61.45C60.09 62.84 58.24 63.78 56.13 63.89C54.93 63.98 53.7 63.81 52.52 63.33L50.41 62.74L47.13 61.81L46.63 61.68L46.38 62.12L44.71 65.1ZM47.38 61.37L49.54 61.97Q49.45 61.89 49.35 61.79L47.93 60.37L47.38 61.37ZM48.44 59.47L50.06 61.09Q51.09 62.11 52.17 62.71L53.46 63.08Q55.14 63.55 56.59 63.45Q58.01 63.18 59.52 62.3Q60.43 61.76 61.14 61.14Q61.76 60.43 62.3 59.52Q63.18 58.01 63.45 56.59Q63.55 55.14 63.08 53.46L62.71 52.17Q62.11 51.09 61.09 50.06L59.47 48.44L54.32 51.33Q53.36 51.87 52.61 52.61Q51.87 53.36 51.33 54.32L48.44 59.47ZM60.38 47.93L61.79 49.35Q61.89 49.45 61.97 49.54L61.37 47.38L60.38 47.93ZM61.98 45.89L63.94 44.79Q63.81 44.79 63.68 44.79L61.68 44.79L61.98 45.89ZM60.64 44.79L61.09 46.39L59.64 47.2L57.23 44.79L60.64 44.79ZM61.4 43.79L63.68 43.79Q65.13 43.79 66.32 43.45L67.5 42.8Q69.02 41.94 69.97 40.85Q70.79 39.65 71.23 37.97Q71.5 36.93 71.55 36Q71.5 35.06 71.23 34.02Q70.79 32.34 69.97 31.14Q69.02 30.05 67.5 29.19L66.32 28.54Q65.13 28.2 63.68 28.2L61.4 28.2L59.79 33.88Q59.5 34.94 59.5 36Q59.5 37.05 59.79 38.11L61.4 43.79ZM60.36 28.2L58.83 33.61Q58.5 34.8 58.5 36Q58.5 37.19 58.83 38.38L60.36 43.79L56.23 43.79L48.44 36L56.23 28.2L60.36 28.2ZM61.68 27.2L63.68 27.2Q63.81 27.2 63.94 27.2L61.98 26.1L61.68 27.2ZM61.09 25.6L60.64 27.2L57.23 27.2L59.64 24.79L61.09 25.6ZM61.37 24.61L61.97 22.45Q61.89 22.54 61.79 22.64L60.38 24.06L61.37 24.61ZM59.47 23.55L61.09 21.93Q62.11 20.9 62.71 19.82L63.08 18.53Q63.55 16.85 63.45 15.4Q63.18 13.98 62.3 12.47Q61.76 11.56 61.14 10.85Q60.43 10.23 59.52 9.69Q58.01 8.81 56.59 8.54Q55.14 8.44 53.46 8.91L52.17 9.28Q51.09 9.88 50.06 10.9L48.44 12.52L51.33 17.67Q51.87 18.63 52.61 19.38Q53.36 20.12 54.32 20.66L59.47 23.55ZM47.93 11.62L49.35 10.2Q49.45 10.1 49.54 10.02L47.38 10.62L47.93 11.62ZM46.39 10.9L47.2 12.35L44.79 14.76L44.79 11.35L46.39 10.9ZM45.89 10.01L44.79 8.05Q44.79 8.18 44.79 8.31L44.79 10.31L45.89 10.01ZM43.79 10.6L38.11 12.2Q37.05 12.49 36 12.49Q34.94 12.49 33.88 12.2L28.2 10.6L28.2 8.31Q28.2 6.86 28.54 5.67L29.19 4.49Q30.05 2.97 31.14 2.02Q32.34 1.2 34.03 0.76Q35.06 0.49 36 0.44Q36.93 0.49 37.97 0.76Q39.65 1.2 40.85 2.02Q41.94 2.97 42.8 4.49L43.45 5.67Q43.79 6.86 43.79 8.31L43.79 10.6ZM43.79 11.63L38.38 13.16Q37.19 13.49 35.99 13.49Q34.8 13.49 33.61 13.16L28.2 11.63L28.2 15.76L36 23.55L43.79 15.76L43.79 11.63ZM43.79 17.17L36.7 24.26L39.64 27.2L43.79 27.2L43.79 17.17ZM44.79 16.17L47.71 13.26L50.46 18.16Q51.06 19.24 51.91 20.08Q52.75 20.93 53.83 21.53L58.73 24.28L55.82 27.2L44.79 27.2L44.79 16.17ZM43.79 28.2L40.64 28.2L42.2 29.76L42.22 29.77L43.79 31.35L43.79 28.2ZM44.79 32.35L44.79 28.2L54.82 28.2L47.73 35.29L44.79 32.35ZM44.79 33.77L47.02 36L44.79 38.22L44.79 33.77ZM44.79 39.64L44.79 43.79L54.82 43.79L47.73 36.7L44.79 39.64ZM38.22 27.2L36 24.97L33.77 27.2L38.22 27.2ZM32.35 27.2L35.29 24.26L28.2 17.17L28.2 27.2L32.35 27.2ZM28.2 28.2L31.35 28.2L28.2 31.35L28.2 28.2ZM27.2 27.2L27.2 16.17L24.28 13.26L21.53 18.16Q20.93 19.24 20.08 20.08Q19.24 20.93 18.16 21.53L13.26 24.28L16.17 27.2L27.2 27.2ZM17.17 28.2L27.2 28.2L27.2 32.35L24.26 35.29L17.17 28.2ZM14.76 27.2L12.35 24.79L10.9 25.6L11.35 27.2L14.76 27.2ZM11.63 28.2L15.76 28.2L23.55 36L15.76 43.79L11.63 43.79L13.16 38.38Q13.49 37.19 13.49 36Q13.49 34.8 13.16 33.61L11.63 28.2ZM10.31 27.2L10.01 26.1L8.05 27.2Q8.18 27.2 8.31 27.2L10.31 27.2ZM5.67 28.54Q6.86 28.2 8.31 28.2L10.59 28.2L12.2 33.88Q12.49 34.94 12.49 36Q12.49 37.05 12.2 38.11L10.59 43.79L8.31 43.79Q6.86 43.79 5.67 43.45L4.49 42.8Q2.97 41.94 2.02 40.85Q1.2 39.65 0.76 37.97Q0.49 36.93 0.44 36Q0.49 35.06 0.76 34.02Q1.2 32.34 2.02 31.14Q2.97 30.05 4.49 29.19L5.67 28.54ZM8.05 44.79L10.01 45.89L10.31 44.79L8.31 44.79Q8.18 44.79 8.05 44.79ZM11.35 44.79L10.9 46.39L12.35 47.2L14.76 44.79L11.35 44.79ZM16.17 44.79L13.26 47.71L18.16 50.46Q19.24 51.06 20.08 51.91Q20.93 52.75 21.53 53.83L24.28 58.73L27.2 55.82L27.2 44.79L16.17 44.79ZM28.2 44.79L28.2 54.82L35.29 47.73L32.35 44.79L28.2 44.79ZM31.35 43.79L28.2 43.79L28.2 40.64L29.77 42.22L31.35 43.79ZM33.77 44.79L36 47.02L38.22 44.79L33.77 44.79ZM27.2 36.01L27.2 33.77L24.97 36L27.2 38.22L27.2 36.01ZM27.2 39.64L27.2 43.79L17.17 43.79L24.26 36.7L27.2 39.64ZM27.2 57.23L24.79 59.64L25.6 61.09L27.2 60.64L27.2 57.23ZM27.2 61.68L26.1 61.98L27.2 63.94Q27.2 63.81 27.2 63.68L27.2 61.68ZM24.61 61.37L24.06 60.37L22.64 61.79Q22.54 61.89 22.45 61.97L24.61 61.37ZM19.82 62.71Q20.9 62.11 21.93 61.09L23.55 59.47L20.66 54.32Q20.12 53.36 19.38 52.61Q18.63 51.87 17.67 51.33L12.52 48.44L10.9 50.06Q9.88 51.09 9.28 52.17L8.91 53.46Q8.44 55.14 8.54 56.59Q8.81 58.01 9.69 59.52Q10.23 60.43 10.85 61.14Q11.56 61.76 12.47 62.3Q13.98 63.18 15.4 63.45Q16.85 63.55 18.53 63.08L19.82 62.71ZM10.02 49.54Q10.1 49.45 10.2 49.35L11.61 47.93L10.62 47.38L10.02 49.54ZM10.62 24.61L11.61 24.06L10.2 22.64Q10.1 22.54 10.02 22.45L10.62 24.61ZM9.28 19.82Q9.88 20.9 10.9 21.93L12.52 23.55L17.67 20.66Q18.63 20.12 19.38 19.38Q20.12 18.63 20.66 17.67L23.55 12.52L21.93 10.9Q20.9 9.88 19.82 9.28L18.53 8.91Q16.85 8.44 15.4 8.54Q13.98 8.81 12.47 9.69Q11.56 10.23 10.85 10.85Q10.23 11.56 9.69 12.47Q8.81 13.98 8.54 15.4Q8.44 16.85 8.91 18.53L9.28 19.82ZM22.45 10.02Q22.54 10.1 22.64 10.2L24.06 11.62L24.61 10.62L22.45 10.02ZM25.6 10.9L24.79 12.35L27.2 14.76L27.2 11.35L25.6 10.9ZM27.2 10.31L27.2 8.31Q27.2 8.18 27.2 8.05L26.1 10.01L27.2 10.31Z" fill="url(#paint_linear_3_1982_0)" fill-opacity="1.000000" fill-rule="evenodd"/>
</svg>
