<svg width="48.000000" height="48.000000" viewBox="0 0 48 48" fill="none" xmlns="http://www.w3.org/2000/svg" xmlns:xlink="http://www.w3.org/1999/xlink">
	<desc>
			Created with Pixso.
	</desc>
	<defs>
		<clipPath id="clip3_1140">
			<rect id="icon/it" rx="23.500000" width="47.000000" height="47.000000" transform="translate(0.500000 0.500000)" fill="white" fill-opacity="0"/>
		</clipPath>
	</defs>
	<rect id="icon/it" rx="23.500000" width="47.000000" height="47.000000" transform="translate(0.500000 0.500000)" fill="#FFFFFF" fill-opacity="0"/>
	<g clip-path="url(#clip3_1140)">
		<path id="Vector" d="M26.68 14.03C26.91 14.09 27.11 14.24 27.24 14.46C27.36 14.67 27.39 14.92 27.33 15.15L22.44 33.31C22.38 33.55 22.23 33.75 22.01 33.87C21.8 33.99 21.55 34.03 21.31 33.96C21.08 33.9 20.87 33.75 20.75 33.54C20.63 33.32 20.6 33.07 20.66 32.84L25.55 14.68C25.58 14.56 25.63 14.45 25.71 14.35C25.78 14.26 25.87 14.18 25.98 14.12C26.08 14.06 26.2 14.02 26.32 14C26.44 13.99 26.56 14 26.68 14.03L26.68 14.03ZM29.46 17.77C29.62 17.58 29.85 17.48 30.09 17.46C30.34 17.45 30.58 17.53 30.76 17.7L32.9 19.61C33.8 20.42 34.55 21.1 35.07 21.71C35.61 22.35 36 23.04 36 23.89C36 24.74 35.61 25.43 35.07 26.07C34.55 26.68 33.8 27.36 32.9 28.17L30.76 30.08C30.58 30.25 30.34 30.33 30.09 30.32C29.85 30.31 29.62 30.2 29.46 30.02C29.29 29.84 29.21 29.6 29.22 29.35C29.23 29.11 29.34 28.88 29.53 28.72L31.61 26.85C32.58 25.98 33.23 25.39 33.66 24.89C34.06 24.41 34.15 24.13 34.15 23.89C34.15 23.65 34.06 23.37 33.66 22.89C33.23 22.39 32.58 21.8 31.61 20.93L29.53 19.06C29.44 18.98 29.36 18.88 29.31 18.78C29.26 18.67 29.23 18.55 29.22 18.43C29.21 18.31 29.23 18.19 29.27 18.07C29.31 17.96 29.38 17.85 29.46 17.76L29.46 17.77ZM18.46 19.06C18.65 18.9 18.76 18.67 18.77 18.43C18.78 18.18 18.7 17.95 18.53 17.76C18.37 17.58 18.14 17.47 17.9 17.46C17.65 17.45 17.41 17.53 17.23 17.7L15.09 19.61C14.19 20.42 13.44 21.1 12.92 21.71C12.38 22.35 12 23.04 12 23.89C12 24.74 12.38 25.43 12.92 26.07C13.44 26.68 14.19 27.36 15.09 28.17L17.23 30.08C17.41 30.25 17.65 30.33 17.9 30.32C18.14 30.31 18.37 30.2 18.53 30.02C18.7 29.84 18.78 29.6 18.77 29.35C18.76 29.11 18.65 28.88 18.46 28.72L16.38 26.85C15.41 25.98 14.76 25.39 14.33 24.89C13.93 24.41 13.84 24.13 13.84 23.89C13.84 23.65 13.93 23.37 14.33 22.89C14.76 22.39 15.41 21.8 16.38 20.93L18.46 19.06Z" fill="#8B57C2" fill-opacity="1.000000" fill-rule="nonzero"/>
	</g>
	<rect id="icon/it" rx="23.500000" width="47.000000" height="47.000000" transform="translate(0.500000 0.500000)" stroke="#8B57C2" stroke-opacity="1.000000" stroke-width="1.000000"/>
</svg>
