<svg width="16.000000" height="16.000000" viewBox="0 0 16 16" fill="none" xmlns="http://www.w3.org/2000/svg" xmlns:xlink="http://www.w3.org/1999/xlink">
	<desc>
			Created with Pixso.
	</desc>
	<defs/>
	<path id="Vector" d="M3.5 0C3.63 0 3.75 0.05 3.85 0.14C3.94 0.24 4 0.36 4 0.5L4 1L12 1L12 0.5C12 0.36 12.05 0.24 12.14 0.14C12.24 0.05 12.36 0 12.5 0C12.63 0 12.75 0.05 12.85 0.14C12.94 0.24 13 0.36 13 0.5L13 1L14 1C14.53 1 15.03 1.21 15.41 1.58C15.78 1.96 16 2.46 16 3L16 14C16 14.53 15.78 15.03 15.41 15.41C15.03 15.78 14.53 16 14 16L2 16C1.46 16 0.96 15.78 0.58 15.41C0.21 15.03 0 14.53 0 14L0 3C0 2.46 0.21 1.96 0.58 1.58C0.96 1.21 1.46 1 2 1L3 1L3 0.5C3 0.36 3.05 0.24 3.14 0.14C3.24 0.05 3.36 0 3.5 0ZM1 4L1 14C1 14.26 1.1 14.51 1.29 14.7C1.48 14.89 1.73 15 2 15L14 15C14.26 15 14.51 14.89 14.7 14.7C14.89 14.51 15 14.26 15 14L15 4L1 4Z" fill="#FFFFFF" fill-opacity="1.000000" fill-rule="nonzero"/>
</svg>
