<svg width="17.000000" height="17.000000" viewBox="0 0 17 17" fill="none" xmlns="http://www.w3.org/2000/svg" xmlns:xlink="http://www.w3.org/1999/xlink">
	<desc>
			Created with Pixso.
	</desc>
	<defs/>
	<path id="Vector" d="M16.5 8.5C16.5 4.08 12.91 0.5 8.5 0.5C4.08 0.5 0.5 4.08 0.5 8.5C0.5 12.91 4.08 16.5 8.5 16.5C12.91 16.5 16.5 12.91 16.5 8.5ZM8.5 16.5C10.68 16.5 11.4 12.86 11.4 8.5C11.4 4.13 10.68 0.5 8.5 0.5M8.5 0.5C6.31 0.5 5.59 4.13 5.59 8.5C5.59 12.86 6.31 16.5 8.5 16.5M1.22 11.4L15.77 11.4M1.22 5.59L15.77 5.59" stroke="#FFFFFF" stroke-opacity="1.000000" stroke-width="1.000000"/>
</svg>
