<svg width="14.000000" height="18.000000" viewBox="0 0 14 18" fill="none" xmlns="http://www.w3.org/2000/svg" xmlns:xlink="http://www.w3.org/1999/xlink">
	<desc>
			Created with Pixso.
	</desc>
	<defs/>
	<path id="Vector" d="M13.76 0.09C13.83 0.14 13.89 0.21 13.93 0.29C13.97 0.37 13.99 0.47 14 0.56L14 9C14 9.11 13.96 9.22 13.9 9.31C13.84 9.4 13.76 9.48 13.66 9.52L13.65 9.52L13.65 9.52L13.62 9.53C13.48 9.59 13.34 9.65 13.19 9.7C12.91 9.81 12.52 9.95 12.07 10.09C11.19 10.38 10.04 10.68 9.15 10.68C8.24 10.68 7.48 10.37 6.82 10.09L6.79 10.08C6.11 9.79 5.53 9.56 4.84 9.56C4.09 9.56 3.08 9.82 2.22 10.09C1.83 10.22 1.45 10.36 1.07 10.5L1.07 17.43C1.07 17.58 1.02 17.72 0.91 17.83C0.81 17.94 0.68 18 0.53 18C0.39 18 0.25 17.94 0.15 17.83C0.05 17.72 0 17.58 0 17.43L0 0.56C0 0.41 0.05 0.27 0.15 0.16C0.25 0.05 0.39 0 0.53 0C0.68 0 0.81 0.05 0.91 0.16C1.02 0.27 1.07 0.41 1.07 0.56L1.07 0.87C1.32 0.79 1.61 0.68 1.92 0.58C2.8 0.3 3.95 0 4.84 0C5.75 0 6.48 0.31 7.13 0.58L7.17 0.6C7.84 0.88 8.43 1.12 9.15 1.12C9.9 1.12 10.91 0.86 11.77 0.58C12.26 0.42 12.75 0.24 13.23 0.05L13.25 0.04L13.25 0.04L13.25 0.04L13.76 0.09ZM12.92 1.37C12.68 1.46 12.4 1.56 12.09 1.66C11.22 1.94 10.08 2.24 9.15 2.24C8.19 2.24 7.43 1.92 6.78 1.64L6.77 1.64C6.09 1.36 5.53 1.12 4.84 1.12C4.12 1.12 3.11 1.38 2.24 1.66C1.85 1.78 1.46 1.92 1.07 2.07L1.07 9.31C1.31 9.22 1.59 9.12 1.9 9.02C2.77 8.74 3.91 8.43 4.84 8.43C5.75 8.43 6.51 8.75 7.17 9.02L7.2 9.03C7.88 9.32 8.46 9.56 9.15 9.56C9.87 9.56 10.88 9.3 11.75 9.02C12.14 8.89 12.53 8.76 12.92 8.61L12.92 1.37L12.92 1.37Z" fill="#FFFFFF" fill-opacity="1.000000" fill-rule="nonzero"/>
</svg>
