<svg width="64.000000" height="64.000000" viewBox="0 0 64 64" fill="none" xmlns="http://www.w3.org/2000/svg" xmlns:xlink="http://www.w3.org/1999/xlink">
	<desc>
			Created with Pixso.
	</desc>
	<defs>
		<clipPath id="clip2_1134">
			<rect id="icon/3" width="36.000000" height="36.000000" transform="translate(14.000000 14.000000)" fill="white" fill-opacity="0"/>
		</clipPath>
	</defs>
	<circle id="Ellipse 4" cx="32.000000" cy="32.000000" r="32.000000" fill="#35293C" fill-opacity="1.000000"/>
	<circle id="Ellipse 4" cx="32.000000" cy="32.000000" r="31.500000" stroke="#8B57C2" stroke-opacity="1.000000" stroke-width="1.000000"/>
	<circle id="Ellipse 5" cx="56.000000" cy="11.000000" r="3.000000" fill="#8B57C2" fill-opacity="1.000000"/>
	<circle id="Ellipse 6" cx="9.000000" cy="53.000000" r="6.000000" fill="#8B57C2" fill-opacity="1.000000"/>
	<rect id="icon/3" width="36.000000" height="36.000000" transform="translate(14.000000 14.000000)" fill="#FFFFFF" fill-opacity="0"/>
	<g clip-path="url(#clip2_1134)">
		<path id="Vector" d="M45.54 30.06C46.07 28.77 46.24 27.37 46.05 25.99C45.86 24.62 45.3 23.31 44.45 22.22C43.59 21.13 42.46 20.28 41.16 19.77C39.87 19.25 38.47 19.09 37.09 19.29C36.24 18.19 35.11 17.34 33.82 16.82C32.54 16.3 31.13 16.13 29.76 16.33C28.38 16.52 27.08 17.08 25.99 17.94C24.9 18.8 24.06 19.94 23.55 21.23C22.17 21.42 20.87 21.97 19.77 22.82C18.68 23.68 17.83 24.81 17.31 26.1C16.79 27.39 16.62 28.79 16.82 30.17C17.02 31.54 17.59 32.84 18.45 33.93C18.03 34.96 17.83 36.08 17.87 37.19C17.91 38.31 18.19 39.4 18.69 40.4C19.18 41.41 19.89 42.29 20.75 43C21.61 43.7 22.62 44.22 23.7 44.51C24.37 44.69 25.06 44.79 25.75 44.79C26.13 44.79 26.52 44.76 26.9 44.71C27.75 45.8 28.88 46.66 30.17 47.18C31.45 47.7 32.86 47.87 34.23 47.67C35.61 47.47 36.91 46.92 38 46.06C39.09 45.19 39.93 44.06 40.44 42.77C41.82 42.58 43.12 42.03 44.22 41.17C45.31 40.32 46.16 39.19 46.68 37.9C47.2 36.61 47.37 35.2 47.17 33.83C46.97 32.45 46.4 31.16 45.54 30.07L45.54 30.06ZM39.71 21.65C41.13 22.03 42.34 22.95 43.09 24.21C43.84 25.47 44.07 26.97 43.72 28.4C43.59 28.31 43.45 28.22 43.32 28.14L37.06 24.53C36.89 24.43 36.69 24.37 36.5 24.37C36.3 24.37 36.1 24.43 35.93 24.53L29.75 28.1L29.75 25.5L35.44 22.21C36.08 21.84 36.79 21.6 37.52 21.5C38.25 21.41 39 21.46 39.71 21.65ZM34.25 33.29L32 34.59L29.75 33.29L29.75 30.7L32 29.4L34.25 30.7L34.25 33.29ZM25.25 24.12C25.25 23.02 25.57 21.95 26.17 21.03C26.78 20.11 27.64 19.39 28.65 18.95C29.66 18.52 30.78 18.39 31.86 18.59C32.94 18.78 33.94 19.29 34.74 20.04C34.6 20.11 34.46 20.18 34.32 20.27L28.06 23.88C27.89 23.98 27.74 24.12 27.65 24.29C27.55 24.46 27.5 24.65 27.5 24.85L27.5 32L25.25 30.7L25.25 24.12ZM19.74 26.22C20.46 24.97 21.63 24.04 23.01 23.64C23 23.8 23 23.96 23 24.12L23 31.35C23 31.54 23.05 31.74 23.15 31.91C23.24 32.08 23.39 32.22 23.56 32.32L29.75 35.89L27.5 37.2L21.8 33.9C20.51 33.16 19.57 31.93 19.18 30.49C18.79 29.05 19 27.51 19.74 26.22ZM24.28 42.34C22.86 41.96 21.65 41.04 20.9 39.78C20.15 38.52 19.92 37.02 20.27 35.59C20.4 35.68 20.53 35.77 20.67 35.85L26.93 39.47C27.1 39.56 27.3 39.62 27.5 39.62C27.69 39.62 27.89 39.56 28.06 39.47L34.25 35.89L34.25 38.49L28.55 41.78C27.91 42.15 27.2 42.39 26.47 42.49C25.74 42.58 25 42.53 24.28 42.34ZM38.75 39.87C38.75 40.97 38.42 42.05 37.82 42.97C37.21 43.88 36.35 44.61 35.34 45.04C34.33 45.47 33.22 45.6 32.13 45.41C31.05 45.22 30.05 44.71 29.25 43.96C29.39 43.88 29.53 43.81 29.67 43.73L35.93 40.11C36.1 40.01 36.25 39.87 36.34 39.7C36.44 39.53 36.49 39.34 36.5 39.14L36.5 32L38.75 33.29L38.75 39.87ZM44.25 37.77C43.53 39.02 42.36 39.95 40.98 40.35C40.99 40.19 41 40.03 41 39.87L41 32.64C41 32.45 40.94 32.25 40.84 32.08C40.75 31.91 40.6 31.77 40.43 31.67L34.25 28.1L36.5 26.8L42.19 30.09C43.48 30.83 44.42 32.06 44.81 33.5C45.2 34.94 45 36.48 44.25 37.77Z" fill="#8B57C2" fill-opacity="1.000000" fill-rule="nonzero"/>
	</g>
</svg>
