<svg width="48.000000" height="48.000000" viewBox="0 0 48 48" fill="none" xmlns="http://www.w3.org/2000/svg" xmlns:xlink="http://www.w3.org/1999/xlink">
	<desc>
			Created with Pixso.
	</desc>
	<defs>
		<clipPath id="clip3_1798">
			<rect id="icon/clients" rx="23.500000" width="47.000000" height="47.000000" transform="translate(0.500000 0.500000)" fill="white" fill-opacity="0"/>
		</clipPath>
	</defs>
	<rect id="icon/clients" rx="23.500000" width="47.000000" height="47.000000" transform="translate(0.500000 0.500000)" fill="#FFFFFF" fill-opacity="0"/>
	<g clip-path="url(#clip3_1798)">
		<path id="Vector" d="M28.8 35.18L28.8 35.98L29.6 35.98L29.6 35.18L28.8 35.18ZM12.8 35.18L12 35.18L12 35.98L12.8 35.98L12.8 35.18ZM35.2 35.2L35.2 36L36 36L36 35.2L35.2 35.2ZM24.8 17.59C24.79 18.12 24.69 18.64 24.49 19.12C24.29 19.61 23.99 20.05 23.62 20.42C23.25 20.79 22.81 21.08 22.33 21.28C21.84 21.49 21.32 21.59 20.8 21.59L20.8 23.19C23.89 23.19 26.4 20.68 26.4 17.59L24.8 17.59ZM20.8 21.59C20.27 21.59 19.75 21.49 19.26 21.28C18.78 21.08 18.34 20.79 17.97 20.42C17.6 20.05 17.3 19.61 17.1 19.12C16.9 18.64 16.8 18.12 16.79 17.59L15.2 17.59C15.2 18.33 15.34 19.06 15.62 19.73C15.9 20.41 16.32 21.03 16.84 21.55C17.36 22.07 17.97 22.48 18.65 22.76C19.33 23.04 20.06 23.19 20.8 23.19L20.8 21.59ZM16.79 17.59C16.8 17.07 16.9 16.55 17.1 16.06C17.3 15.58 17.6 15.14 17.97 14.77C18.34 14.39 18.78 14.1 19.26 13.9C19.75 13.7 20.27 13.59 20.8 13.6L20.8 12C20.06 11.99 19.33 12.14 18.65 12.42C17.97 12.7 17.36 13.11 16.84 13.63C16.32 14.15 15.9 14.77 15.62 15.45C15.34 16.13 15.2 16.86 15.2 17.59L16.79 17.59ZM20.8 13.6C21.86 13.6 22.87 14.02 23.62 14.77C24.37 15.51 24.79 16.53 24.8 17.59L26.4 17.59C26.39 16.86 26.25 16.13 25.97 15.45C25.69 14.77 25.27 14.15 24.75 13.63C24.23 13.11 23.62 12.7 22.94 12.42C22.26 12.14 21.53 11.99 20.8 12L20.8 13.6ZM28.8 34.38L12.8 34.38L12.8 35.98L28.8 35.98L28.8 34.38ZM13.6 35.18L13.6 31.99L12 31.99L12 35.18L13.6 35.18ZM17.6 27.99L24 27.99L24 26.39L17.6 26.39L17.6 27.99ZM28 31.99L28 35.18L29.6 35.18L29.6 31.99L28 31.99ZM24 27.99C25.06 27.99 26.07 28.41 26.82 29.16C27.57 29.91 28 30.92 28 31.99L29.6 31.99C29.6 30.5 29.01 29.08 27.95 28.03C26.9 26.98 25.48 26.39 24 26.39L24 27.99ZM13.6 31.99C13.6 30.93 14.02 29.91 14.77 29.16C15.52 28.41 16.53 27.99 17.6 27.99L17.6 26.39C16.11 26.39 14.69 26.98 13.64 28.03C12.59 29.08 12 30.5 12 31.99L13.6 31.99ZM34.4 32.8L34.4 35.2L36 35.2L36 32.8L34.4 32.8ZM35.2 34.39L31.2 34.39L31.2 36L35.2 36L35.2 34.39ZM31.2 29.6C32.04 29.6 32.86 29.93 33.46 30.53C34.06 31.13 34.4 31.95 34.4 32.8L36 32.8C36 31.52 35.49 30.3 34.59 29.4C33.69 28.5 32.47 28 31.2 28L31.2 29.6ZM30.4 24.8C29.76 24.8 29.15 24.54 28.7 24.09C28.25 23.64 28 23.03 28 22.39L26.4 22.39C26.4 23.46 26.82 24.47 27.57 25.22C28.32 25.97 29.33 26.39 30.4 26.39L30.4 24.8ZM32.8 22.39C32.8 23.03 32.54 23.64 32.09 24.09C31.64 24.54 31.03 24.8 30.4 24.8L30.4 26.39C31.46 26.39 32.47 25.97 33.22 25.22C33.97 24.47 34.4 23.46 34.4 22.39L32.8 22.39ZM30.4 20C31.03 20 31.64 20.25 32.09 20.7C32.54 21.15 32.8 21.76 32.8 22.39L34.4 22.39C34.4 21.33 33.97 20.32 33.22 19.57C32.47 18.82 31.46 18.39 30.4 18.39L30.4 20ZM30.4 18.39C29.33 18.39 28.32 18.82 27.57 19.57C26.82 20.32 26.4 21.33 26.4 22.39L28 22.39C28 21.76 28.25 21.15 28.7 20.7C29.15 20.25 29.76 20 30.4 20L30.4 18.39Z" fill="#8B57C2" fill-opacity="1.000000" fill-rule="nonzero"/>
	</g>
	<rect id="icon/clients" rx="23.500000" width="47.000000" height="47.000000" transform="translate(0.500000 0.500000)" stroke="#8B57C2" stroke-opacity="1.000000" stroke-width="1.000000"/>
</svg>
