<svg width="42.004089" height="37.003906" viewBox="0 0 42.0041 37.0039" fill="none" xmlns="http://www.w3.org/2000/svg" xmlns:xlink="http://www.w3.org/1999/xlink">
	<desc>
			Created with Pixso.
	</desc>
	<defs/>
	<path id="Vector" d="M17 4L41 4M17 18L41 18M17 32L41 32" stroke="#8B57C2" stroke-opacity="1.000000" stroke-width="2.000000" stroke-linejoin="round"/>
	<path id="Vector" d="M5 22C2.79 22 1 20.21 1 18C1 15.79 2.79 14 5 14C7.21 14 9 15.79 9 18C9 20.21 7.21 22 5 22Z" stroke="#8B57C2" stroke-opacity="1.000000" stroke-width="2.000000" stroke-linejoin="round"/>
	<path id="Vector" d="M5 36C2.79 36 1 34.21 1 32C1 29.79 2.79 28 5 28C7.21 28 9 29.79 9 32C9 34.21 7.21 36 5 36Z" stroke="#8B57C2" stroke-opacity="1.000000" stroke-width="2.000000" stroke-linejoin="round"/>
	<path id="Vector" d="M1 4L4 7L10 1" stroke="#8B57C2" stroke-opacity="1.000000" stroke-width="2.000000" stroke-linejoin="round" stroke-linecap="round"/>
</svg>
