<svg width="30.000000" height="30.000000" viewBox="0 0 30 30" fill="none" xmlns="http://www.w3.org/2000/svg" xmlns:xlink="http://www.w3.org/1999/xlink">
	<desc>
			Created with Pixso.
	</desc>
	<defs>
		<clipPath id="clip8_1138">
			<rect id="icon/data" rx="15.000000" width="30.000000" height="30.000000" fill="white" fill-opacity="0"/>
		</clipPath>
	</defs>
	<rect id="icon/data" rx="15.000000" width="30.000000" height="30.000000" fill="#4B4B4B" fill-opacity="1.000000"/>
	<g clip-path="url(#clip8_1138)">
		<path id="Vector" d="M10.5 7C10.63 7 10.75 7.05 10.85 7.14C10.94 7.24 11 7.36 11 7.5L11 8L19 8L19 7.5C19 7.36 19.05 7.24 19.14 7.14C19.24 7.05 19.36 7 19.5 7C19.63 7 19.75 7.05 19.85 7.14C19.94 7.24 20 7.36 20 7.5L20 8L21 8C21.53 8 22.03 8.21 22.41 8.58C22.78 8.96 23 9.46 23 10L23 21C23 21.53 22.78 22.03 22.41 22.41C22.03 22.78 21.53 23 21 23L9 23C8.46 23 7.96 22.78 7.58 22.41C7.21 22.03 7 21.53 7 21L7 10C7 9.46 7.21 8.96 7.58 8.58C7.96 8.21 8.46 8 9 8L10 8L10 7.5C10 7.36 10.05 7.24 10.14 7.14C10.24 7.05 10.36 7 10.5 7ZM8 11L8 21C8 21.26 8.1 21.51 8.29 21.7C8.48 21.89 8.73 22 9 22L21 22C21.26 22 21.51 21.89 21.7 21.7C21.89 21.51 22 21.26 22 21L22 11L8 11Z" fill="#FFFFFF" fill-opacity="1.000000" fill-rule="nonzero"/>
	</g>
</svg>
