<svg width="48.000000" height="48.000000" viewBox="0 0 48 48" fill="none" xmlns="http://www.w3.org/2000/svg" xmlns:xlink="http://www.w3.org/1999/xlink">
	<desc>
			Created with Pixso.
	</desc>
	<defs>
		<clipPath id="clip3_1774">
			<rect id="icon/web designers" rx="23.500000" width="47.000000" height="47.000000" transform="translate(0.500000 0.500000)" fill="white" fill-opacity="0"/>
		</clipPath>
	</defs>
	<rect id="icon/web designers" rx="23.500000" width="47.000000" height="47.000000" transform="translate(0.500000 0.500000)" fill="#FFFFFF" fill-opacity="0"/>
	<g clip-path="url(#clip3_1774)">
		<path id="Vector" d="M13.05 30.17C12.92 30.19 12.78 30.18 12.66 30.14C12.53 30.11 12.42 30.04 12.32 29.96C12.22 29.87 12.14 29.77 12.08 29.65C12.03 29.53 12 29.4 12 29.27L12 13.91C11.99 13.78 12.02 13.65 12.08 13.53C12.13 13.41 12.21 13.3 12.31 13.21C12.41 13.13 12.53 13.06 12.66 13.03C12.78 12.99 12.92 12.99 13.05 13.01C20.31 14.02 27.68 14.02 34.94 13.01C35.07 12.99 35.2 12.99 35.33 13.03C35.46 13.06 35.57 13.12 35.67 13.21C35.77 13.29 35.85 13.39 35.91 13.51C35.96 13.63 35.99 13.76 36 13.89L36 29.25C36 29.39 35.97 29.52 35.91 29.64C35.86 29.76 35.78 29.87 35.68 29.95C35.58 30.04 35.46 30.1 35.34 30.14C35.21 30.18 35.07 30.19 34.94 30.17C27.68 29.14 20.31 29.14 13.05 30.17ZM24 29.4L24 34M19.38 34L28.61 34" stroke="#8B57C2" stroke-opacity="1.000000" stroke-width="2.000000" stroke-linejoin="round"/>
	</g>
	<rect id="icon/web designers" rx="23.500000" width="47.000000" height="47.000000" transform="translate(0.500000 0.500000)" stroke="#8B57C2" stroke-opacity="1.000000" stroke-width="1.000000"/>
</svg>
