<svg width="30.000000" height="30.000000" viewBox="0 0 30 30" fill="none" xmlns="http://www.w3.org/2000/svg" xmlns:xlink="http://www.w3.org/1999/xlink">
	<desc>
			Created with Pixso.
	</desc>
	<defs>
		<clipPath id="clip8_1131">
			<rect id="icon/online" rx="15.000000" width="30.000000" height="30.000000" fill="white" fill-opacity="0"/>
		</clipPath>
	</defs>
	<rect id="icon/online" rx="15.000000" width="30.000000" height="30.000000" fill="#4B4B4B" fill-opacity="1.000000"/>
	<g clip-path="url(#clip8_1131)">
		<path id="Vector" d="M23 15C23 10.58 19.41 7 15 7C10.58 7 7 10.58 7 15C7 19.41 10.58 23 15 23C19.41 23 23 19.41 23 15ZM15 23C17.18 23 17.9 19.36 17.9 15C17.9 10.63 17.18 7 15 7M15 7C12.81 7 12.09 10.63 12.09 15C12.09 19.36 12.81 23 15 23M7.72 17.9L22.27 17.9M7.72 12.09L22.27 12.09" stroke="#FFFFFF" stroke-opacity="1.000000" stroke-width="1.000000"/>
	</g>
</svg>
