<svg width="17.494751" height="17.489380" viewBox="0 0 17.4948 17.4894" fill="none" xmlns="http://www.w3.org/2000/svg" xmlns:xlink="http://www.w3.org/1999/xlink">
	<desc>
			Created with Pixso.
	</desc>
	<defs/>
	<path id="Vector" d="M17.49 8.74C17.49 9 17.41 9.25 17.27 9.46C17.12 9.67 16.91 9.83 16.67 9.91L11.71 11.71L9.91 16.67C9.82 16.91 9.66 17.11 9.45 17.26C9.24 17.41 8.99 17.48 8.74 17.48C8.48 17.48 8.24 17.41 8.03 17.26C7.82 17.11 7.66 16.91 7.57 16.67L5.77 11.71L0.81 9.91C0.57 9.82 0.36 9.66 0.22 9.45C0.07 9.24 0 8.99 0 8.74C0 8.48 0.07 8.24 0.22 8.03C0.36 7.82 0.57 7.66 0.81 7.57L5.77 5.77L7.57 0.81C7.66 0.57 7.82 0.36 8.03 0.22C8.24 0.07 8.48 0 8.74 0C8.99 0 9.24 0.07 9.45 0.22C9.66 0.36 9.82 0.57 9.91 0.81L11.71 5.77L16.67 7.57C16.91 7.65 17.12 7.81 17.27 8.02C17.41 8.23 17.49 8.48 17.49 8.74Z" fill="#8B57C2" fill-opacity="1.000000" fill-rule="nonzero"/>
</svg>
