<svg width="24.000000" height="24.000000" viewBox="0 0 24 24" fill="none" xmlns="http://www.w3.org/2000/svg" xmlns:xlink="http://www.w3.org/1999/xlink">
	<desc>
			Created with Pixso.
	</desc>
	<defs>
		<clipPath id="clip33_804">
			<rect id="foundation:plus" width="24.000000" height="24.000000" fill="white" fill-opacity="0"/>
		</clipPath>
	</defs>
	<rect id="foundation:plus" width="24.000000" height="24.000000" fill="#FFFFFF" fill-opacity="0"/>
	<g clip-path="url(#clip33_804)">
		<path id="Vector" d="M20.26 9.53L14.46 9.53L14.46 3.73C14.46 3.61 14.41 3.5 14.33 3.42C14.25 3.34 14.14 3.29 14.03 3.29L9.96 3.29C9.85 3.29 9.74 3.34 9.66 3.42C9.57 3.5 9.53 3.61 9.53 3.73L9.53 9.53L3.73 9.53C3.5 9.53 3.3 9.73 3.3 9.96L3.3 14.03C3.3 14.08 3.31 14.14 3.33 14.19C3.35 14.25 3.38 14.29 3.42 14.33C3.46 14.37 3.51 14.41 3.56 14.43C3.62 14.45 3.67 14.46 3.73 14.46L9.53 14.46L9.53 20.26C9.53 20.37 9.57 20.49 9.66 20.57C9.74 20.65 9.85 20.7 9.96 20.7L14.03 20.7C14.08 20.7 14.14 20.68 14.19 20.66C14.24 20.64 14.29 20.61 14.33 20.57C14.37 20.53 14.41 20.48 14.43 20.43C14.45 20.37 14.46 20.32 14.46 20.26L14.46 14.46L20.26 14.46C20.32 14.46 20.37 14.45 20.43 14.43C20.48 14.41 20.53 14.37 20.57 14.33C20.61 14.29 20.64 14.24 20.66 14.19C20.68 14.14 20.69 14.08 20.69 14.03L20.7 9.96C20.7 9.85 20.65 9.74 20.57 9.66C20.49 9.57 20.38 9.53 20.26 9.53Z" fill="#8B57C2" fill-opacity="1.000000" fill-rule="nonzero"/>
	</g>
</svg>
