<svg width="30.000000" height="30.000000" viewBox="0 0 30 30" fill="none" xmlns="http://www.w3.org/2000/svg" xmlns:xlink="http://www.w3.org/1999/xlink">
	<desc>
			Created with Pixso.
	</desc>
	<defs>
		<clipPath id="clip8_1134">
			<rect id="icon/potik" rx="15.000000" width="30.000000" height="30.000000" fill="white" fill-opacity="0"/>
		</clipPath>
	</defs>
	<rect id="icon/potik" rx="15.000000" width="30.000000" height="30.000000" fill="#4B4B4B" fill-opacity="1.000000"/>
	<g clip-path="url(#clip8_1134)">
		<path id="Vector" d="M23.76 6.09C23.83 6.14 23.89 6.21 23.93 6.29C23.97 6.37 23.99 6.47 24 6.56L24 15C24 15.11 23.96 15.22 23.9 15.31C23.84 15.4 23.76 15.48 23.66 15.52L23.65 15.52L23.65 15.52L23.62 15.53C23.48 15.59 23.34 15.65 23.19 15.7C22.91 15.81 22.52 15.95 22.07 16.09C21.19 16.38 20.04 16.68 19.15 16.68C18.24 16.68 17.48 16.37 16.82 16.09L16.79 16.08C16.11 15.79 15.53 15.56 14.84 15.56C14.09 15.56 13.08 15.82 12.22 16.09C11.83 16.22 11.45 16.36 11.07 16.5L11.07 23.43C11.07 23.58 11.02 23.72 10.91 23.83C10.81 23.94 10.68 24 10.53 24C10.39 24 10.25 23.94 10.15 23.83C10.05 23.72 10 23.58 10 23.43L10 6.56C10 6.41 10.05 6.27 10.15 6.16C10.25 6.05 10.39 6 10.53 6C10.68 6 10.81 6.05 10.91 6.16C11.02 6.27 11.07 6.41 11.07 6.56L11.07 6.87C11.32 6.79 11.61 6.68 11.92 6.58C12.8 6.3 13.95 6 14.84 6C15.75 6 16.48 6.31 17.13 6.58L17.17 6.6C17.84 6.88 18.43 7.12 19.15 7.12C19.9 7.12 20.91 6.86 21.77 6.58C22.26 6.42 22.75 6.24 23.23 6.05L23.25 6.04L23.25 6.04L23.25 6.04L23.76 6.09ZM22.92 7.37C22.68 7.46 22.4 7.56 22.09 7.66C21.22 7.94 20.08 8.24 19.15 8.24C18.19 8.24 17.43 7.92 16.78 7.64L16.77 7.64C16.09 7.36 15.53 7.12 14.84 7.12C14.12 7.12 13.11 7.38 12.24 7.66C11.85 7.78 11.46 7.92 11.07 8.07L11.07 15.31C11.31 15.22 11.59 15.12 11.9 15.02C12.77 14.74 13.91 14.43 14.84 14.43C15.75 14.43 16.51 14.75 17.17 15.02L17.2 15.03C17.88 15.32 18.46 15.56 19.15 15.56C19.87 15.56 20.88 15.3 21.75 15.02C22.14 14.89 22.53 14.76 22.92 14.61L22.92 7.37L22.92 7.37Z" fill="#FFFFFF" fill-opacity="1.000000" fill-rule="nonzero"/>
	</g>
</svg>
