<svg width="48.000000" height="48.000000" viewBox="0 0 48 48" fill="none" xmlns="http://www.w3.org/2000/svg" xmlns:xlink="http://www.w3.org/1999/xlink">
	<desc>
			Created with Pixso.
	</desc>
	<defs>
		<clipPath id="clip3_1176">
			<rect id="icon/qr" width="48.000000" height="48.000000" fill="white" fill-opacity="0"/>
		</clipPath>
	</defs>
	<rect id="icon/qr" width="48.000000" height="48.000000" fill="#FFFFFF" fill-opacity="0"/>
	<g clip-path="url(#clip3_1176)">
		<path id="Vector" d="M7.46 5.33C6.9 5.33 6.35 5.55 5.95 5.95C5.55 6.35 5.33 6.9 5.33 7.46L5.33 16L16 16L16 5.33L7.46 5.33ZM13.33 13.33L8 13.33L8 8L13.33 8L13.33 13.33Z" fill="#8B57C2" fill-opacity="1.000000" fill-rule="nonzero"/>
		<path id="Vector" d="M5.95 5.95C5.55 6.35 5.33 6.9 5.33 7.46L5.33 16L16 16L16 5.33L7.46 5.33C6.9 5.33 6.35 5.55 5.95 5.95ZM8 13.33L8 8L13.33 8L13.33 13.33L8 13.33Z" stroke="#8B57C2" stroke-opacity="1.000000" stroke-width="1.000000"/>
		<path id="Vector" d="M5.33 40.53C5.33 41.09 5.55 41.64 5.95 42.04C6.35 42.44 6.9 42.66 7.46 42.66L16 42.66L16 32L5.33 32L5.33 40.53ZM8 34.66L13.33 34.66L13.33 40L8 40L8 34.66Z" fill="#8B57C2" fill-opacity="1.000000" fill-rule="nonzero"/>
		<path id="Vector" d="M5.95 42.04C6.35 42.44 6.9 42.66 7.46 42.66L16 42.66L16 32L5.33 32L5.33 40.53C5.33 41.09 5.55 41.64 5.95 42.04ZM13.33 34.66L13.33 40L8 40L8 34.66L13.33 34.66Z" stroke="#8B57C2" stroke-opacity="1.000000" stroke-width="1.000000"/>
		<path id="Vector" d="M32 42.66L40.53 42.66C41.09 42.66 41.64 42.44 42.04 42.04C42.44 41.64 42.66 41.09 42.66 40.53L42.66 32L32 32L32 42.66ZM34.66 34.66L40 34.66L40 40L34.66 40L34.66 34.66Z" fill="#8B57C2" fill-opacity="1.000000" fill-rule="nonzero"/>
		<path id="Vector" d="M40.53 42.66C41.09 42.66 41.64 42.44 42.04 42.04C42.44 41.64 42.66 41.09 42.66 40.53L42.66 32L32 32L32 42.66L40.53 42.66ZM40 34.66L40 40L34.66 40L34.66 34.66L40 34.66Z" stroke="#8B57C2" stroke-opacity="1.000000" stroke-width="1.000000"/>
		<path id="Vector" d="M40.53 5.33L32 5.33L32 16L42.66 16L42.66 7.46C42.66 6.9 42.44 6.35 42.04 5.95C41.64 5.55 41.09 5.33 40.53 5.33ZM40 13.33L34.66 13.33L34.66 8L40 8L40 13.33Z" fill="#8B57C2" fill-opacity="1.000000" fill-rule="nonzero"/>
		<path id="Vector" d="M32 5.33L32 16L42.66 16L42.66 7.46C42.66 6.9 42.44 6.35 42.04 5.95C41.64 5.55 41.09 5.33 40.53 5.33L32 5.33ZM34.66 13.33L34.66 8L40 8L40 13.33L34.66 13.33Z" stroke="#8B57C2" stroke-opacity="1.000000" stroke-width="1.000000"/>
		<path id="Vector" d="M26.66 13.33L26.66 10.66L21.33 10.66L21.33 16L24 16L24 13.33L26.66 13.33Z" fill="#8B57C2" fill-opacity="1.000000" fill-rule="nonzero"/>
		<path id="Vector" d="M16 16L18.66 16L18.66 18.66L16 18.66L16 16Z" fill="#8B57C2" fill-opacity="1.000000" fill-rule="nonzero"/>
		<path id="Vector" d="M18.66 18.66L24 18.66L24 21.33L18.66 21.33L18.66 18.66Z" fill="#8B57C2" fill-opacity="1.000000" fill-rule="nonzero"/>
		<path id="Vector" d="M26.66 8L26.66 10.66L29.33 10.66L29.33 5.33L18.66 5.33L18.66 10.66L21.33 10.66L21.33 8L26.66 8Z" fill="#8B57C2" fill-opacity="1.000000" fill-rule="nonzero"/>
		<path id="Vector" d="M5.33 18.66L8 18.66L8 24L5.33 24L5.33 18.66Z" fill="#8B57C2" fill-opacity="1.000000" fill-rule="nonzero"/>
		<path id="Vector" d="M16 21.33L16 24L13.33 24L13.33 18.66L10.66 18.66L10.66 24L8 24L8 26.66L5.33 26.66L5.33 29.33L10.66 29.33L10.66 26.66L13.33 26.66L13.33 29.33L16 29.33L16 26.66L18.66 26.66L18.66 21.33L16 21.33Z" fill="#8B57C2" fill-opacity="1.000000" fill-rule="nonzero"/>
		<path id="Vector" d="M26.66 21.33L29.33 21.33L29.33 24L32 24L32 21.33L34.66 21.33L34.66 18.66L29.33 18.66L29.33 13.33L26.66 13.33L26.66 16L24 16L24 18.66L26.66 18.66L26.66 21.33Z" fill="#8B57C2" fill-opacity="1.000000" fill-rule="nonzero"/>
		<path id="Vector" d="M24 40L18.66 40L18.66 42.66L29.33 42.66L29.33 40L26.66 40L26.66 37.33L24 37.33L24 40Z" fill="#8B57C2" fill-opacity="1.000000" fill-rule="nonzero"/>
		<path id="Vector" d="M29.33 26.66L29.33 24L26.66 24L26.66 21.33L24 21.33L24 24L21.33 24L21.33 26.66L24 26.66L24 29.33L26.66 29.33L26.66 26.66L29.33 26.66Z" fill="#8B57C2" fill-opacity="1.000000" fill-rule="nonzero"/>
		<path id="Vector" d="M40 26.66L42.66 26.66L42.66 29.33L40 29.33L40 26.66Z" fill="#8B57C2" fill-opacity="1.000000" fill-rule="nonzero"/>
		<path id="Vector" d="M29.33 26.66L37.33 26.66L37.33 29.33L29.33 29.33L29.33 26.66Z" fill="#8B57C2" fill-opacity="1.000000" fill-rule="nonzero"/>
		<path id="Vector" d="M40 18.66L37.33 18.66L37.33 21.33L34.66 21.33L34.66 24L37.33 24L37.33 26.66L40 26.66L40 24L42.66 24L42.66 21.33L40 21.33L40 18.66Z" fill="#8B57C2" fill-opacity="1.000000" fill-rule="nonzero"/>
		<path id="Vector" d="M26.66 29.33L29.33 29.33L29.33 37.33L26.66 37.33L26.66 29.33Z" fill="#8B57C2" fill-opacity="1.000000" fill-rule="nonzero"/>
		<path id="Vector" d="M18.66 37.33L21.33 37.33L21.33 34.66L24 34.66L24 32L21.33 32L21.33 26.66L18.66 26.66L18.66 37.33Z" fill="#8B57C2" fill-opacity="1.000000" fill-rule="nonzero"/>
	</g>
</svg>
