<svg width="64.000000" height="64.000000" viewBox="0 0 64 64" fill="none" xmlns="http://www.w3.org/2000/svg" xmlns:xlink="http://www.w3.org/1999/xlink">
	<desc>
			Created with Pixso.
	</desc>
	<defs>
		<clipPath id="clip2_1141">
			<rect id="icon/2" width="36.000000" height="36.000000" transform="translate(14.000000 14.000000)" fill="white" fill-opacity="0"/>
		</clipPath>
	</defs>
	<circle id="Ellipse 4" cx="32.000000" cy="32.000000" r="32.000000" fill="#35293C" fill-opacity="1.000000"/>
	<circle id="Ellipse 4" cx="32.000000" cy="32.000000" r="31.500000" stroke="#8B57C2" stroke-opacity="1.000000" stroke-width="1.000000"/>
	<circle id="Ellipse 5" cx="56.000000" cy="11.000000" r="3.000000" fill="#8B57C2" fill-opacity="1.000000"/>
	<circle id="Ellipse 6" cx="9.000000" cy="53.000000" r="6.000000" fill="#8B57C2" fill-opacity="1.000000"/>
	<rect id="icon/2" width="36.000000" height="36.000000" transform="translate(14.000000 14.000000)" fill="#FFFFFF" fill-opacity="0"/>
	<g clip-path="url(#clip2_1141)">
		<path id="Vector" d="M41 37.62C40.43 37.62 39.87 37.4 39.42 36.95L36.05 33.57C35.59 33.12 35.37 32.56 35.37 32C35.37 31.43 35.59 30.87 36.05 30.42L39.42 27.05C39.87 26.6 40.43 26.37 41 26.37C41.56 26.37 42.12 26.6 42.57 27.05L45.95 30.42C46.4 30.87 46.62 31.43 46.62 32C46.62 32.56 46.4 33.12 45.95 33.57L42.57 36.95C42.12 37.4 41.56 37.62 41 37.62ZM41 28.62L37.62 32L41 35.37L44.37 32L41 28.62ZM32 28.62C31.43 28.62 30.87 28.4 30.42 27.95L27.05 24.57C26.6 24.12 26.37 23.56 26.37 23C26.37 22.43 26.6 21.87 27.05 21.42L30.42 18.04C30.87 17.6 31.43 17.37 32 17.37C32.56 17.37 33.12 17.6 33.57 18.04L36.95 21.42C37.4 21.87 37.62 22.43 37.62 23C37.62 23.56 37.4 24.12 36.95 24.57L33.57 27.95C33.12 28.4 32.56 28.62 32 28.62ZM32 19.62L28.62 23L32 26.37L35.37 23L32 19.62ZM32 46.62C31.43 46.62 30.87 46.4 30.42 45.95L27.05 42.57C26.6 42.12 26.37 41.56 26.37 41C26.37 40.43 26.6 39.87 27.05 39.42L30.42 36.05C30.87 35.59 31.43 35.37 32 35.37C32.56 35.37 33.12 35.59 33.57 36.05L36.95 39.42C37.4 39.87 37.62 40.43 37.62 41C37.62 41.56 37.4 42.12 36.95 42.57L33.57 45.95C33.12 46.4 32.56 46.62 32 46.62ZM32 37.62L28.62 41L32 44.37L35.37 41L32 37.62ZM23 37.62C22.43 37.62 21.87 37.4 21.42 36.95L18.04 33.57C17.6 33.12 17.37 32.56 17.37 32C17.37 31.43 17.6 30.87 18.04 30.42L21.42 27.05C21.87 26.6 22.43 26.37 23 26.37C23.56 26.37 24.12 26.6 24.57 27.05L27.95 30.42C28.4 30.87 28.62 31.43 28.62 32C28.62 32.56 28.4 33.12 27.95 33.57L24.57 36.95C24.12 37.4 23.56 37.62 23 37.62ZM23 28.62L19.62 32L23 35.37L26.37 32L23 28.62Z" fill="#8B57C2" fill-opacity="1.000000" fill-rule="nonzero"/>
	</g>
</svg>
