<svg width="64.000000" height="64.000000" viewBox="0 0 64 64" fill="none" xmlns="http://www.w3.org/2000/svg" xmlns:xlink="http://www.w3.org/1999/xlink">
	<desc>
			Created with Pixso.
	</desc>
	<defs>
		<clipPath id="clip3_1085">
			<rect id="icon/1" width="36.000000" height="36.000000" transform="translate(14.000000 14.000000)" fill="white" fill-opacity="0"/>
		</clipPath>
	</defs>
	<circle id="Ellipse 4" cx="32.000000" cy="32.000000" r="32.000000" fill="#35293C" fill-opacity="1.000000"/>
	<circle id="Ellipse 4" cx="32.000000" cy="32.000000" r="31.500000" stroke="#8B57C2" stroke-opacity="1.000000" stroke-width="1.000000"/>
	<circle id="Ellipse 5" cx="56.000000" cy="11.000000" r="3.000000" fill="#8B57C2" fill-opacity="1.000000"/>
	<circle id="Ellipse 6" cx="9.000000" cy="53.000000" r="6.000000" fill="#8B57C2" fill-opacity="1.000000"/>
	<rect id="icon/1" width="36.000000" height="36.000000" transform="translate(14.000000 14.000000)" fill="#FFFFFF" fill-opacity="0"/>
	<g clip-path="url(#clip3_1085)">
		<path id="Vector" d="M30.87 14C32.42 14 33.91 14.19 35.33 14.59C36.76 14.99 38.11 15.56 39.38 16.3C40.64 17.04 41.78 17.91 42.79 18.93C43.8 19.95 44.67 21.1 45.42 22.36C46.17 23.63 46.74 24.97 47.13 26.39C47.52 27.81 47.72 29.3 47.75 30.87C47.75 32.42 47.55 33.91 47.15 35.33C46.75 36.76 46.18 38.11 45.44 39.38C44.7 40.64 43.83 41.78 42.81 42.79C41.79 43.8 40.64 44.67 39.38 45.42C38.11 46.17 36.77 46.74 35.35 47.13C33.93 47.52 32.44 47.72 30.87 47.75C29.32 47.75 27.83 47.55 26.41 47.15C24.98 46.75 23.63 46.18 22.36 45.44C21.1 44.7 19.96 43.83 18.95 42.81C17.94 41.79 17.07 40.64 16.32 39.38C15.57 38.11 15 36.77 14.61 35.35C14.22 33.93 14.02 32.44 14 30.87C14 29.32 14.19 27.83 14.59 26.41C14.99 24.98 15.56 23.63 16.3 22.36C17.04 21.1 17.91 19.96 18.93 18.95C19.95 17.94 21.1 17.07 22.36 16.32C23.63 15.57 24.97 15 26.39 14.61C27.81 14.22 29.3 14.02 30.87 14ZM30.87 45.5C32.22 45.5 33.51 45.32 34.75 44.97C36 44.62 37.16 44.12 38.24 43.49C39.31 42.86 40.3 42.1 41.21 41.21C42.11 40.32 42.87 39.33 43.49 38.25C44.11 37.17 44.6 36.01 44.97 34.75C45.33 33.5 45.51 32.21 45.5 30.87C45.5 29.52 45.32 28.23 44.97 26.99C44.62 25.74 44.12 24.58 43.49 23.5C42.86 22.43 42.1 21.44 41.21 20.53C40.32 19.63 39.33 18.87 38.25 18.25C37.17 17.63 36.01 17.14 34.75 16.77C33.5 16.41 32.21 16.23 30.87 16.25C29.52 16.25 28.23 16.42 26.99 16.77C25.74 17.12 24.58 17.62 23.5 18.25C22.43 18.88 21.44 19.64 20.53 20.53C19.63 21.42 18.87 22.41 18.25 23.49C17.63 24.57 17.14 25.73 16.77 26.99C16.41 28.24 16.23 29.53 16.25 30.87C16.25 32.22 16.42 33.51 16.77 34.75C17.12 36 17.62 37.16 18.25 38.24C18.88 39.31 19.64 40.3 20.53 41.21C21.42 42.11 22.41 42.87 23.49 43.49C24.57 44.11 25.73 44.6 26.99 44.97C28.24 45.33 29.53 45.51 30.87 45.5ZM33.89 29.39C34.13 29.86 34.25 30.35 34.25 30.87C34.25 31.34 34.16 31.78 33.98 32.19C33.81 32.6 33.57 32.96 33.26 33.26C32.96 33.57 32.6 33.81 32.19 33.98C31.78 34.16 31.34 34.25 30.87 34.25C30.4 34.25 29.96 34.16 29.55 33.98C29.14 33.81 28.78 33.57 28.48 33.26C28.17 32.96 27.93 32.6 27.76 32.19C27.58 31.78 27.5 31.34 27.5 30.87C27.5 30.4 27.58 29.96 27.76 29.55C27.93 29.14 28.17 28.78 28.48 28.48C28.78 28.17 29.14 27.93 29.55 27.76C29.96 27.58 30.4 27.5 30.87 27.5C31.39 27.5 31.88 27.61 32.35 27.85L32.33 27.83L38.8 21.36L40.38 22.94L33.91 29.41L33.89 29.39ZM30.87 32C31.17 32 31.44 31.88 31.66 31.66C31.88 31.44 32 31.17 32 30.87C32 30.57 31.88 30.3 31.66 30.08C31.44 29.86 31.17 29.75 30.87 29.75C30.57 29.75 30.3 29.86 30.08 30.08C29.86 30.3 29.75 30.57 29.75 30.87C29.75 31.17 29.86 31.44 30.08 31.66C30.3 31.88 30.57 32 30.87 32ZM42.12 25.81C42.48 26.6 42.75 27.42 42.93 28.27C43.1 29.11 43.2 29.98 43.21 30.87C43.21 32.51 42.91 34.09 42.3 35.6C41.69 37.11 40.8 38.45 39.62 39.62L38.02 38.02C38.97 37.08 39.71 35.99 40.22 34.77C40.74 33.55 41 32.27 41 30.92C41 29.47 40.69 28.07 40.08 26.72L42.12 25.81ZM35.02 21.66C33.67 21.05 32.27 20.75 30.82 20.75C29.89 20.75 29 20.86 28.15 21.1C27.29 21.33 26.49 21.68 25.74 22.13C24.99 22.59 24.31 23.12 23.7 23.72C23.09 24.31 22.57 25 22.13 25.77C21.7 26.55 21.36 27.35 21.11 28.18C20.87 29.01 20.75 29.91 20.75 30.87C20.75 32.22 21 33.51 21.52 34.74C22.03 35.97 22.77 37.06 23.72 38.02L22.12 39.62C20.94 38.45 20.05 37.12 19.43 35.62C18.81 34.12 18.5 32.53 18.5 30.87C18.5 29.73 18.64 28.64 18.93 27.58C19.23 26.53 19.64 25.54 20.18 24.63C20.72 23.72 21.37 22.88 22.12 22.13C22.87 21.38 23.7 20.75 24.61 20.22C25.53 19.69 26.51 19.27 27.57 18.97C28.62 18.66 29.72 18.52 30.87 18.53C31.75 18.53 32.61 18.62 33.45 18.79C34.3 18.97 35.12 19.25 35.93 19.62L35.02 21.66Z" fill="#8B57C2" fill-opacity="1.000000" fill-rule="nonzero"/>
	</g>
</svg>
