<svg width="48.000000" height="48.000000" viewBox="0 0 48 48" fill="none" xmlns="http://www.w3.org/2000/svg" xmlns:xlink="http://www.w3.org/1999/xlink">
	<desc>
			Created with Pixso.
	</desc>
	<defs>
		<clipPath id="clip3_1779">
			<rect id="icon/science" rx="23.500000" width="47.000000" height="47.000000" transform="translate(0.500000 0.500000)" fill="white" fill-opacity="0"/>
		</clipPath>
	</defs>
	<rect id="icon/science" rx="23.500000" width="47.000000" height="47.000000" transform="translate(0.500000 0.500000)" fill="#FFFFFF" fill-opacity="0"/>
	<g clip-path="url(#clip3_1779)">
		<path id="Vector" d="M22.33 19.5C21.18 20.38 20.08 21.34 19.06 22.37C14.23 27.21 11.78 32.61 13.59 34.42C15.4 36.24 20.79 33.78 25.61 28.94C26.64 27.92 27.6 26.82 28.48 25.66" stroke="#8B57C2" stroke-opacity="1.000000" stroke-width="1.500000" stroke-linejoin="round" stroke-linecap="round"/>
		<path id="Vector" d="M28.48 25.66C31.33 29.45 32.49 33.01 31.08 34.42C29.27 36.23 23.89 33.78 19.06 28.94C14.23 24.1 11.78 18.71 13.59 16.9C15 15.49 18.56 16.65 22.34 19.5" stroke="#8B57C2" stroke-opacity="1.000000" stroke-width="1.500000" stroke-linejoin="round" stroke-linecap="round"/>
		<path id="Vector" d="M21.73 26.26C21.89 26.42 22.11 26.51 22.33 26.51C22.56 26.51 22.78 26.42 22.93 26.26C23.09 26.1 23.18 25.88 23.18 25.66C23.18 25.43 23.09 25.22 22.93 25.06C22.78 24.9 22.56 24.81 22.33 24.81C22.11 24.81 21.89 24.9 21.73 25.06C21.57 25.22 21.49 25.43 21.49 25.66C21.49 25.88 21.57 26.1 21.73 26.26ZM25.75 17.3C26.69 17.13 27.57 16.69 28.26 16.02C28.95 15.36 29.43 14.5 29.64 13.56L29.67 13.42C29.78 12.89 30.53 12.89 30.65 13.41L30.69 13.58C30.91 14.52 31.39 15.37 32.08 16.03C32.78 16.69 33.65 17.13 34.59 17.29C35.13 17.39 35.13 18.16 34.59 18.25C33.65 18.42 32.78 18.86 32.08 19.52C31.39 20.18 30.91 21.03 30.69 21.96L30.65 22.13C30.53 22.66 29.78 22.66 29.67 22.13L29.63 21.98C29.43 21.04 28.95 20.19 28.26 19.52C27.56 18.86 26.69 18.41 25.74 18.25L25.75 18.25C25.21 18.16 25.21 17.39 25.75 17.3Z" stroke="#8B57C2" stroke-opacity="1.000000" stroke-width="1.500000" stroke-linejoin="round"/>
	</g>
	<rect id="icon/science" rx="23.500000" width="47.000000" height="47.000000" transform="translate(0.500000 0.500000)" stroke="#8B57C2" stroke-opacity="1.000000" stroke-width="1.000000"/>
</svg>
