<svg width="80" height="81" viewBox="0 0 80 81" fill="none" xmlns="http://www.w3.org/2000/svg">
<g filter="url(#filter0_d_29_220)">
<path d="M63.3333 23.7744C63.3333 36.6285 52.8866 47.0488 40 47.0488C27.1134 47.0488 16.6667 36.6285 16.6667 23.7744C16.6667 10.9203 27.1134 0.5 40 0.5C52.8866 0.5 63.3333 10.9203 63.3333 23.7744ZM17.3667 23.7744C17.3667 36.2429 27.5 46.3506 40 46.3506C52.5 46.3506 62.6333 36.2429 62.6333 23.7744C62.6333 11.3059 52.5 1.19823 40 1.19823C27.5 1.19823 17.3667 11.3059 17.3667 23.7744Z" fill="url(#paint0_linear_29_220)"/>
<path d="M64.9116 43.1311C55.8022 52.2828 41.0329 52.2828 31.9235 43.1311C22.8141 33.9793 22.8141 19.1413 31.9235 9.98955C41.0329 0.837774 55.8022 0.837774 64.9116 9.98955C74.021 19.1413 74.021 33.9793 64.9116 43.1311ZM32.4183 10.4867C23.5822 19.3639 23.5822 33.7567 32.4183 42.6339C41.2545 51.5112 55.5807 51.5112 64.4168 42.6339C73.2529 33.7567 73.2529 19.3639 64.4168 10.4867C55.5807 1.60945 41.2545 1.60945 32.4183 10.4867Z" fill="url(#paint1_linear_29_220)"/>
<path d="M52.5 58.4349C39.5213 58.4349 29 47.9396 29 34.993C29 22.0464 39.5213 11.5512 52.5 11.5512C65.4787 11.5512 76 22.0464 76 34.993C76 47.9396 65.4787 58.4349 52.5 58.4349ZM52.5 12.2544C39.9107 12.2544 29.705 22.4348 29.705 34.993C29.705 47.5512 39.9107 57.7316 52.5 57.7316C65.0893 57.7316 75.295 47.5512 75.295 34.993C75.295 22.4348 65.0893 12.2544 52.5 12.2544Z" fill="url(#paint2_linear_29_220)"/>
<path d="M32.8751 60.0205C23.7657 50.8687 23.7657 36.0308 32.8751 26.879C41.9846 17.7272 56.7538 17.7272 65.8632 26.879C74.9726 36.0308 74.9726 50.8687 65.8632 60.0205C56.7538 69.1723 41.9846 69.1723 32.8751 60.0205ZM65.3684 27.3761C56.5323 18.4989 42.2061 18.4989 33.37 27.3761C24.5338 36.2533 24.5338 50.6461 33.37 59.5234C42.2061 68.4006 56.5323 68.4006 65.3684 59.5234C74.2045 50.6461 74.2045 36.2533 65.3684 27.3761Z" fill="url(#paint3_linear_29_220)"/>
<path d="M16.6667 48.8907C16.6667 35.8516 27.1134 25.2814 40 25.2814C52.8866 25.2814 63.3333 35.8516 63.3333 48.8907C63.3333 61.9298 52.8866 72.5 40 72.5C27.1133 72.5 16.6667 61.9298 16.6667 48.8907ZM62.6333 48.8907C62.6333 36.2428 52.5 25.9897 40 25.9897C27.5 25.9897 17.3667 36.2428 17.3667 48.8907C17.3667 61.5386 27.5 71.7917 40 71.7917C52.5 71.7917 62.6333 61.5386 62.6333 48.8907Z" fill="url(#paint4_linear_29_220)"/>
<path d="M14.1607 27.835C23.2701 18.6832 38.0394 18.6832 47.1488 27.835C56.2582 36.9868 56.2582 51.8247 47.1488 60.9765C38.0394 70.1283 23.2701 70.1283 14.1607 60.9765C5.0513 51.8247 5.0513 36.9868 14.1607 27.835ZM46.654 60.4794C55.4901 51.6022 55.4901 37.2093 46.654 28.3321C37.8178 19.4549 23.4917 19.4549 14.6555 28.3321C5.8194 37.2093 5.8194 51.6022 14.6555 60.4794C23.4916 69.3566 37.8178 69.3566 46.654 60.4794Z" fill="url(#paint5_linear_29_220)"/>
<path d="M27.5 11.5512C40.4787 11.5512 51 22.0464 51 34.993C51 47.9396 40.4787 58.4349 27.5 58.4349C14.5213 58.4349 4 47.9396 4 34.993C4 22.0464 14.5213 11.5512 27.5 11.5512ZM27.5 57.7316C40.0893 57.7316 50.295 47.5512 50.295 34.993C50.295 22.4348 40.0893 12.2544 27.5 12.2544C14.9107 12.2544 4.705 22.4348 4.705 34.993C4.705 47.5512 14.9107 57.7316 27.5 57.7316Z" fill="url(#paint6_linear_29_220)"/>
<path d="M48.1004 9.03356C57.2098 18.1853 57.2098 33.0233 48.1003 42.1751C38.9909 51.3268 24.2217 51.3268 15.1123 42.1751C6.00287 33.0233 6.00288 18.1853 15.1123 9.03355C24.2217 -0.118222 38.991 -0.118219 48.1004 9.03356ZM15.6071 41.6779C24.4432 50.5552 38.7694 50.5552 47.6055 41.6779C56.4417 32.8007 56.4417 18.4079 47.6055 9.53068C38.7694 0.653453 24.4432 0.653453 15.6071 9.53067C6.77098 18.4079 6.77097 32.8007 15.6071 41.6779Z" fill="url(#paint7_linear_29_220)"/>
</g>
<defs>
<filter id="filter0_d_29_220" x="0" y="0.5" width="80" height="80" filterUnits="userSpaceOnUse" color-interpolation-filters="sRGB">
<feFlood flood-opacity="0" result="BackgroundImageFix"/>
<feColorMatrix in="SourceAlpha" type="matrix" values="0 0 0 0 0 0 0 0 0 0 0 0 0 0 0 0 0 0 127 0" result="hardAlpha"/>
<feOffset dy="4"/>
<feGaussianBlur stdDeviation="2"/>
<feComposite in2="hardAlpha" operator="out"/>
<feColorMatrix type="matrix" values="0 0 0 0 0 0 0 0 0 0 0 0 0 0 0 0 0 0 0.25 0"/>
<feBlend mode="normal" in2="BackgroundImageFix" result="effect1_dropShadow_29_220"/>
<feBlend mode="normal" in="SourceGraphic" in2="effect1_dropShadow_29_220" result="shape"/>
</filter>
<linearGradient id="paint0_linear_29_220" x1="40" y1="0.5" x2="40" y2="72.5" gradientUnits="userSpaceOnUse">
<stop stop-color="#9567B0"/>
<stop offset="1" stop-color="#DC8887"/>
</linearGradient>
<linearGradient id="paint1_linear_29_220" x1="40" y1="0.5" x2="40" y2="72.5" gradientUnits="userSpaceOnUse">
<stop stop-color="#9567B0"/>
<stop offset="1" stop-color="#DC8887"/>
</linearGradient>
<linearGradient id="paint2_linear_29_220" x1="40" y1="0.5" x2="40" y2="72.5" gradientUnits="userSpaceOnUse">
<stop stop-color="#9567B0"/>
<stop offset="1" stop-color="#DC8887"/>
</linearGradient>
<linearGradient id="paint3_linear_29_220" x1="40" y1="0.5" x2="40" y2="72.5" gradientUnits="userSpaceOnUse">
<stop stop-color="#9567B0"/>
<stop offset="1" stop-color="#DC8887"/>
</linearGradient>
<linearGradient id="paint4_linear_29_220" x1="40" y1="0.5" x2="40" y2="72.5" gradientUnits="userSpaceOnUse">
<stop stop-color="#9567B0"/>
<stop offset="1" stop-color="#DC8887"/>
</linearGradient>
<linearGradient id="paint5_linear_29_220" x1="40" y1="0.5" x2="40" y2="72.5" gradientUnits="userSpaceOnUse">
<stop stop-color="#9567B0"/>
<stop offset="1" stop-color="#DC8887"/>
</linearGradient>
<linearGradient id="paint6_linear_29_220" x1="40" y1="0.5" x2="40" y2="72.5" gradientUnits="userSpaceOnUse">
<stop stop-color="#9567B0"/>
<stop offset="1" stop-color="#DC8887"/>
</linearGradient>
<linearGradient id="paint7_linear_29_220" x1="40" y1="0.5" x2="40" y2="72.5" gradientUnits="userSpaceOnUse">
<stop stop-color="#9567B0"/>
<stop offset="1" stop-color="#DC8887"/>
</linearGradient>
</defs>
</svg>
