<svg width="115" height="10" viewBox="0 0 115 10" fill="none" xmlns="http://www.w3.org/2000/svg">
<path fill-rule="evenodd" clip-rule="evenodd" d="M7.73558 7.08309V3.59309C7.73558 2.60309 7.18771 2.13309 6.26771 2.13309C5.50277 2.13309 4.84119 2.57309 4.55176 3.01309C4.36569 2.46309 3.90052 2.13309 3.16659 2.13309C2.40164 2.13309 1.74007 2.59309 1.53333 2.88309V2.25309H0.22052V7.08309H1.53333V3.83309C1.72973 3.56309 2.11221 3.26309 2.56704 3.26309C3.10457 3.26309 3.31131 3.58309 3.31131 4.03309V7.08309H4.63445V3.82309C4.82052 3.56309 5.20299 3.26309 5.66816 3.26309C6.20569 3.26309 6.41243 3.58309 6.41243 4.03309V7.08309H7.73558ZM11.3432 7.20309C9.69962 7.20309 8.70726 6.04309 8.70726 4.66309C8.70726 3.29309 9.69962 2.13309 11.3432 2.13309C12.9972 2.13309 13.9895 3.29309 13.9895 4.66309C13.9895 6.04309 12.9972 7.20309 11.3432 7.20309ZM11.3432 6.07309C12.1598 6.07309 12.625 5.42309 12.625 4.66309C12.625 3.91309 12.1598 3.26309 11.3432 3.26309C10.5266 3.26309 10.0718 3.91309 10.0718 4.66309C10.0718 5.42309 10.5266 6.07309 11.3432 6.07309ZM19.6439 7.08309V3.67309C19.6439 2.73309 19.1167 2.13309 18.021 2.13309C17.2043 2.13309 16.5945 2.51309 16.274 2.88309V2.25309H14.9612V7.08309H16.274V3.83309C16.4911 3.54309 16.8942 3.26309 17.4111 3.26309C17.9693 3.26309 18.3311 3.49309 18.3311 4.16309V7.08309H19.6439ZM23.2619 7.20309C21.6183 7.20309 20.6259 6.04309 20.6259 4.66309C20.6259 3.29309 21.6183 2.13309 23.2619 2.13309C24.9158 2.13309 25.9082 3.29309 25.9082 4.66309C25.9082 6.04309 24.9158 7.20309 23.2619 7.20309ZM23.2619 6.07309C24.0785 6.07309 24.5437 5.42309 24.5437 4.66309C24.5437 3.91309 24.0785 3.26309 23.2619 3.26309C22.4452 3.26309 21.9904 3.91309 21.9904 4.66309C21.9904 5.42309 22.4452 6.07309 23.2619 6.07309ZM28.1927 5.53309C28.4097 5.84309 28.8956 6.07309 29.3194 6.07309C30.0843 6.07309 30.5909 5.51309 30.5909 4.67309C30.5909 3.83309 30.0843 3.26309 29.3194 3.26309C28.8956 3.26309 28.4097 3.50309 28.1927 3.82309V5.53309ZM28.1927 7.08309H26.8798V0.413086H28.1927V2.87309C28.5855 2.38309 29.1437 2.13309 29.7329 2.13309C31.0043 2.13309 31.945 3.09309 31.945 4.67309C31.945 6.28309 30.994 7.20309 29.7329 7.20309C29.1333 7.20309 28.5855 6.94309 28.1927 6.46309V7.08309ZM37.2479 7.08309H35.9351V6.58309C35.594 6.97309 35.0048 7.20309 34.3536 7.20309C33.5576 7.20309 32.6169 6.68309 32.6169 5.60309C32.6169 4.47309 33.5576 4.04309 34.3536 4.04309C35.0151 4.04309 35.6043 4.25309 35.9351 4.63309V3.98309C35.9351 3.49309 35.501 3.17309 34.8394 3.17309C34.3019 3.17309 33.8057 3.36309 33.3819 3.74309L32.8857 2.89309C33.4956 2.37309 34.2812 2.13309 35.0668 2.13309C36.2039 2.13309 37.2479 2.57309 37.2479 3.96309V7.08309ZM34.8807 6.34309C35.3046 6.34309 35.718 6.20309 35.9351 5.92309V5.32309C35.718 5.04309 35.3046 4.90309 34.8807 4.90309C34.3639 4.90309 33.9401 5.16309 33.9401 5.63309C33.9401 6.08309 34.3639 6.34309 34.8807 6.34309ZM43.2331 7.08309V3.67309C43.2331 2.73309 42.7059 2.13309 41.6102 2.13309C40.7936 2.13309 40.1837 2.51309 39.8632 2.88309V2.25309H38.5504V7.08309H39.8632V3.83309C40.0803 3.54309 40.4834 3.26309 41.0003 3.26309C41.5585 3.26309 41.9203 3.49309 41.9203 4.16309V7.08309H43.2331ZM49.4147 7.08309L47.3783 4.44309L49.3527 2.25309H47.7401L45.8484 4.40309V0.413086H44.5356V7.08309H45.8484V5.84309L46.4479 5.22309L47.7711 7.08309H49.4147Z" fill="white"/>
<path fill-rule="evenodd" clip-rule="evenodd" d="M111.023 1.32568H112.099V4.63484H112.159L113.558 3.04526L114.55 3.04276L113.016 4.78026L114.864 6.95318H113.625L112.114 4.93068H112.099V6.95318H111.023V1.32568ZM59.8969 1.57734V4.66318C59.8969 5.71443 60.2187 6.28901 61.1201 6.28901C61.9829 6.28901 62.3279 5.59234 62.3279 4.72401V1.57734H63.3443V4.91609C63.3443 6.27359 62.4252 7.04276 61.0883 7.04276C59.5575 7.04276 58.7616 6.32734 58.7616 4.86234V1.57734H59.8969ZM65.7201 3.56526C66.0841 3.19734 66.5906 3.02068 67.0988 3.02068C68.0412 3.02068 68.54 3.51068 68.54 4.47776V6.94984H67.4706V4.59401C67.4706 4.05609 67.2212 3.70276 66.6643 3.70276C66.1405 3.70276 65.7292 4.03318 65.7292 4.66318V6.94984H64.6584V3.11193H65.7201V3.56526ZM69.7986 6.94984H70.8697V3.11193H69.7986V6.94984ZM69.6935 1.96109C69.6935 1.66984 69.9506 1.36984 70.3145 1.36984C70.685 1.36984 70.9735 1.66193 70.9735 1.96109C70.9735 2.29068 70.7254 2.60568 70.33 2.60568C69.951 2.60568 69.6935 2.29068 69.6935 1.96109ZM73.2395 6.94984L71.5253 3.09568H72.6602C73.0074 3.97859 73.3674 4.80901 73.7051 5.87568H73.7215C74.0854 4.80901 74.4278 3.97859 74.7978 3.09568H75.8027L73.9877 6.94984H73.2395ZM78.9899 4.57109C79.0317 3.98609 78.8138 3.58818 78.2836 3.58818C77.6689 3.58818 77.3933 4.05609 77.4049 4.57109H78.9899ZM77.3873 5.12359C77.3631 5.84568 77.8946 6.38193 78.5631 6.38193C78.9602 6.38193 79.3771 6.25151 79.6442 6.07443L79.95 6.61234C79.4021 6.91901 78.8293 7.04276 78.3706 7.04276C77.1538 7.04276 76.2442 6.22068 76.2442 4.95443C76.2442 3.77193 77.1452 3.02068 78.2978 3.02068C79.5546 3.02068 80.0788 3.97943 79.9995 5.12359H77.3873ZM82.1018 3.78734H82.1169L82.3348 3.48818C82.4546 3.31859 82.6966 3.02068 83.027 3.02068C83.2686 3.02068 83.5275 3.14359 83.7532 3.36526L83.3492 4.07151C83.1721 3.98609 83.0589 3.94109 82.8427 3.94109C82.4718 3.94109 82.1096 4.22526 82.1096 5.05359V6.94984H81.035V3.11193H82.1018V3.78734ZM86.6127 3.83318C86.3715 3.66443 86.1217 3.58818 85.927 3.58818C85.6858 3.58818 85.4437 3.71818 85.4437 3.97943C85.4437 4.28651 85.8314 4.46359 86.2819 4.77693C86.8556 5.18568 87.0231 5.58443 87.0231 5.93568C87.0231 6.47484 86.4021 7.04276 85.5174 7.04276C84.9609 7.04276 84.5504 6.85776 84.1727 6.60484L84.5108 6.07443C84.7511 6.25984 85.097 6.44276 85.3864 6.44276C85.6948 6.44276 85.9675 6.28901 85.9675 5.96693C85.9675 5.60609 85.548 5.40693 85.1625 5.14568C84.7029 4.84693 84.3898 4.55484 84.3898 4.07984C84.3898 3.47234 85.0005 3.02068 85.7896 3.02068C86.2345 3.02068 86.6682 3.12734 86.9603 3.37401L86.6127 3.83318ZM89.6647 4.90818C89.1418 5.06943 88.8761 5.35318 88.8761 5.79026C88.8761 6.12859 89.1018 6.35901 89.3615 6.35901C89.7866 6.35901 90.3431 5.85193 90.2634 4.72401L89.6647 4.90818ZM90.005 6.58193C89.7142 6.81234 89.3438 7.04276 88.9743 7.04276C88.3454 7.04276 87.82 6.58193 87.82 5.87568C87.82 5.14568 88.3773 4.73943 89.3124 4.47776L90.2634 4.20901C90.2074 3.85651 89.8757 3.63443 89.5312 3.63443C89.0703 3.63443 88.7477 3.79568 88.466 4.02609L88.1184 3.54234C88.6194 3.15109 89.1095 3.02068 89.6647 3.02068C90.4077 3.02068 91.3186 3.24943 91.3186 4.44818V6.01318C91.3186 6.32068 91.3578 6.68234 91.4879 6.94984H90.3521C90.2694 6.81901 90.2466 6.59734 90.2466 6.38984L90.005 6.58193ZM92.519 6.94984H93.5915V1.30859H92.519V6.94984ZM103.081 4.90818C102.557 5.06943 102.291 5.35318 102.291 5.79026C102.291 6.12859 102.515 6.35901 102.775 6.35901C103.2 6.35901 103.757 5.85193 103.678 4.72401L103.081 4.90818ZM103.417 6.58193C103.129 6.81234 102.757 7.04276 102.387 7.04276C101.759 7.04276 101.234 6.58193 101.234 5.87568C101.234 5.14568 101.791 4.73943 102.726 4.47776L103.678 4.20901C103.619 3.85651 103.291 3.63443 102.942 3.63443C102.484 3.63443 102.161 3.79568 101.879 4.02609L101.533 3.54234C102.032 3.15109 102.524 3.02068 103.081 3.02068C103.821 3.02068 104.731 3.24943 104.731 4.44818V6.01318C104.731 6.32068 104.771 6.68234 104.899 6.94984H103.765C103.685 6.81901 103.659 6.59734 103.659 6.38984L103.417 6.58193ZM106.995 3.56526C107.358 3.19734 107.867 3.02068 108.374 3.02068C109.316 3.02068 109.815 3.51068 109.815 4.47776V6.94984H108.744V4.59401C108.744 4.05609 108.494 3.70276 107.938 3.70276C107.414 3.70276 107.003 4.03318 107.003 4.66318V6.94984H105.932V3.11193H106.995V3.56526ZM97.5002 6.30359H98.0799C98.7088 6.30359 99.1856 5.98943 99.1856 5.39151C99.1856 4.76151 98.6937 4.49318 98.0735 4.49318H97.5002V6.30359ZM97.5002 3.83318H97.8564C98.5098 3.83318 98.9534 3.43443 98.9534 2.93443C98.9534 2.45943 98.5809 2.25276 98.0898 2.25276H97.4998L97.5002 3.83318ZM96.3653 6.96443V1.59193H98.4043C99.354 1.59193 100.024 2.00609 100.024 2.73526C100.024 3.59443 99.2907 3.94859 98.8961 4.04776V4.06318C99.5973 4.09443 100.378 4.55401 100.378 5.37526C100.378 6.30359 99.5633 6.96443 98.2359 6.96443H96.3653Z" fill="#939393"/>
<path fill-rule="evenodd" clip-rule="evenodd" d="M53.839 0H54.2697V10H53.839V0Z" fill="white"/>
</svg>
