<svg width="24" height="17" viewBox="0 0 24 17" fill="none" xmlns="http://www.w3.org/2000/svg">
<path d="M12.0765 -0.00195312H12.21C13.443 0.00254688 19.6905 0.0475471 21.375 0.500547C21.8842 0.6388 22.3483 0.908281 22.7207 1.28206C23.0932 1.65584 23.361 2.12082 23.4975 2.63055C23.649 3.20055 23.7555 3.95505 23.8275 4.73355L23.8425 4.88955L23.8755 5.27955L23.8875 5.43555C23.985 6.80655 23.997 8.09055 23.9985 8.37105V8.48355C23.997 8.77455 23.9835 10.1455 23.8755 11.5735L23.8635 11.731L23.85 11.887C23.775 12.745 23.664 13.597 23.4975 14.224C23.361 14.7338 23.0932 15.1988 22.7207 15.5725C22.3483 15.9463 21.8842 16.2158 21.375 16.354C19.635 16.822 13.0215 16.855 12.105 16.8565H11.892C11.4285 16.8565 9.5115 16.8475 7.5015 16.7785L7.2465 16.7695L7.116 16.7635L6.8595 16.753L6.603 16.7425C4.938 16.669 3.3525 16.5505 2.622 16.3525C2.11294 16.2144 1.64902 15.9452 1.27658 15.5717C0.904129 15.1982 0.636185 14.7335 0.4995 14.224C0.333 13.5985 0.222 12.745 0.147 11.887L0.135 11.7295L0.123 11.5735C0.0485451 10.5572 0.00752298 9.53862 0 8.51955L0 8.33505C0.003 8.01255 0.015 6.89805 0.096 5.66805L0.1065 5.51355L0.111 5.43555L0.123 5.27955L0.156 4.88955L0.171 4.73355C0.243 3.95505 0.3495 3.19905 0.501 2.63055C0.637456 2.12082 0.905298 1.65584 1.27776 1.28206C1.65022 0.908281 2.11426 0.6388 2.6235 0.500547C3.354 0.305547 4.9395 0.185547 6.6045 0.110547L6.8595 0.100047L7.1175 0.0910471L7.2465 0.0865471L7.503 0.0760471C8.93056 0.0301523 10.3587 0.00464951 11.787 -0.000453055L12.0765 -0.00195312ZM9.6 4.81305V12.04L15.8355 8.42805L9.6 4.81305Z" fill="white"/>
</svg>
