<svg width="188.000000" height="60.000000" viewBox="0 0 188 60" fill="none" xmlns="http://www.w3.org/2000/svg" xmlns:xlink="http://www.w3.org/1999/xlink">
	<desc>
			Created with Pixso.
	</desc>
	<defs>
		<clipPath id="clip3_1252">
			<rect id="logo/mono" width="188.000000" height="60.000000" fill="white" fill-opacity="0"/>
		</clipPath>
	</defs>
	<rect id="logo/mono" width="188.000000" height="60.000000" fill="#FFFFFF" fill-opacity="0"/>
	<g clip-path="url(#clip3_1252)">
		<path id="Vector" d="M34.91 32.78L34.91 28.6C34.91 27.41 34.26 26.84 33.17 26.84C32.26 26.84 31.48 27.37 31.13 27.9C30.91 27.24 30.36 26.84 29.49 26.84C28.58 26.84 27.8 27.4 27.55 27.74L27.55 26.99L26 26.99L26 32.78L27.55 32.78L27.55 28.88C27.79 28.56 28.24 28.2 28.78 28.2C29.42 28.2 29.66 28.58 29.66 29.12L29.66 32.78L31.23 32.78L31.23 28.87C31.45 28.56 31.91 28.2 32.46 28.2C33.1 28.2 33.34 28.58 33.34 29.12L33.34 32.78L34.91 32.78ZM39.19 32.93C37.24 32.93 36.06 31.54 36.06 29.88C36.06 28.24 37.24 26.84 39.19 26.84C41.15 26.84 42.33 28.24 42.33 29.88C42.33 31.54 41.15 32.93 39.19 32.93ZM39.19 31.57C40.16 31.57 40.71 30.79 40.71 29.88C40.71 28.98 40.16 28.2 39.19 28.2C38.22 28.2 37.68 28.98 37.68 29.88C37.68 30.79 38.22 31.57 39.19 31.57ZM49.04 32.78L49.04 28.69C49.04 27.56 48.41 26.84 47.11 26.84C46.14 26.84 45.42 27.3 45.04 27.74L45.04 26.99L43.48 26.99L43.48 32.78L45.04 32.78L45.04 28.88C45.3 28.54 45.77 28.2 46.39 28.2C47.05 28.2 47.48 28.48 47.48 29.28L47.48 32.78L49.04 32.78ZM53.33 32.93C51.38 32.93 50.2 31.54 50.2 29.88C50.2 28.24 51.38 26.84 53.33 26.84C55.29 26.84 56.47 28.24 56.47 29.88C56.47 31.54 55.29 32.93 53.33 32.93ZM53.33 31.57C54.3 31.57 54.85 30.79 54.85 29.88C54.85 28.98 54.3 28.2 53.33 28.2C52.36 28.2 51.82 28.98 51.82 29.88C51.82 30.79 52.36 31.57 53.33 31.57ZM59.18 30.92C59.44 31.3 60.01 31.57 60.51 31.57C61.42 31.57 62.02 30.9 62.02 29.89C62.02 28.88 61.42 28.2 60.51 28.2C60.01 28.2 59.44 28.49 59.18 28.87L59.18 30.92ZM59.18 32.78L57.62 32.78L57.62 24.78L59.18 24.78L59.18 27.73C59.64 27.14 60.31 26.84 61.01 26.84C62.51 26.84 63.63 28 63.63 29.89C63.63 31.82 62.5 32.93 61.01 32.93C60.29 32.93 59.64 32.62 59.18 32.04L59.18 32.78ZM69.92 32.78L68.36 32.78L68.36 32.18C67.96 32.65 67.26 32.93 66.49 32.93C65.54 32.93 64.43 32.3 64.43 31.01C64.43 29.65 65.54 29.14 66.49 29.14C67.27 29.14 67.97 29.39 68.36 29.84L68.36 29.06C68.36 28.48 67.85 28.09 67.06 28.09C66.43 28.09 65.84 28.32 65.33 28.78L64.75 27.76C65.47 27.13 66.4 26.84 67.33 26.84C68.68 26.84 69.92 27.37 69.92 29.04L69.92 32.78ZM67.11 31.9C67.61 31.9 68.11 31.73 68.36 31.39L68.36 30.67C68.11 30.34 67.61 30.17 67.11 30.17C66.5 30.17 66 30.48 66 31.04C66 31.58 66.5 31.9 67.11 31.9ZM77.02 32.78L77.02 28.69C77.02 27.56 76.39 26.84 75.1 26.84C74.13 26.84 73.4 27.3 73.02 27.74L73.02 26.99L71.47 26.99L71.47 32.78L73.02 32.78L73.02 28.88C73.28 28.54 73.76 28.2 74.37 28.2C75.03 28.2 75.46 28.48 75.46 29.28L75.46 32.78L77.02 32.78ZM84.35 32.78L81.94 29.62L84.28 26.99L82.37 26.99L80.12 29.57L80.12 24.78L78.57 24.78L78.57 32.78L80.12 32.78L80.12 31.3L80.83 30.55L82.4 32.78L84.35 32.78Z" fill="#000000" fill-opacity="1.000000" fill-rule="evenodd"/>
		<path id="Vector" d="M157.44 25.87L158.72 25.87L158.72 29.85L158.79 29.85L160.45 27.94L161.62 27.94L159.8 30.02L162 32.63L160.53 32.63L158.73 30.2L158.72 30.2L158.72 32.63L157.44 32.63L157.44 25.87ZM96.79 26.18L96.79 29.88C96.79 31.14 97.17 31.83 98.24 31.83C99.26 31.83 99.67 31 99.67 29.95L99.67 26.18L100.88 26.18L100.88 30.18C100.88 31.81 99.79 32.74 98.2 32.74C96.39 32.74 95.44 31.88 95.44 30.12L95.44 26.18L96.79 26.18ZM103.7 28.56C104.13 28.12 104.73 27.91 105.33 27.91C106.45 27.91 107.04 28.5 107.04 29.66L107.04 32.62L105.77 32.62L105.77 29.8C105.77 29.15 105.48 28.73 104.82 28.73C104.2 28.73 103.71 29.12 103.71 29.88L103.71 32.62L102.44 32.62L102.44 28.02L103.7 28.02L103.7 28.56ZM108.54 32.62L109.81 32.62L109.81 28.02L108.54 28.02L108.54 32.62ZM108.41 26.64C108.41 26.29 108.72 25.93 109.15 25.93C109.59 25.93 109.93 26.28 109.93 26.64C109.93 27.03 109.63 27.41 109.17 27.41C108.72 27.41 108.41 27.03 108.41 26.64ZM112.62 32.62L110.58 28L111.93 28C112.34 29.06 112.77 30.05 113.17 31.33L113.19 31.33C113.62 30.05 114.03 29.06 114.47 28L115.66 28L113.5 32.62L112.62 32.62ZM119.44 29.77C119.49 29.07 119.23 28.59 118.6 28.59C117.87 28.59 117.54 29.15 117.56 29.77L119.44 29.77ZM117.54 30.43C117.51 31.3 118.14 31.94 118.93 31.94C119.4 31.94 119.9 31.79 120.21 31.57L120.58 32.22C119.93 32.59 119.25 32.74 118.7 32.74C117.26 32.74 116.18 31.75 116.18 30.23C116.18 28.81 117.25 27.91 118.62 27.91C120.11 27.91 120.73 29.06 120.64 30.43L117.54 30.43ZM123.13 28.83L123.15 28.83L123.41 28.47C123.55 28.27 123.84 27.91 124.23 27.91C124.51 27.91 124.82 28.06 125.09 28.32L124.61 29.17C124.4 29.07 124.27 29.01 124.01 29.01C123.57 29.01 123.14 29.35 123.14 30.35L123.14 32.62L121.86 32.62L121.86 28.02L123.13 28.02L123.13 28.83ZM128.48 28.88C128.2 28.68 127.9 28.59 127.67 28.59C127.38 28.59 127.09 28.75 127.09 29.06C127.09 29.43 127.55 29.64 128.09 30.02C128.77 30.51 128.97 30.99 128.97 31.41C128.97 32.05 128.23 32.74 127.18 32.74C126.52 32.74 126.04 32.51 125.59 32.21L125.99 31.57C126.27 31.8 126.68 32.02 127.03 32.02C127.39 32.02 127.72 31.83 127.72 31.44C127.72 31.01 127.22 30.77 126.76 30.46C126.22 30.1 125.84 29.75 125.84 29.18C125.84 28.45 126.57 27.91 127.51 27.91C128.03 27.91 128.55 28.04 128.89 28.33L128.48 28.88ZM132.1 30.17C131.48 30.37 131.17 30.71 131.17 31.23C131.17 31.64 131.43 31.91 131.74 31.91C132.25 31.91 132.91 31.31 132.81 29.95L132.1 30.17ZM132.5 32.18C132.16 32.46 131.72 32.74 131.28 32.74C130.54 32.74 129.91 32.18 129.91 31.33C129.91 30.46 130.57 29.97 131.68 29.66L132.81 29.33C132.75 28.91 132.35 28.65 131.94 28.65C131.4 28.65 131.01 28.84 130.68 29.12L130.27 28.54C130.86 28.07 131.44 27.91 132.1 27.91C132.98 27.91 134.06 28.18 134.06 29.62L134.06 31.5C134.06 31.87 134.11 32.3 134.26 32.62L132.92 32.62C132.82 32.47 132.79 32.2 132.79 31.95L132.5 32.18ZM135.49 32.62L136.76 32.62L136.76 25.85L135.49 25.85L135.49 32.62ZM148.02 30.17C147.39 30.37 147.08 30.71 147.08 31.23C147.08 31.64 147.35 31.91 147.65 31.91C148.16 31.91 148.82 31.31 148.73 29.95L148.02 30.17ZM148.42 32.18C148.07 32.46 147.63 32.74 147.19 32.74C146.45 32.74 145.83 32.18 145.83 31.33C145.83 30.46 146.49 29.97 147.6 29.66L148.73 29.33C148.66 28.91 148.27 28.65 147.85 28.65C147.31 28.65 146.93 28.84 146.59 29.12L146.18 28.54C146.77 28.07 147.36 27.91 148.02 27.91C148.89 27.91 149.97 28.18 149.97 29.62L149.97 31.5C149.97 31.87 150.02 32.3 150.17 32.62L148.83 32.62C148.73 32.47 148.7 32.2 148.7 31.95L148.42 32.18ZM152.66 28.56C153.09 28.12 153.69 27.91 154.3 27.91C155.41 27.91 156.01 28.5 156.01 29.66L156.01 32.62L154.74 32.62L154.74 29.8C154.74 29.15 154.44 28.73 153.78 28.73C153.16 28.73 152.67 29.12 152.67 29.88L152.67 32.62L151.4 32.62L151.4 28.02L152.66 28.02L152.66 28.56ZM141.4 31.85L142.08 31.85C142.83 31.85 143.4 31.47 143.4 30.75C143.4 30 142.81 29.68 142.08 29.68L141.4 29.68L141.4 31.85ZM141.4 28.88L141.82 28.88C142.59 28.88 143.12 28.41 143.12 27.81C143.12 27.24 142.68 26.99 142.1 26.99L141.4 26.99L141.4 28.88ZM140.05 32.64L140.05 26.19L142.47 26.19C143.6 26.19 144.39 26.69 144.39 27.57C144.39 28.6 143.52 29.02 143.05 29.14L143.05 29.16C143.88 29.2 144.81 29.75 144.81 30.73C144.81 31.85 143.84 32.64 142.27 32.64L140.05 32.64Z" fill="#565656" fill-opacity="1.000000" fill-rule="evenodd"/>
		<path id="Vector" d="M89.6 24.28L90.11 24.28L90.11 36.28L89.6 36.28L89.6 24.28Z" fill="#000000" fill-opacity="1.000000" fill-rule="evenodd"/>
	</g>
</svg>
