<svg width="188.000000" height="60.000000" viewBox="0 0 188 60" fill="none" xmlns="http://www.w3.org/2000/svg" xmlns:xlink="http://www.w3.org/1999/xlink">
	<desc>
			Created with Pixso.
	</desc>
	<defs>
		<clipPath id="clip32_504">
			<rect id="logo/samsung" width="188.000000" height="60.000000" fill="white" fill-opacity="0"/>
		</clipPath>
	</defs>
	<rect id="logo/samsung" width="188.000000" height="60.000000" fill="#FFFFFF" fill-opacity="0"/>
	<g clip-path="url(#clip32_504)">
		<path id="path10" d="M140.94 21.61C142.22 29.14 122.24 38.99 96.31 43.62C70.39 48.25 48.33 45.9 47.05 38.37C45.78 30.85 65.76 21 91.68 16.37C117.61 11.74 139.66 14.09 140.94 21.61Z" fill="#034EA2" fill-opacity="1.000000" fill-rule="nonzero"/>
		<path id="polygon16" d="M116.54 32.78L116.4 24.96L118.81 24.96L118.81 34.82L115.35 34.82L112.95 26.73L112.9 26.73L113.03 34.82L110.64 34.82L110.64 24.96L114.25 24.96L116.48 32.78L116.54 32.78Z" fill="#FFFFFF" fill-opacity="1.000000" fill-rule="nonzero"/>
		<path id="polygon18" d="M72.8 25.88L71.47 34.92L68.84 34.92L70.65 24.96L74.97 24.96L76.76 34.92L74.15 34.92L72.85 25.88L72.8 25.88Z" fill="#FFFFFF" fill-opacity="1.000000" fill-rule="nonzero"/>
		<path id="polygon20" d="M82.87 34.92L81.25 25.97L81.2 25.97L81.13 34.92L78.7 34.92L78.92 24.96L82.88 24.96L84.08 32.58L84.13 32.58L85.33 24.96L89.3 24.96L89.51 34.92L87.08 34.92L87.01 25.97L86.96 25.97L85.34 34.92L82.87 34.92Z" fill="#FFFFFF" fill-opacity="1.000000" fill-rule="nonzero"/>
		<path id="path22" d="M64.75 32.11C64.85 32.35 64.82 32.66 64.77 32.85C64.69 33.18 64.47 33.52 63.83 33.52C63.22 33.52 62.85 33.16 62.85 32.62L62.85 31.65L60.24 31.65L60.24 32.42C60.24 34.64 61.94 35.32 63.77 35.32C65.53 35.32 66.98 34.7 67.21 33.04C67.33 32.18 67.24 31.61 67.2 31.4C66.79 29.32 63.1 28.69 62.82 27.53C62.78 27.33 62.79 27.12 62.81 27C62.88 26.68 63.09 26.33 63.7 26.33C64.27 26.33 64.61 26.69 64.61 27.24C64.61 27.42 64.61 27.85 64.61 27.85L67.03 27.85L67.03 27.15C67.03 24.98 65.13 24.64 63.75 24.64C62.02 24.64 60.61 25.23 60.35 26.85C60.28 27.3 60.27 27.7 60.37 28.2C60.8 30.23 64.25 30.82 64.75 32.11Z" fill="#FFFFFF" fill-opacity="1.000000" fill-rule="nonzero"/>
		<path id="path24" d="M96.35 32.09C96.45 32.33 96.42 32.64 96.37 32.82C96.3 33.15 96.08 33.49 95.44 33.49C94.84 33.49 94.47 33.13 94.47 32.59L94.47 31.64L91.89 31.64L91.88 32.4C91.88 34.6 93.57 35.26 95.38 35.26C97.12 35.26 98.56 34.65 98.78 33.01C98.9 32.15 98.82 31.6 98.77 31.39C98.37 29.32 94.72 28.71 94.44 27.55C94.4 27.35 94.41 27.14 94.43 27.04C94.5 26.72 94.71 26.37 95.31 26.37C95.88 26.37 96.21 26.73 96.21 27.27C96.21 27.45 96.21 27.87 96.21 27.87L98.61 27.87L98.61 27.18C98.61 25.04 96.73 24.7 95.36 24.7C93.65 24.7 92.25 25.28 92 26.89C91.93 27.33 91.92 27.72 92.02 28.22C92.44 30.23 95.86 30.82 96.35 32.09Z" fill="#FFFFFF" fill-opacity="1.000000" fill-rule="nonzero"/>
		<path id="path26" d="M104.52 33.43C105.19 33.43 105.4 32.96 105.45 32.71C105.47 32.6 105.47 32.46 105.47 32.33L105.47 24.96L107.93 24.96L107.93 32.1C107.93 32.29 107.92 32.66 107.91 32.76C107.74 34.62 106.3 35.22 104.52 35.22C102.73 35.22 101.29 34.62 101.12 32.76C101.11 32.66 101.1 32.29 101.1 32.1L101.1 24.96L103.56 24.96L103.56 32.33C103.56 32.46 103.56 32.6 103.58 32.71C103.63 32.96 103.84 33.43 104.52 33.43Z" fill="#FFFFFF" fill-opacity="1.000000" fill-rule="nonzero"/>
		<path id="path28" d="M124.79 33.33C125.49 33.33 125.74 32.87 125.79 32.61C125.8 32.49 125.81 32.35 125.81 32.23L125.81 30.78L124.81 30.78L124.81 29.33L128.26 29.33L128.26 32C128.25 32.19 128.25 32.33 128.22 32.66C128.06 34.47 126.53 35.12 124.8 35.12C123.08 35.12 121.55 34.47 121.38 32.66C121.35 32.33 121.35 32.19 121.35 32L121.35 27.8C121.35 27.63 121.37 27.31 121.39 27.15C121.6 25.29 123.08 24.69 124.8 24.69C126.53 24.69 128.03 25.28 128.21 27.15C128.25 27.47 128.24 27.8 128.24 27.8L128.24 28.14L125.79 28.14L125.79 27.58C125.79 27.58 125.78 27.34 125.75 27.2C125.71 26.98 125.52 26.47 124.78 26.47C124.08 26.47 123.87 26.95 123.82 27.2C123.79 27.33 123.78 27.51 123.78 27.67L123.78 32.23C123.77 32.35 123.78 32.49 123.8 32.61C123.84 32.87 124.09 33.33 124.79 33.33Z" fill="#FFFFFF" fill-opacity="1.000000" fill-rule="nonzero"/>
	</g>
</svg>
