<svg width="188.000000" height="60.000000" viewBox="0 0 188 60" fill="none" xmlns="http://www.w3.org/2000/svg" xmlns:xlink="http://www.w3.org/1999/xlink">
	<desc>
			Created with Pixso.
	</desc>
	<defs>
		<clipPath id="clip3_1264">
			<rect id="logo/sense" width="188.000000" height="60.000000" fill="white" fill-opacity="0"/>
		</clipPath>
	</defs>
	<rect id="logo/sense" width="188.000000" height="60.000000" fill="#FFFFFF" fill-opacity="0"/>
	<g clip-path="url(#clip3_1264)">
		<path id="Vector" d="M54.76 36.17C52.73 36.17 51.22 34.82 51.03 32.91L59.01 32.91C59.89 29.53 57.93 27 54.41 27C51.43 27 49 29.47 49 32.5C49 35.63 51.47 38 54.75 38C57.23 38 59.13 36.77 60 34.9L58.34 33.91C57.82 35.25 56.57 36.17 54.76 36.17ZM54.41 28.76C56.25 28.76 57.32 29.79 57.28 31.33L51.13 31.33C51.5 29.71 52.71 28.76 54.41 28.76Z" fill="#2722FF" fill-opacity="1.000000" fill-rule="nonzero"/>
		<path id="Vector" d="M66.85 27C65.56 27 64.49 27.66 63.72 28.58L63.72 27.31L62 27.31L62 37.99L63.72 37.99L63.72 32.37C63.72 30.49 64.87 28.87 66.75 28.87C68.33 28.87 69.27 29.99 69.27 31.59L69.27 38L71 38L71 31.42C70.99 28.57 69.4 27 66.85 27Z" fill="#2722FF" fill-opacity="1.000000" fill-rule="nonzero"/>
		<path id="Vector" d="M89.76 38C92.23 38 94.13 36.77 95 34.9L93.34 33.91C92.82 35.25 91.57 36.17 89.76 36.17C87.73 36.17 86.22 34.82 86.03 32.91L94 32.91C94.88 29.53 92.93 27 89.41 27C86.43 27 84 29.47 84 32.5C84 35.63 86.48 38 89.76 38ZM89.41 28.76C91.24 28.76 92.32 29.79 92.27 31.33L86.13 31.33C86.5 29.71 87.71 28.76 89.41 28.76Z" fill="#2722FF" fill-opacity="1.000000" fill-rule="nonzero"/>
		<path id="Vector" d="M77.58 28.27C78.76 28.27 79.79 28.6 80.96 29.58L81.01 29.39L82 26.52L80.48 26L80.2 27.16C79.46 26.75 78.57 26.41 77.6 26.41C75.12 26.41 73.75 27.63 73.75 29.47C73.75 31.29 75.24 32.18 77.56 32.97C79.44 33.58 79.98 34.17 79.98 34.74C79.98 35.65 79.14 36.18 77.95 36.18C76.41 36.18 75.1 35.35 74.41 34.08L73 35.33C73.85 36.81 75.57 38 77.87 38C80.57 38 81.88 36.47 81.88 34.54C81.88 33.28 81.09 32.23 78.03 31.15C76.66 30.65 75.66 30.36 75.66 29.43C75.65 28.75 76.08 28.27 77.58 28.27Z" fill="#2722FF" fill-opacity="1.000000" fill-rule="nonzero"/>
		<path id="Vector" d="M42.58 28.27C43.77 28.27 44.79 28.6 45.96 29.58L46.01 29.39L47 26.52L45.48 26L45.2 27.16C44.46 26.75 43.57 26.41 42.6 26.41C40.12 26.41 38.75 27.63 38.75 29.47C38.75 31.29 40.25 32.18 42.56 32.97C44.45 33.58 44.98 34.17 44.98 34.74C44.98 35.65 44.14 36.18 42.95 36.18C41.41 36.18 40.1 35.35 39.41 34.08L38 35.33C38.85 36.81 40.57 38 42.86 38C45.57 38 46.88 36.47 46.88 34.54C46.88 33.28 46.08 32.23 43.03 31.15C41.66 30.65 40.66 30.36 40.66 29.43C40.66 28.75 41.09 28.27 42.58 28.27Z" fill="#2722FF" fill-opacity="1.000000" fill-rule="nonzero"/>
		<path id="Vector" d="M112 32.03C112 35.42 109.65 38 106.51 38C105.11 38 103.89 37.37 102.95 36.4L102.95 37.66L101 37.66L101 22L102.95 22L102.95 27.66C103.89 26.7 105.11 26.07 106.51 26.07C109.65 26.07 112 28.63 112 32.03ZM109.95 32.03C109.95 29.71 108.47 28.05 106.42 28.05C104.37 28.05 102.89 29.72 102.89 32.03C102.89 34.35 104.37 36.01 106.42 36.01C108.47 36.01 109.95 34.35 109.95 32.03Z" fill="#2722FF" fill-opacity="1.000000" fill-rule="nonzero"/>
		<path id="Vector" d="M124.53 35.82C124.45 35.82 124.39 35.8 124.32 35.78C124.12 35.71 124 35.53 124 35.26L124.22 32.5L124.31 31.53L124.72 27.23L122.88 27.23L122.75 28.84C122.75 28.84 122.75 28.83 122.74 28.83C122.73 28.82 122.72 28.8 122.71 28.78C122.58 28.59 122.42 28.41 122.25 28.25C121.4 27.49 120.34 27 119.15 27C116.2 27 114 29.36 114 32.5C114 35.63 116.21 38 119.15 38C120.43 38 121.55 37.44 122.43 36.57C122.44 36.7 122.45 36.75 122.49 36.85C122.5 36.87 122.5 36.87 122.5 36.87C122.6 37.07 122.73 37.24 122.89 37.36C123.1 37.52 123.35 37.62 123.65 37.67C123.76 37.69 123.88 37.69 124.01 37.69L124.31 37.69L125 37.69L125 35.82L124.53 35.82L124.53 35.82ZM119.24 36.17C117.32 36.17 115.93 34.63 115.93 32.5C115.93 30.36 117.32 28.82 119.24 28.82C121.16 28.82 122.55 30.36 122.55 32.5C122.55 34.63 121.16 36.17 119.24 36.17Z" fill="#2722FF" fill-opacity="1.000000" fill-rule="nonzero"/>
		<path id="Vector" d="M133.39 27C131.96 27 130.77 27.66 129.92 28.58L129.92 27.31L128 27.31L128 37.99L129.92 37.99L129.92 32.37C129.92 30.49 131.19 28.87 133.28 28.87C135.03 28.87 136.08 29.99 136.08 31.59L136.08 38L138 38L138 31.42C137.99 28.57 136.22 27 133.39 27Z" fill="#2722FF" fill-opacity="1.000000" fill-rule="nonzero"/>
		<path id="Vector" d="M143.85 32.07L149.41 26.52L146.87 26.52L141.93 31.48L141.93 22L140 22L140 38L141.93 38L141.93 32.94L147.18 38L150 38L143.85 32.07Z" fill="#2722FF" fill-opacity="1.000000" fill-rule="nonzero"/>
	</g>
</svg>
