<svg width="188.000000" height="60.000000" viewBox="0 0 188 60" fill="none" xmlns="http://www.w3.org/2000/svg" xmlns:xlink="http://www.w3.org/1999/xlink">
	<desc>
			Created with Pixso.
	</desc>
	<defs>
		<clipPath id="clip3_1274">
			<rect id="logo/wix" width="188.000000" height="60.000000" fill="white" fill-opacity="0"/>
		</clipPath>
	</defs>
	<rect id="logo/wix" width="188.000000" height="60.000000" fill="#FFFFFF" fill-opacity="0"/>
	<g clip-path="url(#clip3_1274)">
		<path id="Vector" d="M98.59 17.49C97.48 18.18 97 19.48 97 23C97 23 97.55 22.3 98.44 21.88C99.09 21.58 99.55 21.19 99.88 20.89C100.85 19.99 101 18.9 101 17C100.98 17 99.46 16.89 98.59 17.49Z" fill="#FBBD71" fill-opacity="1.000000" fill-rule="nonzero"/>
		<path id="Vector" d="M90.72 18.24C89.63 19.17 89.36 20.76 89.36 20.76L85.82 34.61L82.92 23.28C82.64 22.07 82.1 20.59 81.28 19.55C80.27 18.24 78.16 18.16 77.91 18.16C77.72 18.16 75.64 18.24 74.54 19.55C73.72 20.59 73.18 22.07 72.9 23.28L70.17 34.61L66.63 20.76C66.63 20.76 66.36 19.27 65.27 18.24C63.54 16.65 61 17.04 61 17.04L67.73 42.96C67.73 42.96 69.92 43.16 71.01 42.6C72.46 41.84 73.2 41.31 74.02 37.76C74.84 34.59 77.03 25.38 77.2 24.74C77.28 24.46 77.47 23.62 78.02 23.62C78.56 23.62 78.75 24.37 78.84 24.74C79.03 25.38 81.19 34.59 82.01 37.76C82.92 41.28 83.55 41.84 85.02 42.6C86.12 43.16 88.3 42.96 88.3 42.96L95 17.04C95 17.04 92.45 16.67 90.72 18.24Z" fill="#000000" fill-opacity="1.000000" fill-rule="nonzero"/>
		<path id="Vector" d="M101 21C101 21 100.59 21.65 99.79 22.22C99.24 22.59 98.75 22.78 98.2 23.15C97.24 23.72 97 24.29 97 25.14L97 25.42L97 26.84L97 27.12L97 42.96C97 42.96 98.51 43.16 99.48 42.59C100.75 41.83 101 41.09 101 37.88L101 22.04L101 21Z" fill="#000000" fill-opacity="1.000000" fill-rule="nonzero"/>
		<path id="Vector" d="M118.48 30.05L127 17.12C127 17.12 123.47 16.47 121.65 18.15C120.47 19.18 119.3 21.12 119.3 21.12L116.22 25.77C116.03 26.04 115.86 26.24 115.59 26.24C115.32 26.24 115.04 25.96 114.96 25.77L111.88 21.12C111.88 21.12 110.62 19.27 109.53 18.15C107.73 16.47 104.18 17.12 104.18 17.12L112.42 30.03L104 42.93C104 42.93 107.71 43.41 109.53 41.73C110.7 40.7 111.79 38.93 111.79 38.93L114.88 34.29C115.07 34 115.23 33.81 115.51 33.81C115.78 33.81 116.05 34.09 116.13 34.29L119.22 38.93C119.22 38.93 120.39 40.7 121.48 41.73C123.28 43.41 126.91 42.93 126.91 42.93L118.48 30.05Z" fill="#000000" fill-opacity="1.000000" fill-rule="nonzero"/>
	</g>
</svg>
