<svg width="48.000000" height="48.000000" viewBox="0 0 48 48" fill="none" xmlns="http://www.w3.org/2000/svg" xmlns:xlink="http://www.w3.org/1999/xlink">
	<desc>
			Created with Pixso.
	</desc>
	<defs>
		<clipPath id="clip32_401">
			<rect id="icon/diploma" width="48.000000" height="48.000000" fill="white" fill-opacity="0"/>
		</clipPath>
	</defs>
	<rect id="icon/diploma" width="48.000000" height="48.000000" fill="#FFFFFF" fill-opacity="0"/>
	<g clip-path="url(#clip32_401)">
		<path id="Vector" d="M24 38C20.68 38 18 35.31 18 32C18 28.68 20.68 26 24 26C27.31 26 30 28.68 30 32C30 35.31 27.31 38 24 38Z" stroke="#8B57C2" stroke-opacity="1.000000" stroke-width="1.500000"/>
		<path id="Vector" d="M30 32.14L31.85 34L34.81 36.83C35.45 37.45 35.78 37.76 35.89 38.03C36.01 38.31 36.03 38.62 35.94 38.92C35.84 39.21 35.64 39.45 35.37 39.61C35.13 39.74 34.68 39.79 33.8 39.87C33.31 39.92 33.06 39.95 32.85 40.02C32.62 40.1 32.42 40.22 32.24 40.39C32.07 40.55 31.94 40.76 31.85 40.98C31.77 41.18 31.75 41.42 31.7 41.9C31.61 42.74 31.56 43.16 31.42 43.4C31.09 43.93 30.39 44.14 29.77 43.9C29.49 43.79 29.17 43.47 28.52 42.86L24 38.51L19.47 42.86C18.82 43.47 18.5 43.79 18.22 43.9C17.6 44.14 16.9 43.93 16.58 43.4C16.43 43.16 16.39 42.74 16.29 41.9C16.25 41.42 16.22 41.18 16.14 40.98C16.05 40.76 15.92 40.55 15.75 40.39C15.57 40.22 15.37 40.1 15.14 40.02C14.93 39.95 14.68 39.92 14.19 39.87C13.31 39.79 12.87 39.74 12.62 39.61C12.35 39.45 12.15 39.21 12.05 38.92C11.96 38.62 11.98 38.31 12.1 38.03C12.21 37.76 12.54 37.45 13.19 36.83L16.14 34L18.22 31.91" stroke="#8B57C2" stroke-opacity="1.000000" stroke-width="1.500000"/>
		<path id="Vector" d="M34.64 35.99C38.58 35.95 40.78 35.7 42.24 34.24C44 32.48 44 29.65 44 24L44 16C44 10.34 44 7.51 42.24 5.75C40.48 4 37.65 4 32 4L16 4C10.34 4 7.51 4 5.75 5.75C4 7.51 4 10.34 4 16L4 24C4 29.65 4 32.48 5.75 34.24C7.29 35.78 9.64 35.97 14 35.99" stroke="#8B57C2" stroke-opacity="1.000000" stroke-width="1.500000"/>
		<path id="Vector" d="M18 12L30 12M14 19L34 19" stroke="#8B57C2" stroke-opacity="1.000000" stroke-width="1.500000"/>
	</g>
</svg>
