<svg width="1440" height="13038" viewBox="0 0 1440 13038" fill="none" xmlns="http://www.w3.org/2000/svg">
<path fill-rule="evenodd" clip-rule="evenodd" d="M2202 610.5C2202 1006.21 1881.21 1327 1485.5 1327C1089.79 1327 769 1006.21 769 610.5C769 214.788 1089.79 -106 1485.5 -106C1881.21 -106 2202 214.788 2202 610.5ZM2203 610.5C2203 1006.76 1881.76 1328 1485.5 1328C1089.24 1328 768 1006.76 768 610.5C768 214.236 1089.24 -107 1485.5 -107C1881.76 -107 2203 214.236 2203 610.5ZM1798.12 609.851C1798.12 782.149 1658.45 921.823 1486.15 921.823C1313.85 921.823 1174.18 782.149 1174.18 609.851C1174.18 437.553 1313.85 297.878 1486.15 297.878C1658.45 297.878 1798.12 437.553 1798.12 609.851ZM1799.12 609.851C1799.12 782.701 1659 922.823 1486.15 922.823C1313.3 922.823 1173.18 782.701 1173.18 609.851C1173.18 437.001 1313.3 296.878 1486.15 296.878C1659 296.878 1799.12 437.001 1799.12 609.851ZM1485.5 1185.45C1803.03 1185.45 2060.45 928.035 2060.45 610.5C2060.45 292.965 1803.03 35.552 1485.5 35.552C1167.96 35.552 910.552 292.965 910.552 610.5C910.552 928.035 1167.96 1185.45 1485.5 1185.45ZM1485.5 1186.45C1803.59 1186.45 2061.45 928.587 2061.45 610.5C2061.45 292.413 1803.59 34.552 1485.5 34.552C1167.41 34.552 909.552 292.413 909.552 610.5C909.552 928.587 1167.41 1186.45 1485.5 1186.45ZM1905.91 610.5C1905.91 842.686 1717.69 1030.91 1485.5 1030.91C1253.31 1030.91 1065.09 842.686 1065.09 610.5C1065.09 378.314 1253.31 190.09 1485.5 190.09C1717.69 190.09 1905.91 378.314 1905.91 610.5ZM1906.91 610.5C1906.91 843.238 1718.24 1031.91 1485.5 1031.91C1252.76 1031.91 1064.09 843.238 1064.09 610.5C1064.09 377.762 1252.76 189.09 1485.5 189.09C1718.24 189.09 1906.91 377.762 1906.91 610.5Z" fill="#373737"/>
<path fill-rule="evenodd" clip-rule="evenodd" d="M2219 7833.5C2219 8167.91 1947.91 8439 1613.5 8439C1279.09 8439 1008 8167.91 1008 7833.5C1008 7499.09 1279.09 7228 1613.5 7228C1947.91 7228 2219 7499.09 2219 7833.5ZM2220 7833.5C2220 8168.46 1948.46 8440 1613.5 8440C1278.54 8440 1007 8168.46 1007 7833.5C1007 7498.54 1278.54 7227 1613.5 7227C1948.46 7227 2220 7498.54 2220 7833.5ZM1877.6 7832.95C1877.6 7978.51 1759.61 8096.51 1614.05 8096.51C1468.49 8096.51 1350.49 7978.51 1350.49 7832.95C1350.49 7687.39 1468.49 7569.4 1614.05 7569.4C1759.61 7569.4 1877.6 7687.39 1877.6 7832.95ZM1878.6 7832.95C1878.6 7979.06 1760.16 8097.51 1614.05 8097.51C1467.94 8097.51 1349.49 7979.06 1349.49 7832.95C1349.49 7686.84 1467.94 7568.4 1614.05 7568.4C1760.16 7568.4 1878.6 7686.84 1878.6 7832.95ZM1613.5 8319.35C1881.83 8319.35 2099.35 8101.83 2099.35 7833.5C2099.35 7565.17 1881.83 7347.65 1613.5 7347.65C1345.17 7347.65 1127.65 7565.17 1127.65 7833.5C1127.65 8101.83 1345.17 8319.35 1613.5 8319.35ZM1613.5 8320.35C1882.38 8320.35 2100.35 8102.38 2100.35 7833.5C2100.35 7564.62 1882.38 7346.65 1613.5 7346.65C1344.62 7346.65 1126.65 7564.62 1126.65 7833.5C1126.65 8102.38 1344.62 8320.35 1613.5 8320.35ZM1968.72 7833.5C1968.72 8029.68 1809.68 8188.72 1613.5 8188.72C1417.32 8188.72 1258.28 8029.68 1258.28 7833.5C1258.28 7637.32 1417.32 7478.28 1613.5 7478.28C1809.68 7478.28 1968.72 7637.32 1968.72 7833.5ZM1969.72 7833.5C1969.72 8030.23 1810.23 8189.72 1613.5 8189.72C1416.77 8189.72 1257.28 8030.23 1257.28 7833.5C1257.28 7636.77 1416.77 7477.28 1613.5 7477.28C1810.23 7477.28 1969.72 7636.77 1969.72 7833.5Z" fill="#373737"/>
<path fill-rule="evenodd" clip-rule="evenodd" d="M1424 12474.5C1424 12785.2 1172.16 13037 861.5 13037C550.84 13037 299 12785.2 299 12474.5C299 12163.8 550.84 11912 861.5 11912C1172.16 11912 1424 12163.8 1424 12474.5ZM1425 12474.5C1425 12785.7 1172.71 13038 861.5 13038C550.288 13038 298 12785.7 298 12474.5C298 12163.3 550.288 11911 861.5 11911C1172.71 11911 1425 12163.3 1425 12474.5ZM1106.81 12474C1106.81 12609.2 997.208 12718.8 862.01 12718.8C726.812 12718.8 617.212 12609.2 617.212 12474C617.212 12338.8 726.812 12229.2 862.01 12229.2C997.208 12229.2 1106.81 12338.8 1106.81 12474ZM1107.81 12474C1107.81 12609.7 997.76 12719.8 862.01 12719.8C726.259 12719.8 616.212 12609.7 616.212 12474C616.212 12338.2 726.259 12228.2 862.01 12228.2C997.76 12228.2 1107.81 12338.2 1107.81 12474ZM861.5 12925.8C1110.76 12925.8 1312.83 12723.8 1312.83 12474.5C1312.83 12225.2 1110.76 12023.2 861.5 12023.2C612.237 12023.2 410.17 12225.2 410.17 12474.5C410.17 12723.8 612.237 12925.8 861.5 12925.8ZM861.5 12926.8C1111.31 12926.8 1313.83 12724.3 1313.83 12474.5C1313.83 12224.7 1111.31 12022.2 861.5 12022.2C611.685 12022.2 409.17 12224.7 409.17 12474.5C409.17 12724.3 611.685 12926.8 861.5 12926.8ZM1191.46 12474.5C1191.46 12656.7 1043.73 12804.5 861.5 12804.5C679.268 12804.5 531.539 12656.7 531.539 12474.5C531.539 12292.3 679.268 12144.5 861.5 12144.5C1043.73 12144.5 1191.46 12292.3 1191.46 12474.5ZM1192.46 12474.5C1192.46 12657.3 1044.28 12805.5 861.5 12805.5C678.715 12805.5 530.539 12657.3 530.539 12474.5C530.539 12291.7 678.715 12143.5 861.5 12143.5C1044.28 12143.5 1192.46 12291.7 1192.46 12474.5Z" fill="#373737"/>
<path fill-rule="evenodd" clip-rule="evenodd" d="M569 2705.5C569 3101.21 248.212 3422 -147.5 3422C-543.212 3422 -864 3101.21 -864 2705.5C-864 2309.79 -543.212 1989 -147.5 1989C248.212 1989 569 2309.79 569 2705.5ZM570 2705.5C570 3101.76 248.764 3423 -147.5 3423C-543.764 3423 -865 3101.76 -865 2705.5C-865 2309.24 -543.764 1988 -147.5 1988C248.764 1988 570 2309.24 570 2705.5ZM165.122 2704.85C165.122 2877.15 25.4471 3016.82 -146.851 3016.82C-319.148 3016.82 -458.824 2877.15 -458.824 2704.85C-458.824 2532.55 -319.148 2392.88 -146.851 2392.88C25.4471 2392.88 165.122 2532.55 165.122 2704.85ZM166.122 2704.85C166.122 2877.7 25.9995 3017.82 -146.851 3017.82C-319.701 3017.82 -459.824 2877.7 -459.824 2704.85C-459.824 2532 -319.701 2391.88 -146.851 2391.88C25.9995 2391.88 166.122 2532 166.122 2704.85ZM-147.5 3280.45C170.035 3280.45 427.448 3023.03 427.448 2705.5C427.448 2387.96 170.035 2130.55 -147.5 2130.55C-465.035 2130.55 -722.448 2387.96 -722.448 2705.5C-722.448 3023.03 -465.035 3280.45 -147.5 3280.45ZM-147.5 3281.45C170.587 3281.45 428.448 3023.59 428.448 2705.5C428.448 2387.41 170.587 2129.55 -147.5 2129.55C-465.587 2129.55 -723.448 2387.41 -723.448 2705.5C-723.448 3023.59 -465.587 3281.45 -147.5 3281.45ZM272.91 2705.5C272.91 2937.69 84.6858 3125.91 -147.5 3125.91C-379.686 3125.91 -567.91 2937.69 -567.91 2705.5C-567.91 2473.31 -379.686 2285.09 -147.5 2285.09C84.6858 2285.09 272.91 2473.31 272.91 2705.5ZM273.91 2705.5C273.91 2938.24 85.238 3126.91 -147.5 3126.91C-380.238 3126.91 -568.91 2938.24 -568.91 2705.5C-568.91 2472.76 -380.238 2284.09 -147.5 2284.09C85.238 2284.09 273.91 2472.76 273.91 2705.5Z" fill="#373737"/>
</svg>
