<svg width="56.000000" height="56.000000" viewBox="0 0 56 56" fill="none" xmlns="http://www.w3.org/2000/svg" xmlns:xlink="http://www.w3.org/1999/xlink">
	<desc>
			Created with Pixso.
	</desc>
	<defs>
		<filter id="filter_11_340_dd" x="0.000000" y="0.000000" width="56.000000" height="56.000000" filterUnits="userSpaceOnUse" color-interpolation-filters="sRGB">
			<feFlood flood-opacity="0" result="BackgroundImageFix"/>
			<feColorMatrix in="SourceAlpha" type="matrix" values="0 0 0 0 0 0 0 0 0 0 0 0 0 0 0 0 0 0 127 0" result="hardAlpha"/>
			<feOffset dx="0" dy="4"/>
			<feGaussianBlur stdDeviation="1.33333"/>
			<feComposite in2="hardAlpha" operator="out" k2="-1" k3="1"/>
			<feColorMatrix type="matrix" values="0 0 0 0 0 0 0 0 0 0 0 0 0 0 0 0 0 0 0.25 0"/>
			<feBlend mode="normal" in2="BackgroundImageFix" result="effect_dropShadow_1"/>
			<feBlend mode="normal" in="SourceGraphic" in2="effect_dropShadow_1" result="shape"/>
		</filter>
		<clipPath id="clip11_340">
			<rect id="icon/business" rx="23.500000" width="47.000000" height="47.000000" transform="translate(4.500000 0.500000)" fill="white" fill-opacity="0"/>
		</clipPath>
	</defs>
	<g filter="url(#filter_11_340_dd)">
		<rect id="icon/business" rx="23.500000" width="47.000000" height="47.000000" transform="translate(4.500000 0.500000)" fill="#FFFFFF" fill-opacity="0"/>
		<g clip-path="url(#clip11_340)">
			<path id="Vector" d="M18.15 35C17.54 35 17.02 34.78 16.61 34.36C16.2 33.94 16 33.41 16 32.77L16 19.34C16 18.71 16.2 18.18 16.61 17.76C17.02 17.33 17.54 17.12 18.15 17.12L24 17.12L24 15.22C24 14.58 24.2 14.06 24.61 13.63C25.02 13.21 25.54 13 26.15 13L29.84 13C30.46 13 30.97 13.21 31.38 13.63C31.79 14.06 32 14.58 32 15.22L32 17.12L37.84 17.12C38.46 17.12 38.97 17.33 39.38 17.76C39.79 18.18 39.99 18.71 40 19.34L40 32.77C40 33.41 39.79 33.93 39.38 34.36C38.97 34.78 38.46 34.99 37.84 35L18.15 35ZM25.33 17.12L30.66 17.12L30.66 15.22C30.66 15 30.58 14.81 30.41 14.63C30.24 14.46 30.05 14.37 29.84 14.37L26.15 14.37C25.94 14.37 25.76 14.46 25.58 14.63C25.41 14.81 25.33 15 25.33 15.22L25.33 17.12ZM38.66 27.43L30.66 27.43L30.66 29.5L25.33 29.5L25.33 27.43L17.33 27.43L17.33 32.77C17.33 32.99 17.41 33.18 17.58 33.36C17.76 33.53 17.94 33.62 18.15 33.62L37.84 33.62C38.05 33.62 38.23 33.53 38.41 33.36C38.58 33.18 38.66 32.99 38.66 32.77L38.66 27.43ZM26.66 28.12L29.33 28.12L29.33 25.37L26.66 25.37L26.66 28.12ZM17.33 26.06L25.33 26.06L25.33 24L30.66 24L30.66 26.06L38.66 26.06L38.66 19.34C38.66 19.13 38.58 18.94 38.41 18.76C38.24 18.58 38.05 18.49 37.84 18.5L18.15 18.5C17.94 18.5 17.76 18.58 17.58 18.76C17.41 18.93 17.33 19.13 17.33 19.34L17.33 26.06Z" fill="#8B57C2" fill-opacity="1.000000" fill-rule="nonzero"/>
		</g>
		<rect id="icon/business" rx="23.500000" width="47.000000" height="47.000000" transform="translate(4.500000 0.500000)" stroke="#8B57C2" stroke-opacity="1.000000" stroke-width="1.000000"/>
	</g>
</svg>
