<svg width="84" height="34" viewBox="0 0 84 34" fill="none" xmlns="http://www.w3.org/2000/svg">
<path d="M7.92726 0.000709598C9.98186 -0.0264598 11.9671 0.727497 13.4647 2.10378V6.16123C12.7928 3.78232 10.641 2.1253 7.92726 2.1253C4.64754 2.1253 2.17179 4.54726 2.17179 7.75568C2.17179 10.9641 4.64754 13.386 7.92726 13.386C10.425 13.386 12.4448 11.9833 13.2707 9.90175H5.75545V7.76936H13.4647V13.3997C11.9671 14.776 9.98186 15.5299 7.92726 15.5028C3.40967 15.5028 0 12.177 0 7.74785C0 3.31867 3.40967 0.000709598 7.92726 0.000709598Z" fill="white"/>
<path d="M15.4205 0.311523H27.1474V2.43612H17.5843V6.68529H27.1394V8.804H17.5843V13.0532H27.1394V15.1778H15.4205V0.311523Z" fill="white"/>
<path d="M29.1031 0.311523H33.6647L40.484 15.1798V0.311523H42.6559V15.1798H38.0943L31.275 0.311523V15.1798H29.1031V0.311523Z" fill="white"/>
<path d="M44.182 13.0591H49.7216V2.43612H44.182V0.311523H57.4306V2.43612H51.8874V13.0591H57.4245V15.1836H44.182V13.0591Z" fill="white"/>
<path d="M58.5105 8.21711V0.313482H60.6819V8.26016C60.6819 11.2768 62.9859 13.4855 66.0696 13.4855C69.1094 13.4855 71.543 11.2768 71.543 8.26016V0.311523H73.7149V8.21711C73.7149 12.4017 70.3274 15.6101 66.0696 15.6101C65.073 15.6241 64.0839 15.4424 63.1603 15.0759C62.2371 14.7093 61.398 14.1653 60.6932 13.476C59.9885 12.7867 59.432 11.9662 59.0573 11.0629C58.6825 10.1596 58.4963 9.19192 58.5105 8.21711Z" fill="white"/>
<path d="M74.6929 14.1434V10.2542C74.9086 12.0834 76.7986 13.3041 78.5783 13.3041C79.8581 13.3041 81.2062 12.6018 81.2062 11.1991C81.2062 8.20396 74.6909 9.03345 74.6909 4.37932C74.6909 1.6815 76.8406 0.0870819 79.4684 0.0870819C80.688 0.0777426 81.8778 0.458302 82.8559 1.1709V5.08359C82.656 3.36396 81.2284 2.21558 79.4902 2.21558C78.2084 2.21558 76.8624 2.80249 76.8624 4.25605C76.8624 7.38619 83.3781 6.78363 83.3781 11.2676C83.3781 13.9439 81.1621 15.4326 78.6006 15.4326C77.1879 15.4386 75.8132 14.985 74.6929 14.1434Z" fill="white"/>
<path d="M76.3887 19.1084H51.7872C47.5836 19.1084 44.1759 22.442 44.1759 26.5542C44.1759 30.6665 47.5836 34.0001 51.7872 34.0001H76.3887C80.5923 34.0001 84 30.6665 84 26.5542C84 22.442 80.5923 19.1084 76.3887 19.1084Z" fill="#FF3900"/>
<path d="M49.1113 27.4661V27.4035H49.9812V27.4661C49.9812 27.9043 50.5555 28.1156 51.7254 28.1156C52.7573 28.1156 53.3069 27.92 53.3069 27.5542V27.4915C53.3069 27.202 53.0093 27.0788 52.1652 26.9907L51.1314 26.8851C49.8552 26.754 49.2894 26.4018 49.2894 25.6976V25.6096C49.2894 24.8016 50.1876 24.3184 51.6891 24.3184C53.2451 24.3184 54.1711 24.8446 54.1711 25.725V25.7856H53.317V25.725C53.317 25.3024 52.7593 25.0735 51.6531 25.0735C50.7093 25.0735 50.1714 25.2691 50.1714 25.5919V25.6546C50.1714 25.9441 50.4412 26.0849 51.1334 26.1476L52.1834 26.2434C53.5831 26.3745 54.1828 26.7442 54.1828 27.474V27.562C54.1828 28.3797 53.239 28.8806 51.6931 28.8806C50.0894 28.8806 49.1113 28.3445 49.1113 27.4661Z" fill="white"/>
<path d="M60.7045 26.5246V26.6654C60.7045 28.0094 59.6707 28.88 58.0525 28.88C57.4374 28.8965 56.8381 28.6871 56.3729 28.2931V30.2631H55.509V24.4234H56.3086L56.345 24.9243C56.8179 24.5226 57.4265 24.3065 58.0525 24.3178C59.6707 24.3178 60.7045 25.1786 60.7045 26.5246ZM59.8144 26.5246C59.8144 25.6266 59.1404 25.0906 58.0448 25.0906C57.3348 25.0906 56.7048 25.3547 56.3729 25.7772V27.4128C56.7048 27.8334 57.3348 28.1072 58.0448 28.1072C59.1404 28.1072 59.8144 27.5614 59.8144 26.6654V26.5246Z" fill="white"/>
<path d="M67.5154 28.0276V28.7749H66.9157C66.3156 28.7749 65.9158 28.546 65.7655 28.1332C65.2898 28.6438 64.6259 28.8806 63.718 28.8806C62.4322 28.8806 61.7182 28.4228 61.7182 27.605C61.7182 26.9105 62.2662 26.4723 63.3077 26.3667L65.7078 26.1202C65.6719 25.4609 65.1416 25.1185 64.1518 25.1185C63.1999 25.1185 62.5982 25.4609 62.5982 25.9891V26.0204H61.744V25.9852C61.744 24.9816 62.706 24.3145 64.1619 24.3145C65.6795 24.3145 66.5615 25.009 66.5615 26.1867V27.5405C66.5615 27.8476 66.7614 28.0237 67.1176 28.0237L67.5154 28.0276ZM65.7159 27.2725V26.8029L63.504 27.0299C62.876 27.0925 62.58 27.2764 62.58 27.6011C62.58 27.9259 62.9661 28.1293 63.712 28.1293C64.676 28.1332 65.3956 27.8163 65.7098 27.2725H65.7159Z" fill="white"/>
<path d="M67.9798 26.6914V26.5329C67.9798 25.1635 69.0036 24.3184 70.6315 24.3184C72.1051 24.3184 73.183 25.1009 73.183 26.1906V26.2258H72.2933V26.1906C72.2933 25.5489 71.6011 25.0911 70.6315 25.0911C69.5253 25.0911 68.8695 25.6272 68.8695 26.5427V26.6836C68.8695 27.5698 69.5253 28.1078 70.6315 28.1078C71.6092 28.1078 72.2933 27.65 72.2933 27.0162V26.981H73.1793V27.0162C73.1793 28.1156 72.1374 28.8806 70.6274 28.8806C69.0177 28.8806 67.9798 28.0276 67.9798 26.6914Z" fill="white"/>
<path d="M79.1906 26.8773H74.903C74.9571 27.6402 75.6049 28.1078 76.6286 28.1078C77.5809 28.1078 78.2287 27.7635 78.2646 27.2549H79.1906C79.0905 28.2741 78.1386 28.8806 76.6286 28.8806C75.029 28.8806 74.0048 28.0374 74.0048 26.7012V26.5055C74.0048 25.1616 75.0209 24.3086 76.6286 24.3086C78.2367 24.3086 79.1906 25.1263 79.1906 26.4704V26.8773ZM74.9207 26.173H78.2727C78.1665 25.4961 77.5627 25.0911 76.6286 25.0911C75.6949 25.0911 75.0467 25.4961 74.9207 26.173Z" fill="white"/>
<path d="M46.0691 25.1647C46.0049 25.1656 45.9407 25.1699 45.8765 25.1696C45.6786 25.1683 45.4815 25.1615 45.2845 25.1492C45.0878 25.137 44.8911 25.1193 44.6952 25.0969C44.4994 25.0746 44.3043 25.0478 44.1097 25.0164C43.915 24.985 43.7208 24.9494 43.5273 24.9099C43.3339 24.8704 43.1412 24.8273 42.949 24.7807C42.7568 24.7342 42.5654 24.6844 42.3752 24.6319C42.1845 24.5793 41.9943 24.524 41.8053 24.4664C41.6167 24.4088 41.4289 24.349 41.2416 24.2873C40.8676 24.1641 40.494 24.0329 40.1211 23.8986C39.7481 23.7642 39.3754 23.6265 39.0025 23.4888C38.6296 23.3512 38.2565 23.2136 37.8826 23.0803C37.5087 22.947 37.1342 22.8176 36.7583 22.6965C36.5702 22.6359 36.3819 22.5772 36.1932 22.5211C36.0044 22.465 35.8152 22.4119 35.6256 22.3612C35.436 22.3105 35.2461 22.2627 35.0554 22.2184C34.8648 22.1742 34.6732 22.1329 34.4815 22.096C34.2897 22.0591 34.0973 22.0261 33.9042 21.9976C33.7112 21.969 33.5177 21.9449 33.3232 21.9256C33.1288 21.9063 32.9338 21.8922 32.7378 21.8831C32.5417 21.8742 32.3449 21.8705 32.1472 21.8727C31.9436 21.8749 31.7403 21.8841 31.5374 21.8992C31.3345 21.9142 31.1317 21.9355 30.9302 21.9631C30.7288 21.9908 30.528 22.0246 30.3288 22.0647C30.1295 22.1047 29.9318 22.1509 29.7357 22.2031C29.5394 22.2552 29.3451 22.3131 29.1527 22.3772C29.1107 22.3911 29.07 22.4088 29.0282 22.4233C29.8051 24.8405 31.8945 27.3435 35.6294 30.4141C36.9704 31.5166 38.1417 32.4184 38.2325 32.4184C38.6746 32.4184 42.1082 29.5972 43.8516 27.8014C44.7272 26.8999 45.4654 26.0187 46.0691 25.1647Z" fill="#FECB00"/>
<path d="M33.2589 15.4191C32.379 15.4265 31.5205 15.6168 30.8754 16.0072C29.2093 17.0157 28.6479 18.1077 28.674 20.289C28.6825 21.0013 28.7985 21.7089 29.0283 22.4238C29.0701 22.4093 29.1108 22.3917 29.1528 22.3777C29.3452 22.3136 29.5395 22.2557 29.7358 22.2036C29.932 22.1514 30.1297 22.1051 30.3289 22.0651C30.5282 22.0251 30.7288 21.9913 30.9303 21.9636C31.1318 21.936 31.3346 21.9147 31.5376 21.8996C31.7404 21.8845 31.9437 21.8755 32.1473 21.8732C32.345 21.871 32.5419 21.8747 32.7379 21.8836C32.9339 21.8926 33.1289 21.9068 33.3234 21.9261C33.5178 21.9453 33.7113 21.9695 33.9044 21.998C34.0974 22.0266 34.2898 22.0596 34.4815 22.0965C34.6733 22.1334 34.8649 22.1747 35.0555 22.2189C35.2461 22.2632 35.4361 22.311 35.6257 22.3617C35.8153 22.4123 36.0046 22.4655 36.1933 22.5216C36.382 22.5777 36.5704 22.6363 36.7584 22.6969C37.1344 22.8181 37.5088 22.9475 37.8827 23.0808C38.2566 23.2141 38.6297 23.3516 39.0026 23.4893C39.3755 23.627 39.7482 23.7647 40.1212 23.899C40.4941 24.0333 40.8676 24.1646 41.2416 24.2878C41.429 24.3495 41.6168 24.4092 41.8054 24.4668C41.9944 24.5245 42.1846 24.5798 42.3752 24.6323C42.5654 24.6849 42.7568 24.7347 42.9491 24.7812C43.1409 24.8278 43.3339 24.8709 43.5274 24.9104C43.7208 24.9499 43.9151 24.9855 44.1097 25.0169C44.3044 25.0482 44.4994 25.0751 44.6953 25.0974C44.8912 25.1198 45.0878 25.1375 45.2845 25.1497C45.4816 25.1619 45.6787 25.1689 45.8766 25.1701C45.9408 25.1704 46.005 25.1661 46.0692 25.1651C48.5532 21.6527 48.7317 18.603 46.4815 16.5259C45.7166 15.8197 45.1161 15.5898 43.7495 15.4807C41.614 15.31 40.2347 15.9098 39.1903 17.4635C38.3586 18.7008 38.0919 18.8022 37.8227 17.9851C37.7186 17.6692 37.194 17.0051 36.6568 16.5093C35.8767 15.7891 34.5448 15.4084 33.2589 15.4191Z" fill="#0068C2"/>
<path opacity="0.217903" d="M40.6313 30.002C44.8289 25.7025 46.4152 23.0354 46.4205 20.2677C46.4241 18.07 45.7255 16.8396 44.0317 16.0639L42.6643 15.4375L44.0899 15.5909C46.7117 15.8729 48.3739 18.3592 47.8828 21.2638C47.5125 23.454 46.0808 25.5837 42.9522 28.5997C39.3282 32.093 37.5278 33.1809 40.6313 30.002ZM36.523 18.2893C35.8403 17.0969 35.2675 16.548 34.2347 16.0962C32.8947 15.5101 32.8838 15.4935 33.8379 15.4879C35.6665 15.4772 38.4333 17.8679 38.1727 19.2335C37.9952 20.1642 37.4024 19.8249 36.523 18.2893Z" fill="white"/>
<path opacity="0.367623" d="M32.2259 16.8682C31.8249 16.8658 31.3964 17.1107 30.8761 17.612C29.4235 18.8739 30.2962 23.8893 30.9446 20.7017C31.0645 20.1761 31.8597 19.4448 32.3747 19.0779C33.5662 18.2291 33.77 17.9253 33.1421 17.3204C32.8328 17.0223 32.5377 16.8703 32.2259 16.8682ZM41.9435 16.9378C41.3748 16.9342 40.7739 17.3484 40.3677 18.1054C39.7278 19.2978 40.0884 19.3586 41.0255 19.3586C41.4649 19.3586 41.8918 19.0129 42.3962 18.5908C43.2471 17.8784 43.2749 17.7857 42.7778 17.2988C42.5303 17.0564 42.2411 16.9397 41.9435 16.9378Z" fill="white"/>
</svg>
