<svg width="84.000000" height="34.000000" viewBox="0 0 84 34" fill="none" xmlns="http://www.w3.org/2000/svg" xmlns:xlink="http://www.w3.org/1999/xlink">
	<desc>
			Created with Pixso.
	</desc>
	<defs>
		<clipPath id="clip3_8">
			<rect id="header__logo_ukr 1" width="84.000000" height="34.000000" fill="white" fill-opacity="0"/>
		</clipPath>
	</defs>
	<rect id="header__logo_ukr 1" width="84.000000" height="34.000000" fill="#FFFFFF" fill-opacity="0"/>
	<g clip-path="url(#clip3_8)">
		<mask id="mask3_26" mask-type="alpha" maskUnits="userSpaceOnUse" x="0.000000" y="0.000000" width="84.000000" height="34.000000">
			<path id="Vector" d="M0 0L84 0L84 34L0 34L0 0Z" fill="#000000" fill-opacity="1.000000" fill-rule="evenodd"/>
		</mask>
		<g mask="url(#mask3_26)">
			<path id="Vector" d="M7.92 0C9.98 -0.03 11.96 0.72 13.46 2.1L13.46 6.16C12.79 3.78 10.64 2.12 7.92 2.12C4.64 2.12 2.17 4.54 2.17 7.75C2.17 10.96 4.64 13.38 7.92 13.38C10.42 13.38 12.44 11.98 13.27 9.9L5.75 9.9L5.75 7.76L13.46 7.76L13.46 13.39C11.96 14.77 9.98 15.52 7.92 15.5C3.4 15.5 0 12.17 0 7.74C0 3.31 3.4 0 7.92 0Z" fill="#FFFFFF" fill-opacity="1.000000" fill-rule="nonzero"/>
			<path id="Vector" d="M15.42 0.31L27.14 0.31L27.14 2.43L17.58 2.43L17.58 6.68L27.13 6.68L27.13 8.8L17.58 8.8L17.58 13.05L27.13 13.05L27.13 15.17L15.42 15.17L15.42 0.31Z" fill="#FFFFFF" fill-opacity="1.000000" fill-rule="nonzero"/>
			<path id="Vector" d="M29.1 0.31L33.66 0.31L40.48 15.18L40.48 0.31L42.65 0.31L42.65 15.18L38.09 15.18L31.27 0.31L31.27 15.18L29.1 15.18L29.1 0.31Z" fill="#FFFFFF" fill-opacity="1.000000" fill-rule="nonzero"/>
			<path id="Vector" d="M44.18 13.05L49.72 13.05L49.72 2.43L44.18 2.43L44.18 0.31L57.43 0.31L57.43 2.43L51.88 2.43L51.88 13.05L57.42 13.05L57.42 15.18L44.18 15.18L44.18 13.05Z" fill="#FFFFFF" fill-opacity="1.000000" fill-rule="nonzero"/>
			<path id="Vector" d="M58.51 8.21L58.51 0.31L60.68 0.31L60.68 8.26C60.68 11.27 62.98 13.48 66.06 13.48C69.1 13.48 71.54 11.27 71.54 8.26L71.54 0.31L73.71 0.31L73.71 8.21C73.71 12.4 70.32 15.61 66.06 15.61C65.07 15.62 64.08 15.44 63.16 15.07C62.23 14.7 61.39 14.16 60.69 13.47C59.98 12.78 59.43 11.96 59.05 11.06C58.68 10.15 58.49 9.19 58.51 8.21Z" fill="#FFFFFF" fill-opacity="1.000000" fill-rule="nonzero"/>
			<path id="Vector" d="M74.69 14.14L74.69 10.25C74.9 12.08 76.79 13.3 78.57 13.3C79.85 13.3 81.2 12.6 81.2 11.19C81.2 8.2 74.69 9.03 74.69 4.37C74.69 1.68 76.84 0.08 79.46 0.08C80.68 0.07 81.87 0.45 82.85 1.17L82.85 5.08C82.65 3.36 81.22 2.21 79.49 2.21C78.2 2.21 76.86 2.8 76.86 4.25C76.86 7.38 83.37 6.78 83.37 11.26C83.37 13.94 81.16 15.43 78.6 15.43C77.18 15.43 75.81 14.98 74.69 14.14Z" fill="#FFFFFF" fill-opacity="1.000000" fill-rule="nonzero"/>
			<path id="Vector" d="M76.38 19.1L51.78 19.1C47.58 19.1 44.17 22.44 44.17 26.55C44.17 30.66 47.58 34 51.78 34L76.38 34C80.59 34 84 30.66 84 26.55C84 22.44 80.59 19.1 76.38 19.1Z" fill="#FF3900" fill-opacity="1.000000" fill-rule="nonzero"/>
			<path id="Vector" d="M49.11 27.46L49.11 27.4L49.98 27.4L49.98 27.46C49.98 27.9 50.55 28.11 51.72 28.11C52.75 28.11 53.3 27.91 53.3 27.55L53.3 27.49C53.3 27.2 53 27.07 52.16 26.99L51.13 26.88C49.85 26.75 49.28 26.4 49.28 25.69L49.28 25.6C49.28 24.8 50.18 24.31 51.68 24.31C53.24 24.31 54.17 24.84 54.17 25.72L54.17 25.78L53.31 25.78L53.31 25.72C53.31 25.3 52.75 25.07 51.65 25.07C50.7 25.07 50.17 25.26 50.17 25.59L50.17 25.65C50.17 25.94 50.44 26.08 51.13 26.14L52.18 26.24C53.58 26.37 54.18 26.74 54.18 27.47L54.18 27.56C54.18 28.37 53.23 28.88 51.69 28.88C50.08 28.88 49.11 28.34 49.11 27.46Z" fill="#FFFFFF" fill-opacity="1.000000" fill-rule="nonzero"/>
			<path id="Vector" d="M60.7 26.52L60.7 26.66C60.7 28 59.67 28.88 58.05 28.88C57.43 28.89 56.83 28.68 56.37 28.29L56.37 30.26L55.5 30.26L55.5 24.42L56.3 24.42L56.34 24.92C56.81 24.52 57.42 24.3 58.05 24.31C59.67 24.31 60.7 25.17 60.7 26.52ZM59.81 26.52C59.81 25.62 59.14 25.09 58.04 25.09C57.33 25.09 56.7 25.35 56.37 25.77L56.37 27.41C56.7 27.83 57.33 28.1 58.04 28.1C59.14 28.1 59.81 27.56 59.81 26.66L59.81 26.52Z" fill="#FFFFFF" fill-opacity="1.000000" fill-rule="nonzero"/>
			<path id="Vector" d="M67.51 28.02L67.51 28.77L66.91 28.77C66.31 28.77 65.91 28.54 65.76 28.13C65.28 28.64 64.62 28.88 63.71 28.88C62.43 28.88 61.71 28.42 61.71 27.6C61.71 26.91 62.26 26.47 63.3 26.36L65.7 26.12C65.67 25.46 65.14 25.11 64.15 25.11C63.19 25.11 62.59 25.46 62.59 25.98L62.59 26.02L61.74 26.02L61.74 25.98C61.74 24.98 62.7 24.31 64.16 24.31C65.67 24.31 66.56 25 66.56 26.18L66.56 27.54C66.56 27.84 66.76 28.02 67.11 28.02L67.51 28.02ZM65.71 27.27L65.71 26.8L63.5 27.02C62.87 27.09 62.58 27.27 62.58 27.6C62.58 27.92 62.96 28.12 63.71 28.12C64.67 28.13 65.39 27.81 65.7 27.27L65.71 27.27Z" fill="#FFFFFF" fill-opacity="1.000000" fill-rule="nonzero"/>
			<path id="Vector" d="M67.97 26.69L67.97 26.53C67.97 25.16 69 24.31 70.63 24.31C72.1 24.31 73.18 25.1 73.18 26.19L73.18 26.22L72.29 26.22L72.29 26.19C72.29 25.54 71.6 25.09 70.63 25.09C69.52 25.09 68.86 25.62 68.86 26.54L68.86 26.68C68.86 27.56 69.52 28.1 70.63 28.1C71.6 28.1 72.29 27.64 72.29 27.01L72.29 26.98L73.17 26.98L73.17 27.01C73.17 28.11 72.13 28.88 70.62 28.88C69.01 28.88 67.97 28.02 67.97 26.69Z" fill="#FFFFFF" fill-opacity="1.000000" fill-rule="nonzero"/>
			<path id="Vector" d="M79.19 26.87L74.9 26.87C74.95 27.63 75.6 28.1 76.62 28.1C77.58 28.1 78.22 27.76 78.26 27.25L79.19 27.25C79.09 28.27 78.13 28.88 76.62 28.88C75.02 28.88 74 28.03 74 26.7L74 26.5C74 25.16 75.02 24.3 76.62 24.3C78.23 24.3 79.19 25.12 79.19 26.47L79.19 26.87ZM74.92 26.17L78.27 26.17C78.16 25.49 77.56 25.09 76.62 25.09C75.69 25.09 75.04 25.49 74.92 26.17Z" fill="#FFFFFF" fill-opacity="1.000000" fill-rule="nonzero"/>
			<path id="Vector" d="M46.06 25.16C46 25.16 45.94 25.17 45.87 25.16C45.67 25.16 45.48 25.16 45.28 25.14C45.08 25.13 44.89 25.11 44.69 25.09C44.49 25.07 44.3 25.04 44.1 25.01C43.91 24.98 43.72 24.94 43.52 24.91C43.33 24.87 43.14 24.82 42.94 24.78C42.75 24.73 42.56 24.68 42.37 24.63C42.18 24.57 41.99 24.52 41.8 24.46C41.61 24.4 41.42 24.34 41.24 24.28C40.86 24.16 40.49 24.03 40.12 23.89C39.74 23.76 39.37 23.62 39 23.48C38.62 23.35 38.25 23.21 37.88 23.08C37.5 22.94 37.13 22.81 36.75 22.69C36.57 22.63 36.38 22.57 36.19 22.52C36 22.46 35.81 22.41 35.62 22.36C35.43 22.31 35.24 22.26 35.05 22.21C34.86 22.17 34.67 22.13 34.48 22.09C34.28 22.05 34.09 22.02 33.9 21.99C33.71 21.96 33.51 21.94 33.32 21.92C33.12 21.9 32.93 21.89 32.73 21.88C32.54 21.87 32.34 21.87 32.14 21.87C31.94 21.87 31.74 21.88 31.53 21.89C31.33 21.91 31.13 21.93 30.93 21.96C30.72 21.99 30.52 22.02 30.32 22.06C30.12 22.1 29.93 22.15 29.73 22.2C29.53 22.25 29.34 22.31 29.15 22.37C29.11 22.39 29.07 22.4 29.02 22.42C29.8 24.84 31.89 27.34 35.62 30.41C36.97 31.51 38.14 32.41 38.23 32.41C38.67 32.41 42.1 29.59 43.85 27.8C44.72 26.9 45.46 26.01 46.06 25.16Z" fill="#FECB00" fill-opacity="1.000000" fill-rule="nonzero"/>
			<path id="Vector" d="M33.25 15.41C32.37 15.42 31.52 15.61 30.87 16C29.2 17.01 28.64 18.1 28.67 20.28C28.68 21 28.79 21.7 29.02 22.42C29.07 22.4 29.11 22.39 29.15 22.37C29.34 22.31 29.53 22.25 29.73 22.2C29.93 22.15 30.12 22.1 30.32 22.06C30.52 22.02 30.72 21.99 30.93 21.96C31.13 21.93 31.33 21.91 31.53 21.89C31.74 21.88 31.94 21.87 32.14 21.87C32.34 21.87 32.54 21.87 32.73 21.88C32.93 21.89 33.12 21.9 33.32 21.92C33.51 21.94 33.71 21.96 33.9 21.99C34.09 22.02 34.28 22.05 34.48 22.09C34.67 22.13 34.86 22.17 35.05 22.21C35.24 22.26 35.43 22.31 35.62 22.36C35.81 22.41 36 22.46 36.19 22.52C36.38 22.57 36.57 22.63 36.75 22.69C37.13 22.81 37.5 22.94 37.88 23.08C38.25 23.21 38.62 23.35 39 23.48C39.37 23.62 39.74 23.76 40.12 23.89C40.49 24.03 40.86 24.16 41.24 24.28C41.42 24.34 41.61 24.4 41.8 24.46C41.99 24.52 42.18 24.57 42.37 24.63C42.56 24.68 42.75 24.73 42.94 24.78C43.14 24.82 43.33 24.87 43.52 24.91C43.72 24.94 43.91 24.98 44.1 25.01C44.3 25.04 44.49 25.07 44.69 25.09C44.89 25.11 45.08 25.13 45.28 25.14C45.48 25.16 45.67 25.16 45.87 25.16C45.94 25.17 46 25.16 46.06 25.16C48.55 21.65 48.73 18.6 46.48 16.52C45.71 15.81 45.11 15.58 43.74 15.48C41.61 15.3 40.23 15.9 39.19 17.46C38.35 18.7 38.09 18.8 37.82 17.98C37.71 17.66 37.19 17 36.65 16.5C35.87 15.78 34.54 15.4 33.25 15.41Z" fill="#0068C2" fill-opacity="1.000000" fill-rule="nonzero"/>
			<g opacity="0.217903">
				<path id="Vector" d="M40.63 30C44.82 25.7 46.41 23.03 46.42 20.26C46.42 18.07 45.72 16.83 44.03 16.06L42.66 15.43L44.08 15.59C46.71 15.87 48.37 18.35 47.88 21.26C47.51 23.45 46.08 25.58 42.95 28.59C39.32 32.09 37.52 33.18 40.63 30ZM36.52 18.28C35.84 17.09 35.26 16.54 34.23 16.09C32.89 15.51 32.88 15.49 33.83 15.48C35.66 15.47 38.43 17.86 38.17 19.23C37.99 20.16 37.4 19.82 36.52 18.28Z" fill="#FFFFFF" fill-opacity="1.000000" fill-rule="nonzero"/>
			</g>
			<g opacity="0.367623">
				<path id="Vector" d="M32.22 16.86C31.82 16.86 31.39 17.11 30.87 17.61C29.42 18.87 30.29 23.88 30.94 20.7C31.06 20.17 31.85 19.44 32.37 19.07C33.56 18.22 33.77 17.92 33.14 17.32C32.83 17.02 32.53 16.87 32.22 16.86ZM41.94 16.93C41.37 16.93 40.77 17.34 40.36 18.1C39.72 19.29 40.08 19.35 41.02 19.35C41.46 19.35 41.89 19.01 42.39 18.59C43.24 17.87 43.27 17.78 42.77 17.29C42.53 17.05 42.24 16.93 41.94 16.93Z" fill="#FFFFFF" fill-opacity="1.000000" fill-rule="nonzero"/>
			</g>
		</g>
	</g>
</svg>
