<svg width="222" height="173" viewBox="0 0 222 173" fill="none" xmlns="http://www.w3.org/2000/svg">
<path opacity="0.3" fill-rule="evenodd" clip-rule="evenodd" d="M97.4055 16.9463C84.3989 20.1348 71.5846 19.9555 58.9 24.2495C40.3218 30.5387 16.541 30.8582 6.51396 47.7153C-3.59708 64.7135 0.890701 88.2212 10.5977 105.453C19.6063 121.445 40.5794 124.238 55.5791 134.817C70.2608 145.172 79.4518 166.016 97.4055 166.677C115.379 167.339 126.219 147.415 141.532 137.982C158.703 127.404 182.905 125.896 192.447 108.129C202.329 89.7289 197.672 66.6094 190.375 47.0403C183.29 28.0428 171.89 7.52352 152.6 1.27934C133.948 -4.75824 116.446 12.2785 97.4055 16.9463Z" fill="url(#paint0_linear_32_763)"/>
<path d="M20.5323 55.2272C20.5323 56.117 19.8103 56.8383 18.9196 56.8383C18.0289 56.8383 17.3069 56.117 17.3069 55.2272C17.3069 54.3375 18.0289 53.6162 18.9196 53.6162C19.8103 53.6162 20.5323 54.3375 20.5323 55.2272Z" fill="#8B57C2"/>
<path d="M30.2083 55.2272C30.2083 56.117 29.4863 56.8383 28.5957 56.8383C27.705 56.8383 26.983 56.117 26.983 55.2272C26.983 54.3375 27.705 53.6162 28.5957 53.6162C29.4863 53.6162 30.2083 54.3375 30.2083 55.2272Z" fill="#8B57C2"/>
<path d="M39.8844 55.2272C39.8844 56.117 39.1624 56.8383 38.2717 56.8383C37.3811 56.8383 36.6591 56.117 36.6591 55.2272C36.6591 54.3375 37.3811 53.6162 38.2717 53.6162C39.1624 53.6162 39.8844 54.3375 39.8844 55.2272Z" fill="#8B57C2"/>
<path d="M49.5605 55.2272C49.5605 56.117 48.8385 56.8383 47.9478 56.8383C47.0572 56.8383 46.3351 56.117 46.3351 55.2272C46.3351 54.3375 47.0572 53.6162 47.9478 53.6162C48.8385 53.6162 49.5605 54.3375 49.5605 55.2272Z" fill="#8B57C2"/>
<path d="M59.2366 55.2272C59.2366 56.117 58.5145 56.8383 57.6239 56.8383C56.7332 56.8383 56.0112 56.117 56.0112 55.2272C56.0112 54.3375 56.7332 53.6162 57.6239 53.6162C58.5145 53.6162 59.2366 54.3375 59.2366 55.2272Z" fill="#8B57C2"/>
<path d="M68.9126 55.2272C68.9126 56.117 68.1906 56.8383 67.3 56.8383C66.4093 56.8383 65.6873 56.117 65.6873 55.2272C65.6873 54.3375 66.4093 53.6162 67.3 53.6162C68.1906 53.6162 68.9126 54.3375 68.9126 55.2272Z" fill="#8B57C2"/>
<path d="M78.5887 55.2272C78.5887 56.117 77.8667 56.8383 76.976 56.8383C76.0854 56.8383 75.3633 56.117 75.3633 55.2272C75.3633 54.3375 76.0854 53.6162 76.976 53.6162C77.8667 53.6162 78.5887 54.3375 78.5887 55.2272Z" fill="#8B57C2"/>
<path d="M88.2648 55.2272C88.2648 56.117 87.5428 56.8383 86.6521 56.8383C85.7614 56.8383 85.0394 56.117 85.0394 55.2272C85.0394 54.3375 85.7614 53.6162 86.6521 53.6162C87.5428 53.6162 88.2648 54.3375 88.2648 55.2272Z" fill="#8B57C2"/>
<path d="M97.9409 55.2272C97.9409 56.117 97.2188 56.8383 96.3282 56.8383C95.4375 56.8383 94.7155 56.117 94.7155 55.2272C94.7155 54.3375 95.4375 53.6162 96.3282 53.6162C97.2188 53.6162 97.9409 54.3375 97.9409 55.2272Z" fill="#8B57C2"/>
<path d="M107.617 55.2272C107.617 56.117 106.895 56.8383 106.004 56.8383C105.114 56.8383 104.392 56.117 104.392 55.2272C104.392 54.3375 105.114 53.6162 106.004 53.6162C106.895 53.6162 107.617 54.3375 107.617 55.2272Z" fill="#8B57C2"/>
<path d="M117.293 55.2272C117.293 56.117 116.571 56.8383 115.68 56.8383C114.79 56.8383 114.068 56.117 114.068 55.2272C114.068 54.3375 114.79 53.6162 115.68 53.6162C116.571 53.6162 117.293 54.3375 117.293 55.2272Z" fill="#8B57C2"/>
<path d="M20.5323 64.8934C20.5323 65.7832 19.8103 66.5044 18.9196 66.5044C18.0289 66.5044 17.3069 65.7832 17.3069 64.8934C17.3069 64.0037 18.0289 63.2824 18.9196 63.2824C19.8103 63.2824 20.5323 64.0037 20.5323 64.8934Z" fill="#8B57C2"/>
<path d="M30.2083 64.8934C30.2083 65.7832 29.4863 66.5044 28.5957 66.5044C27.705 66.5044 26.983 65.7832 26.983 64.8934C26.983 64.0037 27.705 63.2824 28.5957 63.2824C29.4863 63.2824 30.2083 64.0037 30.2083 64.8934Z" fill="#8B57C2"/>
<path d="M39.8844 64.8934C39.8844 65.7832 39.1624 66.5044 38.2717 66.5044C37.3811 66.5044 36.6591 65.7832 36.6591 64.8934C36.6591 64.0037 37.3811 63.2824 38.2717 63.2824C39.1624 63.2824 39.8844 64.0037 39.8844 64.8934Z" fill="#8B57C2"/>
<path d="M49.5605 64.8934C49.5605 65.7832 48.8385 66.5044 47.9478 66.5044C47.0572 66.5044 46.3351 65.7832 46.3351 64.8934C46.3351 64.0037 47.0572 63.2824 47.9478 63.2824C48.8385 63.2824 49.5605 64.0037 49.5605 64.8934Z" fill="#8B57C2"/>
<path d="M59.2366 64.8934C59.2366 65.7832 58.5145 66.5044 57.6239 66.5044C56.7332 66.5044 56.0112 65.7832 56.0112 64.8934C56.0112 64.0037 56.7332 63.2824 57.6239 63.2824C58.5145 63.2824 59.2366 64.0037 59.2366 64.8934Z" fill="#8B57C2"/>
<path d="M68.9126 64.8934C68.9126 65.7832 68.1906 66.5044 67.3 66.5044C66.4093 66.5044 65.6873 65.7832 65.6873 64.8934C65.6873 64.0037 66.4093 63.2824 67.3 63.2824C68.1906 63.2824 68.9126 64.0037 68.9126 64.8934Z" fill="#8B57C2"/>
<path d="M78.5887 64.8934C78.5887 65.7832 77.8667 66.5044 76.976 66.5044C76.0854 66.5044 75.3633 65.7832 75.3633 64.8934C75.3633 64.0037 76.0854 63.2824 76.976 63.2824C77.8667 63.2824 78.5887 64.0037 78.5887 64.8934Z" fill="#8B57C2"/>
<path d="M88.2648 64.8934C88.2648 65.7832 87.5428 66.5044 86.6521 66.5044C85.7614 66.5044 85.0394 65.7832 85.0394 64.8934C85.0394 64.0037 85.7614 63.2824 86.6521 63.2824C87.5428 63.2824 88.2648 64.0037 88.2648 64.8934Z" fill="#8B57C2"/>
<path d="M97.9409 64.8934C97.9409 65.7832 97.2188 66.5044 96.3282 66.5044C95.4375 66.5044 94.7155 65.7832 94.7155 64.8934C94.7155 64.0037 95.4375 63.2824 96.3282 63.2824C97.2188 63.2824 97.9409 64.0037 97.9409 64.8934Z" fill="#8B57C2"/>
<path d="M107.617 64.8934C107.617 65.7832 106.895 66.5044 106.004 66.5044C105.114 66.5044 104.392 65.7832 104.392 64.8934C104.392 64.0037 105.114 63.2824 106.004 63.2824C106.895 63.2824 107.617 64.0037 107.617 64.8934Z" fill="#8B57C2"/>
<path d="M117.293 64.8934C117.293 65.7832 116.571 66.5044 115.68 66.5044C114.79 66.5044 114.068 65.7832 114.068 64.8934C114.068 64.0037 114.79 63.2824 115.68 63.2824C116.571 63.2824 117.293 64.0037 117.293 64.8934Z" fill="#8B57C2"/>
<path d="M20.5323 74.5596C20.5323 75.4493 19.8103 76.1706 18.9196 76.1706C18.0289 76.1706 17.3069 75.4493 17.3069 74.5596C17.3069 73.6698 18.0289 72.9486 18.9196 72.9486C19.8103 72.9486 20.5323 73.6698 20.5323 74.5596Z" fill="#8B57C2"/>
<path d="M30.2083 74.5596C30.2083 75.4493 29.4863 76.1706 28.5957 76.1706C27.705 76.1706 26.983 75.4493 26.983 74.5596C26.983 73.6698 27.705 72.9486 28.5957 72.9486C29.4863 72.9486 30.2083 73.6698 30.2083 74.5596Z" fill="#8B57C2"/>
<path d="M39.8844 74.5596C39.8844 75.4493 39.1624 76.1706 38.2717 76.1706C37.3811 76.1706 36.6591 75.4493 36.6591 74.5596C36.6591 73.6698 37.3811 72.9486 38.2717 72.9486C39.1624 72.9486 39.8844 73.6698 39.8844 74.5596Z" fill="#8B57C2"/>
<path d="M49.5605 74.5596C49.5605 75.4493 48.8385 76.1706 47.9478 76.1706C47.0572 76.1706 46.3351 75.4493 46.3351 74.5596C46.3351 73.6698 47.0572 72.9486 47.9478 72.9486C48.8385 72.9486 49.5605 73.6698 49.5605 74.5596Z" fill="#8B57C2"/>
<path d="M59.2366 74.5596C59.2366 75.4493 58.5145 76.1706 57.6239 76.1706C56.7332 76.1706 56.0112 75.4493 56.0112 74.5596C56.0112 73.6698 56.7332 72.9486 57.6239 72.9486C58.5145 72.9486 59.2366 73.6698 59.2366 74.5596Z" fill="#8B57C2"/>
<path d="M68.9126 74.5596C68.9126 75.4493 68.1906 76.1706 67.3 76.1706C66.4093 76.1706 65.6873 75.4493 65.6873 74.5596C65.6873 73.6698 66.4093 72.9486 67.3 72.9486C68.1906 72.9486 68.9126 73.6698 68.9126 74.5596Z" fill="#8B57C2"/>
<path d="M78.5887 74.5596C78.5887 75.4493 77.8667 76.1706 76.976 76.1706C76.0854 76.1706 75.3633 75.4493 75.3633 74.5596C75.3633 73.6698 76.0854 72.9486 76.976 72.9486C77.8667 72.9486 78.5887 73.6698 78.5887 74.5596Z" fill="#8B57C2"/>
<path d="M88.2648 74.5596C88.2648 75.4493 87.5428 76.1706 86.6521 76.1706C85.7614 76.1706 85.0394 75.4493 85.0394 74.5596C85.0394 73.6698 85.7614 72.9486 86.6521 72.9486C87.5428 72.9486 88.2648 73.6698 88.2648 74.5596Z" fill="#8B57C2"/>
<path d="M97.9409 74.5596C97.9409 75.4493 97.2188 76.1706 96.3282 76.1706C95.4375 76.1706 94.7155 75.4493 94.7155 74.5596C94.7155 73.6698 95.4375 72.9486 96.3282 72.9486C97.2188 72.9486 97.9409 73.6698 97.9409 74.5596Z" fill="#8B57C2"/>
<path d="M107.617 74.5596C107.617 75.4493 106.895 76.1706 106.004 76.1706C105.114 76.1706 104.392 75.4493 104.392 74.5596C104.392 73.6698 105.114 72.9486 106.004 72.9486C106.895 72.9486 107.617 73.6698 107.617 74.5596Z" fill="#8B57C2"/>
<path d="M117.293 74.5596C117.293 75.4493 116.571 76.1706 115.68 76.1706C114.79 76.1706 114.068 75.4493 114.068 74.5596C114.068 73.6698 114.79 72.9486 115.68 72.9486C116.571 72.9486 117.293 73.6698 117.293 74.5596Z" fill="#8B57C2"/>
<path d="M20.5323 84.2258C20.5323 85.1155 19.8103 85.8368 18.9196 85.8368C18.0289 85.8368 17.3069 85.1155 17.3069 84.2258C17.3069 83.336 18.0289 82.6147 18.9196 82.6147C19.8103 82.6147 20.5323 83.336 20.5323 84.2258Z" fill="#8B57C2"/>
<path d="M30.2083 84.2258C30.2083 85.1155 29.4863 85.8368 28.5957 85.8368C27.705 85.8368 26.983 85.1155 26.983 84.2258C26.983 83.336 27.705 82.6147 28.5957 82.6147C29.4863 82.6147 30.2083 83.336 30.2083 84.2258Z" fill="#8B57C2"/>
<path d="M39.8844 84.2258C39.8844 85.1155 39.1624 85.8368 38.2717 85.8368C37.3811 85.8368 36.6591 85.1155 36.6591 84.2258C36.6591 83.336 37.3811 82.6147 38.2717 82.6147C39.1624 82.6147 39.8844 83.336 39.8844 84.2258Z" fill="#8B57C2"/>
<path d="M49.5605 84.2258C49.5605 85.1155 48.8385 85.8368 47.9478 85.8368C47.0572 85.8368 46.3351 85.1155 46.3351 84.2258C46.3351 83.336 47.0572 82.6147 47.9478 82.6147C48.8385 82.6147 49.5605 83.336 49.5605 84.2258Z" fill="#8B57C2"/>
<path d="M59.2366 84.2258C59.2366 85.1155 58.5145 85.8368 57.6239 85.8368C56.7332 85.8368 56.0112 85.1155 56.0112 84.2258C56.0112 83.336 56.7332 82.6147 57.6239 82.6147C58.5145 82.6147 59.2366 83.336 59.2366 84.2258Z" fill="#8B57C2"/>
<path d="M68.9126 84.2258C68.9126 85.1155 68.1906 85.8368 67.3 85.8368C66.4093 85.8368 65.6873 85.1155 65.6873 84.2258C65.6873 83.336 66.4093 82.6147 67.3 82.6147C68.1906 82.6147 68.9126 83.336 68.9126 84.2258Z" fill="#8B57C2"/>
<path d="M78.5887 84.2258C78.5887 85.1155 77.8667 85.8368 76.976 85.8368C76.0854 85.8368 75.3633 85.1155 75.3633 84.2258C75.3633 83.336 76.0854 82.6147 76.976 82.6147C77.8667 82.6147 78.5887 83.336 78.5887 84.2258Z" fill="#8B57C2"/>
<path d="M88.2648 84.2258C88.2648 85.1155 87.5428 85.8368 86.6521 85.8368C85.7614 85.8368 85.0394 85.1155 85.0394 84.2258C85.0394 83.336 85.7614 82.6147 86.6521 82.6147C87.5428 82.6147 88.2648 83.336 88.2648 84.2258Z" fill="#8B57C2"/>
<path d="M97.9409 84.2258C97.9409 85.1155 97.2188 85.8368 96.3282 85.8368C95.4375 85.8368 94.7155 85.1155 94.7155 84.2258C94.7155 83.336 95.4375 82.6147 96.3282 82.6147C97.2188 82.6147 97.9409 83.336 97.9409 84.2258Z" fill="#8B57C2"/>
<path d="M107.617 84.2258C107.617 85.1155 106.895 85.8368 106.004 85.8368C105.114 85.8368 104.392 85.1155 104.392 84.2258C104.392 83.336 105.114 82.6147 106.004 82.6147C106.895 82.6147 107.617 83.336 107.617 84.2258Z" fill="#8B57C2"/>
<path d="M117.293 84.2258C117.293 85.1155 116.571 85.8368 115.68 85.8368C114.79 85.8368 114.068 85.1155 114.068 84.2258C114.068 83.336 114.79 82.6147 115.68 82.6147C116.571 82.6147 117.293 83.336 117.293 84.2258Z" fill="#8B57C2"/>
<path d="M20.5323 93.8919C20.5323 94.7817 19.8103 95.503 18.9196 95.503C18.0289 95.503 17.3069 94.7817 17.3069 93.8919C17.3069 93.0022 18.0289 92.2809 18.9196 92.2809C19.8103 92.2809 20.5323 93.0022 20.5323 93.8919Z" fill="#8B57C2"/>
<path d="M30.2083 93.8919C30.2083 94.7817 29.4863 95.503 28.5957 95.503C27.705 95.503 26.983 94.7817 26.983 93.8919C26.983 93.0022 27.705 92.2809 28.5957 92.2809C29.4863 92.2809 30.2083 93.0022 30.2083 93.8919Z" fill="#8B57C2"/>
<path d="M39.8844 93.8919C39.8844 94.7817 39.1624 95.503 38.2717 95.503C37.3811 95.503 36.6591 94.7817 36.6591 93.8919C36.6591 93.0022 37.3811 92.2809 38.2717 92.2809C39.1624 92.2809 39.8844 93.0022 39.8844 93.8919Z" fill="#8B57C2"/>
<path d="M49.5605 93.8919C49.5605 94.7817 48.8385 95.503 47.9478 95.503C47.0572 95.503 46.3351 94.7817 46.3351 93.8919C46.3351 93.0022 47.0572 92.2809 47.9478 92.2809C48.8385 92.2809 49.5605 93.0022 49.5605 93.8919Z" fill="#8B57C2"/>
<path d="M59.2366 93.8919C59.2366 94.7817 58.5145 95.503 57.6239 95.503C56.7332 95.503 56.0112 94.7817 56.0112 93.8919C56.0112 93.0022 56.7332 92.2809 57.6239 92.2809C58.5145 92.2809 59.2366 93.0022 59.2366 93.8919Z" fill="#8B57C2"/>
<path d="M68.9126 93.8919C68.9126 94.7817 68.1906 95.503 67.3 95.503C66.4093 95.503 65.6873 94.7817 65.6873 93.8919C65.6873 93.0022 66.4093 92.2809 67.3 92.2809C68.1906 92.2809 68.9126 93.0022 68.9126 93.8919Z" fill="#8B57C2"/>
<path d="M78.5887 93.8919C78.5887 94.7817 77.8667 95.503 76.976 95.503C76.0854 95.503 75.3633 94.7817 75.3633 93.8919C75.3633 93.0022 76.0854 92.2809 76.976 92.2809C77.8667 92.2809 78.5887 93.0022 78.5887 93.8919Z" fill="#8B57C2"/>
<path d="M88.2648 93.8919C88.2648 94.7817 87.5428 95.503 86.6521 95.503C85.7614 95.503 85.0394 94.7817 85.0394 93.8919C85.0394 93.0022 85.7614 92.2809 86.6521 92.2809C87.5428 92.2809 88.2648 93.0022 88.2648 93.8919Z" fill="#8B57C2"/>
<path d="M97.9409 93.8919C97.9409 94.7817 97.2188 95.503 96.3282 95.503C95.4375 95.503 94.7155 94.7817 94.7155 93.8919C94.7155 93.0022 95.4375 92.2809 96.3282 92.2809C97.2188 92.2809 97.9409 93.0022 97.9409 93.8919Z" fill="#8B57C2"/>
<path d="M107.617 93.8919C107.617 94.7817 106.895 95.503 106.004 95.503C105.114 95.503 104.392 94.7817 104.392 93.8919C104.392 93.0022 105.114 92.2809 106.004 92.2809C106.895 92.2809 107.617 93.0022 107.617 93.8919Z" fill="#8B57C2"/>
<path d="M117.293 93.8919C117.293 94.7817 116.571 95.503 115.68 95.503C114.79 95.503 114.068 94.7817 114.068 93.8919C114.068 93.0022 114.79 92.2809 115.68 92.2809C116.571 92.2809 117.293 93.0022 117.293 93.8919Z" fill="#8B57C2"/>
<path d="M20.5323 103.558C20.5323 104.448 19.8103 105.169 18.9196 105.169C18.0289 105.169 17.3069 104.448 17.3069 103.558C17.3069 102.668 18.0289 101.947 18.9196 101.947C19.8103 101.947 20.5323 102.668 20.5323 103.558Z" fill="#8B57C2"/>
<path d="M30.2083 103.558C30.2083 104.448 29.4863 105.169 28.5957 105.169C27.705 105.169 26.983 104.448 26.983 103.558C26.983 102.668 27.705 101.947 28.5957 101.947C29.4863 101.947 30.2083 102.668 30.2083 103.558Z" fill="#8B57C2"/>
<path d="M39.8844 103.558C39.8844 104.448 39.1624 105.169 38.2717 105.169C37.3811 105.169 36.6591 104.448 36.6591 103.558C36.6591 102.668 37.3811 101.947 38.2717 101.947C39.1624 101.947 39.8844 102.668 39.8844 103.558Z" fill="#8B57C2"/>
<path d="M49.5605 103.558C49.5605 104.448 48.8385 105.169 47.9478 105.169C47.0572 105.169 46.3351 104.448 46.3351 103.558C46.3351 102.668 47.0572 101.947 47.9478 101.947C48.8385 101.947 49.5605 102.668 49.5605 103.558Z" fill="#8B57C2"/>
<path d="M59.2366 103.558C59.2366 104.448 58.5145 105.169 57.6239 105.169C56.7332 105.169 56.0112 104.448 56.0112 103.558C56.0112 102.668 56.7332 101.947 57.6239 101.947C58.5145 101.947 59.2366 102.668 59.2366 103.558Z" fill="#8B57C2"/>
<path d="M68.9126 103.558C68.9126 104.448 68.1906 105.169 67.3 105.169C66.4093 105.169 65.6873 104.448 65.6873 103.558C65.6873 102.668 66.4093 101.947 67.3 101.947C68.1906 101.947 68.9126 102.668 68.9126 103.558Z" fill="#8B57C2"/>
<path d="M78.5887 103.558C78.5887 104.448 77.8667 105.169 76.976 105.169C76.0854 105.169 75.3633 104.448 75.3633 103.558C75.3633 102.668 76.0854 101.947 76.976 101.947C77.8667 101.947 78.5887 102.668 78.5887 103.558Z" fill="#8B57C2"/>
<path d="M88.2648 103.558C88.2648 104.448 87.5428 105.169 86.6521 105.169C85.7614 105.169 85.0394 104.448 85.0394 103.558C85.0394 102.668 85.7614 101.947 86.6521 101.947C87.5428 101.947 88.2648 102.668 88.2648 103.558Z" fill="#8B57C2"/>
<path d="M97.9409 103.558C97.9409 104.448 97.2188 105.169 96.3282 105.169C95.4375 105.169 94.7155 104.448 94.7155 103.558C94.7155 102.668 95.4375 101.947 96.3282 101.947C97.2188 101.947 97.9409 102.668 97.9409 103.558Z" fill="#8B57C2"/>
<path d="M107.617 103.558C107.617 104.448 106.895 105.169 106.004 105.169C105.114 105.169 104.392 104.448 104.392 103.558C104.392 102.668 105.114 101.947 106.004 101.947C106.895 101.947 107.617 102.668 107.617 103.558Z" fill="#8B57C2"/>
<path d="M117.293 103.558C117.293 104.448 116.571 105.169 115.68 105.169C114.79 105.169 114.068 104.448 114.068 103.558C114.068 102.668 114.79 101.947 115.68 101.947C116.571 101.947 117.293 102.668 117.293 103.558Z" fill="#8B57C2"/>
<path d="M20.5323 113.224C20.5323 114.114 19.8103 114.835 18.9196 114.835C18.0289 114.835 17.3069 114.114 17.3069 113.224C17.3069 112.335 18.0289 111.613 18.9196 111.613C19.8103 111.613 20.5323 112.335 20.5323 113.224Z" fill="#8B57C2"/>
<path d="M30.2083 113.224C30.2083 114.114 29.4863 114.835 28.5957 114.835C27.705 114.835 26.983 114.114 26.983 113.224C26.983 112.335 27.705 111.613 28.5957 111.613C29.4863 111.613 30.2083 112.335 30.2083 113.224Z" fill="#8B57C2"/>
<path d="M39.8844 113.224C39.8844 114.114 39.1624 114.835 38.2717 114.835C37.3811 114.835 36.6591 114.114 36.6591 113.224C36.6591 112.335 37.3811 111.613 38.2717 111.613C39.1624 111.613 39.8844 112.335 39.8844 113.224Z" fill="#8B57C2"/>
<path d="M49.5605 113.224C49.5605 114.114 48.8385 114.835 47.9478 114.835C47.0572 114.835 46.3351 114.114 46.3351 113.224C46.3351 112.335 47.0572 111.613 47.9478 111.613C48.8385 111.613 49.5605 112.335 49.5605 113.224Z" fill="#8B57C2"/>
<path d="M59.2366 113.224C59.2366 114.114 58.5145 114.835 57.6239 114.835C56.7332 114.835 56.0112 114.114 56.0112 113.224C56.0112 112.335 56.7332 111.613 57.6239 111.613C58.5145 111.613 59.2366 112.335 59.2366 113.224Z" fill="#8B57C2"/>
<path d="M68.9126 113.224C68.9126 114.114 68.1906 114.835 67.3 114.835C66.4093 114.835 65.6873 114.114 65.6873 113.224C65.6873 112.335 66.4093 111.613 67.3 111.613C68.1906 111.613 68.9126 112.335 68.9126 113.224Z" fill="#8B57C2"/>
<path d="M78.5887 113.224C78.5887 114.114 77.8667 114.835 76.976 114.835C76.0854 114.835 75.3633 114.114 75.3633 113.224C75.3633 112.335 76.0854 111.613 76.976 111.613C77.8667 111.613 78.5887 112.335 78.5887 113.224Z" fill="#8B57C2"/>
<path d="M88.2648 113.224C88.2648 114.114 87.5428 114.835 86.6521 114.835C85.7614 114.835 85.0394 114.114 85.0394 113.224C85.0394 112.335 85.7614 111.613 86.6521 111.613C87.5428 111.613 88.2648 112.335 88.2648 113.224Z" fill="#8B57C2"/>
<path d="M97.9409 113.224C97.9409 114.114 97.2188 114.835 96.3282 114.835C95.4375 114.835 94.7155 114.114 94.7155 113.224C94.7155 112.335 95.4375 111.613 96.3282 111.613C97.2188 111.613 97.9409 112.335 97.9409 113.224Z" fill="#8B57C2"/>
<path d="M107.617 113.224C107.617 114.114 106.895 114.835 106.004 114.835C105.114 114.835 104.392 114.114 104.392 113.224C104.392 112.335 105.114 111.613 106.004 111.613C106.895 111.613 107.617 112.335 107.617 113.224Z" fill="#8B57C2"/>
<path d="M117.293 113.224C117.293 114.114 116.571 114.835 115.68 114.835C114.79 114.835 114.068 114.114 114.068 113.224C114.068 112.335 114.79 111.613 115.68 111.613C116.571 111.613 117.293 112.335 117.293 113.224Z" fill="#8B57C2"/>
<path d="M20.5323 122.89C20.5323 123.78 19.8103 124.501 18.9196 124.501C18.0289 124.501 17.3069 123.78 17.3069 122.89C17.3069 122.001 18.0289 121.279 18.9196 121.279C19.8103 121.279 20.5323 122.001 20.5323 122.89Z" fill="#8B57C2"/>
<path d="M30.2083 122.89C30.2083 123.78 29.4863 124.501 28.5957 124.501C27.705 124.501 26.983 123.78 26.983 122.89C26.983 122.001 27.705 121.279 28.5957 121.279C29.4863 121.279 30.2083 122.001 30.2083 122.89Z" fill="#8B57C2"/>
<path d="M39.8844 122.89C39.8844 123.78 39.1624 124.501 38.2717 124.501C37.3811 124.501 36.6591 123.78 36.6591 122.89C36.6591 122.001 37.3811 121.279 38.2717 121.279C39.1624 121.279 39.8844 122.001 39.8844 122.89Z" fill="#8B57C2"/>
<path d="M49.5605 122.89C49.5605 123.78 48.8385 124.501 47.9478 124.501C47.0572 124.501 46.3351 123.78 46.3351 122.89C46.3351 122.001 47.0572 121.279 47.9478 121.279C48.8385 121.279 49.5605 122.001 49.5605 122.89Z" fill="#8B57C2"/>
<path d="M59.2366 122.89C59.2366 123.78 58.5145 124.501 57.6239 124.501C56.7332 124.501 56.0112 123.78 56.0112 122.89C56.0112 122.001 56.7332 121.279 57.6239 121.279C58.5145 121.279 59.2366 122.001 59.2366 122.89Z" fill="#8B57C2"/>
<path d="M68.9126 122.89C68.9126 123.78 68.1906 124.501 67.3 124.501C66.4093 124.501 65.6873 123.78 65.6873 122.89C65.6873 122.001 66.4093 121.279 67.3 121.279C68.1906 121.279 68.9126 122.001 68.9126 122.89Z" fill="#8B57C2"/>
<path d="M78.5887 122.89C78.5887 123.78 77.8667 124.501 76.976 124.501C76.0854 124.501 75.3633 123.78 75.3633 122.89C75.3633 122.001 76.0854 121.279 76.976 121.279C77.8667 121.279 78.5887 122.001 78.5887 122.89Z" fill="#8B57C2"/>
<path d="M88.2648 122.89C88.2648 123.78 87.5428 124.501 86.6521 124.501C85.7614 124.501 85.0394 123.78 85.0394 122.89C85.0394 122.001 85.7614 121.279 86.6521 121.279C87.5428 121.279 88.2648 122.001 88.2648 122.89Z" fill="#8B57C2"/>
<path d="M97.9409 122.89C97.9409 123.78 97.2188 124.501 96.3282 124.501C95.4375 124.501 94.7155 123.78 94.7155 122.89C94.7155 122.001 95.4375 121.279 96.3282 121.279C97.2188 121.279 97.9409 122.001 97.9409 122.89Z" fill="#8B57C2"/>
<path d="M107.617 122.89C107.617 123.78 106.895 124.501 106.004 124.501C105.114 124.501 104.392 123.78 104.392 122.89C104.392 122.001 105.114 121.279 106.004 121.279C106.895 121.279 107.617 122.001 107.617 122.89Z" fill="#8B57C2"/>
<path d="M117.293 122.89C117.293 123.78 116.571 124.501 115.68 124.501C114.79 124.501 114.068 123.78 114.068 122.89C114.068 122.001 114.79 121.279 115.68 121.279C116.571 121.279 117.293 122.001 117.293 122.89Z" fill="#8B57C2"/>
<path d="M20.5323 132.557C20.5323 133.446 19.8103 134.168 18.9196 134.168C18.0289 134.168 17.3069 133.446 17.3069 132.557C17.3069 131.667 18.0289 130.946 18.9196 130.946C19.8103 130.946 20.5323 131.667 20.5323 132.557Z" fill="#8B57C2"/>
<path d="M30.2083 132.557C30.2083 133.446 29.4863 134.168 28.5957 134.168C27.705 134.168 26.983 133.446 26.983 132.557C26.983 131.667 27.705 130.946 28.5957 130.946C29.4863 130.946 30.2083 131.667 30.2083 132.557Z" fill="#8B57C2"/>
<path d="M39.8844 132.557C39.8844 133.446 39.1624 134.168 38.2717 134.168C37.3811 134.168 36.6591 133.446 36.6591 132.557C36.6591 131.667 37.3811 130.946 38.2717 130.946C39.1624 130.946 39.8844 131.667 39.8844 132.557Z" fill="#8B57C2"/>
<path d="M49.5605 132.557C49.5605 133.446 48.8385 134.168 47.9478 134.168C47.0572 134.168 46.3351 133.446 46.3351 132.557C46.3351 131.667 47.0572 130.946 47.9478 130.946C48.8385 130.946 49.5605 131.667 49.5605 132.557Z" fill="#8B57C2"/>
<path d="M59.2366 132.557C59.2366 133.446 58.5145 134.168 57.6239 134.168C56.7332 134.168 56.0112 133.446 56.0112 132.557C56.0112 131.667 56.7332 130.946 57.6239 130.946C58.5145 130.946 59.2366 131.667 59.2366 132.557Z" fill="#8B57C2"/>
<path d="M68.9126 132.557C68.9126 133.446 68.1906 134.168 67.3 134.168C66.4093 134.168 65.6873 133.446 65.6873 132.557C65.6873 131.667 66.4093 130.946 67.3 130.946C68.1906 130.946 68.9126 131.667 68.9126 132.557Z" fill="#8B57C2"/>
<path d="M78.5887 132.557C78.5887 133.446 77.8667 134.168 76.976 134.168C76.0854 134.168 75.3633 133.446 75.3633 132.557C75.3633 131.667 76.0854 130.946 76.976 130.946C77.8667 130.946 78.5887 131.667 78.5887 132.557Z" fill="#8B57C2"/>
<path d="M88.2648 132.557C88.2648 133.446 87.5428 134.168 86.6521 134.168C85.7614 134.168 85.0394 133.446 85.0394 132.557C85.0394 131.667 85.7614 130.946 86.6521 130.946C87.5428 130.946 88.2648 131.667 88.2648 132.557Z" fill="#8B57C2"/>
<path d="M97.9409 132.557C97.9409 133.446 97.2188 134.168 96.3282 134.168C95.4375 134.168 94.7155 133.446 94.7155 132.557C94.7155 131.667 95.4375 130.946 96.3282 130.946C97.2188 130.946 97.9409 131.667 97.9409 132.557Z" fill="#8B57C2"/>
<path d="M107.617 132.557C107.617 133.446 106.895 134.168 106.004 134.168C105.114 134.168 104.392 133.446 104.392 132.557C104.392 131.667 105.114 130.946 106.004 130.946C106.895 130.946 107.617 131.667 107.617 132.557Z" fill="#8B57C2"/>
<path d="M117.293 132.557C117.293 133.446 116.571 134.168 115.68 134.168C114.79 134.168 114.068 133.446 114.068 132.557C114.068 131.667 114.79 130.946 115.68 130.946C116.571 130.946 117.293 131.667 117.293 132.557Z" fill="#8B57C2"/>
<path d="M20.5323 142.223C20.5323 143.113 19.8103 143.834 18.9196 143.834C18.0289 143.834 17.3069 143.113 17.3069 142.223C17.3069 141.333 18.0289 140.612 18.9196 140.612C19.8103 140.612 20.5323 141.333 20.5323 142.223Z" fill="#8B57C2"/>
<path d="M30.2083 142.223C30.2083 143.113 29.4863 143.834 28.5957 143.834C27.705 143.834 26.983 143.113 26.983 142.223C26.983 141.333 27.705 140.612 28.5957 140.612C29.4863 140.612 30.2083 141.333 30.2083 142.223Z" fill="#8B57C2"/>
<path d="M39.8844 142.223C39.8844 143.113 39.1624 143.834 38.2717 143.834C37.3811 143.834 36.6591 143.113 36.6591 142.223C36.6591 141.333 37.3811 140.612 38.2717 140.612C39.1624 140.612 39.8844 141.333 39.8844 142.223Z" fill="#8B57C2"/>
<path d="M49.5605 142.223C49.5605 143.113 48.8385 143.834 47.9478 143.834C47.0572 143.834 46.3351 143.113 46.3351 142.223C46.3351 141.333 47.0572 140.612 47.9478 140.612C48.8385 140.612 49.5605 141.333 49.5605 142.223Z" fill="#8B57C2"/>
<path d="M59.2366 142.223C59.2366 143.113 58.5145 143.834 57.6239 143.834C56.7332 143.834 56.0112 143.113 56.0112 142.223C56.0112 141.333 56.7332 140.612 57.6239 140.612C58.5145 140.612 59.2366 141.333 59.2366 142.223Z" fill="#8B57C2"/>
<path d="M68.9126 142.223C68.9126 143.113 68.1906 143.834 67.3 143.834C66.4093 143.834 65.6873 143.113 65.6873 142.223C65.6873 141.333 66.4093 140.612 67.3 140.612C68.1906 140.612 68.9126 141.333 68.9126 142.223Z" fill="#8B57C2"/>
<path d="M78.5887 142.223C78.5887 143.113 77.8667 143.834 76.976 143.834C76.0854 143.834 75.3633 143.113 75.3633 142.223C75.3633 141.333 76.0854 140.612 76.976 140.612C77.8667 140.612 78.5887 141.333 78.5887 142.223Z" fill="#8B57C2"/>
<path d="M88.2648 142.223C88.2648 143.113 87.5428 143.834 86.6521 143.834C85.7614 143.834 85.0394 143.113 85.0394 142.223C85.0394 141.333 85.7614 140.612 86.6521 140.612C87.5428 140.612 88.2648 141.333 88.2648 142.223Z" fill="#8B57C2"/>
<path d="M97.9409 142.223C97.9409 143.113 97.2188 143.834 96.3282 143.834C95.4375 143.834 94.7155 143.113 94.7155 142.223C94.7155 141.333 95.4375 140.612 96.3282 140.612C97.2188 140.612 97.9409 141.333 97.9409 142.223Z" fill="#8B57C2"/>
<path d="M107.617 142.223C107.617 143.113 106.895 143.834 106.004 143.834C105.114 143.834 104.392 143.113 104.392 142.223C104.392 141.333 105.114 140.612 106.004 140.612C106.895 140.612 107.617 141.333 107.617 142.223Z" fill="#8B57C2"/>
<path d="M117.293 142.223C117.293 143.113 116.571 143.834 115.68 143.834C114.79 143.834 114.068 143.113 114.068 142.223C114.068 141.333 114.79 140.612 115.68 140.612C116.571 140.612 117.293 141.333 117.293 142.223Z" fill="#8B57C2"/>
<path d="M20.5323 151.889C20.5323 152.779 19.8103 153.5 18.9196 153.5C18.0289 153.5 17.3069 152.779 17.3069 151.889C17.3069 150.999 18.0289 150.278 18.9196 150.278C19.8103 150.278 20.5323 150.999 20.5323 151.889Z" fill="#8B57C2"/>
<path d="M30.2083 151.889C30.2083 152.779 29.4863 153.5 28.5957 153.5C27.705 153.5 26.983 152.779 26.983 151.889C26.983 150.999 27.705 150.278 28.5957 150.278C29.4863 150.278 30.2083 150.999 30.2083 151.889Z" fill="#8B57C2"/>
<path d="M39.8844 151.889C39.8844 152.779 39.1624 153.5 38.2717 153.5C37.3811 153.5 36.6591 152.779 36.6591 151.889C36.6591 150.999 37.3811 150.278 38.2717 150.278C39.1624 150.278 39.8844 150.999 39.8844 151.889Z" fill="#8B57C2"/>
<path d="M49.5605 151.889C49.5605 152.779 48.8385 153.5 47.9478 153.5C47.0572 153.5 46.3351 152.779 46.3351 151.889C46.3351 150.999 47.0572 150.278 47.9478 150.278C48.8385 150.278 49.5605 150.999 49.5605 151.889Z" fill="#8B57C2"/>
<path d="M59.2366 151.889C59.2366 152.779 58.5145 153.5 57.6239 153.5C56.7332 153.5 56.0112 152.779 56.0112 151.889C56.0112 150.999 56.7332 150.278 57.6239 150.278C58.5145 150.278 59.2366 150.999 59.2366 151.889Z" fill="#8B57C2"/>
<path d="M68.9126 151.889C68.9126 152.779 68.1906 153.5 67.3 153.5C66.4093 153.5 65.6873 152.779 65.6873 151.889C65.6873 150.999 66.4093 150.278 67.3 150.278C68.1906 150.278 68.9126 150.999 68.9126 151.889Z" fill="#8B57C2"/>
<path d="M78.5887 151.889C78.5887 152.779 77.8667 153.5 76.976 153.5C76.0854 153.5 75.3633 152.779 75.3633 151.889C75.3633 150.999 76.0854 150.278 76.976 150.278C77.8667 150.278 78.5887 150.999 78.5887 151.889Z" fill="#8B57C2"/>
<path d="M88.2648 151.889C88.2648 152.779 87.5428 153.5 86.6521 153.5C85.7614 153.5 85.0394 152.779 85.0394 151.889C85.0394 150.999 85.7614 150.278 86.6521 150.278C87.5428 150.278 88.2648 150.999 88.2648 151.889Z" fill="#8B57C2"/>
<path d="M97.9409 151.889C97.9409 152.779 97.2188 153.5 96.3282 153.5C95.4375 153.5 94.7155 152.779 94.7155 151.889C94.7155 150.999 95.4375 150.278 96.3282 150.278C97.2188 150.278 97.9409 150.999 97.9409 151.889Z" fill="#8B57C2"/>
<path d="M107.617 151.889C107.617 152.779 106.895 153.5 106.004 153.5C105.114 153.5 104.392 152.779 104.392 151.889C104.392 150.999 105.114 150.278 106.004 150.278C106.895 150.278 107.617 150.999 107.617 151.889Z" fill="#8B57C2"/>
<path d="M117.293 151.889C117.293 152.779 116.571 153.5 115.68 153.5C114.79 153.5 114.068 152.779 114.068 151.889C114.068 150.999 114.79 150.278 115.68 150.278C116.571 150.278 117.293 150.999 117.293 151.889Z" fill="#8B57C2"/>
<path d="M20.5323 161.555C20.5323 162.445 19.8103 163.166 18.9196 163.166C18.0289 163.166 17.3069 162.445 17.3069 161.555C17.3069 160.665 18.0289 159.944 18.9196 159.944C19.8103 159.944 20.5323 160.665 20.5323 161.555Z" fill="#8B57C2"/>
<path d="M30.2083 161.555C30.2083 162.445 29.4863 163.166 28.5957 163.166C27.705 163.166 26.983 162.445 26.983 161.555C26.983 160.665 27.705 159.944 28.5957 159.944C29.4863 159.944 30.2083 160.665 30.2083 161.555Z" fill="#8B57C2"/>
<path d="M39.8844 161.555C39.8844 162.445 39.1624 163.166 38.2717 163.166C37.3811 163.166 36.6591 162.445 36.6591 161.555C36.6591 160.665 37.3811 159.944 38.2717 159.944C39.1624 159.944 39.8844 160.665 39.8844 161.555Z" fill="#8B57C2"/>
<path d="M49.5605 161.555C49.5605 162.445 48.8385 163.166 47.9478 163.166C47.0572 163.166 46.3351 162.445 46.3351 161.555C46.3351 160.665 47.0572 159.944 47.9478 159.944C48.8385 159.944 49.5605 160.665 49.5605 161.555Z" fill="#8B57C2"/>
<path d="M59.2366 161.555C59.2366 162.445 58.5145 163.166 57.6239 163.166C56.7332 163.166 56.0112 162.445 56.0112 161.555C56.0112 160.665 56.7332 159.944 57.6239 159.944C58.5145 159.944 59.2366 160.665 59.2366 161.555Z" fill="#8B57C2"/>
<path d="M68.9126 161.555C68.9126 162.445 68.1906 163.166 67.3 163.166C66.4093 163.166 65.6873 162.445 65.6873 161.555C65.6873 160.665 66.4093 159.944 67.3 159.944C68.1906 159.944 68.9126 160.665 68.9126 161.555Z" fill="#8B57C2"/>
<path d="M78.5887 161.555C78.5887 162.445 77.8667 163.166 76.976 163.166C76.0854 163.166 75.3633 162.445 75.3633 161.555C75.3633 160.665 76.0854 159.944 76.976 159.944C77.8667 159.944 78.5887 160.665 78.5887 161.555Z" fill="#8B57C2"/>
<path d="M88.2648 161.555C88.2648 162.445 87.5428 163.166 86.6521 163.166C85.7614 163.166 85.0394 162.445 85.0394 161.555C85.0394 160.665 85.7614 159.944 86.6521 159.944C87.5428 159.944 88.2648 160.665 88.2648 161.555Z" fill="#8B57C2"/>
<path d="M97.9409 161.555C97.9409 162.445 97.2188 163.166 96.3282 163.166C95.4375 163.166 94.7155 162.445 94.7155 161.555C94.7155 160.665 95.4375 159.944 96.3282 159.944C97.2188 159.944 97.9409 160.665 97.9409 161.555Z" fill="#8B57C2"/>
<path d="M107.617 161.555C107.617 162.445 106.895 163.166 106.004 163.166C105.114 163.166 104.392 162.445 104.392 161.555C104.392 160.665 105.114 159.944 106.004 159.944C106.895 159.944 107.617 160.665 107.617 161.555Z" fill="#8B57C2"/>
<path d="M117.293 161.555C117.293 162.445 116.571 163.166 115.68 163.166C114.79 163.166 114.068 162.445 114.068 161.555C114.068 160.665 114.79 159.944 115.68 159.944C116.571 159.944 117.293 160.665 117.293 161.555Z" fill="#8B57C2"/>
<path fill-rule="evenodd" clip-rule="evenodd" d="M124.657 23.0322C137.664 26.2207 150.478 26.0414 163.163 30.3355C181.741 36.6246 205.522 36.9442 215.549 53.8012C225.66 70.7995 221.172 94.3071 211.465 111.539C202.457 127.531 181.484 130.324 166.484 140.903C151.802 151.258 142.611 172.102 124.657 172.763C106.684 173.425 95.8443 153.501 80.5314 144.068C63.3604 133.49 39.1583 131.982 29.6159 114.215C19.7337 95.8148 24.3905 72.6953 31.6884 53.1262C38.7732 34.1288 50.1731 13.6095 69.4632 7.36528C88.115 1.32769 105.617 18.3644 124.657 23.0322Z" fill="url(#paint1_linear_32_763)"/>
<path fill-rule="evenodd" clip-rule="evenodd" d="M110.251 34.1098C96.725 36.7652 83.3986 36.6159 70.207 40.192C50.8862 45.4296 26.1549 45.6956 15.7271 59.7341C5.21191 73.8902 9.87905 93.4672 19.9741 107.818C29.3427 121.136 51.1541 123.462 66.7533 132.272C82.0218 140.895 91.5802 158.254 110.251 158.805C128.943 159.356 140.216 142.764 156.141 134.908C173.999 126.099 199.168 124.843 209.092 110.046C219.369 94.7228 214.526 75.469 206.936 59.172C199.569 43.351 187.713 26.2626 167.652 21.0625C148.254 16.0344 130.053 30.2225 110.251 34.1098Z" stroke="#8B57C2" stroke-width="3"/>
<defs>
<linearGradient id="paint0_linear_32_763" x1="99.4389" y1="0" x2="99.4389" y2="166.693" gradientUnits="userSpaceOnUse">
<stop stop-color="#9567B0"/>
<stop offset="1" stop-color="#DC8887"/>
</linearGradient>
<linearGradient id="paint1_linear_32_763" x1="122.624" y1="6.08594" x2="122.624" y2="172.779" gradientUnits="userSpaceOnUse">
<stop stop-color="#9567B0"/>
<stop offset="1" stop-color="#DC8887"/>
</linearGradient>
</defs>
</svg>
