<?xml version="1.0" encoding="utf-8"?><svg viewBox="0 0 64 64" xmlns="http://www.w3.org/2000/svg" xmlns:xlink="http://www.w3.org/1999/xlink"><style>:root>svg{display:none}:root>svg:target{display:block}</style><svg fill="none" viewBox="0 0 16 16" id="1" xmlns="http://www.w3.org/2000/svg"><path d="M3.5 0c.13 0 .25.05.35.14.09.1.15.22.15.36V1h8V.5c0-.14.05-.26.14-.36a.524.524 0 0 1 .71 0c.09.1.15.22.15.36V1h1c.53 0 1.03.21 1.41.58.37.38.59.88.59 1.42v11c0 .53-.22 1.03-.59 1.41-.38.37-.88.59-1.41.59H2c-.54 0-1.04-.22-1.42-.59C.21 15.03 0 14.53 0 14V3c0-.54.21-1.04.58-1.42C.96 1.21 1.46 1 2 1h1V.5c0-.14.05-.26.14-.36.1-.09.22-.14.36-.14ZM1 4v10c0 .26.1.51.29.7A1 1 0 0 0 2 15h12c.26 0 .51-.11.7-.3.19-.19.3-.44.3-.7V4H1Z" fill="#FFF"/></svg><svg fill="none" viewBox="0 0 17 17" id="2" xmlns="http://www.w3.org/2000/svg"><path d="M16.5 8.5c0-4.42-3.59-8-8-8-4.42 0-8 3.58-8 8 0 4.41 3.58 8 8 8 4.41 0 8-3.59 8-8Zm-8 8c2.18 0 2.9-3.64 2.9-8 0-4.37-.72-8-2.9-8m0 0c-2.19 0-2.91 3.63-2.91 8 0 4.36.72 8 2.91 8m-7.28-5.1h14.55M1.22 5.59h14.55" stroke="#FFF"/></svg><svg fill="none" viewBox="0 0 14 18" id="3" xmlns="http://www.w3.org/2000/svg"><path d="M13.76.09c.07.05.13.12.17.2.04.08.06.18.07.27V9c0 .11-.04.22-.1.31-.06.09-.14.17-.24.21h-.01l-.03.01c-.14.06-.28.12-.43.17-.28.11-.67.25-1.12.39-.88.29-2.03.59-2.92.59-.91 0-1.67-.31-2.33-.59l-.03-.01c-.68-.29-1.26-.52-1.95-.52-.75 0-1.76.26-2.62.53-.39.13-.77.27-1.15.41v6.93c0 .15-.05.29-.16.4a.5.5 0 0 1-.38.17c-.14 0-.28-.06-.38-.17a.585.585 0 0 1-.15-.4V.56C0 .41.05.27.15.16.25.05.39 0 .53 0c.15 0 .28.05.38.16.11.11.16.25.16.4v.31c.25-.08.54-.19.85-.29C2.8.3 3.95 0 4.84 0c.91 0 1.64.31 2.29.58l.04.02c.67.28 1.26.52 1.98.52.75 0 1.76-.26 2.62-.54.49-.16.98-.34 1.46-.53l.02-.01.51.05Zm-.84 1.28c-.24.09-.52.19-.83.29-.87.28-2.01.58-2.94.58-.96 0-1.72-.32-2.37-.6h-.01c-.68-.28-1.24-.52-1.93-.52-.72 0-1.73.26-2.6.54-.39.12-.78.26-1.17.41v7.24c.24-.09.52-.19.83-.29.87-.28 2.01-.59 2.94-.59.91 0 1.67.32 2.33.59l.03.01c.68.29 1.26.53 1.95.53.72 0 1.73-.26 2.6-.54.39-.13.78-.26 1.17-.41V1.37Z" fill="#FFF"/></svg><svg fill="none" viewBox="0 0 30 30" id="4" xmlns="http://www.w3.org/2000/svg"><path d="M7 15c0 4.41 3.58 8 8 8 4.41 0 8-3.59 8-8 0-4.42-3.59-8-8-8-4.42 0-8 3.58-8 8Z" stroke="#FFF" stroke-width="1.5"/><path d="M15 10v6h4" stroke="#FFF" stroke-width="1.5" stroke-linejoin="round" stroke-linecap="round"/></svg><svg fill="none" viewBox="0 0 64 64" id="budget" xmlns="http://www.w3.org/2000/svg"><defs><clipPath id="ea"><path transform="translate(14 14)" fill="#fff" fill-opacity="0" d="M0 0h36v36H0z"/></clipPath></defs><circle cx="32" cy="32" r="32" fill="#35293C"/><circle cx="32" cy="32" r="31.5" stroke="#8B57C2"/><circle cx="56" cy="11" r="3" fill="#8B57C2"/><circle cx="9" cy="53" r="6" fill="#8B57C2"/><path fill="none" d="M14 14h36v36H14z"/><g clip-path="url(#ea)"><path d="M45.54 30.06c.53-1.29.7-2.69.51-4.07a7.933 7.933 0 0 0-1.6-3.77 7.841 7.841 0 0 0-3.29-2.45 7.852 7.852 0 0 0-4.07-.48 7.826 7.826 0 0 0-3.27-2.47 7.819 7.819 0 0 0-4.06-.49 7.81 7.81 0 0 0-3.77 1.61c-1.09.86-1.93 2-2.44 3.29-1.38.19-2.68.74-3.78 1.59a7.982 7.982 0 0 0-2.46 3.28 7.856 7.856 0 0 0-.49 4.07c.2 1.37.77 2.67 1.63 3.76a7.915 7.915 0 0 0-.58 3.26c.04 1.12.32 2.21.82 3.21a7.79 7.79 0 0 0 2.06 2.6c.86.7 1.87 1.22 2.95 1.51.67.18 1.36.28 2.05.28.38 0 .77-.03 1.15-.08a7.91 7.91 0 0 0 3.27 2.47c1.28.52 2.69.69 4.06.49 1.38-.2 2.68-.75 3.77-1.61 1.09-.87 1.93-2 2.44-3.29a7.887 7.887 0 0 0 6.73-8.94 7.9 7.9 0 0 0-1.63-3.76v-.01Zm-5.83-8.41c1.42.38 2.63 1.3 3.38 2.56s.98 2.76.63 4.19a9.05 9.05 0 0 0-.4-.26l-6.26-3.61c-.17-.1-.37-.16-.56-.16-.2 0-.4.06-.57.16l-6.18 3.57v-2.6l5.69-3.29c.64-.37 1.35-.61 2.08-.71.73-.09 1.48-.04 2.19.15Zm-5.46 11.64L32 34.59l-2.25-1.3V30.7L32 29.4l2.25 1.3v2.59Zm-9-9.17c0-1.1.32-2.17.92-3.09.61-.92 1.47-1.64 2.48-2.08 1.01-.43 2.13-.56 3.21-.36 1.08.19 2.08.7 2.88 1.45-.14.07-.28.14-.42.23l-6.26 3.61c-.17.1-.32.24-.41.41-.1.17-.15.36-.15.56V32l-2.25-1.3v-6.58Zm-5.51 2.1a5.576 5.576 0 0 1 3.27-2.58c-.01.16-.01.32-.01.48v7.23c0 .19.05.39.15.56.09.17.24.31.41.41l6.19 3.57-2.25 1.31-5.7-3.3a5.62 5.62 0 0 1-2.06-7.68Zm4.54 16.12a5.626 5.626 0 0 1-3.38-2.56 5.585 5.585 0 0 1-.63-4.19c.13.09.26.18.4.26l6.26 3.62c.17.09.37.15.57.15.19 0 .39-.06.56-.15l6.19-3.58v2.6l-5.7 3.29c-.64.37-1.35.61-2.08.71-.73.09-1.47.04-2.19-.15Zm14.47-2.47c0 1.1-.33 2.18-.93 3.1-.61.91-1.47 1.64-2.48 2.07-1.01.43-2.12.56-3.21.37-1.08-.19-2.08-.7-2.88-1.45.14-.08.28-.15.42-.23l6.26-3.62c.17-.1.32-.24.41-.41.1-.17.15-.36.16-.56V32l2.25 1.29v6.58Zm5.5-2.1a5.576 5.576 0 0 1-3.27 2.58c.01-.16.02-.32.02-.48v-7.23c0-.19-.06-.39-.16-.56-.09-.17-.24-.31-.41-.41l-6.18-3.57 2.25-1.3 5.69 3.29a5.62 5.62 0 0 1 2.62 3.41c.39 1.44.19 2.98-.56 4.27Z" fill="#8B57C2"/></g></svg><svg fill="none" viewBox="0 0 30 30" id="data" xmlns="http://www.w3.org/2000/svg"><defs><clipPath id="fa"><rect rx="15" width="30" height="30" fill="#fff" fill-opacity="0"/></clipPath></defs><rect rx="15" width="30" height="30" fill="#4B4B4B"/><g clip-path="url(#fa)"><path d="M10.5 7c.13 0 .25.05.35.14.09.1.15.22.15.36V8h8v-.5c0-.14.05-.26.14-.36a.524.524 0 0 1 .71 0c.09.1.15.22.15.36V8h1c.53 0 1.03.21 1.41.58.37.38.59.88.59 1.42v11c0 .53-.22 1.03-.59 1.41-.38.37-.88.59-1.41.59H9c-.54 0-1.04-.22-1.42-.59C7.21 22.03 7 21.53 7 21V10c0-.54.21-1.04.58-1.42C7.96 8.21 8.46 8 9 8h1v-.5c0-.14.05-.26.14-.36.1-.09.22-.14.36-.14ZM8 11v10c0 .26.1.51.29.7A1 1 0 0 0 9 22h12c.26 0 .51-.11.7-.3.19-.19.3-.44.3-.7V11H8Z" fill="#FFF"/></g></svg><svg fill="none" viewBox="0 0 30 30" id="online" xmlns="http://www.w3.org/2000/svg"><defs><clipPath id="ga"><rect rx="15" width="30" height="30" fill="#fff" fill-opacity="0"/></clipPath></defs><rect rx="15" width="30" height="30" fill="#4B4B4B"/><g clip-path="url(#ga)"><path d="M23 15c0-4.42-3.59-8-8-8-4.42 0-8 3.58-8 8 0 4.41 3.58 8 8 8 4.41 0 8-3.59 8-8Zm-8 8c2.18 0 2.9-3.64 2.9-8 0-4.37-.72-8-2.9-8m0 0c-2.19 0-2.91 3.63-2.91 8 0 4.36.72 8 2.91 8m-7.28-5.1h14.55M7.72 12.09h14.55" stroke="#FFF"/></g></svg><svg fill="none" viewBox="0 0 17.495 17.489" id="plus" xmlns="http://www.w3.org/2000/svg"><path d="M17.49 8.74c0 .26-.08.51-.22.72-.15.21-.36.37-.6.45l-4.96 1.8-1.8 4.96c-.09.24-.25.44-.46.59-.21.15-.46.22-.71.22-.26 0-.5-.07-.71-.22-.21-.15-.37-.35-.46-.59l-1.8-4.96-4.96-1.8c-.24-.09-.45-.25-.59-.46C.07 9.24 0 8.99 0 8.74c0-.26.07-.5.22-.71.14-.21.35-.37.59-.46l4.96-1.8L7.57.81c.09-.24.25-.45.46-.59.21-.15.45-.22.71-.22.25 0 .5.07.71.22.21.14.37.35.46.59l1.8 4.96 4.96 1.8c.24.08.45.24.6.45.14.21.22.46.22.72Z" fill="#8B57C2"/></svg><svg fill="none" viewBox="0 0 30 30" id="potik" xmlns="http://www.w3.org/2000/svg"><defs><clipPath id="ia"><rect rx="15" width="30" height="30" fill="#fff" fill-opacity="0"/></clipPath></defs><rect rx="15" width="30" height="30" fill="#4B4B4B"/><g clip-path="url(#ia)"><path d="M23.76 6.09c.07.05.13.12.17.2.04.08.06.18.07.27V15c0 .11-.04.22-.1.31-.06.09-.14.17-.24.21h-.01l-.03.01c-.14.06-.28.12-.43.17-.28.11-.67.25-1.12.39-.88.29-2.03.59-2.92.59-.91 0-1.67-.31-2.33-.59l-.03-.01c-.68-.29-1.26-.52-1.95-.52-.75 0-1.76.26-2.62.53-.39.13-.77.27-1.15.41v6.93c0 .15-.05.29-.16.4a.5.5 0 0 1-.38.17c-.14 0-.28-.06-.38-.17a.585.585 0 0 1-.15-.4V6.56c0-.15.05-.29.15-.4.1-.11.24-.16.38-.16.15 0 .28.05.38.16.11.11.16.25.16.4v.31c.25-.08.54-.19.85-.29.88-.28 2.03-.58 2.92-.58.91 0 1.64.31 2.29.58l.04.02c.67.28 1.26.52 1.98.52.75 0 1.76-.26 2.62-.54.49-.16.98-.34 1.46-.53l.02-.01.51.05Zm-.84 1.28c-.24.09-.52.19-.83.29-.87.28-2.01.58-2.94.58-.96 0-1.72-.32-2.37-.6h-.01c-.68-.28-1.24-.52-1.93-.52-.72 0-1.73.26-2.6.54-.39.12-.78.26-1.17.41v7.24c.24-.09.52-.19.83-.29.87-.28 2.01-.59 2.94-.59.91 0 1.67.32 2.33.59l.03.01c.68.29 1.26.53 1.95.53.72 0 1.73-.26 2.6-.54.39-.13.78-.26 1.17-.41V7.37Z" fill="#FFF"/></g></svg><svg fill="none" viewBox="0 0 64 64" id="resource" xmlns="http://www.w3.org/2000/svg"><defs><clipPath id="ja"><path transform="translate(14 14)" fill="#fff" fill-opacity="0" d="M0 0h36v36H0z"/></clipPath></defs><circle cx="32" cy="32" r="32" fill="#35293C"/><circle cx="32" cy="32" r="31.5" stroke="#8B57C2"/><circle cx="56" cy="11" r="3" fill="#8B57C2"/><circle cx="9" cy="53" r="6" fill="#8B57C2"/><path fill="none" d="M14 14h36v36H14z"/><g clip-path="url(#ja)"><path d="M41 37.62c-.57 0-1.13-.22-1.58-.67l-3.37-3.38a2.18 2.18 0 0 1-.68-1.57c0-.57.22-1.13.68-1.58l3.37-3.37c.45-.45 1.01-.68 1.58-.68.56 0 1.12.23 1.57.68l3.38 3.37c.45.45.67 1.01.67 1.58 0 .56-.22 1.12-.67 1.57l-3.38 3.38c-.45.45-1.01.67-1.57.67Zm0-9L37.62 32 41 35.37 44.37 32 41 28.62Zm-9 0c-.57 0-1.13-.22-1.58-.67l-3.37-3.38c-.45-.45-.68-1.01-.68-1.57 0-.57.23-1.13.68-1.58l3.37-3.38c.45-.44 1.01-.67 1.58-.67.56 0 1.12.23 1.57.67l3.38 3.38c.45.45.67 1.01.67 1.58 0 .56-.22 1.12-.67 1.57l-3.38 3.38c-.45.45-1.01.67-1.57.67Zm0-9L28.62 23 32 26.37 35.37 23 32 19.62Zm0 27c-.57 0-1.13-.22-1.58-.67l-3.37-3.38c-.45-.45-.68-1.01-.68-1.57 0-.57.23-1.13.68-1.58l3.37-3.37c.45-.46 1.01-.68 1.58-.68.56 0 1.12.22 1.57.68l3.38 3.37c.45.45.67 1.01.67 1.58 0 .56-.22 1.12-.67 1.57l-3.38 3.38c-.45.45-1.01.67-1.57.67Zm0-9L28.62 41 32 44.37 35.37 41 32 37.62Zm-9 0c-.57 0-1.13-.22-1.58-.67l-3.38-3.38c-.44-.45-.67-1.01-.67-1.57 0-.57.23-1.13.67-1.58l3.38-3.37c.45-.45 1.01-.68 1.58-.68.56 0 1.12.23 1.57.68l3.38 3.37c.45.45.67 1.01.67 1.58 0 .56-.22 1.12-.67 1.57l-3.38 3.38c-.45.45-1.01.67-1.57.67Zm0-9L19.62 32 23 35.37 26.37 32 23 28.62Z" fill="#8B57C2"/></g></svg><svg fill="none" viewBox="0 0 64 64" id="saving" xmlns="http://www.w3.org/2000/svg"><defs><clipPath id="ka"><path transform="translate(14 14)" fill="#fff" fill-opacity="0" d="M0 0h36v36H0z"/></clipPath></defs><circle cx="32" cy="32" r="32" fill="#35293C"/><circle cx="32" cy="32" r="31.5" stroke="#8B57C2"/><circle cx="56" cy="11" r="3" fill="#8B57C2"/><circle cx="9" cy="53" r="6" fill="#8B57C2"/><path fill="none" d="M14 14h36v36H14z"/><g clip-path="url(#ka)"><path d="M30.87 14c1.55 0 3.04.19 4.46.59 1.43.4 2.78.97 4.05 1.71 1.26.74 2.4 1.61 3.41 2.63 1.01 1.02 1.88 2.17 2.63 3.43.75 1.27 1.32 2.61 1.71 4.03.39 1.42.59 2.91.62 4.48 0 1.55-.2 3.04-.6 4.46-.4 1.43-.97 2.78-1.71 4.05a16.58 16.58 0 0 1-2.63 3.41 17.738 17.738 0 0 1-3.43 2.63c-1.27.75-2.61 1.32-4.03 1.71-1.42.39-2.91.59-4.48.62-1.55 0-3.04-.2-4.46-.6-1.43-.4-2.78-.97-4.05-1.71a16.58 16.58 0 0 1-3.41-2.63 17.738 17.738 0 0 1-2.63-3.43c-.75-1.27-1.32-2.61-1.71-4.03-.39-1.42-.59-2.91-.61-4.48 0-1.55.19-3.04.59-4.46.4-1.43.97-2.78 1.71-4.05.74-1.26 1.61-2.4 2.63-3.41 1.02-1.01 2.17-1.88 3.43-2.63 1.27-.75 2.61-1.32 4.03-1.71 1.42-.39 2.91-.59 4.48-.61Zm0 31.5c1.35 0 2.64-.18 3.88-.53 1.25-.35 2.41-.85 3.49-1.48 1.07-.63 2.06-1.39 2.97-2.28.9-.89 1.66-1.88 2.28-2.96.62-1.08 1.11-2.24 1.48-3.5.36-1.25.54-2.54.53-3.88 0-1.35-.18-2.64-.53-3.88-.35-1.25-.85-2.41-1.48-3.49-.63-1.07-1.39-2.06-2.28-2.97-.89-.9-1.88-1.66-2.96-2.28-1.08-.62-2.24-1.11-3.5-1.48-1.25-.36-2.54-.54-3.88-.52-1.35 0-2.64.17-3.88.52-1.25.35-2.41.85-3.49 1.48-1.07.63-2.06 1.39-2.97 2.28-.9.89-1.66 1.88-2.28 2.96-.62 1.08-1.11 2.24-1.48 3.5-.36 1.25-.54 2.54-.52 3.88 0 1.35.17 2.64.52 3.88.35 1.25.85 2.41 1.48 3.49.63 1.07 1.39 2.06 2.28 2.97.89.9 1.88 1.66 2.96 2.28 1.08.62 2.24 1.11 3.5 1.48 1.25.36 2.54.54 3.88.53Zm3.02-16.11c.24.47.36.96.36 1.48 0 .47-.09.91-.27 1.32-.17.41-.41.77-.72 1.07-.3.31-.66.55-1.07.72-.41.18-.85.27-1.32.27-.47 0-.91-.09-1.32-.27-.41-.17-.77-.41-1.07-.72-.31-.3-.55-.66-.72-1.07a3.24 3.24 0 0 1-.26-1.32c0-.47.08-.91.26-1.32.17-.41.41-.77.72-1.07.3-.31.66-.55 1.07-.72.41-.18.85-.26 1.32-.26.52 0 1.01.11 1.48.35l-.02-.02 6.47-6.47 1.58 1.58-6.47 6.47-.02-.02ZM30.87 32c.3 0 .57-.12.79-.34.22-.22.34-.49.34-.79 0-.3-.12-.57-.34-.79-.22-.22-.49-.33-.79-.33-.3 0-.57.11-.79.33-.22.22-.33.49-.33.79 0 .3.11.57.33.79.22.22.49.34.79.34Zm11.25-6.19c.36.79.63 1.61.81 2.46.17.84.27 1.71.28 2.6 0 1.64-.3 3.22-.91 4.73-.61 1.51-1.5 2.85-2.68 4.02l-1.6-1.6c.95-.94 1.69-2.03 2.2-3.25.52-1.22.78-2.5.78-3.85 0-1.45-.31-2.85-.92-4.2l2.04-.91Zm-7.1-4.15c-1.35-.61-2.75-.91-4.2-.91-.93 0-1.82.11-2.67.35-.86.23-1.66.58-2.41 1.03-.75.46-1.43.99-2.04 1.59-.61.59-1.13 1.28-1.57 2.05-.43.78-.77 1.58-1.02 2.41-.24.83-.36 1.73-.36 2.69 0 1.35.25 2.64.77 3.87.51 1.23 1.25 2.32 2.2 3.28l-1.6 1.6c-1.18-1.17-2.07-2.5-2.69-4-.62-1.5-.93-3.09-.93-4.75 0-1.14.14-2.23.43-3.29.3-1.05.71-2.04 1.25-2.95.54-.91 1.19-1.75 1.94-2.5s1.58-1.38 2.49-1.91c.92-.53 1.9-.95 2.96-1.25 1.05-.31 2.15-.45 3.3-.44.88 0 1.74.09 2.58.26.85.18 1.67.46 2.48.83l-.91 2.04Z" fill="#8B57C2"/></g></svg><svg fill="none" viewBox="0 0 30 30" id="time" xmlns="http://www.w3.org/2000/svg"><defs><clipPath id="la"><rect rx="15" width="30" height="30" fill="#fff" fill-opacity="0"/></clipPath></defs><rect rx="15" width="30" height="30" fill="#4B4B4B"/><g clip-path="url(#la)" stroke="#FFF" stroke-width="1.5"><path d="M7 15c0 4.41 3.58 8 8 8 4.41 0 8-3.59 8-8 0-4.42-3.59-8-8-8-4.42 0-8 3.58-8 8Z"/><path d="M15 10v6h4" stroke-linejoin="round" stroke-linecap="round"/></g></svg></svg>