<?xml version="1.0" encoding="utf-8"?><svg viewBox="0 0 80 81" xmlns="http://www.w3.org/2000/svg" xmlns:xlink="http://www.w3.org/1999/xlink"><style>:root>svg{display:none}:root>svg:target{display:block}</style><svg fill="none" viewBox="0 0 16 16" id="1" xmlns="http://www.w3.org/2000/svg"><path d="M3.5 0c.13 0 .25.05.35.14.09.1.15.22.15.36V1h8V.5c0-.14.05-.26.14-.36a.524.524 0 0 1 .71 0c.09.1.15.22.15.36V1h1c.53 0 1.03.21 1.41.58.37.38.59.88.59 1.42v11c0 .53-.22 1.03-.59 1.41-.38.37-.88.59-1.41.59H2c-.54 0-1.04-.22-1.42-.59C.21 15.03 0 14.53 0 14V3c0-.54.21-1.04.58-1.42C.96 1.21 1.46 1 2 1h1V.5c0-.14.05-.26.14-.36.1-.09.22-.14.36-.14ZM1 4v10c0 .26.1.51.29.7A1 1 0 0 0 2 15h12c.26 0 .51-.11.7-.3.19-.19.3-.44.3-.7V4H1Z" fill="#FFF"/></svg><svg fill="none" viewBox="0 0 17 17" id="2" xmlns="http://www.w3.org/2000/svg"><path d="M16.5 8.5c0-4.42-3.59-8-8-8-4.42 0-8 3.58-8 8 0 4.41 3.58 8 8 8 4.41 0 8-3.59 8-8Zm-8 8c2.18 0 2.9-3.64 2.9-8 0-4.37-.72-8-2.9-8m0 0c-2.19 0-2.91 3.63-2.91 8 0 4.36.72 8 2.91 8m-7.28-5.1h14.55M1.22 5.59h14.55" stroke="#FFF"/></svg><svg fill="none" viewBox="0 0 14 18" id="3" xmlns="http://www.w3.org/2000/svg"><path d="M13.76.09c.07.05.13.12.17.2.04.08.06.18.07.27V9c0 .11-.04.22-.1.31-.06.09-.14.17-.24.21h-.01l-.03.01c-.14.06-.28.12-.43.17-.28.11-.67.25-1.12.39-.88.29-2.03.59-2.92.59-.91 0-1.67-.31-2.33-.59l-.03-.01c-.68-.29-1.26-.52-1.95-.52-.75 0-1.76.26-2.62.53-.39.13-.77.27-1.15.41v6.93c0 .15-.05.29-.16.4a.5.5 0 0 1-.38.17c-.14 0-.28-.06-.38-.17a.585.585 0 0 1-.15-.4V.56C0 .41.05.27.15.16.25.05.39 0 .53 0c.15 0 .28.05.38.16.11.11.16.25.16.4v.31c.25-.08.54-.19.85-.29C2.8.3 3.95 0 4.84 0c.91 0 1.64.31 2.29.58l.04.02c.67.28 1.26.52 1.98.52.75 0 1.76-.26 2.62-.54.49-.16.98-.34 1.46-.53l.02-.01.51.05Zm-.84 1.28c-.24.09-.52.19-.83.29-.87.28-2.01.58-2.94.58-.96 0-1.72-.32-2.37-.6h-.01c-.68-.28-1.24-.52-1.93-.52-.72 0-1.73.26-2.6.54-.39.12-.78.26-1.17.41v7.24c.24-.09.52-.19.83-.29.87-.28 2.01-.59 2.94-.59.91 0 1.67.32 2.33.59l.03.01c.68.29 1.26.53 1.95.53.72 0 1.73-.26 2.6-.54.39-.13.78-.26 1.17-.41V1.37Z" fill="#FFF"/></svg><svg fill="none" viewBox="0 0 30 30" id="4" xmlns="http://www.w3.org/2000/svg"><path d="M7 15c0 4.41 3.58 8 8 8 4.41 0 8-3.59 8-8 0-4.42-3.59-8-8-8-4.42 0-8 3.58-8 8Z" stroke="#FFF" stroke-width="1.5"/><path d="M15 10v6h4" stroke="#FFF" stroke-width="1.5" stroke-linejoin="round" stroke-linecap="round"/></svg><svg fill="none" viewBox="0 0 48 48" id="briefcase" xmlns="http://www.w3.org/2000/svg"><defs><clipPath id="aea"><rect rx="23.5" width="47" height="47" transform="translate(.5 .5)" fill="#fff" fill-opacity="0"/></clipPath></defs><rect rx="23.5" width="47" height="47" transform="translate(.5 .5)" fill="none"/><g clip-path="url(#aea)"><path d="M14.15 35c-.61 0-1.13-.22-1.54-.64-.41-.42-.61-.95-.61-1.59V19.34c0-.63.2-1.16.61-1.58.41-.43.93-.64 1.54-.64H20v-1.9c0-.64.2-1.16.61-1.59.41-.42.93-.63 1.54-.63h3.69c.62 0 1.13.21 1.54.63.41.43.62.95.62 1.59v1.9h5.84c.62 0 1.13.21 1.54.64.41.42.61.95.62 1.58v13.43c0 .64-.21 1.16-.62 1.59-.41.42-.92.63-1.54.64H14.15Zm7.18-17.88h5.33v-1.9c0-.22-.08-.41-.25-.59-.17-.17-.36-.26-.57-.26h-3.69c-.21 0-.39.09-.57.26-.17.18-.25.37-.25.59v1.9Zm13.33 10.31h-8v2.07h-5.33v-2.07h-8v5.34c0 .22.08.41.25.59.18.17.36.26.57.26h19.69c.21 0 .39-.09.57-.26.17-.18.25-.37.25-.59v-5.34Zm-12 .69h2.67v-2.75h-2.67v2.75Zm-9.33-2.06h8V24h5.33v2.06h8v-6.72c0-.21-.08-.4-.25-.58-.17-.18-.36-.27-.57-.26H14.15c-.21 0-.39.08-.57.26-.17.17-.25.37-.25.58v6.72Z" fill="#8B57C2"/></g><rect rx="23.5" width="47" height="47" transform="translate(.5 .5)" stroke="#8B57C2"/></svg><svg fill="none" viewBox="0 0 64 64" id="budget" xmlns="http://www.w3.org/2000/svg"><defs><clipPath id="afa"><path transform="translate(14 14)" fill="#fff" fill-opacity="0" d="M0 0h36v36H0z"/></clipPath></defs><circle cx="32" cy="32" r="32" fill="#35293C"/><circle cx="32" cy="32" r="31.5" stroke="#8B57C2"/><circle cx="56" cy="11" r="3" fill="#8B57C2"/><circle cx="9" cy="53" r="6" fill="#8B57C2"/><path fill="none" d="M14 14h36v36H14z"/><g clip-path="url(#afa)"><path d="M45.54 30.06c.53-1.29.7-2.69.51-4.07a7.933 7.933 0 0 0-1.6-3.77 7.841 7.841 0 0 0-3.29-2.45 7.852 7.852 0 0 0-4.07-.48 7.826 7.826 0 0 0-3.27-2.47 7.819 7.819 0 0 0-4.06-.49 7.81 7.81 0 0 0-3.77 1.61c-1.09.86-1.93 2-2.44 3.29-1.38.19-2.68.74-3.78 1.59a7.982 7.982 0 0 0-2.46 3.28 7.856 7.856 0 0 0-.49 4.07c.2 1.37.77 2.67 1.63 3.76a7.915 7.915 0 0 0-.58 3.26c.04 1.12.32 2.21.82 3.21a7.79 7.79 0 0 0 2.06 2.6c.86.7 1.87 1.22 2.95 1.51.67.18 1.36.28 2.05.28.38 0 .77-.03 1.15-.08a7.91 7.91 0 0 0 3.27 2.47c1.28.52 2.69.69 4.06.49 1.38-.2 2.68-.75 3.77-1.61 1.09-.87 1.93-2 2.44-3.29a7.887 7.887 0 0 0 6.73-8.94 7.9 7.9 0 0 0-1.63-3.76v-.01Zm-5.83-8.41c1.42.38 2.63 1.3 3.38 2.56s.98 2.76.63 4.19a9.05 9.05 0 0 0-.4-.26l-6.26-3.61c-.17-.1-.37-.16-.56-.16-.2 0-.4.06-.57.16l-6.18 3.57v-2.6l5.69-3.29c.64-.37 1.35-.61 2.08-.71.73-.09 1.48-.04 2.19.15Zm-5.46 11.64L32 34.59l-2.25-1.3V30.7L32 29.4l2.25 1.3v2.59Zm-9-9.17c0-1.1.32-2.17.92-3.09.61-.92 1.47-1.64 2.48-2.08 1.01-.43 2.13-.56 3.21-.36 1.08.19 2.08.7 2.88 1.45-.14.07-.28.14-.42.23l-6.26 3.61c-.17.1-.32.24-.41.41-.1.17-.15.36-.15.56V32l-2.25-1.3v-6.58Zm-5.51 2.1a5.576 5.576 0 0 1 3.27-2.58c-.01.16-.01.32-.01.48v7.23c0 .19.05.39.15.56.09.17.24.31.41.41l6.19 3.57-2.25 1.31-5.7-3.3a5.62 5.62 0 0 1-2.06-7.68Zm4.54 16.12a5.626 5.626 0 0 1-3.38-2.56 5.585 5.585 0 0 1-.63-4.19c.13.09.26.18.4.26l6.26 3.62c.17.09.37.15.57.15.19 0 .39-.06.56-.15l6.19-3.58v2.6l-5.7 3.29c-.64.37-1.35.61-2.08.71-.73.09-1.47.04-2.19-.15Zm14.47-2.47c0 1.1-.33 2.18-.93 3.1-.61.91-1.47 1.64-2.48 2.07-1.01.43-2.12.56-3.21.37-1.08-.19-2.08-.7-2.88-1.45.14-.08.28-.15.42-.23l6.26-3.62c.17-.1.32-.24.41-.41.1-.17.15-.36.16-.56V32l2.25 1.29v6.58Zm5.5-2.1a5.576 5.576 0 0 1-3.27 2.58c.01-.16.02-.32.02-.48v-7.23c0-.19-.06-.39-.16-.56-.09-.17-.24-.31-.41-.41l-6.18-3.57 2.25-1.3 5.69 3.29a5.62 5.62 0 0 1 2.62 3.41c.39 1.44.19 2.98-.56 4.27Z" fill="#8B57C2"/></g></svg><svg fill="none" viewBox="0 0 48 48" id="car" xmlns="http://www.w3.org/2000/svg"><defs><clipPath id="aga"><rect rx="23.5" width="47" height="47" transform="translate(.5 .5)" fill="#fff" fill-opacity="0"/></clipPath></defs><rect rx="23.5" width="47" height="47" transform="translate(.5 .5)" fill="none"/><g clip-path="url(#aga)"><path d="M16 31.37v.66c0 .52-.22 1.02-.59 1.39a2.016 2.016 0 0 1-2.83 0c-.37-.37-.58-.87-.58-1.39v-9.85l3.3-7.59c.21-.48.55-.88.99-1.16.43-.28.94-.44 1.47-.43h12.48c.52 0 1.03.15 1.47.43.43.28.77.68.98 1.16L36 22.18v9.85c0 .52-.22 1.02-.59 1.39a2.016 2.016 0 0 1-2.83 0c-.37-.37-.58-.87-.58-1.39v-.66m-20-9.19h24m0 9.19H12" stroke="#8B57C2" stroke-width="2" stroke-linejoin="round"/></g><rect rx="23.5" width="47" height="47" transform="translate(.5 .5)" stroke="#8B57C2"/></svg><svg fill="none" viewBox="0 0 48 48" id="clients" xmlns="http://www.w3.org/2000/svg"><defs><clipPath id="aha"><rect rx="23.5" width="47" height="47" transform="translate(.5 .5)" fill="#fff" fill-opacity="0"/></clipPath></defs><rect rx="23.5" width="47" height="47" transform="translate(.5 .5)" fill="none"/><g clip-path="url(#aha)"><path d="M28.8 35.18v.8h.8v-.8h-.8Zm-16 0H12v.8h.8v-.8Zm22.4.02v.8h.8v-.8h-.8ZM24.8 17.59c-.01.53-.11 1.05-.31 1.53a3.995 3.995 0 0 1-2.16 2.16c-.49.21-1.01.31-1.53.31v1.6c3.09 0 5.6-2.51 5.6-5.6h-1.6Zm-4 4c-.53 0-1.05-.1-1.54-.31a3.995 3.995 0 0 1-2.16-2.16c-.2-.48-.3-1-.31-1.53H15.2a5.554 5.554 0 0 0 1.64 3.96c.52.52 1.13.93 1.81 1.21.68.28 1.41.43 2.15.43v-1.6Zm-4.01-4c.01-.52.11-1.04.31-1.53.2-.48.5-.92.87-1.29.37-.38.81-.67 1.29-.87.49-.2 1.01-.31 1.54-.3V12c-.74-.01-1.47.14-2.15.42-.68.28-1.29.69-1.81 1.21s-.94 1.14-1.22 1.82c-.28.68-.42 1.41-.42 2.14h1.59Zm4.01-3.99a4.015 4.015 0 0 1 4 3.99h1.6c-.01-.73-.15-1.46-.43-2.14-.28-.68-.7-1.3-1.22-1.82s-1.13-.93-1.81-1.21c-.68-.28-1.41-.43-2.14-.42v1.6Zm8 20.78h-16v1.6h16v-1.6Zm-15.2.8v-3.19H12v3.19h1.6Zm4-7.19H24v-1.6h-6.4v1.6Zm10.4 4v3.19h1.6v-3.19H28Zm-4-4c1.06 0 2.07.42 2.82 1.17S28 30.92 28 31.99h1.6c0-1.49-.59-2.91-1.65-3.96A5.587 5.587 0 0 0 24 26.39v1.6Zm-10.4 4c0-1.06.42-2.08 1.17-2.83s1.76-1.17 2.83-1.17v-1.6c-1.49 0-2.91.59-3.96 1.64A5.592 5.592 0 0 0 12 31.99h1.6Zm20.8.81v2.4H36v-2.4h-1.6Zm.8 1.59h-4V36h4v-1.61Zm-4-4.79c.84 0 1.66.33 2.26.93.6.6.94 1.42.94 2.27H36c0-1.28-.51-2.5-1.41-3.4-.9-.9-2.12-1.4-3.39-1.4v1.6Zm-.8-4.8a2.408 2.408 0 0 1-2.4-2.41h-1.6c0 1.07.42 2.08 1.17 2.83s1.76 1.17 2.83 1.17V24.8Zm2.4-2.41c0 .64-.26 1.25-.71 1.7-.45.45-1.06.71-1.69.71v1.59c1.06 0 2.07-.42 2.82-1.17s1.18-1.76 1.18-2.83h-1.6ZM30.4 20c.63 0 1.24.25 1.69.7.45.45.71 1.06.71 1.69h1.6c0-1.06-.43-2.07-1.18-2.82a3.99 3.99 0 0 0-2.82-1.18V20Zm0-1.61c-1.07 0-2.08.43-2.83 1.18a3.98 3.98 0 0 0-1.17 2.82H28A2.392 2.392 0 0 1 30.4 20v-1.61Z" fill="#8B57C2"/></g><rect rx="23.5" width="47" height="47" transform="translate(.5 .5)" stroke="#8B57C2"/></svg><svg fill="none" viewBox="0 0 8 9" id="cube" xmlns="http://www.w3.org/2000/svg"><rect y=".5" width="8" height="8" rx="1" fill="#8B57C2"/></svg><svg fill="none" viewBox="0 0 72 73" id="curators" xmlns="http://www.w3.org/2000/svg"><path d="M41.268 36.8a.63.63 0 0 0 .892-.148A23.1 23.1 0 0 0 4.798 9.507a.63.63 0 0 0 .135.894.66.66 0 0 0 .907-.137 21.812 21.812 0 0 1 35.278 25.63.66.66 0 0 0 .15.906Z" fill="url(#aja)"/><path d="M30.732 36.2a.63.63 0 0 0-.892.148 23.1 23.1 0 0 0 37.362 27.145.63.63 0 0 0-.135-.894.66.66 0 0 0-.907.137 21.813 21.813 0 0 1-38.804-9.924 21.813 21.813 0 0 1 3.526-15.706.66.66 0 0 0-.15-.906Z" fill="url(#ajb)"/><path d="M35.7 41.768a.63.63 0 0 0 .148.892A23.1 23.1 0 0 0 62.993 5.298a.63.63 0 0 0-.894.135.66.66 0 0 0 .137.907 21.811 21.811 0 0 1-25.63 35.278.66.66 0 0 0-.906.15Z" fill="url(#ajc)"/><path d="M36.3 31.232a.63.63 0 0 0-.148-.892A23.1 23.1 0 0 0 9.007 67.702a.63.63 0 0 0 .894-.135.66.66 0 0 0-.137-.907 21.813 21.813 0 0 1 9.924-38.804 21.813 21.813 0 0 1 15.706 3.526.66.66 0 0 0 .906-.15Z" fill="url(#ajd)"/><path d="M30.732 36.8a.63.63 0 0 1-.892-.148A23.1 23.1 0 0 1 67.202 9.507a.63.63 0 0 1-.135.894.66.66 0 0 1-.907-.137 21.813 21.813 0 0 0-35.277 25.63.66.66 0 0 1-.15.906Z" fill="url(#aje)"/><path d="M41.268 36.2a.63.63 0 0 1 .892.148A23.1 23.1 0 0 1 4.798 63.493a.63.63 0 0 1 .135-.894.66.66 0 0 1 .907.137 21.812 21.812 0 0 0 35.278-25.63.66.66 0 0 1 .15-.906Z" fill="url(#ajf)"/><path d="M36.3 41.768a.63.63 0 0 1-.148.892A23.1 23.1 0 0 1 9.007 5.298a.63.63 0 0 1 .894.135.66.66 0 0 1-.137.907 21.812 21.812 0 0 0 25.63 35.278.66.66 0 0 1 .906.15Z" fill="url(#ajg)"/><path d="M35.7 31.232a.63.63 0 0 1 .148-.892 23.1 23.1 0 0 1 27.145 37.362.63.63 0 0 1-.894-.135.66.66 0 0 1 .137-.907 21.812 21.812 0 0 0-25.63-35.277.66.66 0 0 1-.906-.15Z" fill="url(#ajh)"/><defs><linearGradient id="aja" x1="36" y1=".5" x2="36" y2="72.5" gradientUnits="userSpaceOnUse"><stop stop-color="#9567B0"/><stop offset="1" stop-color="#DC8887"/></linearGradient><linearGradient id="ajb" x1="36" y1=".5" x2="36" y2="72.5" gradientUnits="userSpaceOnUse"><stop stop-color="#9567B0"/><stop offset="1" stop-color="#DC8887"/></linearGradient><linearGradient id="ajc" x1="36" y1=".5" x2="36" y2="72.5" gradientUnits="userSpaceOnUse"><stop stop-color="#9567B0"/><stop offset="1" stop-color="#DC8887"/></linearGradient><linearGradient id="ajd" x1="36" y1=".5" x2="36" y2="72.5" gradientUnits="userSpaceOnUse"><stop stop-color="#9567B0"/><stop offset="1" stop-color="#DC8887"/></linearGradient><linearGradient id="aje" x1="36" y1=".5" x2="36" y2="72.5" gradientUnits="userSpaceOnUse"><stop stop-color="#9567B0"/><stop offset="1" stop-color="#DC8887"/></linearGradient><linearGradient id="ajf" x1="36" y1=".5" x2="36" y2="72.5" gradientUnits="userSpaceOnUse"><stop stop-color="#9567B0"/><stop offset="1" stop-color="#DC8887"/></linearGradient><linearGradient id="ajg" x1="36" y1=".5" x2="36" y2="72.5" gradientUnits="userSpaceOnUse"><stop stop-color="#9567B0"/><stop offset="1" stop-color="#DC8887"/></linearGradient><linearGradient id="ajh" x1="36" y1=".5" x2="36" y2="72.5" gradientUnits="userSpaceOnUse"><stop stop-color="#9567B0"/><stop offset="1" stop-color="#DC8887"/></linearGradient></defs></svg><svg fill="none" viewBox="0 0 30 30" id="data" xmlns="http://www.w3.org/2000/svg"><defs><clipPath id="aka"><rect rx="15" width="30" height="30" fill="#fff" fill-opacity="0"/></clipPath></defs><rect rx="15" width="30" height="30" fill="#4B4B4B"/><g clip-path="url(#aka)"><path d="M10.5 7c.13 0 .25.05.35.14.09.1.15.22.15.36V8h8v-.5c0-.14.05-.26.14-.36a.524.524 0 0 1 .71 0c.09.1.15.22.15.36V8h1c.53 0 1.03.21 1.41.58.37.38.59.88.59 1.42v11c0 .53-.22 1.03-.59 1.41-.38.37-.88.59-1.41.59H9c-.54 0-1.04-.22-1.42-.59C7.21 22.03 7 21.53 7 21V10c0-.54.21-1.04.58-1.42C7.96 8.21 8.46 8 9 8h1v-.5c0-.14.05-.26.14-.36.1-.09.22-.14.36-.14ZM8 11v10c0 .26.1.51.29.7A1 1 0 0 0 9 22h12c.26 0 .51-.11.7-.3.19-.19.3-.44.3-.7V11H8Z" fill="#FFF"/></g></svg><svg fill="none" viewBox="0 0 48 48" id="designers" xmlns="http://www.w3.org/2000/svg"><defs><clipPath id="ala"><rect rx="23.5" width="47" height="47" transform="translate(.5 .5)" fill="#fff" fill-opacity="0"/></clipPath></defs><rect rx="23.5" width="47" height="47" transform="translate(.5 .5)" fill="none"/><g clip-path="url(#ala)"><path d="M13.05 30.17c-.13.02-.27.01-.39-.03a.858.858 0 0 1-.34-.18c-.1-.09-.18-.19-.24-.31a.995.995 0 0 1-.08-.38V13.91c-.01-.13.02-.26.08-.38.05-.12.13-.23.23-.32.1-.08.22-.15.35-.18.12-.04.26-.04.39-.02a79.45 79.45 0 0 0 21.89 0 .86.86 0 0 1 .39.02c.13.03.24.09.34.18.1.08.18.18.24.3.05.12.08.25.09.38v15.36c0 .14-.03.27-.09.39-.05.12-.13.23-.23.31a.908.908 0 0 1-.74.22 77.922 77.922 0 0 0-21.89 0ZM24 29.4V34m-4.62 0h9.23" stroke="#8B57C2" stroke-width="2" stroke-linejoin="round"/></g><rect rx="23.5" width="47" height="47" transform="translate(.5 .5)" stroke="#8B57C2"/></svg><svg fill="none" viewBox="0 0 72 73" id="diploma" xmlns="http://www.w3.org/2000/svg"><path d="M72 36.666a35.75 35.75 0 0 0-10.544-25.339A36.084 36.084 0 0 0 36 .832a36.084 36.084 0 0 0-25.456 10.495A35.75 35.75 0 0 0 0 36.666h1.44A34.32 34.32 0 0 1 11.562 12.34 34.641 34.641 0 0 1 36 2.265a34.641 34.641 0 0 1 24.438 10.076A34.32 34.32 0 0 1 70.56 36.666H72Z" fill="url(#ama)"/><path d="M72 36.334a35.75 35.75 0 0 1-10.544 25.339A36.085 36.085 0 0 1 36 72.168a36.085 36.085 0 0 1-25.456-10.495A35.75 35.75 0 0 1 0 36.334h1.44A34.32 34.32 0 0 0 11.562 60.66 34.641 34.641 0 0 0 36 70.735a34.641 34.641 0 0 0 24.438-10.076A34.32 34.32 0 0 0 70.56 36.334H72Z" fill="url(#amb)"/><path d="M0 1.827a35.75 35.75 0 0 0 10.544 25.339A36.085 36.085 0 0 0 36 37.66a36.085 36.085 0 0 0 25.456-10.495A35.75 35.75 0 0 0 72 1.827h-1.44a34.32 34.32 0 0 1-10.122 24.325A34.641 34.641 0 0 1 36 36.228a34.641 34.641 0 0 1-24.438-10.076A34.32 34.32 0 0 1 1.44 1.827H0Z" fill="url(#amc)"/><path d="M0 71.173a35.75 35.75 0 0 1 10.544-25.339A36.085 36.085 0 0 1 36 35.34a36.085 36.085 0 0 1 25.456 10.495A35.75 35.75 0 0 1 72 71.173h-1.44a34.32 34.32 0 0 0-10.122-24.325A34.641 34.641 0 0 0 36 36.772a34.641 34.641 0 0 0-24.438 10.076A34.32 34.32 0 0 0 1.44 71.173H0Z" fill="url(#amd)"/><path d="M0 72.5a36.085 36.085 0 0 0 25.456-10.496A35.75 35.75 0 0 0 36 36.666a35.75 35.75 0 0 0-10.544-25.339A36.084 36.084 0 0 0 0 .832v1.433a34.641 34.641 0 0 1 24.438 10.076A34.32 34.32 0 0 1 34.56 36.666 34.32 34.32 0 0 1 24.438 60.99 34.641 34.641 0 0 1 0 71.067V72.5Z" fill="url(#ame)"/><path d="M72 72.168a36.085 36.085 0 0 1-25.456-10.495A35.75 35.75 0 0 1 36 36.334a35.75 35.75 0 0 1 10.544-25.338A36.084 36.084 0 0 1 72 .5v1.433A34.641 34.641 0 0 0 47.562 12.01 34.32 34.32 0 0 0 37.44 36.334 34.32 34.32 0 0 0 47.562 60.66 34.641 34.641 0 0 0 72 70.735v1.433Z" fill="url(#amf)"/><defs><linearGradient id="ama" x1="36" y1=".5" x2="36" y2="72.5" gradientUnits="userSpaceOnUse"><stop stop-color="#9567B0"/><stop offset="1" stop-color="#DC8887"/></linearGradient><linearGradient id="amb" x1="36" y1=".5" x2="36" y2="72.5" gradientUnits="userSpaceOnUse"><stop stop-color="#9567B0"/><stop offset="1" stop-color="#DC8887"/></linearGradient><linearGradient id="amc" x1="36" y1=".5" x2="36" y2="72.5" gradientUnits="userSpaceOnUse"><stop stop-color="#9567B0"/><stop offset="1" stop-color="#DC8887"/></linearGradient><linearGradient id="amd" x1="36" y1=".5" x2="36" y2="72.5" gradientUnits="userSpaceOnUse"><stop stop-color="#9567B0"/><stop offset="1" stop-color="#DC8887"/></linearGradient><linearGradient id="ame" x1="36" y1=".5" x2="36" y2="72.5" gradientUnits="userSpaceOnUse"><stop stop-color="#9567B0"/><stop offset="1" stop-color="#DC8887"/></linearGradient><linearGradient id="amf" x1="36" y1=".5" x2="36" y2="72.5" gradientUnits="userSpaceOnUse"><stop stop-color="#9567B0"/><stop offset="1" stop-color="#DC8887"/></linearGradient></defs></svg><svg fill="none" viewBox="0 0 48 48" id="education" xmlns="http://www.w3.org/2000/svg"><defs><clipPath id="ana"><rect rx="23.5" width="47" height="47" transform="translate(.5 .5)" fill="#fff" fill-opacity="0"/></clipPath></defs><rect rx="23.5" width="47" height="47" transform="translate(.5 .5)" fill="none"/><g clip-path="url(#ana)" fill="#8B57C2"><path d="M30.22 29.58 24 33l-6.23-3.42v-3.62L16 25v5.59L24 35l8-4.41V25l-1.78.96v3.62Z"/><path d="m24 13-12 6.49v1.55L24 28l10.28-5.97v4.94H36v-7.48L24 13Zm8.57 7.98-1.72.99L24 25.95l-6.86-3.98-1.72-.99-1.18-.69L24 15.01l9.75 5.28-1.18.69Z"/></g><rect rx="23.5" width="47" height="47" transform="translate(.5 .5)" stroke="#8B57C2"/></svg><svg fill="none" viewBox="0 0 48 48" id="finance" xmlns="http://www.w3.org/2000/svg"><rect x=".5" y=".5" width="47" height="47" rx="23.5" stroke="#8B57C2"/><path d="M23.8 29.205h.693v-1.04a2.721 2.721 0 0 0 1.543-.737c.422-.405.633-.928.634-1.567 0-.554-.217-1.018-.65-1.392a5.798 5.798 0 0 0-1.495-.925v-2.697c.25.049.466.155.649.32.183.164.315.349.396.553l.92-.397a2.285 2.285 0 0 0-.782-.98 2.923 2.923 0 0 0-1.183-.507v-1.04H23.8v1.032c-.607.062-1.121.277-1.543.644-.422.367-.634.854-.635 1.461 0 .567.223 1.047.667 1.44.445.394.948.71 1.51.95v2.813c-.413-.077-.75-.245-1.013-.503a2.1 2.1 0 0 1-.551-.92l-.913.398c.173.561.477 1.024.91 1.386.433.361.956.586 1.568.675v1.033Zm.725-2.077v-2.533c.303.142.573.313.808.513.234.2.352.468.352.803 0 .382-.108.662-.323.841-.214.179-.494.304-.837.376Zm-.725-3.89a4.893 4.893 0 0 1-.813-.515.953.953 0 0 1-.38-.79c0-.355.123-.615.369-.78.245-.164.52-.269.824-.314v2.4ZM18.8 32c-2.173 0-4.016-.776-5.53-2.327-1.514-1.55-2.27-3.44-2.27-5.668 0-2.227.758-4.118 2.27-5.673C14.782 16.777 16.625 16 18.8 16h10.4c2.173 0 4.016.776 5.53 2.327 1.514 1.55 2.27 3.44 2.27 5.668 0 2.227-.758 4.118-2.27 5.673C33.218 31.223 31.375 32 29.2 32H18.8Zm0-1.333h10.4c1.798 0 3.332-.65 4.6-1.951 1.267-1.3 1.9-2.872 1.9-4.716 0-1.844-.635-3.416-1.902-4.716-1.267-1.3-2.8-1.95-4.598-1.95H18.8c-1.798 0-3.331.65-4.598 1.95-1.267 1.3-1.901 2.872-1.902 4.716 0 1.844.633 3.416 1.902 4.717 1.269 1.302 2.801 1.951 4.598 1.95Z" fill="#8B57C2"/></svg><svg fill="none" viewBox="0 0 48 48" id="it" xmlns="http://www.w3.org/2000/svg"><defs><clipPath id="apa"><rect rx="23.5" width="47" height="47" transform="translate(.5 .5)" fill="#fff" fill-opacity="0"/></clipPath></defs><rect rx="23.5" width="47" height="47" transform="translate(.5 .5)" fill="none"/><g clip-path="url(#apa)"><path d="M26.68 14.03c.23.06.43.21.56.43.12.21.15.46.09.69l-4.89 18.16c-.06.24-.21.44-.43.56a.9.9 0 0 1-.7.09.913.913 0 0 1-.56-.42.957.957 0 0 1-.09-.7l4.89-18.16a.868.868 0 0 1 .43-.56c.1-.06.22-.1.34-.12.12-.01.24 0 .36.03Zm2.78 3.74a.91.91 0 0 1 1.3-.07l2.14 1.91c.9.81 1.65 1.49 2.17 2.1.54.64.93 1.33.93 2.18 0 .85-.39 1.54-.93 2.18-.52.61-1.27 1.29-2.17 2.1l-2.14 1.91a.91.91 0 0 1-.67.24.9.9 0 0 1-.63-.3.91.91 0 0 1-.24-.67c.01-.24.12-.47.31-.63l2.08-1.87c.97-.87 1.62-1.46 2.05-1.96.4-.48.49-.76.49-1s-.09-.52-.49-1c-.43-.5-1.08-1.09-2.05-1.96l-2.08-1.87a.973.973 0 0 1-.22-.28c-.05-.11-.08-.23-.09-.35-.01-.12.01-.24.05-.36.04-.11.11-.22.19-.31v.01Zm-11 1.29c.19-.16.3-.39.31-.63a.926.926 0 0 0-.87-.97.91.91 0 0 0-.67.24l-2.14 1.91c-.9.81-1.65 1.49-2.17 2.1-.54.64-.92 1.33-.92 2.18 0 .85.38 1.54.92 2.18.52.61 1.27 1.29 2.17 2.1l2.14 1.91c.18.17.42.25.67.24a.9.9 0 0 0 .63-.3.91.91 0 0 0 .24-.67.872.872 0 0 0-.31-.63l-2.08-1.87c-.97-.87-1.62-1.46-2.05-1.96-.4-.48-.49-.76-.49-1s.09-.52.49-1c.43-.5 1.08-1.09 2.05-1.96l2.08-1.87Z" fill="#8B57C2"/></g><rect rx="23.5" width="47" height="47" transform="translate(.5 .5)" stroke="#8B57C2"/></svg><svg fill="none" viewBox="0 0 48 48" id="medicine" xmlns="http://www.w3.org/2000/svg"><defs><clipPath id="aqa"><rect rx="23.5" width="47" height="47" transform="translate(.5 .5)" fill="#fff" fill-opacity="0"/></clipPath></defs><rect rx="23.5" width="47" height="47" transform="translate(.5 .5)" fill="none"/><g clip-path="url(#aqa)" stroke="#8B57C2" stroke-width="2" stroke-linejoin="round"><path d="M18.93 14.43c.29-.28.67-.43 1.07-.43h8c.19 0 .39.03.57.11.18.07.35.19.49.32.14.14.25.31.32.49a1.435 1.435 0 0 1 0 1.15 1.434 1.434 0 0 1-.81.81c-.18.08-.38.12-.57.12h-8c-.4 0-.78-.16-1.07-.44a1.53 1.53 0 0 1 0-2.13Zm.14 5.71c.2-.09.42-.14.64-.14h8.57c.22 0 .44.05.64.14.21.1.38.24.53.42l2.21 2.76c.22.26.34.59.34.94v8.24c0 .39-.16.78-.44 1.06-.29.28-.67.44-1.06.44h-13c-.4 0-.78-.16-1.07-.44-.28-.28-.43-.67-.43-1.06v-8.24c-.01-.35.11-.68.33-.94l2.22-2.76c.14-.18.31-.32.52-.42ZM21 27h6m-3-3v6"/></g><rect rx="23.5" width="47" height="47" transform="translate(.5 .5)" stroke="#8B57C2"/></svg><svg fill="none" viewBox="0 0 30 30" id="online" xmlns="http://www.w3.org/2000/svg"><defs><clipPath id="ara"><rect rx="15" width="30" height="30" fill="#fff" fill-opacity="0"/></clipPath></defs><rect rx="15" width="30" height="30" fill="#4B4B4B"/><g clip-path="url(#ara)"><path d="M23 15c0-4.42-3.59-8-8-8-4.42 0-8 3.58-8 8 0 4.41 3.58 8 8 8 4.41 0 8-3.59 8-8Zm-8 8c2.18 0 2.9-3.64 2.9-8 0-4.37-.72-8-2.9-8m0 0c-2.19 0-2.91 3.63-2.91 8 0 4.36.72 8 2.91 8m-7.28-5.1h14.55M7.72 12.09h14.55" stroke="#FFF"/></g></svg><svg fill="none" viewBox="0 0 74 73" id="opportunity" xmlns="http://www.w3.org/2000/svg"><path d="M1 .5h72v72M1 .5v72h72M1 .5h21.6v21.6H1V.5Zm0 0h14.4v14.4H1V.5Zm0 0h7.2v7.2H1V.5Zm0 0h28.8v28.8H1V.5Zm0 0h36v36H1V.5Zm0 0h43.2v43.2H1V.5Zm0 0h50.4v50.4H1V.5Zm0 0h57.6v57.6H1V.5Zm0 0h64.8v64.8H1V.5Zm72 72L7.514 7.014" stroke="url(#asa)"/><defs><linearGradient id="asa" x1="37" y1=".5" x2="37" y2="72.5" gradientUnits="userSpaceOnUse"><stop stop-color="#9567B0"/><stop offset="1" stop-color="#DC8887"/></linearGradient></defs></svg><svg fill="none" viewBox="0 0 17.495 17.489" id="plus" xmlns="http://www.w3.org/2000/svg"><path d="M17.49 8.74c0 .26-.08.51-.22.72-.15.21-.36.37-.6.45l-4.96 1.8-1.8 4.96c-.09.24-.25.44-.46.59-.21.15-.46.22-.71.22-.26 0-.5-.07-.71-.22-.21-.15-.37-.35-.46-.59l-1.8-4.96-4.96-1.8c-.24-.09-.45-.25-.59-.46C.07 9.24 0 8.99 0 8.74c0-.26.07-.5.22-.71.14-.21.35-.37.59-.46l4.96-1.8L7.57.81c.09-.24.25-.45.46-.59.21-.15.45-.22.71-.22.25 0 .5.07.71.22.21.14.37.35.46.59l1.8 4.96 4.96 1.8c.24.08.45.24.6.45.14.21.22.46.22.72Z" fill="#8B57C2"/></svg><svg fill="none" viewBox="0 0 30 30" id="potik" xmlns="http://www.w3.org/2000/svg"><defs><clipPath id="aua"><rect rx="15" width="30" height="30" fill="#fff" fill-opacity="0"/></clipPath></defs><rect rx="15" width="30" height="30" fill="#4B4B4B"/><g clip-path="url(#aua)"><path d="M23.76 6.09c.07.05.13.12.17.2.04.08.06.18.07.27V15c0 .11-.04.22-.1.31-.06.09-.14.17-.24.21h-.01l-.03.01c-.14.06-.28.12-.43.17-.28.11-.67.25-1.12.39-.88.29-2.03.59-2.92.59-.91 0-1.67-.31-2.33-.59l-.03-.01c-.68-.29-1.26-.52-1.95-.52-.75 0-1.76.26-2.62.53-.39.13-.77.27-1.15.41v6.93c0 .15-.05.29-.16.4a.5.5 0 0 1-.38.17c-.14 0-.28-.06-.38-.17a.585.585 0 0 1-.15-.4V6.56c0-.15.05-.29.15-.4.1-.11.24-.16.38-.16.15 0 .28.05.38.16.11.11.16.25.16.4v.31c.25-.08.54-.19.85-.29.88-.28 2.03-.58 2.92-.58.91 0 1.64.31 2.29.58l.04.02c.67.28 1.26.52 1.98.52.75 0 1.76-.26 2.62-.54.49-.16.98-.34 1.46-.53l.02-.01.51.05Zm-.84 1.28c-.24.09-.52.19-.83.29-.87.28-2.01.58-2.94.58-.96 0-1.72-.32-2.37-.6h-.01c-.68-.28-1.24-.52-1.93-.52-.72 0-1.73.26-2.6.54-.39.12-.78.26-1.17.41v7.24c.24-.09.52-.19.83-.29.87-.28 2.01-.59 2.94-.59.91 0 1.67.32 2.33.59l.03.01c.68.29 1.26.53 1.95.53.72 0 1.73-.26 2.6-.54.39-.13.78-.26 1.17-.41V7.37Z" fill="#FFF"/></g></svg><svg fill="none" viewBox="0 0 64 64" id="resource" xmlns="http://www.w3.org/2000/svg"><defs><clipPath id="ava"><path transform="translate(14 14)" fill="#fff" fill-opacity="0" d="M0 0h36v36H0z"/></clipPath></defs><circle cx="32" cy="32" r="32" fill="#35293C"/><circle cx="32" cy="32" r="31.5" stroke="#8B57C2"/><circle cx="56" cy="11" r="3" fill="#8B57C2"/><circle cx="9" cy="53" r="6" fill="#8B57C2"/><path fill="none" d="M14 14h36v36H14z"/><g clip-path="url(#ava)"><path d="M41 37.62c-.57 0-1.13-.22-1.58-.67l-3.37-3.38a2.18 2.18 0 0 1-.68-1.57c0-.57.22-1.13.68-1.58l3.37-3.37c.45-.45 1.01-.68 1.58-.68.56 0 1.12.23 1.57.68l3.38 3.37c.45.45.67 1.01.67 1.58 0 .56-.22 1.12-.67 1.57l-3.38 3.38c-.45.45-1.01.67-1.57.67Zm0-9L37.62 32 41 35.37 44.37 32 41 28.62Zm-9 0c-.57 0-1.13-.22-1.58-.67l-3.37-3.38c-.45-.45-.68-1.01-.68-1.57 0-.57.23-1.13.68-1.58l3.37-3.38c.45-.44 1.01-.67 1.58-.67.56 0 1.12.23 1.57.67l3.38 3.38c.45.45.67 1.01.67 1.58 0 .56-.22 1.12-.67 1.57l-3.38 3.38c-.45.45-1.01.67-1.57.67Zm0-9L28.62 23 32 26.37 35.37 23 32 19.62Zm0 27c-.57 0-1.13-.22-1.58-.67l-3.37-3.38c-.45-.45-.68-1.01-.68-1.57 0-.57.23-1.13.68-1.58l3.37-3.37c.45-.46 1.01-.68 1.58-.68.56 0 1.12.22 1.57.68l3.38 3.37c.45.45.67 1.01.67 1.58 0 .56-.22 1.12-.67 1.57l-3.38 3.38c-.45.45-1.01.67-1.57.67Zm0-9L28.62 41 32 44.37 35.37 41 32 37.62Zm-9 0c-.57 0-1.13-.22-1.58-.67l-3.38-3.38c-.44-.45-.67-1.01-.67-1.57 0-.57.23-1.13.67-1.58l3.38-3.37c.45-.45 1.01-.68 1.58-.68.56 0 1.12.23 1.57.68l3.38 3.37c.45.45.67 1.01.67 1.58 0 .56-.22 1.12-.67 1.57l-3.38 3.38c-.45.45-1.01.67-1.57.67Zm0-9L19.62 32 23 35.37 26.37 32 23 28.62Z" fill="#8B57C2"/></g></svg><svg fill="none" viewBox="0 0 64 64" id="saving" xmlns="http://www.w3.org/2000/svg"><defs><clipPath id="awa"><path transform="translate(14 14)" fill="#fff" fill-opacity="0" d="M0 0h36v36H0z"/></clipPath></defs><circle cx="32" cy="32" r="32" fill="#35293C"/><circle cx="32" cy="32" r="31.5" stroke="#8B57C2"/><circle cx="56" cy="11" r="3" fill="#8B57C2"/><circle cx="9" cy="53" r="6" fill="#8B57C2"/><path fill="none" d="M14 14h36v36H14z"/><g clip-path="url(#awa)"><path d="M30.87 14c1.55 0 3.04.19 4.46.59 1.43.4 2.78.97 4.05 1.71 1.26.74 2.4 1.61 3.41 2.63 1.01 1.02 1.88 2.17 2.63 3.43.75 1.27 1.32 2.61 1.71 4.03.39 1.42.59 2.91.62 4.48 0 1.55-.2 3.04-.6 4.46-.4 1.43-.97 2.78-1.71 4.05a16.58 16.58 0 0 1-2.63 3.41 17.738 17.738 0 0 1-3.43 2.63c-1.27.75-2.61 1.32-4.03 1.71-1.42.39-2.91.59-4.48.62-1.55 0-3.04-.2-4.46-.6-1.43-.4-2.78-.97-4.05-1.71a16.58 16.58 0 0 1-3.41-2.63 17.738 17.738 0 0 1-2.63-3.43c-.75-1.27-1.32-2.61-1.71-4.03-.39-1.42-.59-2.91-.61-4.48 0-1.55.19-3.04.59-4.46.4-1.43.97-2.78 1.71-4.05.74-1.26 1.61-2.4 2.63-3.41 1.02-1.01 2.17-1.88 3.43-2.63 1.27-.75 2.61-1.32 4.03-1.71 1.42-.39 2.91-.59 4.48-.61Zm0 31.5c1.35 0 2.64-.18 3.88-.53 1.25-.35 2.41-.85 3.49-1.48 1.07-.63 2.06-1.39 2.97-2.28.9-.89 1.66-1.88 2.28-2.96.62-1.08 1.11-2.24 1.48-3.5.36-1.25.54-2.54.53-3.88 0-1.35-.18-2.64-.53-3.88-.35-1.25-.85-2.41-1.48-3.49-.63-1.07-1.39-2.06-2.28-2.97-.89-.9-1.88-1.66-2.96-2.28-1.08-.62-2.24-1.11-3.5-1.48-1.25-.36-2.54-.54-3.88-.52-1.35 0-2.64.17-3.88.52-1.25.35-2.41.85-3.49 1.48-1.07.63-2.06 1.39-2.97 2.28-.9.89-1.66 1.88-2.28 2.96-.62 1.08-1.11 2.24-1.48 3.5-.36 1.25-.54 2.54-.52 3.88 0 1.35.17 2.64.52 3.88.35 1.25.85 2.41 1.48 3.49.63 1.07 1.39 2.06 2.28 2.97.89.9 1.88 1.66 2.96 2.28 1.08.62 2.24 1.11 3.5 1.48 1.25.36 2.54.54 3.88.53Zm3.02-16.11c.24.47.36.96.36 1.48 0 .47-.09.91-.27 1.32-.17.41-.41.77-.72 1.07-.3.31-.66.55-1.07.72-.41.18-.85.27-1.32.27-.47 0-.91-.09-1.32-.27-.41-.17-.77-.41-1.07-.72-.31-.3-.55-.66-.72-1.07a3.24 3.24 0 0 1-.26-1.32c0-.47.08-.91.26-1.32.17-.41.41-.77.72-1.07.3-.31.66-.55 1.07-.72.41-.18.85-.26 1.32-.26.52 0 1.01.11 1.48.35l-.02-.02 6.47-6.47 1.58 1.58-6.47 6.47-.02-.02ZM30.87 32c.3 0 .57-.12.79-.34.22-.22.34-.49.34-.79 0-.3-.12-.57-.34-.79-.22-.22-.49-.33-.79-.33-.3 0-.57.11-.79.33-.22.22-.33.49-.33.79 0 .3.11.57.33.79.22.22.49.34.79.34Zm11.25-6.19c.36.79.63 1.61.81 2.46.17.84.27 1.71.28 2.6 0 1.64-.3 3.22-.91 4.73-.61 1.51-1.5 2.85-2.68 4.02l-1.6-1.6c.95-.94 1.69-2.03 2.2-3.25.52-1.22.78-2.5.78-3.85 0-1.45-.31-2.85-.92-4.2l2.04-.91Zm-7.1-4.15c-1.35-.61-2.75-.91-4.2-.91-.93 0-1.82.11-2.67.35-.86.23-1.66.58-2.41 1.03-.75.46-1.43.99-2.04 1.59-.61.59-1.13 1.28-1.57 2.05-.43.78-.77 1.58-1.02 2.41-.24.83-.36 1.73-.36 2.69 0 1.35.25 2.64.77 3.87.51 1.23 1.25 2.32 2.2 3.28l-1.6 1.6c-1.18-1.17-2.07-2.5-2.69-4-.62-1.5-.93-3.09-.93-4.75 0-1.14.14-2.23.43-3.29.3-1.05.71-2.04 1.25-2.95.54-.91 1.19-1.75 1.94-2.5s1.58-1.38 2.49-1.91c.92-.53 1.9-.95 2.96-1.25 1.05-.31 2.15-.45 3.3-.44.88 0 1.74.09 2.58.26.85.18 1.67.46 2.48.83l-.91 2.04Z" fill="#8B57C2"/></g></svg><svg fill="none" viewBox="0 0 48 48" id="science" xmlns="http://www.w3.org/2000/svg"><defs><clipPath id="axa"><rect rx="23.5" width="47" height="47" transform="translate(.5 .5)" fill="#fff" fill-opacity="0"/></clipPath></defs><rect rx="23.5" width="47" height="47" transform="translate(.5 .5)" fill="none"/><g clip-path="url(#axa)" stroke="#8B57C2" stroke-width="1.5" stroke-linejoin="round"><path d="M22.33 19.5c-1.15.88-2.25 1.84-3.27 2.87-4.83 4.84-7.28 10.24-5.47 12.05 1.81 1.82 7.2-.64 12.02-5.48 1.03-1.02 1.99-2.12 2.87-3.28" stroke-linecap="round"/><path d="M28.48 25.66c2.85 3.79 4.01 7.35 2.6 8.76-1.81 1.81-7.19-.64-12.02-5.48-4.83-4.84-7.28-10.23-5.47-12.04 1.41-1.41 4.97-.25 8.75 2.6" stroke-linecap="round"/><path d="M21.73 26.26c.16.16.38.25.6.25.23 0 .45-.09.6-.25.16-.16.25-.38.25-.6a.84.84 0 0 0-.25-.6.822.822 0 0 0-.6-.25c-.22 0-.44.09-.6.25a.83.83 0 0 0-.24.6c0 .22.08.44.24.6Zm4.02-8.96c.94-.17 1.82-.61 2.51-1.28.69-.66 1.17-1.52 1.38-2.46l.03-.14c.11-.53.86-.53.98-.01l.04.17c.22.94.7 1.79 1.39 2.45.7.66 1.57 1.1 2.51 1.26.54.1.54.87 0 .96-.94.17-1.81.61-2.51 1.27-.69.66-1.17 1.51-1.39 2.44l-.04.17c-.12.53-.87.53-.98 0l-.04-.15c-.2-.94-.68-1.79-1.37-2.46-.7-.66-1.57-1.11-2.52-1.27h.01c-.54-.09-.54-.86 0-.95Z"/></g><rect rx="23.5" width="47" height="47" transform="translate(.5 .5)" stroke="#8B57C2"/></svg><svg fill="none" viewBox="0 0 48 48" id="smm" xmlns="http://www.w3.org/2000/svg"><defs><clipPath id="aya"><rect rx="23.5" width="47" height="47" transform="translate(.5 .5)" fill="#fff" fill-opacity="0"/></clipPath></defs><rect rx="23.5" width="47" height="47" transform="translate(.5 .5)" fill="none"/><g clip-path="url(#aya)"><path d="M34.74 15.03c.17.4.26.83.26 1.27 0 .43-.09.86-.26 1.26-.16.4-.41.77-.71 1.07l-14.8 14.81L13 35l1.55-6.15 14.81-14.88c.58-.59 1.37-.94 2.19-.97.83-.04 1.64.24 2.27.77l.21.19c.3.31.55.67.71 1.07ZM22.34 35h12.47m-3.12-17.14 1.56 1.55" stroke="#8B57C2" stroke-width="2" stroke-linejoin="round"/></g><rect rx="23.5" width="47" height="47" transform="translate(.5 .5)" stroke="#8B57C2"/></svg><svg fill="none" viewBox="0 0 72 73" id="studying" xmlns="http://www.w3.org/2000/svg"><path d="m44.047 33.167-.315-.315c.117.25.223.504.315.762v-.001m0-.446-16.094 3.317v.016m16.094-3.333v.446m0-.446v.446m0 0c.324.902.5 1.874.5 2.887v.06a8.57 8.57 0 0 1-.5 2.826m0-5.773a8.483 8.483 0 0 0-.316-.762l.316.762Zm0 5.773v-2.88.038a8.02 8.02 0 0 1-2.357 5.646m2.357-2.804a8.465 8.465 0 0 1-.315.762m.315-.762-.315.762M41.69 42.19a8.022 8.022 0 0 1-5.646 2.357h-.038 2.88a8.568 8.568 0 0 1-5.772 0h2.88-.038a8.021 8.021 0 0 1-5.646-2.357m11.38 0-2.041 2.041 4.082-4.082-2.041 2.041Zm-11.38 0a8.02 8.02 0 0 1-2.357-5.674m2.357 5.674-2.041-2.041 4.464 4.251m-2.423-2.21 2.041 2.041c.126.06.253.116.382.17m-4.78-7.885V36.5m0 .016v2.87m0-2.87V36.5m0 0v2.886m0 0a8.564 8.564 0 0 1-.499-3.026l.5 3.026Zm0-5.773c.093-.26.199-.514.316-.762m-.316.762L36 27.953h-.005m-8.042 5.66v-.446m0 .446v-.446m.315-.315a8.53 8.53 0 0 1 1.688-2.395m-1.688 2.395-.315.315m.315-.315-.315.315m2.003-2.71a8.528 8.528 0 0 1 2.396-1.689m-2.396 1.688 2.004-2.003h-4.007v4.007l2.003-2.004Zm2.396-1.688-.001.001a8.57 8.57 0 0 1 .39-.172m-.39.171.316-.315h.446m-.761.315c.128-.06.258-.117.388-.171m0 0c.124-.051.248-.099.374-.144h-.001m-.373.144c.123-.05.247-.099.373-.144m0 0a8.53 8.53 0 0 1 2.882-.5m0 0h-2.828L36 25.12l2.833 2.833H35.995Zm-.026.5H36c2.217 0 4.224.896 5.68 2.346l.01.011-5.721-2.357Zm0 0a8.058 8.058 0 0 0-3.037.606m3.037-.606-3.037.606m0 0a8.074 8.074 0 0 0-4.375 4.378 8.057 8.057 0 0 0-.603 2.932l4.978-7.31ZM32.733 44.4a8.491 8.491 0 0 1-.381-.168l.315.315h.446a8.5 8.5 0 0 1-.38-.147ZM36 47.88l-2.833-2.833L36 47.88Zm0 0 2.833-2.833L36 47.88Zm7.732-7.732.315-.315-.315.315ZM47.38 36.5l-2.833 2.833v-2.826l2.833-.007Zm0 0-2.833-2.833v2.826l2.833.007ZM27.953 8.81c0-1.19.228-2.27.63-3.223l.398-.71a8.389 8.389 0 0 1 1.7-2.15A8.393 8.393 0 0 1 36 .751a8.393 8.393 0 0 1 5.319 1.976 8.389 8.389 0 0 1 1.7 2.15l.399.71a8.25 8.25 0 0 1 .629 3.224v2.478l-5.866 1.652a8.048 8.048 0 0 1-4.362 0l-5.866-1.652V8.811Zm16.594 0c0-.48-.035-.944-.102-1.39l1.819 3.245-1.717.483V8.811Zm0 2.858 1.969-.555 1 1.784-2.97 2.969v-4.198Zm3.336.862-.873-1.556 3.581-1.008a9.382 9.382 0 0 0-1.055.911l-1.653 1.653Zm-3.336 4.043 3.222-3.222 2.911 5.192a8.548 8.548 0 0 0 3.277 3.277l5.192 2.91-3.222 3.223h-11.38v-11.38Zm14.97 7.79-5.316-2.98a8.047 8.047 0 0 1-3.085-3.084l-2.98-5.316 1.753-1.752a8.252 8.252 0 0 1 2.725-1.835l.784-.221a8.389 8.389 0 0 1 2.722-.317 8.393 8.393 0 0 1 5.16 2.364 8.393 8.393 0 0 1 2.362 5.157 8.387 8.387 0 0 1-.317 2.723l-.221.784a8.25 8.25 0 0 1-1.835 2.725l-1.752 1.752Zm-2.883 3.59 2.969-2.968 1.784 1-.555 1.968h-4.198Zm4.892-2.463-1.556-.873 1.653-1.653c.34-.34.643-.693.911-1.055l-1.008 3.58Zm-.174 2.463.483-1.717 3.245 1.819a9.394 9.394 0 0 0-1.39-.102h-2.338Zm8.42 13.866a8.386 8.386 0 0 1-2.148 1.7l-.71.399a8.253 8.253 0 0 1-3.224.629h-2.48L59.56 38.68a8.046 8.046 0 0 1 0-4.362l1.652-5.866h2.479c1.19 0 2.27.228 3.223.63l.71.398a8.389 8.389 0 0 1 2.15 1.7 8.393 8.393 0 0 1 1.976 5.319 8.393 8.393 0 0 1-1.976 5.32ZM56.135 28.453h4.557l-1.613 5.73a8.547 8.547 0 0 0 0 4.634l1.613 5.73h-4.557L48.087 36.5l8.047-8.047Zm.5 16.594h4.198l.555 1.969-1.785 1-2.968-2.97Zm8.446-.102-3.245 1.819-.483-1.717h2.338c.48 0 .944-.035 1.39-.102Zm-5.11 3.438 1.556-.873 1.008 3.581a9.377 9.377 0 0 0-.911-1.055l-1.653-1.653Zm-3.85 15.76a8.389 8.389 0 0 1-2.722-.318l-.784-.22a8.252 8.252 0 0 1-2.725-1.836l-1.752-1.752 2.98-5.316a8.047 8.047 0 0 1 3.084-3.085l5.316-2.98 1.752 1.753a8.252 8.252 0 0 1 1.835 2.725l.22.784c.267.944.364 1.856.318 2.722a8.393 8.393 0 0 1-2.363 5.158 8.392 8.392 0 0 1-5.16 2.364Zm-.193-19.096 3.222 3.223-5.192 2.91a8.548 8.548 0 0 0-3.277 3.277l-2.91 5.192-3.223-3.222v-11.38h11.38Zm-11.38 12.087 2.969 2.969-1 1.784-1.97-.555v-4.198Zm6.044 5.9-3.58-1.008.872-1.556 1.653 1.653c.34.34.693.643 1.055.912Zm-6.044-1.182 1.717.483-1.819 3.245c.067-.446.102-.91.102-1.39v-2.338Zm-13.866 8.42a8.388 8.388 0 0 1-1.7-2.148l-.399-.71a8.25 8.25 0 0 1-.629-3.225v-2.478l5.866-1.652a8.048 8.048 0 0 1 4.362 0l5.866 1.652v2.478a8.25 8.25 0 0 1-.63 3.224l-.398.71a8.387 8.387 0 0 1-1.7 2.15A8.393 8.393 0 0 1 36 72.249a8.393 8.393 0 0 1-5.319-1.976Zm13.366-13.638v4.557l-5.73-1.613a8.547 8.547 0 0 0-4.634 0l-5.73 1.613v-4.557L36 48.587l8.047 8.047Zm-16.594.5v4.198l-1.968.555-1-1.785 2.968-2.968Zm.102 8.446-1.819-3.245 1.717-.483v2.337c0 .482.035.945.102 1.391Zm-3.438-5.11.872 1.556-3.58 1.008a9.386 9.386 0 0 0 1.055-.911l1.653-1.653Zm-15.76-3.85a8.389 8.389 0 0 1 .318-2.722l.22-.784a8.251 8.251 0 0 1 1.836-2.725l1.752-1.752 5.316 2.98a8.047 8.047 0 0 1 3.085 3.084l2.98 5.316-1.753 1.752a8.251 8.251 0 0 1-2.725 1.835l-.784.221a8.39 8.39 0 0 1-2.722.317 8.393 8.393 0 0 1-5.158-2.364 8.392 8.392 0 0 1-2.364-5.158Zm19.096-.193-3.223 3.222-2.91-5.192a8.548 8.548 0 0 0-3.277-3.277l-5.192-2.91 3.222-3.223h11.38v11.38Zm-12.087-11.38-2.969 2.969-1.784-1 .555-1.97h4.198Zm-5.9 6.044 1.008-3.58 1.556.872-1.653 1.653c-.34.34-.643.693-.911 1.055Zm1.182-6.044-.483 1.717-3.245-1.819c.446.067.91.102 1.39.102h2.338ZM2.228 31.18a8.386 8.386 0 0 1 2.148-1.7l.71-.399a8.253 8.253 0 0 1 3.225-.629h2.478l1.652 5.866a8.048 8.048 0 0 1 0 4.362l-1.652 5.866H8.311a8.252 8.252 0 0 1-3.224-.63l-.71-.398a8.389 8.389 0 0 1-2.15-1.7A8.393 8.393 0 0 1 .251 36.5a8.393 8.393 0 0 1 1.976-5.32Zm13.638 13.366h-4.557l1.613-5.73a8.545 8.545 0 0 0 0-4.634l-1.613-5.73h4.557l8.047 8.047-8.047 8.047Zm-.5-16.594h-4.198l-.555-1.968 1.784-1 2.97 2.968Zm-8.446.102 3.245-1.819.483 1.717H8.311c-.481 0-.945.035-1.391.102Zm5.11-3.438-1.556.872-1.009-3.58c.269.362.572.715.912 1.055l1.653 1.653Zm3.85-15.76a8.389 8.389 0 0 1 2.722.318l.784.22c.958.391 1.882.993 2.725 1.836l1.752 1.752-2.98 5.316a8.047 8.047 0 0 1-3.084 3.085l-5.316 2.98-1.752-1.753a8.253 8.253 0 0 1-1.835-2.725l-.221-.784a8.388 8.388 0 0 1-.317-2.721 8.393 8.393 0 0 1 2.364-5.16 8.393 8.393 0 0 1 5.158-2.363Zm.193 19.096-3.222-3.222 5.192-2.911a8.548 8.548 0 0 0 3.277-3.277l2.91-5.192 3.223 3.222v11.38h-11.38Zm11.38-12.087-2.968-2.968 1-1.785 1.968.555v4.198Zm-6.044-5.9 3.58 1.008-.872 1.556-1.653-1.653a9.367 9.367 0 0 0-1.055-.911Zm4.327.699 1.819-3.245c-.067.446-.102.91-.102 1.39v2.338l-1.717-.483Zm2.217 5.701V11.81l5.73 1.613a8.547 8.547 0 0 0 4.634 0l5.73-1.613v4.557L36 24.413l-8.047-8.047Zm8.4 8.4 7.694-7.693v10.88H39.54l-3.187-3.186Zm3.687 3.687h4.007v4.007l-1.992-1.992-.023-.023-1.992-1.992Zm-1.154 0c-.034-.013.036.013.001 0h.446l.315.315.001.001a11.41 11.41 0 0 0-.763-.316Zm-6.426-.5h-4.507v-10.88l7.693 7.694-3.186 3.186Zm-5.007 5.714V39.333L24.62 36.5l2.833-2.833Zm0-5.214v4.507l-3.186 3.186-7.694-7.693h10.88Zm-10.88 16.094 7.694-7.694 3.186 3.187v4.507h-10.88Zm11.38 0V40.54l2.003 2.004 2.004 2.003h-4.007Zm.315-4.399-.315-.315v-.446a8.544 8.544 0 0 0 .315.761Zm-.315 4.899h4.507l3.186 3.187-7.693 7.693v-10.88Zm16.094 10.88-7.694-7.694 3.187-3.186h4.507v10.88Zm0-11.38H40.04l2.004-2.003 2.003-2.004v4.007Zm-4.399-.315-.315.315h-.446a8.513 8.513 0 0 0 .761-.315Zm4.899.315V40.04l3.187-3.186 7.693 7.693h-10.88Zm3.187-8.4-3.187-3.187v-4.507h10.88l-7.694 7.694Z" stroke="url(#aza)" stroke-width=".5"/><defs><linearGradient id="aza" x1="36" y1=".5" x2="36" y2="72.5" gradientUnits="userSpaceOnUse"><stop stop-color="#9567B0"/><stop offset="1" stop-color="#DC8887"/></linearGradient></defs></svg><svg fill="none" viewBox="0 0 80 81" id="task" xmlns="http://www.w3.org/2000/svg"><g filter="url(#baa)"><path d="M63.333 23.774C63.333 36.63 52.887 47.05 40 47.05c-12.887 0-23.333-10.42-23.333-23.275C16.667 10.92 27.113.5 40 .5c12.887 0 23.333 10.42 23.333 23.274Zm-45.966 0C17.367 36.243 27.5 46.351 40 46.351s22.633-10.108 22.633-22.577C62.633 11.306 52.5 1.198 40 1.198S17.367 11.306 17.367 23.774Z" fill="url(#bab)"/><path d="M64.912 43.131c-9.11 9.152-23.88 9.152-32.989 0-9.109-9.152-9.109-23.99 0-33.141 9.11-9.152 23.88-9.152 32.989 0 9.109 9.151 9.109 23.99 0 33.141ZM32.418 10.487c-8.836 8.877-8.836 23.27 0 32.147 8.837 8.877 23.163 8.877 31.999 0 8.836-8.877 8.836-23.27 0-32.147-8.836-8.878-23.163-8.878-31.999 0Z" fill="url(#bac)"/><path d="M52.5 58.435C39.521 58.435 29 47.94 29 34.993c0-12.947 10.521-23.442 23.5-23.442S76 22.046 76 34.993c0 12.947-10.521 23.442-23.5 23.442Zm0-46.18c-12.59 0-22.795 10.18-22.795 22.738S39.911 57.732 52.5 57.732c12.59 0 22.795-10.18 22.795-22.739 0-12.558-10.206-22.739-22.795-22.739Z" fill="url(#bad)"/><path d="M32.875 60.02c-9.11-9.151-9.11-23.99 0-33.141 9.11-9.152 23.879-9.152 32.988 0 9.11 9.152 9.11 23.99 0 33.141-9.11 9.152-23.878 9.152-32.988 0Zm32.493-32.644c-8.836-8.877-23.162-8.877-31.998 0-8.836 8.877-8.836 23.27 0 32.147 8.836 8.878 23.162 8.878 31.998 0 8.837-8.877 8.837-23.27 0-32.147Z" fill="url(#bae)"/><path d="M16.667 48.89c0-13.038 10.446-23.609 23.333-23.609 12.887 0 23.333 10.57 23.333 23.61C63.333 61.93 52.887 72.5 40 72.5c-12.887 0-23.333-10.57-23.333-23.61Zm45.966 0c0-12.647-10.133-22.9-22.633-22.9s-22.633 10.253-22.633 22.9C17.367 61.54 27.5 71.793 40 71.793S62.633 61.539 62.633 48.89Z" fill="url(#baf)"/><path d="M14.16 27.835c9.11-9.152 23.88-9.152 32.989 0 9.11 9.152 9.11 23.99 0 33.142-9.11 9.151-23.879 9.151-32.988 0-9.11-9.152-9.11-23.99 0-33.142Zm32.494 32.644c8.836-8.877 8.836-23.27 0-32.147-8.836-8.877-23.162-8.877-31.999 0-8.836 8.877-8.836 23.27 0 32.147 8.837 8.878 23.163 8.878 31.999 0Z" fill="url(#bag)"/><path d="M27.5 11.551c12.979 0 23.5 10.495 23.5 23.442 0 12.947-10.521 23.442-23.5 23.442S4 47.94 4 34.993c0-12.947 10.521-23.442 23.5-23.442Zm0 46.18c12.59 0 22.795-10.18 22.795-22.738S40.089 12.254 27.5 12.254c-12.59 0-22.795 10.18-22.795 22.739 0 12.558 10.206 22.739 22.795 22.739Z" fill="url(#bah)"/><path d="M48.1 9.034c9.11 9.151 9.11 23.99 0 33.141-9.11 9.152-23.878 9.152-32.988 0s-9.11-23.99 0-33.141c9.11-9.152 23.879-9.152 32.988 0ZM15.607 41.678c8.836 8.877 23.162 8.877 31.998 0 8.837-8.877 8.837-23.27 0-32.147C38.77.653 24.444.653 15.607 9.53c-8.836 8.877-8.836 23.27 0 32.147Z" fill="url(#bai)"/></g><defs><linearGradient id="bab" x1="40" y1=".5" x2="40" y2="72.5" gradientUnits="userSpaceOnUse"><stop stop-color="#9567B0"/><stop offset="1" stop-color="#DC8887"/></linearGradient><linearGradient id="bac" x1="40" y1=".5" x2="40" y2="72.5" gradientUnits="userSpaceOnUse"><stop stop-color="#9567B0"/><stop offset="1" stop-color="#DC8887"/></linearGradient><linearGradient id="bad" x1="40" y1=".5" x2="40" y2="72.5" gradientUnits="userSpaceOnUse"><stop stop-color="#9567B0"/><stop offset="1" stop-color="#DC8887"/></linearGradient><linearGradient id="bae" x1="40" y1=".5" x2="40" y2="72.5" gradientUnits="userSpaceOnUse"><stop stop-color="#9567B0"/><stop offset="1" stop-color="#DC8887"/></linearGradient><linearGradient id="baf" x1="40" y1=".5" x2="40" y2="72.5" gradientUnits="userSpaceOnUse"><stop stop-color="#9567B0"/><stop offset="1" stop-color="#DC8887"/></linearGradient><linearGradient id="bag" x1="40" y1=".5" x2="40" y2="72.5" gradientUnits="userSpaceOnUse"><stop stop-color="#9567B0"/><stop offset="1" stop-color="#DC8887"/></linearGradient><linearGradient id="bah" x1="40" y1=".5" x2="40" y2="72.5" gradientUnits="userSpaceOnUse"><stop stop-color="#9567B0"/><stop offset="1" stop-color="#DC8887"/></linearGradient><linearGradient id="bai" x1="40" y1=".5" x2="40" y2="72.5" gradientUnits="userSpaceOnUse"><stop stop-color="#9567B0"/><stop offset="1" stop-color="#DC8887"/></linearGradient><filter id="baa" x="0" y=".5" width="80" height="80" filterUnits="userSpaceOnUse" color-interpolation-filters="sRGB"><feFlood flood-opacity="0" result="BackgroundImageFix"/><feColorMatrix in="SourceAlpha" values="0 0 0 0 0 0 0 0 0 0 0 0 0 0 0 0 0 0 127 0" result="hardAlpha"/><feOffset dy="4"/><feGaussianBlur stdDeviation="2"/><feComposite in2="hardAlpha" operator="out"/><feColorMatrix values="0 0 0 0 0 0 0 0 0 0 0 0 0 0 0 0 0 0 0.25 0"/><feBlend in2="BackgroundImageFix" result="effect1_dropShadow_29_220"/><feBlend in="SourceGraphic" in2="effect1_dropShadow_29_220" result="shape"/></filter></defs></svg><svg fill="none" viewBox="0 0 30 30" id="time" xmlns="http://www.w3.org/2000/svg"><defs><clipPath id="bba"><rect rx="15" width="30" height="30" fill="#fff" fill-opacity="0"/></clipPath></defs><rect rx="15" width="30" height="30" fill="#4B4B4B"/><g clip-path="url(#bba)" stroke="#FFF" stroke-width="1.5"><path d="M7 15c0 4.41 3.58 8 8 8 4.41 0 8-3.59 8-8 0-4.42-3.59-8-8-8-4.42 0-8 3.58-8 8Z"/><path d="M15 10v6h4" stroke-linejoin="round" stroke-linecap="round"/></g></svg></svg>