<?xml version="1.0" encoding="utf-8"?><svg viewBox="0 0 115 64" xmlns="http://www.w3.org/2000/svg" xmlns:xlink="http://www.w3.org/1999/xlink"><style>:root>svg{display:none}:root>svg:target{display:block}</style><svg fill="none" viewBox="0 0 37 16" id="arrow-left" xmlns="http://www.w3.org/2000/svg"><path d="M.293 8.707a1 1 0 0 1 0-1.414L6.657.929A1 1 0 0 1 8.07 2.343L2.414 8l5.657 5.657a1 1 0 1 1-1.414 1.414L.293 8.707ZM37 9H1V7h36v2Z" fill="#76B2DE"/></svg><svg fill="none" viewBox="0 0 37 16" id="arrow-right" xmlns="http://www.w3.org/2000/svg"><path d="M36.707 8.707a1 1 0 0 0 0-1.414L30.343.929a1 1 0 1 0-1.414 1.414L34.586 8l-5.657 5.657a1 1 0 0 0 1.414 1.414l6.364-6.364ZM0 9h36V7H0v2Z" fill="#76B2DE"/></svg><svg fill="none" viewBox="0 0 48 48" id="briefcase" xmlns="http://www.w3.org/2000/svg"><defs><clipPath id="aca"><rect rx="23.5" width="47" height="47" transform="translate(.5 .5)" fill="#fff" fill-opacity="0"/></clipPath></defs><rect rx="23.5" width="47" height="47" transform="translate(.5 .5)" fill="none"/><g clip-path="url(#aca)"><path d="M14.15 35c-.61 0-1.13-.22-1.54-.64-.41-.42-.61-.95-.61-1.59V19.34c0-.63.2-1.16.61-1.58.41-.43.93-.64 1.54-.64H20v-1.9c0-.64.2-1.16.61-1.59.41-.42.93-.63 1.54-.63h3.69c.62 0 1.13.21 1.54.63.41.43.62.95.62 1.59v1.9h5.84c.62 0 1.13.21 1.54.64.41.42.61.95.62 1.58v13.43c0 .64-.21 1.16-.62 1.59-.41.42-.92.63-1.54.64H14.15Zm7.18-17.88h5.33v-1.9c0-.22-.08-.41-.25-.59-.17-.17-.36-.26-.57-.26h-3.69c-.21 0-.39.09-.57.26-.17.18-.25.37-.25.59v1.9Zm13.33 10.31h-8v2.07h-5.33v-2.07h-8v5.34c0 .22.08.41.25.59.18.17.36.26.57.26h19.69c.21 0 .39-.09.57-.26.17-.18.25-.37.25-.59v-5.34Zm-12 .69h2.67v-2.75h-2.67v2.75Zm-9.33-2.06h8V24h5.33v2.06h8v-6.72c0-.21-.08-.4-.25-.58-.17-.18-.36-.27-.57-.26H14.15c-.21 0-.39.08-.57.26-.17.17-.25.37-.25.58v6.72Z" fill="#8B57C2"/></g><rect rx="23.5" width="47" height="47" transform="translate(.5 .5)" stroke="#8B57C2"/></svg><svg fill="none" viewBox="0 0 64 64" id="budget" xmlns="http://www.w3.org/2000/svg"><defs><clipPath id="ada"><path transform="translate(14 14)" fill="#fff" fill-opacity="0" d="M0 0h36v36H0z"/></clipPath></defs><circle cx="32" cy="32" r="32" fill="#35293C"/><circle cx="32" cy="32" r="31.5" stroke="#8B57C2"/><circle cx="56" cy="11" r="3" fill="#8B57C2"/><circle cx="9" cy="53" r="6" fill="#8B57C2"/><path fill="none" d="M14 14h36v36H14z"/><g clip-path="url(#ada)"><path d="M45.54 30.06c.53-1.29.7-2.69.51-4.07a7.933 7.933 0 0 0-1.6-3.77 7.841 7.841 0 0 0-3.29-2.45 7.852 7.852 0 0 0-4.07-.48 7.826 7.826 0 0 0-3.27-2.47 7.819 7.819 0 0 0-4.06-.49 7.81 7.81 0 0 0-3.77 1.61c-1.09.86-1.93 2-2.44 3.29-1.38.19-2.68.74-3.78 1.59a7.982 7.982 0 0 0-2.46 3.28 7.856 7.856 0 0 0-.49 4.07c.2 1.37.77 2.67 1.63 3.76a7.915 7.915 0 0 0-.58 3.26c.04 1.12.32 2.21.82 3.21a7.79 7.79 0 0 0 2.06 2.6c.86.7 1.87 1.22 2.95 1.51.67.18 1.36.28 2.05.28.38 0 .77-.03 1.15-.08a7.91 7.91 0 0 0 3.27 2.47c1.28.52 2.69.69 4.06.49 1.38-.2 2.68-.75 3.77-1.61 1.09-.87 1.93-2 2.44-3.29a7.887 7.887 0 0 0 6.73-8.94 7.9 7.9 0 0 0-1.63-3.76v-.01Zm-5.83-8.41c1.42.38 2.63 1.3 3.38 2.56s.98 2.76.63 4.19a9.05 9.05 0 0 0-.4-.26l-6.26-3.61c-.17-.1-.37-.16-.56-.16-.2 0-.4.06-.57.16l-6.18 3.57v-2.6l5.69-3.29c.64-.37 1.35-.61 2.08-.71.73-.09 1.48-.04 2.19.15Zm-5.46 11.64L32 34.59l-2.25-1.3V30.7L32 29.4l2.25 1.3v2.59Zm-9-9.17c0-1.1.32-2.17.92-3.09.61-.92 1.47-1.64 2.48-2.08 1.01-.43 2.13-.56 3.21-.36 1.08.19 2.08.7 2.88 1.45-.14.07-.28.14-.42.23l-6.26 3.61c-.17.1-.32.24-.41.41-.1.17-.15.36-.15.56V32l-2.25-1.3v-6.58Zm-5.51 2.1a5.576 5.576 0 0 1 3.27-2.58c-.01.16-.01.32-.01.48v7.23c0 .19.05.39.15.56.09.17.24.31.41.41l6.19 3.57-2.25 1.31-5.7-3.3a5.62 5.62 0 0 1-2.06-7.68Zm4.54 16.12a5.626 5.626 0 0 1-3.38-2.56 5.585 5.585 0 0 1-.63-4.19c.13.09.26.18.4.26l6.26 3.62c.17.09.37.15.57.15.19 0 .39-.06.56-.15l6.19-3.58v2.6l-5.7 3.29c-.64.37-1.35.61-2.08.71-.73.09-1.47.04-2.19-.15Zm14.47-2.47c0 1.1-.33 2.18-.93 3.1-.61.91-1.47 1.64-2.48 2.07-1.01.43-2.12.56-3.21.37-1.08-.19-2.08-.7-2.88-1.45.14-.08.28-.15.42-.23l6.26-3.62c.17-.1.32-.24.41-.41.1-.17.15-.36.16-.56V32l2.25 1.29v6.58Zm5.5-2.1a5.576 5.576 0 0 1-3.27 2.58c.01-.16.02-.32.02-.48v-7.23c0-.19-.06-.39-.16-.56-.09-.17-.24-.31-.41-.41l-6.18-3.57 2.25-1.3 5.69 3.29a5.62 5.62 0 0 1 2.62 3.41c.39 1.44.19 2.98-.56 4.27Z" fill="#8B57C2"/></g></svg><svg fill="none" viewBox="0 0 48 48" id="car" xmlns="http://www.w3.org/2000/svg"><defs><clipPath id="aea"><rect rx="23.5" width="47" height="47" transform="translate(.5 .5)" fill="#fff" fill-opacity="0"/></clipPath></defs><rect rx="23.5" width="47" height="47" transform="translate(.5 .5)" fill="none"/><g clip-path="url(#aea)"><path d="M16 31.37v.66c0 .52-.22 1.02-.59 1.39a2.016 2.016 0 0 1-2.83 0c-.37-.37-.58-.87-.58-1.39v-9.85l3.3-7.59c.21-.48.55-.88.99-1.16.43-.28.94-.44 1.47-.43h12.48c.52 0 1.03.15 1.47.43.43.28.77.68.98 1.16L36 22.18v9.85c0 .52-.22 1.02-.59 1.39a2.016 2.016 0 0 1-2.83 0c-.37-.37-.58-.87-.58-1.39v-.66m-20-9.19h24m0 9.19H12" stroke="#8B57C2" stroke-width="2" stroke-linejoin="round"/></g><rect rx="23.5" width="47" height="47" transform="translate(.5 .5)" stroke="#8B57C2"/></svg><svg fill="none" viewBox="0 0 48 48" id="certified" xmlns="http://www.w3.org/2000/svg"><defs><clipPath id="afa"><path fill="#fff" fill-opacity="0" d="M0 0h48v48H0z"/></clipPath></defs><path fill="none" d="M0 0h48v48H0z"/><g clip-path="url(#afa)" stroke="#8B57C2" stroke-width="1.5"><path d="M24 38c-3.32 0-6-2.69-6-6 0-3.32 2.68-6 6-6 3.31 0 6 2.68 6 6 0 3.31-2.69 6-6 6Z"/><path d="M30 32.14 31.85 34l2.96 2.83c.64.62.97.93 1.08 1.2.12.28.14.59.05.89-.1.29-.3.53-.57.69-.24.13-.69.18-1.57.26-.49.05-.74.08-.95.15-.23.08-.43.2-.61.37-.17.16-.3.37-.39.59-.08.2-.1.44-.15.92-.09.84-.14 1.26-.28 1.5-.33.53-1.03.74-1.65.5-.28-.11-.6-.43-1.25-1.04L24 38.51l-4.53 4.35c-.65.61-.97.93-1.25 1.04-.62.24-1.32.03-1.64-.5-.15-.24-.19-.66-.29-1.5-.04-.48-.07-.72-.15-.92-.09-.22-.22-.43-.39-.59-.18-.17-.38-.29-.61-.37-.21-.07-.46-.1-.95-.15-.88-.08-1.32-.13-1.57-.26-.27-.16-.47-.4-.57-.69-.09-.3-.07-.61.05-.89.11-.27.44-.58 1.09-1.2L16.14 34l2.08-2.09"/><path d="M34.64 35.99c3.94-.04 6.14-.29 7.6-1.75C44 32.48 44 29.65 44 24v-8c0-5.66 0-8.49-1.76-10.25C40.48 4 37.65 4 32 4H16C10.34 4 7.51 4 5.75 5.75 4 7.51 4 10.34 4 16v8c0 5.65 0 8.48 1.75 10.24 1.54 1.54 3.89 1.73 8.25 1.75M18 12h12m-16 7h20"/></g></svg><svg fill="none" viewBox="0 0 48 48" id="clients" xmlns="http://www.w3.org/2000/svg"><defs><clipPath id="aga"><rect rx="23.5" width="47" height="47" transform="translate(.5 .5)" fill="#fff" fill-opacity="0"/></clipPath></defs><rect rx="23.5" width="47" height="47" transform="translate(.5 .5)" fill="none"/><g clip-path="url(#aga)"><path d="M28.8 35.18v.8h.8v-.8h-.8Zm-16 0H12v.8h.8v-.8Zm22.4.02v.8h.8v-.8h-.8ZM24.8 17.59c-.01.53-.11 1.05-.31 1.53a3.995 3.995 0 0 1-2.16 2.16c-.49.21-1.01.31-1.53.31v1.6c3.09 0 5.6-2.51 5.6-5.6h-1.6Zm-4 4c-.53 0-1.05-.1-1.54-.31a3.995 3.995 0 0 1-2.16-2.16c-.2-.48-.3-1-.31-1.53H15.2a5.554 5.554 0 0 0 1.64 3.96c.52.52 1.13.93 1.81 1.21.68.28 1.41.43 2.15.43v-1.6Zm-4.01-4c.01-.52.11-1.04.31-1.53.2-.48.5-.92.87-1.29.37-.38.81-.67 1.29-.87.49-.2 1.01-.31 1.54-.3V12c-.74-.01-1.47.14-2.15.42-.68.28-1.29.69-1.81 1.21s-.94 1.14-1.22 1.82c-.28.68-.42 1.41-.42 2.14h1.59Zm4.01-3.99a4.015 4.015 0 0 1 4 3.99h1.6c-.01-.73-.15-1.46-.43-2.14-.28-.68-.7-1.3-1.22-1.82s-1.13-.93-1.81-1.21c-.68-.28-1.41-.43-2.14-.42v1.6Zm8 20.78h-16v1.6h16v-1.6Zm-15.2.8v-3.19H12v3.19h1.6Zm4-7.19H24v-1.6h-6.4v1.6Zm10.4 4v3.19h1.6v-3.19H28Zm-4-4c1.06 0 2.07.42 2.82 1.17S28 30.92 28 31.99h1.6c0-1.49-.59-2.91-1.65-3.96A5.587 5.587 0 0 0 24 26.39v1.6Zm-10.4 4c0-1.06.42-2.08 1.17-2.83s1.76-1.17 2.83-1.17v-1.6c-1.49 0-2.91.59-3.96 1.64A5.592 5.592 0 0 0 12 31.99h1.6Zm20.8.81v2.4H36v-2.4h-1.6Zm.8 1.59h-4V36h4v-1.61Zm-4-4.79c.84 0 1.66.33 2.26.93.6.6.94 1.42.94 2.27H36c0-1.28-.51-2.5-1.41-3.4-.9-.9-2.12-1.4-3.39-1.4v1.6Zm-.8-4.8a2.408 2.408 0 0 1-2.4-2.41h-1.6c0 1.07.42 2.08 1.17 2.83s1.76 1.17 2.83 1.17V24.8Zm2.4-2.41c0 .64-.26 1.25-.71 1.7-.45.45-1.06.71-1.69.71v1.59c1.06 0 2.07-.42 2.82-1.17s1.18-1.76 1.18-2.83h-1.6ZM30.4 20c.63 0 1.24.25 1.69.7.45.45.71 1.06.71 1.69h1.6c0-1.06-.43-2.07-1.18-2.82a3.99 3.99 0 0 0-2.82-1.18V20Zm0-1.61c-1.07 0-2.08.43-2.83 1.18a3.98 3.98 0 0 0-1.17 2.82H28A2.392 2.392 0 0 1 30.4 20v-1.61Z" fill="#8B57C2"/></g><rect rx="23.5" width="47" height="47" transform="translate(.5 .5)" stroke="#8B57C2"/></svg><svg fill="none" viewBox="0 0 42.004 37.004" id="course" xmlns="http://www.w3.org/2000/svg"><path d="M17 4h24M17 18h24M17 32h24M5 22c-2.21 0-4-1.79-4-4s1.79-4 4-4 4 1.79 4 4-1.79 4-4 4ZM5 36c-2.21 0-4-1.79-4-4s1.79-4 4-4 4 1.79 4 4-1.79 4-4 4Z" stroke="#8B57C2" stroke-width="2" stroke-linejoin="round"/><path d="m1 4 3 3 6-6" stroke="#8B57C2" stroke-width="2" stroke-linejoin="round" stroke-linecap="round"/></svg><svg fill="none" viewBox="0 0 8 9" id="cube" xmlns="http://www.w3.org/2000/svg"><rect y=".5" width="8" height="8" rx="1" fill="#8B57C2"/></svg><svg fill="none" viewBox="0 0 30 30" id="data" xmlns="http://www.w3.org/2000/svg"><defs><clipPath id="aka"><rect rx="15" width="30" height="30" fill="#fff" fill-opacity="0"/></clipPath></defs><rect rx="15" width="30" height="30" fill="#4B4B4B"/><g clip-path="url(#aka)"><path d="M10.5 7c.13 0 .25.05.35.14.09.1.15.22.15.36V8h8v-.5c0-.14.05-.26.14-.36a.524.524 0 0 1 .71 0c.09.1.15.22.15.36V8h1c.53 0 1.03.21 1.41.58.37.38.59.88.59 1.42v11c0 .53-.22 1.03-.59 1.41-.38.37-.88.59-1.41.59H9c-.54 0-1.04-.22-1.42-.59C7.21 22.03 7 21.53 7 21V10c0-.54.21-1.04.58-1.42C7.96 8.21 8.46 8 9 8h1v-.5c0-.14.05-.26.14-.36.1-.09.22-.14.36-.14ZM8 11v10c0 .26.1.51.29.7A1 1 0 0 0 9 22h12c.26 0 .51-.11.7-.3.19-.19.3-.44.3-.7V11H8Z" fill="#FFF"/></g></svg><svg fill="none" viewBox="0 0 30 30" id="data-web" xmlns="http://www.w3.org/2000/svg"><path d="M10.5 7a.5.5 0 0 1 .5.5V8h8v-.5a.5.5 0 0 1 1 0V8h1a2 2 0 0 1 2 2v11a2 2 0 0 1-2 2H9a2 2 0 0 1-2-2V10a2 2 0 0 1 2-2h1v-.5a.5.5 0 0 1 .5-.5ZM8 11v10a1 1 0 0 0 1 1h12a1 1 0 0 0 1-1V11H8Z" fill="#8B57C2"/></svg><svg fill="none" viewBox="0 0 48 48" id="designers" xmlns="http://www.w3.org/2000/svg"><defs><clipPath id="ala"><rect rx="23.5" width="47" height="47" transform="translate(.5 .5)" fill="#fff" fill-opacity="0"/></clipPath></defs><rect rx="23.5" width="47" height="47" transform="translate(.5 .5)" fill="none"/><g clip-path="url(#ala)"><path d="M13.05 30.17c-.13.02-.27.01-.39-.03a.858.858 0 0 1-.34-.18c-.1-.09-.18-.19-.24-.31a.995.995 0 0 1-.08-.38V13.91c-.01-.13.02-.26.08-.38.05-.12.13-.23.23-.32.1-.08.22-.15.35-.18.12-.04.26-.04.39-.02a79.45 79.45 0 0 0 21.89 0 .86.86 0 0 1 .39.02c.13.03.24.09.34.18.1.08.18.18.24.3.05.12.08.25.09.38v15.36c0 .14-.03.27-.09.39-.05.12-.13.23-.23.31a.908.908 0 0 1-.74.22 77.922 77.922 0 0 0-21.89 0ZM24 29.4V34m-4.62 0h9.23" stroke="#8B57C2" stroke-width="2" stroke-linejoin="round"/></g><rect rx="23.5" width="47" height="47" transform="translate(.5 .5)" stroke="#8B57C2"/></svg><svg fill="none" viewBox="0 0 48 48" id="education" xmlns="http://www.w3.org/2000/svg"><defs><clipPath id="ama"><rect rx="23.5" width="47" height="47" transform="translate(.5 .5)" fill="#fff" fill-opacity="0"/></clipPath></defs><rect rx="23.5" width="47" height="47" transform="translate(.5 .5)" fill="none"/><g clip-path="url(#ama)" fill="#8B57C2"><path d="M30.22 29.58 24 33l-6.23-3.42v-3.62L16 25v5.59L24 35l8-4.41V25l-1.78.96v3.62Z"/><path d="m24 13-12 6.49v1.55L24 28l10.28-5.97v4.94H36v-7.48L24 13Zm8.57 7.98-1.72.99L24 25.95l-6.86-3.98-1.72-.99-1.18-.69L24 15.01l9.75 5.28-1.18.69Z"/></g><rect rx="23.5" width="47" height="47" transform="translate(.5 .5)" stroke="#8B57C2"/></svg><svg fill="none" viewBox="0 0 11 20" id="facebook" xmlns="http://www.w3.org/2000/svg"><path d="M7 11.5h2.5l1-4H7v-2c0-1.03 0-2 2-2h1.5V.14C10.174.097 8.943 0 7.643 0 4.928 0 3 1.657 3 4.7v2.8H0v4h3V20h4v-8.5Z" fill="#fff"/></svg><svg fill="none" viewBox="0 0 48 48" id="finance" xmlns="http://www.w3.org/2000/svg"><rect x=".5" y=".5" width="47" height="47" rx="23.5" stroke="#8B57C2"/><path d="M23.8 29.205h.693v-1.04a2.721 2.721 0 0 0 1.543-.737c.422-.405.633-.928.634-1.567 0-.554-.217-1.018-.65-1.392a5.798 5.798 0 0 0-1.495-.925v-2.697c.25.049.466.155.649.32.183.164.315.349.396.553l.92-.397a2.285 2.285 0 0 0-.782-.98 2.923 2.923 0 0 0-1.183-.507v-1.04H23.8v1.032c-.607.062-1.121.277-1.543.644-.422.367-.634.854-.635 1.461 0 .567.223 1.047.667 1.44.445.394.948.71 1.51.95v2.813c-.413-.077-.75-.245-1.013-.503a2.1 2.1 0 0 1-.551-.92l-.913.398c.173.561.477 1.024.91 1.386.433.361.956.586 1.568.675v1.033Zm.725-2.077v-2.533c.303.142.573.313.808.513.234.2.352.468.352.803 0 .382-.108.662-.323.841-.214.179-.494.304-.837.376Zm-.725-3.89a4.893 4.893 0 0 1-.813-.515.953.953 0 0 1-.38-.79c0-.355.123-.615.369-.78.245-.164.52-.269.824-.314v2.4ZM18.8 32c-2.173 0-4.016-.776-5.53-2.327-1.514-1.55-2.27-3.44-2.27-5.668 0-2.227.758-4.118 2.27-5.673C14.782 16.777 16.625 16 18.8 16h10.4c2.173 0 4.016.776 5.53 2.327 1.514 1.55 2.27 3.44 2.27 5.668 0 2.227-.758 4.118-2.27 5.673C33.218 31.223 31.375 32 29.2 32H18.8Zm0-1.333h10.4c1.798 0 3.332-.65 4.6-1.951 1.267-1.3 1.9-2.872 1.9-4.716 0-1.844-.635-3.416-1.902-4.716-1.267-1.3-2.8-1.95-4.598-1.95H18.8c-1.798 0-3.331.65-4.598 1.95-1.267 1.3-1.901 2.872-1.902 4.716 0 1.844.633 3.416 1.902 4.717 1.269 1.302 2.801 1.951 4.598 1.95Z" fill="#8B57C2"/></svg><svg fill="none" viewBox="0 0 20 20" id="instagram" xmlns="http://www.w3.org/2000/svg"><path d="M15.34 3.46a1.2 1.2 0 1 0 0 2.4 1.2 1.2 0 0 0 0-2.4Zm4.6 2.42a7.588 7.588 0 0 0-.46-2.43 4.94 4.94 0 0 0-1.16-1.77A4.7 4.7 0 0 0 16.55.53a7.3 7.3 0 0 0-2.43-.47C13.06 0 12.72 0 10 0S6.94 0 5.88.06a7.3 7.3 0 0 0-2.43.47 4.78 4.78 0 0 0-1.77 1.15A4.7 4.7 0 0 0 .53 3.45a7.3 7.3 0 0 0-.47 2.43C0 6.94 0 7.28 0 10s0 3.06.06 4.12a7.3 7.3 0 0 0 .47 2.43 4.7 4.7 0 0 0 1.15 1.77 4.78 4.78 0 0 0 1.77 1.15 7.3 7.3 0 0 0 2.43.47C6.94 20 7.28 20 10 20s3.06 0 4.12-.06a7.3 7.3 0 0 0 2.43-.47 4.7 4.7 0 0 0 1.77-1.15 4.85 4.85 0 0 0 1.16-1.77c.285-.78.44-1.6.46-2.43 0-1.06.06-1.4.06-4.12s0-3.06-.06-4.12ZM18.14 14a5.61 5.61 0 0 1-.34 1.86 3.06 3.06 0 0 1-.75 1.15c-.324.33-.717.586-1.15.75a5.61 5.61 0 0 1-1.86.34c-1 .05-1.37.06-4 .06s-3 0-4-.06a5.73 5.73 0 0 1-1.94-.3 3.27 3.27 0 0 1-1.1-.75 3 3 0 0 1-.74-1.15 5.54 5.54 0 0 1-.4-1.9c0-1-.06-1.37-.06-4s0-3 .06-4a5.54 5.54 0 0 1 .35-1.9A3 3 0 0 1 3 3a3.14 3.14 0 0 1 1.1-.8A5.73 5.73 0 0 1 6 1.86c1 0 1.37-.06 4-.06s3 0 4 .06a5.61 5.61 0 0 1 1.86.34 3.06 3.06 0 0 1 1.19.8c.328.307.584.683.75 1.1.222.609.337 1.252.34 1.9.05 1 .06 1.37.06 4s-.01 3-.06 4ZM10 4.87A5.13 5.13 0 1 0 15.14 10 5.12 5.12 0 0 0 10 4.87Zm0 8.46a3.33 3.33 0 1 1 0-6.66 3.33 3.33 0 0 1 0 6.66Z" fill="#fff"/></svg><svg fill="none" viewBox="0 0 48 48" id="it" xmlns="http://www.w3.org/2000/svg"><defs><clipPath id="aqa"><rect rx="23.5" width="47" height="47" transform="translate(.5 .5)" fill="#fff" fill-opacity="0"/></clipPath></defs><rect rx="23.5" width="47" height="47" transform="translate(.5 .5)" fill="none"/><g clip-path="url(#aqa)"><path d="M26.68 14.03c.23.06.43.21.56.43.12.21.15.46.09.69l-4.89 18.16c-.06.24-.21.44-.43.56a.9.9 0 0 1-.7.09.913.913 0 0 1-.56-.42.957.957 0 0 1-.09-.7l4.89-18.16a.868.868 0 0 1 .43-.56c.1-.06.22-.1.34-.12.12-.01.24 0 .36.03Zm2.78 3.74a.91.91 0 0 1 1.3-.07l2.14 1.91c.9.81 1.65 1.49 2.17 2.1.54.64.93 1.33.93 2.18 0 .85-.39 1.54-.93 2.18-.52.61-1.27 1.29-2.17 2.1l-2.14 1.91a.91.91 0 0 1-.67.24.9.9 0 0 1-.63-.3.91.91 0 0 1-.24-.67c.01-.24.12-.47.31-.63l2.08-1.87c.97-.87 1.62-1.46 2.05-1.96.4-.48.49-.76.49-1s-.09-.52-.49-1c-.43-.5-1.08-1.09-2.05-1.96l-2.08-1.87a.973.973 0 0 1-.22-.28c-.05-.11-.08-.23-.09-.35-.01-.12.01-.24.05-.36.04-.11.11-.22.19-.31v.01Zm-11 1.29c.19-.16.3-.39.31-.63a.926.926 0 0 0-.87-.97.91.91 0 0 0-.67.24l-2.14 1.91c-.9.81-1.65 1.49-2.17 2.1-.54.64-.92 1.33-.92 2.18 0 .85.38 1.54.92 2.18.52.61 1.27 1.29 2.17 2.1l2.14 1.91c.18.17.42.25.67.24a.9.9 0 0 0 .63-.3.91.91 0 0 0 .24-.67.872.872 0 0 0-.31-.63l-2.08-1.87c-.97-.87-1.62-1.46-2.05-1.96-.4-.48-.49-.76-.49-1s.09-.52.49-1c.43-.5 1.08-1.09 2.05-1.96l2.08-1.87Z" fill="#8B57C2"/></g><rect rx="23.5" width="47" height="47" transform="translate(.5 .5)" stroke="#8B57C2"/></svg><svg fill="none" viewBox="0 0 20 18" id="linkedin" xmlns="http://www.w3.org/2000/svg"><path d="M4.94 2a2 2 0 1 1-4-.002 2 2 0 0 1 4 .002ZM5 5.48H1V18h4V5.48Zm6.32 0H7.34V18h3.94v-6.57c0-3.66 4.77-4 4.77 0V18H20v-7.93c0-6.17-7.06-5.94-8.72-2.91l.04-1.68Z" fill="#fff"/></svg><svg fill="none" viewBox="0 0 48 48" id="medicine" xmlns="http://www.w3.org/2000/svg"><defs><clipPath id="asa"><rect rx="23.5" width="47" height="47" transform="translate(.5 .5)" fill="#fff" fill-opacity="0"/></clipPath></defs><rect rx="23.5" width="47" height="47" transform="translate(.5 .5)" fill="none"/><g clip-path="url(#asa)" stroke="#8B57C2" stroke-width="2" stroke-linejoin="round"><path d="M18.93 14.43c.29-.28.67-.43 1.07-.43h8c.19 0 .39.03.57.11.18.07.35.19.49.32.14.14.25.31.32.49a1.435 1.435 0 0 1 0 1.15 1.434 1.434 0 0 1-.81.81c-.18.08-.38.12-.57.12h-8c-.4 0-.78-.16-1.07-.44a1.53 1.53 0 0 1 0-2.13Zm.14 5.71c.2-.09.42-.14.64-.14h8.57c.22 0 .44.05.64.14.21.1.38.24.53.42l2.21 2.76c.22.26.34.59.34.94v8.24c0 .39-.16.78-.44 1.06-.29.28-.67.44-1.06.44h-13c-.4 0-.78-.16-1.07-.44-.28-.28-.43-.67-.43-1.06v-8.24c-.01-.35.11-.68.33-.94l2.22-2.76c.14-.18.31-.32.52-.42ZM21 27h6m-3-3v6"/></g><rect rx="23.5" width="47" height="47" transform="translate(.5 .5)" stroke="#8B57C2"/></svg><svg fill="none" viewBox="0 0 30 30" id="online" xmlns="http://www.w3.org/2000/svg"><defs><clipPath id="aua"><rect rx="15" width="30" height="30" fill="#fff" fill-opacity="0"/></clipPath></defs><rect rx="15" width="30" height="30" fill="#4B4B4B"/><g clip-path="url(#aua)"><path d="M23 15c0-4.42-3.59-8-8-8-4.42 0-8 3.58-8 8 0 4.41 3.58 8 8 8 4.41 0 8-3.59 8-8Zm-8 8c2.18 0 2.9-3.64 2.9-8 0-4.37-.72-8-2.9-8m0 0c-2.19 0-2.91 3.63-2.91 8 0 4.36.72 8 2.91 8m-7.28-5.1h14.55M7.72 12.09h14.55" stroke="#FFF"/></g></svg><svg fill="none" viewBox="0 0 30 30" id="online-web" xmlns="http://www.w3.org/2000/svg"><path d="M15 23a8 8 0 0 0 0-16m0 16a8 8 0 0 1 0-16m0 16c2.182 0 2.91-3.636 2.91-8S17.181 7 15 7m0 16c-2.182 0-2.91-3.636-2.91-8s.728-8 2.91-8M7.727 17.91h14.546M7.727 12.09h14.546" stroke="#8B57C2"/></svg><svg fill="none" viewBox="0 0 17.495 17.489" id="plus" xmlns="http://www.w3.org/2000/svg"><path d="M17.49 8.74c0 .26-.08.51-.22.72-.15.21-.36.37-.6.45l-4.96 1.8-1.8 4.96c-.09.24-.25.44-.46.59-.21.15-.46.22-.71.22-.26 0-.5-.07-.71-.22-.21-.15-.37-.35-.46-.59l-1.8-4.96-4.96-1.8c-.24-.09-.45-.25-.59-.46C.07 9.24 0 8.99 0 8.74c0-.26.07-.5.22-.71.14-.21.35-.37.59-.46l4.96-1.8L7.57.81c.09-.24.25-.45.46-.59.21-.15.45-.22.71-.22.25 0 .5.07.71.22.21.14.37.35.46.59l1.8 4.96 4.96 1.8c.24.08.45.24.6.45.14.21.22.46.22.72Z" fill="#8B57C2"/></svg><svg fill="none" viewBox="0 0 24 24" id="plus_web" xmlns="http://www.w3.org/2000/svg"><defs><clipPath id="awa"><path fill="#fff" fill-opacity="0" d="M0 0h24v24H0z"/></clipPath></defs><path fill="none" d="M0 0h24v24H0z"/><g clip-path="url(#awa)"><path d="M20.26 9.53h-5.8v-5.8c0-.12-.05-.23-.13-.31a.434.434 0 0 0-.3-.13H9.96c-.11 0-.22.05-.3.13-.09.08-.13.19-.13.31v5.8h-5.8c-.23 0-.43.2-.43.43v4.07c0 .05.01.11.03.16.02.06.05.1.09.14.04.04.09.08.14.1.06.02.11.03.17.03h5.8v5.8c0 .11.04.23.13.31.08.08.19.13.3.13h4.07c.05 0 .11-.02.16-.04s.1-.05.14-.09a.45.45 0 0 0 .1-.14c.02-.06.03-.11.03-.17v-5.8h5.8c.06 0 .11-.01.17-.03a.45.45 0 0 0 .23-.24c.02-.05.03-.11.03-.16l.01-4.07c0-.11-.05-.22-.13-.3a.401.401 0 0 0-.31-.13Z" fill="#8B57C2"/></g></svg><svg fill="none" viewBox="0 0 30 30" id="potik" xmlns="http://www.w3.org/2000/svg"><defs><clipPath id="aya"><rect rx="15" width="30" height="30" fill="#fff" fill-opacity="0"/></clipPath></defs><rect rx="15" width="30" height="30" fill="#4B4B4B"/><g clip-path="url(#aya)"><path d="M23.76 6.09c.07.05.13.12.17.2.04.08.06.18.07.27V15c0 .11-.04.22-.1.31-.06.09-.14.17-.24.21h-.01l-.03.01c-.14.06-.28.12-.43.17-.28.11-.67.25-1.12.39-.88.29-2.03.59-2.92.59-.91 0-1.67-.31-2.33-.59l-.03-.01c-.68-.29-1.26-.52-1.95-.52-.75 0-1.76.26-2.62.53-.39.13-.77.27-1.15.41v6.93c0 .15-.05.29-.16.4a.5.5 0 0 1-.38.17c-.14 0-.28-.06-.38-.17a.585.585 0 0 1-.15-.4V6.56c0-.15.05-.29.15-.4.1-.11.24-.16.38-.16.15 0 .28.05.38.16.11.11.16.25.16.4v.31c.25-.08.54-.19.85-.29.88-.28 2.03-.58 2.92-.58.91 0 1.64.31 2.29.58l.04.02c.67.28 1.26.52 1.98.52.75 0 1.76-.26 2.62-.54.49-.16.98-.34 1.46-.53l.02-.01.51.05Zm-.84 1.28c-.24.09-.52.19-.83.29-.87.28-2.01.58-2.94.58-.96 0-1.72-.32-2.37-.6h-.01c-.68-.28-1.24-.52-1.93-.52-.72 0-1.73.26-2.6.54-.39.12-.78.26-1.17.41v7.24c.24-.09.52-.19.83-.29.87-.28 2.01-.59 2.94-.59.91 0 1.67.32 2.33.59l.03.01c.68.29 1.26.53 1.95.53.72 0 1.73-.26 2.6-.54.39-.13.78-.26 1.17-.41V7.37Z" fill="#FFF"/></g></svg><svg fill="none" viewBox="0 0 30 30" id="potik-web" xmlns="http://www.w3.org/2000/svg"><path d="M23.76 6.096c.074.051.135.12.176.202a.582.582 0 0 1 .064.264V15a.58.58 0 0 1-.093.315.543.543 0 0 1-.245.207l-.003.001-.007.004-.025.01a23.43 23.43 0 0 1-1.555.563c-.878.283-2.023.587-2.918.587-.912 0-1.667-.315-2.324-.59l-.03-.011c-.683-.287-1.265-.523-1.954-.523-.754 0-1.764.258-2.624.536-.386.126-.767.263-1.145.41v6.928c0 .15-.057.293-.158.398a.527.527 0 0 1-.38.165.527.527 0 0 1-.381-.165.575.575 0 0 1-.158-.398V6.563c0-.149.057-.292.158-.397a.527.527 0 0 1 .38-.165c.143 0 .28.06.381.165a.575.575 0 0 1 .158.397v.318c.243-.09.534-.191.85-.293.88-.281 2.025-.587 2.92-.587.904 0 1.64.312 2.283.584l.047.02c.67.282 1.253.521 1.977.521.754 0 1.764-.259 2.624-.537.49-.16.975-.339 1.453-.535l.02-.008.005-.002m-.333 1.33c-.237.088-.517.188-.825.287-.872.284-2.016.589-2.944.589-.954 0-1.715-.322-2.373-.6l-.008-.004c-.675-.284-1.239-.52-1.927-.52-.72 0-1.73.258-2.6.538-.394.126-.783.264-1.17.413v7.237c.238-.088.518-.188.826-.287.872-.285 2.016-.588 2.944-.588.912 0 1.667.314 2.324.59l.03.011c.683.287 1.265.524 1.954.524.72 0 1.73-.258 2.6-.538.394-.127.783-.264 1.17-.413V7.374Z" fill="#8B57C2"/></svg><svg fill="none" viewBox="0 0 48 48" id="qr" xmlns="http://www.w3.org/2000/svg"><defs><clipPath id="aza"><path fill="#fff" fill-opacity="0" d="M0 0h48v48H0z"/></clipPath></defs><path fill="none" d="M0 0h48v48H0z"/><g clip-path="url(#aza)"><path d="M7.46 5.33c-.56 0-1.11.22-1.51.62-.4.4-.62.95-.62 1.51V16H16V5.33H7.46Zm5.87 8H8V8h5.33v5.33Z" fill="#8B57C2"/><path d="M5.95 5.95c-.4.4-.62.95-.62 1.51V16H16V5.33H7.46c-.56 0-1.11.22-1.51.62ZM8 13.33V8h5.33v5.33H8Z" stroke="#8B57C2"/><path d="M5.33 40.53c0 .56.22 1.11.62 1.51.4.4.95.62 1.51.62H16V32H5.33v8.53ZM8 34.66h5.33V40H8v-5.34Z" fill="#8B57C2"/><path d="M5.95 42.04c.4.4.95.62 1.51.62H16V32H5.33v8.53c0 .56.22 1.11.62 1.51Zm7.38-7.38V40H8v-5.34h5.33Z" stroke="#8B57C2"/><path d="M32 42.66h8.53c.56 0 1.11-.22 1.51-.62.4-.4.62-.95.62-1.51V32H32v10.66Zm2.66-8H40V40h-5.34v-5.34Z" fill="#8B57C2"/><path d="M40.53 42.66c.56 0 1.11-.22 1.51-.62.4-.4.62-.95.62-1.51V32H32v10.66h8.53Zm-.53-8V40h-5.34v-5.34H40Z" stroke="#8B57C2"/><path d="M40.53 5.33H32V16h10.66V7.46c0-.56-.22-1.11-.62-1.51-.4-.4-.95-.62-1.51-.62Zm-.53 8h-5.34V8H40v5.33Z" fill="#8B57C2"/><path d="M32 5.33V16h10.66V7.46c0-.56-.22-1.11-.62-1.51-.4-.4-.95-.62-1.51-.62H32Zm2.66 8V8H40v5.33h-5.34Z" stroke="#8B57C2"/><path d="M26.66 13.33v-2.67h-5.33V16H24v-2.67h2.66ZM16 16h2.66v2.66H16V16ZM18.66 18.66H24v2.67h-5.34v-2.67ZM26.66 8v2.66h2.67V5.33H18.66v5.33h2.67V8h5.33ZM5.33 18.66H8V24H5.33v-5.34Z" fill="#8B57C2"/><path d="M16 21.33V24h-2.67v-5.34h-2.67V24H8v2.66H5.33v2.67h5.33v-2.67h2.67v2.67H16v-2.67h2.66v-5.33H16ZM26.66 21.33h2.67V24H32v-2.67h2.66v-2.67h-5.33v-5.33h-2.67V16H24v2.66h2.66v2.67ZM24 40h-5.34v2.66h10.67V40h-2.67v-2.67H24V40ZM29.33 26.66V24h-2.67v-2.67H24V24h-2.67v2.66H24v2.67h2.66v-2.67h2.67ZM40 26.66h2.66v2.67H40v-2.67ZM29.33 26.66h8v2.67h-8v-2.67Z" fill="#8B57C2"/><path d="M40 18.66h-2.67v2.67h-2.67V24h2.67v2.66H40V24h2.66v-2.67H40v-2.67ZM26.66 29.33h2.67v8h-2.67v-8ZM18.66 37.33h2.67v-2.67H24V32h-2.67v-5.34h-2.67v10.67Z" fill="#8B57C2"/></g></svg><svg fill="none" viewBox="0 0 64 64" id="resource" xmlns="http://www.w3.org/2000/svg"><defs><clipPath id="baa"><path transform="translate(14 14)" fill="#fff" fill-opacity="0" d="M0 0h36v36H0z"/></clipPath></defs><circle cx="32" cy="32" r="32" fill="#35293C"/><circle cx="32" cy="32" r="31.5" stroke="#8B57C2"/><circle cx="56" cy="11" r="3" fill="#8B57C2"/><circle cx="9" cy="53" r="6" fill="#8B57C2"/><path fill="none" d="M14 14h36v36H14z"/><g clip-path="url(#baa)"><path d="M41 37.62c-.57 0-1.13-.22-1.58-.67l-3.37-3.38a2.18 2.18 0 0 1-.68-1.57c0-.57.22-1.13.68-1.58l3.37-3.37c.45-.45 1.01-.68 1.58-.68.56 0 1.12.23 1.57.68l3.38 3.37c.45.45.67 1.01.67 1.58 0 .56-.22 1.12-.67 1.57l-3.38 3.38c-.45.45-1.01.67-1.57.67Zm0-9L37.62 32 41 35.37 44.37 32 41 28.62Zm-9 0c-.57 0-1.13-.22-1.58-.67l-3.37-3.38c-.45-.45-.68-1.01-.68-1.57 0-.57.23-1.13.68-1.58l3.37-3.38c.45-.44 1.01-.67 1.58-.67.56 0 1.12.23 1.57.67l3.38 3.38c.45.45.67 1.01.67 1.58 0 .56-.22 1.12-.67 1.57l-3.38 3.38c-.45.45-1.01.67-1.57.67Zm0-9L28.62 23 32 26.37 35.37 23 32 19.62Zm0 27c-.57 0-1.13-.22-1.58-.67l-3.37-3.38c-.45-.45-.68-1.01-.68-1.57 0-.57.23-1.13.68-1.58l3.37-3.37c.45-.46 1.01-.68 1.58-.68.56 0 1.12.22 1.57.68l3.38 3.37c.45.45.67 1.01.67 1.58 0 .56-.22 1.12-.67 1.57l-3.38 3.38c-.45.45-1.01.67-1.57.67Zm0-9L28.62 41 32 44.37 35.37 41 32 37.62Zm-9 0c-.57 0-1.13-.22-1.58-.67l-3.38-3.38c-.44-.45-.67-1.01-.67-1.57 0-.57.23-1.13.67-1.58l3.38-3.37c.45-.45 1.01-.68 1.58-.68.56 0 1.12.23 1.57.68l3.38 3.37c.45.45.67 1.01.67 1.58 0 .56-.22 1.12-.67 1.57l-3.38 3.38c-.45.45-1.01.67-1.57.67Zm0-9L19.62 32 23 35.37 26.37 32 23 28.62Z" fill="#8B57C2"/></g></svg><svg fill="none" viewBox="0 0 64 64" id="saving" xmlns="http://www.w3.org/2000/svg"><defs><clipPath id="bba"><path transform="translate(14 14)" fill="#fff" fill-opacity="0" d="M0 0h36v36H0z"/></clipPath></defs><circle cx="32" cy="32" r="32" fill="#35293C"/><circle cx="32" cy="32" r="31.5" stroke="#8B57C2"/><circle cx="56" cy="11" r="3" fill="#8B57C2"/><circle cx="9" cy="53" r="6" fill="#8B57C2"/><path fill="none" d="M14 14h36v36H14z"/><g clip-path="url(#bba)"><path d="M30.87 14c1.55 0 3.04.19 4.46.59 1.43.4 2.78.97 4.05 1.71 1.26.74 2.4 1.61 3.41 2.63 1.01 1.02 1.88 2.17 2.63 3.43.75 1.27 1.32 2.61 1.71 4.03.39 1.42.59 2.91.62 4.48 0 1.55-.2 3.04-.6 4.46-.4 1.43-.97 2.78-1.71 4.05a16.58 16.58 0 0 1-2.63 3.41 17.738 17.738 0 0 1-3.43 2.63c-1.27.75-2.61 1.32-4.03 1.71-1.42.39-2.91.59-4.48.62-1.55 0-3.04-.2-4.46-.6-1.43-.4-2.78-.97-4.05-1.71a16.58 16.58 0 0 1-3.41-2.63 17.738 17.738 0 0 1-2.63-3.43c-.75-1.27-1.32-2.61-1.71-4.03-.39-1.42-.59-2.91-.61-4.48 0-1.55.19-3.04.59-4.46.4-1.43.97-2.78 1.71-4.05.74-1.26 1.61-2.4 2.63-3.41 1.02-1.01 2.17-1.88 3.43-2.63 1.27-.75 2.61-1.32 4.03-1.71 1.42-.39 2.91-.59 4.48-.61Zm0 31.5c1.35 0 2.64-.18 3.88-.53 1.25-.35 2.41-.85 3.49-1.48 1.07-.63 2.06-1.39 2.97-2.28.9-.89 1.66-1.88 2.28-2.96.62-1.08 1.11-2.24 1.48-3.5.36-1.25.54-2.54.53-3.88 0-1.35-.18-2.64-.53-3.88-.35-1.25-.85-2.41-1.48-3.49-.63-1.07-1.39-2.06-2.28-2.97-.89-.9-1.88-1.66-2.96-2.28-1.08-.62-2.24-1.11-3.5-1.48-1.25-.36-2.54-.54-3.88-.52-1.35 0-2.64.17-3.88.52-1.25.35-2.41.85-3.49 1.48-1.07.63-2.06 1.39-2.97 2.28-.9.89-1.66 1.88-2.28 2.96-.62 1.08-1.11 2.24-1.48 3.5-.36 1.25-.54 2.54-.52 3.88 0 1.35.17 2.64.52 3.88.35 1.25.85 2.41 1.48 3.49.63 1.07 1.39 2.06 2.28 2.97.89.9 1.88 1.66 2.96 2.28 1.08.62 2.24 1.11 3.5 1.48 1.25.36 2.54.54 3.88.53Zm3.02-16.11c.24.47.36.96.36 1.48 0 .47-.09.91-.27 1.32-.17.41-.41.77-.72 1.07-.3.31-.66.55-1.07.72-.41.18-.85.27-1.32.27-.47 0-.91-.09-1.32-.27-.41-.17-.77-.41-1.07-.72-.31-.3-.55-.66-.72-1.07a3.24 3.24 0 0 1-.26-1.32c0-.47.08-.91.26-1.32.17-.41.41-.77.72-1.07.3-.31.66-.55 1.07-.72.41-.18.85-.26 1.32-.26.52 0 1.01.11 1.48.35l-.02-.02 6.47-6.47 1.58 1.58-6.47 6.47-.02-.02ZM30.87 32c.3 0 .57-.12.79-.34.22-.22.34-.49.34-.79 0-.3-.12-.57-.34-.79-.22-.22-.49-.33-.79-.33-.3 0-.57.11-.79.33-.22.22-.33.49-.33.79 0 .3.11.57.33.79.22.22.49.34.79.34Zm11.25-6.19c.36.79.63 1.61.81 2.46.17.84.27 1.71.28 2.6 0 1.64-.3 3.22-.91 4.73-.61 1.51-1.5 2.85-2.68 4.02l-1.6-1.6c.95-.94 1.69-2.03 2.2-3.25.52-1.22.78-2.5.78-3.85 0-1.45-.31-2.85-.92-4.2l2.04-.91Zm-7.1-4.15c-1.35-.61-2.75-.91-4.2-.91-.93 0-1.82.11-2.67.35-.86.23-1.66.58-2.41 1.03-.75.46-1.43.99-2.04 1.59-.61.59-1.13 1.28-1.57 2.05-.43.78-.77 1.58-1.02 2.41-.24.83-.36 1.73-.36 2.69 0 1.35.25 2.64.77 3.87.51 1.23 1.25 2.32 2.2 3.28l-1.6 1.6c-1.18-1.17-2.07-2.5-2.69-4-.62-1.5-.93-3.09-.93-4.75 0-1.14.14-2.23.43-3.29.3-1.05.71-2.04 1.25-2.95.54-.91 1.19-1.75 1.94-2.5s1.58-1.38 2.49-1.91c.92-.53 1.9-.95 2.96-1.25 1.05-.31 2.15-.45 3.3-.44.88 0 1.74.09 2.58.26.85.18 1.67.46 2.48.83l-.91 2.04Z" fill="#8B57C2"/></g></svg><svg fill="none" viewBox="0 0 48 48" id="science" xmlns="http://www.w3.org/2000/svg"><defs><clipPath id="bca"><rect rx="23.5" width="47" height="47" transform="translate(.5 .5)" fill="#fff" fill-opacity="0"/></clipPath></defs><rect rx="23.5" width="47" height="47" transform="translate(.5 .5)" fill="none"/><g clip-path="url(#bca)" stroke="#8B57C2" stroke-width="1.5" stroke-linejoin="round"><path d="M22.33 19.5c-1.15.88-2.25 1.84-3.27 2.87-4.83 4.84-7.28 10.24-5.47 12.05 1.81 1.82 7.2-.64 12.02-5.48 1.03-1.02 1.99-2.12 2.87-3.28" stroke-linecap="round"/><path d="M28.48 25.66c2.85 3.79 4.01 7.35 2.6 8.76-1.81 1.81-7.19-.64-12.02-5.48-4.83-4.84-7.28-10.23-5.47-12.04 1.41-1.41 4.97-.25 8.75 2.6" stroke-linecap="round"/><path d="M21.73 26.26c.16.16.38.25.6.25.23 0 .45-.09.6-.25.16-.16.25-.38.25-.6a.84.84 0 0 0-.25-.6.822.822 0 0 0-.6-.25c-.22 0-.44.09-.6.25a.83.83 0 0 0-.24.6c0 .22.08.44.24.6Zm4.02-8.96c.94-.17 1.82-.61 2.51-1.28.69-.66 1.17-1.52 1.38-2.46l.03-.14c.11-.53.86-.53.98-.01l.04.17c.22.94.7 1.79 1.39 2.45.7.66 1.57 1.1 2.51 1.26.54.1.54.87 0 .96-.94.17-1.81.61-2.51 1.27-.69.66-1.17 1.51-1.39 2.44l-.04.17c-.12.53-.87.53-.98 0l-.04-.15c-.2-.94-.68-1.79-1.37-2.46-.7-.66-1.57-1.11-2.52-1.27h.01c-.54-.09-.54-.86 0-.95Z"/></g><rect rx="23.5" width="47" height="47" transform="translate(.5 .5)" stroke="#8B57C2"/></svg><svg fill="none" viewBox="0 0 48 48" id="smm" xmlns="http://www.w3.org/2000/svg"><defs><clipPath id="bda"><rect rx="23.5" width="47" height="47" transform="translate(.5 .5)" fill="#fff" fill-opacity="0"/></clipPath></defs><rect rx="23.5" width="47" height="47" transform="translate(.5 .5)" fill="none"/><g clip-path="url(#bda)"><path d="M34.74 15.03c.17.4.26.83.26 1.27 0 .43-.09.86-.26 1.26-.16.4-.41.77-.71 1.07l-14.8 14.81L13 35l1.55-6.15 14.81-14.88c.58-.59 1.37-.94 2.19-.97.83-.04 1.64.24 2.27.77l.21.19c.3.31.55.67.71 1.07ZM22.34 35h12.47m-3.12-17.14 1.56 1.55" stroke="#8B57C2" stroke-width="2" stroke-linejoin="round"/></g><rect rx="23.5" width="47" height="47" transform="translate(.5 .5)" stroke="#8B57C2"/></svg><svg fill="none" viewBox="0 0 24 22" id="telegram" xmlns="http://www.w3.org/2000/svg"><path d="M22.052 1.129.789 9.371c-.856.384-1.145 1.152-.207 1.57l5.455 1.742L19.226 4.49c.72-.515 1.457-.378.823.188L8.72 14.988l-.356 4.363c.33.673.933.676 1.318.342l3.134-2.981 5.368 4.04c1.246.742 1.925.263 2.193-1.097L23.898 2.9c.366-1.674-.257-2.411-1.846-1.77Z" fill="#fff"/></svg><svg fill="none" viewBox="0 0 21 17" id="telegram-veb" xmlns="http://www.w3.org/2000/svg"><path d="M20 1 1 8.5l7 1M20 1l-2.5 15L8 9.5M20 1 8 9.5m0 0V15l3.249-3.277" stroke="#EF85EC" stroke-width="1.5" stroke-linecap="round" stroke-linejoin="round"/></svg><svg fill="none" viewBox="0 0 16 18" id="tiktok" xmlns="http://www.w3.org/2000/svg"><path d="M12.6 2.82A4.278 4.278 0 0 1 11.54 0H8.45v12.4a2.592 2.592 0 0 1-2.59 2.5c-1.42 0-2.6-1.16-2.6-2.6 0-1.72 1.66-3.01 3.37-2.48V6.66C3.18 6.2.16 8.88.16 12.3c0 3.33 2.76 5.7 5.69 5.7 3.14 0 5.69-2.55 5.69-5.7V6.01a7.35 7.35 0 0 0 4.3 1.38V4.3s-1.88.09-3.24-1.48Z" fill="#fff"/></svg><svg fill="none" viewBox="0 0 30 30" id="time" xmlns="http://www.w3.org/2000/svg"><defs><clipPath id="bia"><rect rx="15" width="30" height="30" fill="#fff" fill-opacity="0"/></clipPath></defs><rect rx="15" width="30" height="30" fill="#4B4B4B"/><g clip-path="url(#bia)" stroke="#FFF" stroke-width="1.5"><path d="M7 15c0 4.41 3.58 8 8 8 4.41 0 8-3.59 8-8 0-4.42-3.59-8-8-8-4.42 0-8 3.58-8 8Z"/><path d="M15 10v6h4" stroke-linejoin="round" stroke-linecap="round"/></g></svg><svg fill="none" viewBox="0 0 30 30" id="time-web" xmlns="http://www.w3.org/2000/svg"><path d="M15 7c-4.417 0-8 3.583-8 8s3.583 8 8 8 8-3.583 8-8-3.583-8-8-8Z" stroke="#8B57C2" stroke-width="1.5" stroke-miterlimit="10"/><path d="M15 10v6h4" stroke="#8B57C2" stroke-width="1.5" stroke-linecap="round" stroke-linejoin="round"/></svg><svg fill="none" viewBox="0 0 115 10" id="universal" xmlns="http://www.w3.org/2000/svg"><path fill-rule="evenodd" clip-rule="evenodd" d="M7.736 7.083v-3.49c0-.99-.548-1.46-1.468-1.46-.765 0-1.427.44-1.716.88-.186-.55-.651-.88-1.385-.88-.765 0-1.427.46-1.634.75v-.63H.221v4.83h1.312v-3.25c.197-.27.58-.57 1.034-.57.538 0 .744.32.744.77v3.05h1.323v-3.26c.187-.26.569-.56 1.034-.56.538 0 .744.32.744.77v3.05h1.324Zm3.607.12c-1.643 0-2.636-1.16-2.636-2.54 0-1.37.993-2.53 2.636-2.53 1.654 0 2.646 1.16 2.646 2.53 0 1.38-.992 2.54-2.646 2.54Zm0-1.13c.817 0 1.282-.65 1.282-1.41 0-.75-.465-1.4-1.282-1.4-.816 0-1.271.65-1.271 1.4 0 .76.455 1.41 1.271 1.41Zm8.3 1.01v-3.41c0-.94-.526-1.54-1.622-1.54-.817 0-1.427.38-1.747.75v-.63h-1.313v4.83h1.313v-3.25c.217-.29.62-.57 1.137-.57.558 0 .92.23.92.9v2.92h1.313Zm3.619.12c-1.644 0-2.636-1.16-2.636-2.54 0-1.37.992-2.53 2.636-2.53 1.654 0 2.646 1.16 2.646 2.53 0 1.38-.992 2.54-2.646 2.54Zm0-1.13c.816 0 1.282-.65 1.282-1.41 0-.75-.466-1.4-1.282-1.4-.817 0-1.272.65-1.272 1.4 0 .76.455 1.41 1.272 1.41Zm4.93-.54c.218.31.704.54 1.127.54.765 0 1.272-.56 1.272-1.4 0-.84-.507-1.41-1.272-1.41-.423 0-.91.24-1.126.56v1.71Zm0 1.55H26.88V.413h1.313v2.46c.392-.49.95-.74 1.54-.74 1.271 0 2.212.96 2.212 2.54 0 1.61-.951 2.53-2.212 2.53-.6 0-1.148-.26-1.54-.74v.62Zm9.056 0h-1.313v-.5c-.341.39-.93.62-1.581.62-.796 0-1.737-.52-1.737-1.6 0-1.13.94-1.56 1.737-1.56.661 0 1.25.21 1.581.59v-.65c0-.49-.434-.81-1.096-.81-.537 0-1.033.19-1.457.57l-.496-.85c.61-.52 1.395-.76 2.18-.76 1.138 0 2.182.44 2.182 1.83v3.12Zm-2.367-.74c.424 0 .837-.14 1.054-.42v-.6c-.217-.28-.63-.42-1.054-.42-.517 0-.94.26-.94.73 0 .45.423.71.94.71Zm8.352.74v-3.41c0-.94-.527-1.54-1.623-1.54-.816 0-1.426.38-1.747.75v-.63H38.55v4.83h1.313v-3.25c.217-.29.62-.57 1.137-.57.559 0 .92.23.92.9v2.92h1.313Zm6.182 0-2.037-2.64 1.975-2.19H47.74l-1.892 2.15V.413h-1.312v6.67h1.312v-1.24l.6-.62 1.323 1.86h1.644Z" fill="#fff"/><path fill-rule="evenodd" clip-rule="evenodd" d="M111.023 1.326h1.076v3.309h.06l1.399-1.59.992-.002-1.534 1.737 1.848 2.173h-1.239l-1.511-2.022h-.015v2.022h-1.076V1.326Zm-51.126.251v3.086c0 1.051.322 1.626 1.223 1.626.863 0 1.208-.697 1.208-1.565V1.577h1.016v3.34c0 1.357-.919 2.126-2.256 2.126-1.53 0-2.326-.716-2.326-2.18V1.576h1.135Zm5.823 1.988c.364-.368.87-.544 1.379-.544.942 0 1.441.49 1.441 1.457V6.95h-1.07V4.594c0-.538-.249-.891-.806-.891-.523 0-.935.33-.935.96V6.95h-1.07V3.112h1.061v.453ZM69.8 6.95h1.07V3.112H69.8V6.95Zm-.106-4.989c0-.291.258-.591.621-.591.371 0 .66.292.66.591 0 .33-.249.645-.644.645a.64.64 0 0 1-.636-.645ZM73.24 6.95l-1.715-3.854h1.135c.347.883.707 1.713 1.045 2.78h.017a41.062 41.062 0 0 1 1.076-2.78h1.005L73.988 6.95h-.748Zm5.75-2.379c.042-.585-.176-.983-.706-.983-.615 0-.89.468-.88.983h1.586Zm-1.603.553c-.024.722.508 1.258 1.176 1.258.397 0 .814-.13 1.081-.308l.306.538c-.548.307-1.12.43-1.58.43-1.216 0-2.126-.821-2.126-2.088 0-1.182.901-1.933 2.054-1.933 1.257 0 1.78.958 1.701 2.103h-2.612Zm4.715-1.337h.015l.218-.299c.12-.17.362-.467.692-.467.242 0 .5.123.726.344l-.404.707c-.177-.086-.29-.13-.506-.13-.371 0-.733.283-.733 1.112V6.95h-1.075V3.112h1.067v.675Zm4.51.046c-.24-.169-.49-.245-.685-.245-.241 0-.483.13-.483.391 0 .308.387.485.838.798.574.409.741.807.741 1.159 0 .539-.62 1.107-1.506 1.107-.556 0-.967-.185-1.344-.438l.338-.53c.24.185.586.368.875.368.309 0 .582-.154.582-.476 0-.36-.42-.56-.806-.821-.46-.3-.772-.591-.772-1.066 0-.608.61-1.06 1.4-1.06.444 0 .878.107 1.17.354l-.347.46Zm3.053 1.075c-.523.161-.789.445-.789.882 0 .339.226.569.486.569.425 0 .981-.507.901-1.635l-.598.184Zm.34 1.674c-.29.23-.661.46-1.03.46-.63 0-1.155-.46-1.155-1.166 0-.73.557-1.137 1.492-1.398l.951-.269c-.056-.352-.387-.575-.732-.575-.46 0-.783.162-1.065.392l-.348-.484c.501-.39.992-.521 1.547-.521.743 0 1.654.228 1.654 1.427v1.565c0 .308.039.67.169.937h-1.136c-.083-.131-.105-.353-.105-.56l-.242.192Zm2.514.368h1.072V1.309H92.52v5.64Zm10.562-2.042c-.524.161-.79.445-.79.882 0 .339.224.569.484.569.425 0 .982-.507.903-1.635l-.597.184Zm.336 1.674c-.288.23-.66.46-1.03.46-.628 0-1.153-.46-1.153-1.166 0-.73.557-1.137 1.492-1.398l.952-.269c-.059-.352-.387-.575-.736-.575-.458 0-.781.162-1.063.392l-.346-.484c.499-.39.991-.521 1.548-.521.74 0 1.65.228 1.65 1.427v1.565c0 .308.04.67.168.937h-1.134c-.08-.131-.106-.353-.106-.56l-.242.192Zm3.578-3.017c.363-.368.872-.544 1.379-.544.942 0 1.441.49 1.441 1.457V6.95h-1.071V4.594c0-.538-.25-.891-.806-.891-.524 0-.935.33-.935.96V6.95h-1.071V3.112h1.063v.453ZM97.5 6.304h.58c.629 0 1.106-.315 1.106-.912 0-.63-.492-.899-1.113-.899H97.5v1.81Zm0-2.47h.356c.654 0 1.097-.4 1.097-.9 0-.475-.372-.681-.863-.681h-.59v1.58Zm-1.135 3.13V1.592h2.04c.949 0 1.619.414 1.619 1.143 0 .86-.733 1.214-1.128 1.313v.015c.701.031 1.482.491 1.482 1.312 0 .929-.815 1.59-2.142 1.59h-1.87Z" fill="#939393"/><path fill-rule="evenodd" clip-rule="evenodd" d="M53.839 0h.43v10h-.43V0Z" fill="#fff"/></svg><svg fill="none" viewBox="0 0 20 16" id="writing" xmlns="http://www.w3.org/2000/svg"><path d="M20 2c0-1.1-.9-2-2-2H2C.9 0 0 .9 0 2v12c0 1.1.9 2 2 2h16c1.1 0 2-.9 2-2V2Zm-2 0-8 5-8-5h16Zm0 12H2V4l8 5 8-5v10Z" fill="#EF85EC"/></svg><svg fill="none" viewBox="0 0 24 17" id="youtube" xmlns="http://www.w3.org/2000/svg"><path d="M12.076-.002h.134c1.233.005 7.48.05 9.165.503a3.015 3.015 0 0 1 2.122 2.13c.152.57.259 1.324.33 2.103l.015.156.034.39.011.156c.098 1.37.11 2.655.111 2.935v.113a48.122 48.122 0 0 1-.123 3.09l-.012.157-.013.156c-.075.858-.186 1.71-.353 2.337a3.014 3.014 0 0 1-2.122 2.13c-1.74.468-8.354.501-9.27.503h-.213c-.463 0-2.38-.01-4.39-.078l-.255-.01-.131-.005-.256-.011-.257-.01c-1.665-.074-3.25-.192-3.981-.39A3.015 3.015 0 0 1 .5 14.223c-.167-.626-.278-1.479-.353-2.337l-.012-.158-.012-.155A46.496 46.496 0 0 1 0 8.52v-.185c.003-.322.015-1.437.096-2.667l.01-.154.005-.078.012-.156.033-.39.015-.156c.072-.779.178-1.535.33-2.103A3.015 3.015 0 0 1 2.624.5c.73-.195 2.315-.315 3.98-.39L6.86.1l.258-.009.13-.004.256-.011A150 150 0 0 1 11.787 0l.29-.002ZM9.6 4.813v7.227l6.236-3.612L9.6 4.813Z" fill="#fff"/></svg></svg>