<svg width="672" height="1328" viewBox="0 0 672 1328" fill="none" xmlns="http://www.w3.org/2000/svg">
<path fill-rule="evenodd" clip-rule="evenodd" d="M1434 610.5C1434 1006.21 1113.21 1327 717.5 1327C321.788 1327 1 1006.21 1 610.5C1 214.788 321.788 -106 717.5 -106C1113.21 -106 1434 214.788 1434 610.5ZM1435 610.5C1435 1006.76 1113.76 1328 717.5 1328C321.236 1328 0 1006.76 0 610.5C0 214.236 321.236 -107 717.5 -107C1113.76 -107 1435 214.236 1435 610.5ZM1030.12 609.851C1030.12 782.149 890.447 921.823 718.149 921.823C545.852 921.823 406.176 782.149 406.176 609.851C406.176 437.553 545.852 297.878 718.149 297.878C890.447 297.878 1030.12 437.553 1030.12 609.851ZM1031.12 609.851C1031.12 782.701 890.999 922.823 718.149 922.823C545.299 922.823 405.176 782.701 405.176 609.851C405.176 437.001 545.299 296.878 718.149 296.878C890.999 296.878 1031.12 437.001 1031.12 609.851ZM717.5 1185.45C1035.03 1185.45 1292.45 928.035 1292.45 610.5C1292.45 292.965 1035.03 35.552 717.5 35.552C399.965 35.552 142.552 292.965 142.552 610.5C142.552 928.035 399.965 1185.45 717.5 1185.45ZM717.5 1186.45C1035.59 1186.45 1293.45 928.587 1293.45 610.5C1293.45 292.413 1035.59 34.552 717.5 34.552C399.413 34.552 141.552 292.413 141.552 610.5C141.552 928.587 399.413 1186.45 717.5 1186.45ZM1137.91 610.5C1137.91 842.686 949.686 1030.91 717.5 1030.91C485.314 1030.91 297.09 842.686 297.09 610.5C297.09 378.314 485.314 190.09 717.5 190.09C949.686 190.09 1137.91 378.314 1137.91 610.5ZM1138.91 610.5C1138.91 843.238 950.238 1031.91 717.5 1031.91C484.762 1031.91 296.09 843.238 296.09 610.5C296.09 377.762 484.762 189.09 717.5 189.09C950.238 189.09 1138.91 377.762 1138.91 610.5Z" fill="#373737"/>
</svg>
