<svg width="220.487915" height="172.779297" viewBox="0 0 220.488 172.779" fill="none" xmlns="http://www.w3.org/2000/svg" xmlns:xlink="http://www.w3.org/1999/xlink">
	<desc>
			Created with Pixso.
	</desc>
	<defs>
		<linearGradient x1="98.651382" y1="0.000000" x2="98.651382" y2="166.693161" id="paint_linear_32_756_0" gradientUnits="userSpaceOnUse">
			<stop stop-color="#9567B0"/>
			<stop offset="1.000000" stop-color="#DC8887"/>
		</linearGradient>
		<linearGradient x1="121.836548" y1="6.085938" x2="121.836548" y2="172.779099" id="paint_linear_32_755_0" gradientUnits="userSpaceOnUse">
			<stop stop-color="#9567B0"/>
			<stop offset="1.000000" stop-color="#DC8887"/>
		</linearGradient>
	</defs>
	<g opacity="0.300000">
		<path id="Vector" d="M96.61 16.94C83.61 20.13 70.79 19.95 58.11 24.25C39.53 30.53 15.75 30.85 5.72 47.71C-4.39 64.71 0.1 88.22 9.81 105.45C18.81 121.44 39.79 124.23 54.79 134.81C69.47 145.17 78.66 166.01 96.61 166.67C114.59 167.33 125.43 147.41 140.74 137.98C157.91 127.4 182.11 125.89 191.66 108.12C201.54 89.72 196.88 66.6 189.58 47.04C182.5 28.04 171.1 7.52 151.81 1.27C133.16 -4.76 115.65 12.27 96.61 16.94Z" fill="url(#paint_linear_32_756_0)" fill-opacity="1.000000" fill-rule="evenodd"/>
	</g>
	<path id="Ornament 1" d="M19.74 55.22C19.74 56.11 19.02 56.83 18.13 56.83C17.24 56.83 16.51 56.11 16.51 55.22C16.51 54.33 17.24 53.61 18.13 53.61C19.02 53.61 19.74 54.33 19.74 55.22ZM29.42 55.22C29.42 56.11 28.69 56.83 27.8 56.83C26.91 56.83 26.19 56.11 26.19 55.22C26.19 54.33 26.91 53.61 27.8 53.61C28.69 53.61 29.42 54.33 29.42 55.22ZM39.09 55.22C39.09 56.11 38.37 56.83 37.48 56.83C36.59 56.83 35.87 56.11 35.87 55.22C35.87 54.33 36.59 53.61 37.48 53.61C38.37 53.61 39.09 54.33 39.09 55.22ZM48.77 55.22C48.77 56.11 48.05 56.83 47.16 56.83C46.26 56.83 45.54 56.11 45.54 55.22C45.54 54.33 46.26 53.61 47.16 53.61C48.05 53.61 48.77 54.33 48.77 55.22ZM58.44 55.22C58.44 56.11 57.72 56.83 56.83 56.83C55.94 56.83 55.22 56.11 55.22 55.22C55.22 54.33 55.94 53.61 56.83 53.61C57.72 53.61 58.44 54.33 58.44 55.22ZM68.12 55.22C68.12 56.11 67.4 56.83 66.51 56.83C65.62 56.83 64.89 56.11 64.89 55.22C64.89 54.33 65.62 53.61 66.51 53.61C67.4 53.61 68.12 54.33 68.12 55.22ZM77.8 55.22C77.8 56.11 77.07 56.83 76.18 56.83C75.29 56.83 74.57 56.11 74.57 55.22C74.57 54.33 75.29 53.61 76.18 53.61C77.07 53.61 77.8 54.33 77.8 55.22ZM87.47 55.22C87.47 56.11 86.75 56.83 85.86 56.83C84.97 56.83 84.25 56.11 84.25 55.22C84.25 54.33 84.97 53.61 85.86 53.61C86.75 53.61 87.47 54.33 87.47 55.22ZM97.15 55.22C97.15 56.11 96.43 56.83 95.54 56.83C94.65 56.83 93.92 56.11 93.92 55.22C93.92 54.33 94.65 53.61 95.54 53.61C96.43 53.61 97.15 54.33 97.15 55.22ZM106.82 55.22C106.82 56.11 106.1 56.83 105.21 56.83C104.32 56.83 103.6 56.11 103.6 55.22C103.6 54.33 104.32 53.61 105.21 53.61C106.1 53.61 106.82 54.33 106.82 55.22ZM116.5 55.22C116.5 56.11 115.78 56.83 114.89 56.83C114 56.83 113.28 56.11 113.28 55.22C113.28 54.33 114 53.61 114.89 53.61C115.78 53.61 116.5 54.33 116.5 55.22ZM19.74 64.89C19.74 65.78 19.02 66.5 18.13 66.5C17.24 66.5 16.51 65.78 16.51 64.89C16.51 64 17.24 63.28 18.13 63.28C19.02 63.28 19.74 64 19.74 64.89ZM29.42 64.89C29.42 65.78 28.69 66.5 27.8 66.5C26.91 66.5 26.19 65.78 26.19 64.89C26.19 64 26.91 63.28 27.8 63.28C28.69 63.28 29.42 64 29.42 64.89ZM39.09 64.89C39.09 65.78 38.37 66.5 37.48 66.5C36.59 66.5 35.87 65.78 35.87 64.89C35.87 64 36.59 63.28 37.48 63.28C38.37 63.28 39.09 64 39.09 64.89ZM48.77 64.89C48.77 65.78 48.05 66.5 47.16 66.5C46.26 66.5 45.54 65.78 45.54 64.89C45.54 64 46.26 63.28 47.16 63.28C48.05 63.28 48.77 64 48.77 64.89ZM58.44 64.89C58.44 65.78 57.72 66.5 56.83 66.5C55.94 66.5 55.22 65.78 55.22 64.89C55.22 64 55.94 63.28 56.83 63.28C57.72 63.28 58.44 64 58.44 64.89ZM68.12 64.89C68.12 65.78 67.4 66.5 66.51 66.5C65.62 66.5 64.89 65.78 64.89 64.89C64.89 64 65.62 63.28 66.51 63.28C67.4 63.28 68.12 64 68.12 64.89ZM77.8 64.89C77.8 65.78 77.07 66.5 76.18 66.5C75.29 66.5 74.57 65.78 74.57 64.89C74.57 64 75.29 63.28 76.18 63.28C77.07 63.28 77.8 64 77.8 64.89ZM87.47 64.89C87.47 65.78 86.75 66.5 85.86 66.5C84.97 66.5 84.25 65.78 84.25 64.89C84.25 64 84.97 63.28 85.86 63.28C86.75 63.28 87.47 64 87.47 64.89ZM97.15 64.89C97.15 65.78 96.43 66.5 95.54 66.5C94.65 66.5 93.92 65.78 93.92 64.89C93.92 64 94.65 63.28 95.54 63.28C96.43 63.28 97.15 64 97.15 64.89ZM106.82 64.89C106.82 65.78 106.1 66.5 105.21 66.5C104.32 66.5 103.6 65.78 103.6 64.89C103.6 64 104.32 63.28 105.21 63.28C106.1 63.28 106.82 64 106.82 64.89ZM116.5 64.89C116.5 65.78 115.78 66.5 114.89 66.5C114 66.5 113.28 65.78 113.28 64.89C113.28 64 114 63.28 114.89 63.28C115.78 63.28 116.5 64 116.5 64.89ZM19.74 74.55C19.74 75.44 19.02 76.17 18.13 76.17C17.24 76.17 16.51 75.44 16.51 74.55C16.51 73.66 17.24 72.94 18.13 72.94C19.02 72.94 19.74 73.66 19.74 74.55ZM29.42 74.55C29.42 75.44 28.69 76.17 27.8 76.17C26.91 76.17 26.19 75.44 26.19 74.55C26.19 73.66 26.91 72.94 27.8 72.94C28.69 72.94 29.42 73.66 29.42 74.55ZM39.09 74.55C39.09 75.44 38.37 76.17 37.48 76.17C36.59 76.17 35.87 75.44 35.87 74.55C35.87 73.66 36.59 72.94 37.48 72.94C38.37 72.94 39.09 73.66 39.09 74.55ZM48.77 74.55C48.77 75.44 48.05 76.17 47.16 76.17C46.26 76.17 45.54 75.44 45.54 74.55C45.54 73.66 46.26 72.94 47.16 72.94C48.05 72.94 48.77 73.66 48.77 74.55ZM58.44 74.55C58.44 75.44 57.72 76.17 56.83 76.17C55.94 76.17 55.22 75.44 55.22 74.55C55.22 73.66 55.94 72.94 56.83 72.94C57.72 72.94 58.44 73.66 58.44 74.55ZM68.12 74.55C68.12 75.44 67.4 76.17 66.51 76.17C65.62 76.17 64.89 75.44 64.89 74.55C64.89 73.66 65.62 72.94 66.51 72.94C67.4 72.94 68.12 73.66 68.12 74.55ZM77.8 74.55C77.8 75.44 77.07 76.17 76.18 76.17C75.29 76.17 74.57 75.44 74.57 74.55C74.57 73.66 75.29 72.94 76.18 72.94C77.07 72.94 77.8 73.66 77.8 74.55ZM87.47 74.55C87.47 75.44 86.75 76.17 85.86 76.17C84.97 76.17 84.25 75.44 84.25 74.55C84.25 73.66 84.97 72.94 85.86 72.94C86.75 72.94 87.47 73.66 87.47 74.55ZM97.15 74.55C97.15 75.44 96.43 76.17 95.54 76.17C94.65 76.17 93.92 75.44 93.92 74.55C93.92 73.66 94.65 72.94 95.54 72.94C96.43 72.94 97.15 73.66 97.15 74.55ZM106.82 74.55C106.82 75.44 106.1 76.17 105.21 76.17C104.32 76.17 103.6 75.44 103.6 74.55C103.6 73.66 104.32 72.94 105.21 72.94C106.1 72.94 106.82 73.66 106.82 74.55ZM116.5 74.55C116.5 75.44 115.78 76.17 114.89 76.17C114 76.17 113.28 75.44 113.28 74.55C113.28 73.66 114 72.94 114.89 72.94C115.78 72.94 116.5 73.66 116.5 74.55ZM19.74 84.22C19.74 85.11 19.02 85.83 18.13 85.83C17.24 85.83 16.51 85.11 16.51 84.22C16.51 83.33 17.24 82.61 18.13 82.61C19.02 82.61 19.74 83.33 19.74 84.22ZM29.42 84.22C29.42 85.11 28.69 85.83 27.8 85.83C26.91 85.83 26.19 85.11 26.19 84.22C26.19 83.33 26.91 82.61 27.8 82.61C28.69 82.61 29.42 83.33 29.42 84.22ZM39.09 84.22C39.09 85.11 38.37 85.83 37.48 85.83C36.59 85.83 35.87 85.11 35.87 84.22C35.87 83.33 36.59 82.61 37.48 82.61C38.37 82.61 39.09 83.33 39.09 84.22ZM48.77 84.22C48.77 85.11 48.05 85.83 47.16 85.83C46.26 85.83 45.54 85.11 45.54 84.22C45.54 83.33 46.26 82.61 47.16 82.61C48.05 82.61 48.77 83.33 48.77 84.22ZM58.44 84.22C58.44 85.11 57.72 85.83 56.83 85.83C55.94 85.83 55.22 85.11 55.22 84.22C55.22 83.33 55.94 82.61 56.83 82.61C57.72 82.61 58.44 83.33 58.44 84.22ZM68.12 84.22C68.12 85.11 67.4 85.83 66.51 85.83C65.62 85.83 64.89 85.11 64.89 84.22C64.89 83.33 65.62 82.61 66.51 82.61C67.4 82.61 68.12 83.33 68.12 84.22ZM77.8 84.22C77.8 85.11 77.07 85.83 76.18 85.83C75.29 85.83 74.57 85.11 74.57 84.22C74.57 83.33 75.29 82.61 76.18 82.61C77.07 82.61 77.8 83.33 77.8 84.22ZM87.47 84.22C87.47 85.11 86.75 85.83 85.86 85.83C84.97 85.83 84.25 85.11 84.25 84.22C84.25 83.33 84.97 82.61 85.86 82.61C86.75 82.61 87.47 83.33 87.47 84.22ZM97.15 84.22C97.15 85.11 96.43 85.83 95.54 85.83C94.65 85.83 93.92 85.11 93.92 84.22C93.92 83.33 94.65 82.61 95.54 82.61C96.43 82.61 97.15 83.33 97.15 84.22ZM106.82 84.22C106.82 85.11 106.1 85.83 105.21 85.83C104.32 85.83 103.6 85.11 103.6 84.22C103.6 83.33 104.32 82.61 105.21 82.61C106.1 82.61 106.82 83.33 106.82 84.22ZM116.5 84.22C116.5 85.11 115.78 85.83 114.89 85.83C114 85.83 113.28 85.11 113.28 84.22C113.28 83.33 114 82.61 114.89 82.61C115.78 82.61 116.5 83.33 116.5 84.22ZM19.74 93.89C19.74 94.78 19.02 95.5 18.13 95.5C17.24 95.5 16.51 94.78 16.51 93.89C16.51 93 17.24 92.28 18.13 92.28C19.02 92.28 19.74 93 19.74 93.89ZM29.42 93.89C29.42 94.78 28.69 95.5 27.8 95.5C26.91 95.5 26.19 94.78 26.19 93.89C26.19 93 26.91 92.28 27.8 92.28C28.69 92.28 29.42 93 29.42 93.89ZM39.09 93.89C39.09 94.78 38.37 95.5 37.48 95.5C36.59 95.5 35.87 94.78 35.87 93.89C35.87 93 36.59 92.28 37.48 92.28C38.37 92.28 39.09 93 39.09 93.89ZM48.77 93.89C48.77 94.78 48.05 95.5 47.16 95.5C46.26 95.5 45.54 94.78 45.54 93.89C45.54 93 46.26 92.28 47.16 92.28C48.05 92.28 48.77 93 48.77 93.89ZM58.44 93.89C58.44 94.78 57.72 95.5 56.83 95.5C55.94 95.5 55.22 94.78 55.22 93.89C55.22 93 55.94 92.28 56.83 92.28C57.72 92.28 58.44 93 58.44 93.89ZM68.12 93.89C68.12 94.78 67.4 95.5 66.51 95.5C65.62 95.5 64.89 94.78 64.89 93.89C64.89 93 65.62 92.28 66.51 92.28C67.4 92.28 68.12 93 68.12 93.89ZM77.8 93.89C77.8 94.78 77.07 95.5 76.18 95.5C75.29 95.5 74.57 94.78 74.57 93.89C74.57 93 75.29 92.28 76.18 92.28C77.07 92.28 77.8 93 77.8 93.89ZM87.47 93.89C87.47 94.78 86.75 95.5 85.86 95.5C84.97 95.5 84.25 94.78 84.25 93.89C84.25 93 84.97 92.28 85.86 92.28C86.75 92.28 87.47 93 87.47 93.89ZM97.15 93.89C97.15 94.78 96.43 95.5 95.54 95.5C94.65 95.5 93.92 94.78 93.92 93.89C93.92 93 94.65 92.28 95.54 92.28C96.43 92.28 97.15 93 97.15 93.89ZM106.82 93.89C106.82 94.78 106.1 95.5 105.21 95.5C104.32 95.5 103.6 94.78 103.6 93.89C103.6 93 104.32 92.28 105.21 92.28C106.1 92.28 106.82 93 106.82 93.89ZM116.5 93.89C116.5 94.78 115.78 95.5 114.89 95.5C114 95.5 113.28 94.78 113.28 93.89C113.28 93 114 92.28 114.89 92.28C115.78 92.28 116.5 93 116.5 93.89ZM19.74 103.55C19.74 104.44 19.02 105.16 18.13 105.16C17.24 105.16 16.51 104.44 16.51 103.55C16.51 102.66 17.24 101.94 18.13 101.94C19.02 101.94 19.74 102.66 19.74 103.55ZM29.42 103.55C29.42 104.44 28.69 105.16 27.8 105.16C26.91 105.16 26.19 104.44 26.19 103.55C26.19 102.66 26.91 101.94 27.8 101.94C28.69 101.94 29.42 102.66 29.42 103.55ZM39.09 103.55C39.09 104.44 38.37 105.16 37.48 105.16C36.59 105.16 35.87 104.44 35.87 103.55C35.87 102.66 36.59 101.94 37.48 101.94C38.37 101.94 39.09 102.66 39.09 103.55ZM48.77 103.55C48.77 104.44 48.05 105.16 47.16 105.16C46.26 105.16 45.54 104.44 45.54 103.55C45.54 102.66 46.26 101.94 47.16 101.94C48.05 101.94 48.77 102.66 48.77 103.55ZM58.44 103.55C58.44 104.44 57.72 105.16 56.83 105.16C55.94 105.16 55.22 104.44 55.22 103.55C55.22 102.66 55.94 101.94 56.83 101.94C57.72 101.94 58.44 102.66 58.44 103.55ZM68.12 103.55C68.12 104.44 67.4 105.16 66.51 105.16C65.62 105.16 64.89 104.44 64.89 103.55C64.89 102.66 65.62 101.94 66.51 101.94C67.4 101.94 68.12 102.66 68.12 103.55ZM77.8 103.55C77.8 104.44 77.07 105.16 76.18 105.16C75.29 105.16 74.57 104.44 74.57 103.55C74.57 102.66 75.29 101.94 76.18 101.94C77.07 101.94 77.8 102.66 77.8 103.55ZM87.47 103.55C87.47 104.44 86.75 105.16 85.86 105.16C84.97 105.16 84.25 104.44 84.25 103.55C84.25 102.66 84.97 101.94 85.86 101.94C86.75 101.94 87.47 102.66 87.47 103.55ZM97.15 103.55C97.15 104.44 96.43 105.16 95.54 105.16C94.65 105.16 93.92 104.44 93.92 103.55C93.92 102.66 94.65 101.94 95.54 101.94C96.43 101.94 97.15 102.66 97.15 103.55ZM106.82 103.55C106.82 104.44 106.1 105.16 105.21 105.16C104.32 105.16 103.6 104.44 103.6 103.55C103.6 102.66 104.32 101.94 105.21 101.94C106.1 101.94 106.82 102.66 106.82 103.55ZM116.5 103.55C116.5 104.44 115.78 105.16 114.89 105.16C114 105.16 113.28 104.44 113.28 103.55C113.28 102.66 114 101.94 114.89 101.94C115.78 101.94 116.5 102.66 116.5 103.55ZM19.74 113.22C19.74 114.11 19.02 114.83 18.13 114.83C17.24 114.83 16.51 114.11 16.51 113.22C16.51 112.33 17.24 111.61 18.13 111.61C19.02 111.61 19.74 112.33 19.74 113.22ZM29.42 113.22C29.42 114.11 28.69 114.83 27.8 114.83C26.91 114.83 26.19 114.11 26.19 113.22C26.19 112.33 26.91 111.61 27.8 111.61C28.69 111.61 29.42 112.33 29.42 113.22ZM39.09 113.22C39.09 114.11 38.37 114.83 37.48 114.83C36.59 114.83 35.87 114.11 35.87 113.22C35.87 112.33 36.59 111.61 37.48 111.61C38.37 111.61 39.09 112.33 39.09 113.22ZM48.77 113.22C48.77 114.11 48.05 114.83 47.16 114.83C46.26 114.83 45.54 114.11 45.54 113.22C45.54 112.33 46.26 111.61 47.16 111.61C48.05 111.61 48.77 112.33 48.77 113.22ZM58.44 113.22C58.44 114.11 57.72 114.83 56.83 114.83C55.94 114.83 55.22 114.11 55.22 113.22C55.22 112.33 55.94 111.61 56.83 111.61C57.72 111.61 58.44 112.33 58.44 113.22ZM68.12 113.22C68.12 114.11 67.4 114.83 66.51 114.83C65.62 114.83 64.89 114.11 64.89 113.22C64.89 112.33 65.62 111.61 66.51 111.61C67.4 111.61 68.12 112.33 68.12 113.22ZM77.8 113.22C77.8 114.11 77.07 114.83 76.18 114.83C75.29 114.83 74.57 114.11 74.57 113.22C74.57 112.33 75.29 111.61 76.18 111.61C77.07 111.61 77.8 112.33 77.8 113.22ZM87.47 113.22C87.47 114.11 86.75 114.83 85.86 114.83C84.97 114.83 84.25 114.11 84.25 113.22C84.25 112.33 84.97 111.61 85.86 111.61C86.75 111.61 87.47 112.33 87.47 113.22ZM97.15 113.22C97.15 114.11 96.43 114.83 95.54 114.83C94.65 114.83 93.92 114.11 93.92 113.22C93.92 112.33 94.65 111.61 95.54 111.61C96.43 111.61 97.15 112.33 97.15 113.22ZM106.82 113.22C106.82 114.11 106.1 114.83 105.21 114.83C104.32 114.83 103.6 114.11 103.6 113.22C103.6 112.33 104.32 111.61 105.21 111.61C106.1 111.61 106.82 112.33 106.82 113.22ZM116.5 113.22C116.5 114.11 115.78 114.83 114.89 114.83C114 114.83 113.28 114.11 113.28 113.22C113.28 112.33 114 111.61 114.89 111.61C115.78 111.61 116.5 112.33 116.5 113.22ZM19.74 122.89C19.74 123.78 19.02 124.5 18.13 124.5C17.24 124.5 16.51 123.78 16.51 122.89C16.51 122 17.24 121.27 18.13 121.27C19.02 121.27 19.74 122 19.74 122.89ZM29.42 122.89C29.42 123.78 28.69 124.5 27.8 124.5C26.91 124.5 26.19 123.78 26.19 122.89C26.19 122 26.91 121.27 27.8 121.27C28.69 121.27 29.42 122 29.42 122.89ZM39.09 122.89C39.09 123.78 38.37 124.5 37.48 124.5C36.59 124.5 35.87 123.78 35.87 122.89C35.87 122 36.59 121.27 37.48 121.27C38.37 121.27 39.09 122 39.09 122.89ZM48.77 122.89C48.77 123.78 48.05 124.5 47.16 124.5C46.26 124.5 45.54 123.78 45.54 122.89C45.54 122 46.26 121.27 47.16 121.27C48.05 121.27 48.77 122 48.77 122.89ZM58.44 122.89C58.44 123.78 57.72 124.5 56.83 124.5C55.94 124.5 55.22 123.78 55.22 122.89C55.22 122 55.94 121.27 56.83 121.27C57.72 121.27 58.44 122 58.44 122.89ZM68.12 122.89C68.12 123.78 67.4 124.5 66.51 124.5C65.62 124.5 64.89 123.78 64.89 122.89C64.89 122 65.62 121.27 66.51 121.27C67.4 121.27 68.12 122 68.12 122.89ZM77.8 122.89C77.8 123.78 77.07 124.5 76.18 124.5C75.29 124.5 74.57 123.78 74.57 122.89C74.57 122 75.29 121.27 76.18 121.27C77.07 121.27 77.8 122 77.8 122.89ZM87.47 122.89C87.47 123.78 86.75 124.5 85.86 124.5C84.97 124.5 84.25 123.78 84.25 122.89C84.25 122 84.97 121.27 85.86 121.27C86.75 121.27 87.47 122 87.47 122.89ZM97.15 122.89C97.15 123.78 96.43 124.5 95.54 124.5C94.65 124.5 93.92 123.78 93.92 122.89C93.92 122 94.65 121.27 95.54 121.27C96.43 121.27 97.15 122 97.15 122.89ZM106.82 122.89C106.82 123.78 106.1 124.5 105.21 124.5C104.32 124.5 103.6 123.78 103.6 122.89C103.6 122 104.32 121.27 105.21 121.27C106.1 121.27 106.82 122 106.82 122.89ZM116.5 122.89C116.5 123.78 115.78 124.5 114.89 124.5C114 124.5 113.28 123.78 113.28 122.89C113.28 122 114 121.27 114.89 121.27C115.78 121.27 116.5 122 116.5 122.89ZM19.74 132.55C19.74 133.44 19.02 134.16 18.13 134.16C17.24 134.16 16.51 133.44 16.51 132.55C16.51 131.66 17.24 130.94 18.13 130.94C19.02 130.94 19.74 131.66 19.74 132.55ZM29.42 132.55C29.42 133.44 28.69 134.16 27.8 134.16C26.91 134.16 26.19 133.44 26.19 132.55C26.19 131.66 26.91 130.94 27.8 130.94C28.69 130.94 29.42 131.66 29.42 132.55ZM39.09 132.55C39.09 133.44 38.37 134.16 37.48 134.16C36.59 134.16 35.87 133.44 35.87 132.55C35.87 131.66 36.59 130.94 37.48 130.94C38.37 130.94 39.09 131.66 39.09 132.55ZM48.77 132.55C48.77 133.44 48.05 134.16 47.16 134.16C46.26 134.16 45.54 133.44 45.54 132.55C45.54 131.66 46.26 130.94 47.16 130.94C48.05 130.94 48.77 131.66 48.77 132.55ZM58.44 132.55C58.44 133.44 57.72 134.16 56.83 134.16C55.94 134.16 55.22 133.44 55.22 132.55C55.22 131.66 55.94 130.94 56.83 130.94C57.72 130.94 58.44 131.66 58.44 132.55ZM68.12 132.55C68.12 133.44 67.4 134.16 66.51 134.16C65.62 134.16 64.89 133.44 64.89 132.55C64.89 131.66 65.62 130.94 66.51 130.94C67.4 130.94 68.12 131.66 68.12 132.55ZM77.8 132.55C77.8 133.44 77.07 134.16 76.18 134.16C75.29 134.16 74.57 133.44 74.57 132.55C74.57 131.66 75.29 130.94 76.18 130.94C77.07 130.94 77.8 131.66 77.8 132.55ZM87.47 132.55C87.47 133.44 86.75 134.16 85.86 134.16C84.97 134.16 84.25 133.44 84.25 132.55C84.25 131.66 84.97 130.94 85.86 130.94C86.75 130.94 87.47 131.66 87.47 132.55ZM97.15 132.55C97.15 133.44 96.43 134.16 95.54 134.16C94.65 134.16 93.92 133.44 93.92 132.55C93.92 131.66 94.65 130.94 95.54 130.94C96.43 130.94 97.15 131.66 97.15 132.55ZM106.82 132.55C106.82 133.44 106.1 134.16 105.21 134.16C104.32 134.16 103.6 133.44 103.6 132.55C103.6 131.66 104.32 130.94 105.21 130.94C106.1 130.94 106.82 131.66 106.82 132.55ZM116.5 132.55C116.5 133.44 115.78 134.16 114.89 134.16C114 134.16 113.28 133.44 113.28 132.55C113.28 131.66 114 130.94 114.89 130.94C115.78 130.94 116.5 131.66 116.5 132.55ZM19.74 142.22C19.74 143.11 19.02 143.83 18.13 143.83C17.24 143.83 16.51 143.11 16.51 142.22C16.51 141.33 17.24 140.61 18.13 140.61C19.02 140.61 19.74 141.33 19.74 142.22ZM29.42 142.22C29.42 143.11 28.69 143.83 27.8 143.83C26.91 143.83 26.19 143.11 26.19 142.22C26.19 141.33 26.91 140.61 27.8 140.61C28.69 140.61 29.42 141.33 29.42 142.22ZM39.09 142.22C39.09 143.11 38.37 143.83 37.48 143.83C36.59 143.83 35.87 143.11 35.87 142.22C35.87 141.33 36.59 140.61 37.48 140.61C38.37 140.61 39.09 141.33 39.09 142.22ZM48.77 142.22C48.77 143.11 48.05 143.83 47.16 143.83C46.26 143.83 45.54 143.11 45.54 142.22C45.54 141.33 46.26 140.61 47.16 140.61C48.05 140.61 48.77 141.33 48.77 142.22ZM58.44 142.22C58.44 143.11 57.72 143.83 56.83 143.83C55.94 143.83 55.22 143.11 55.22 142.22C55.22 141.33 55.94 140.61 56.83 140.61C57.72 140.61 58.44 141.33 58.44 142.22ZM68.12 142.22C68.12 143.11 67.4 143.83 66.51 143.83C65.62 143.83 64.89 143.11 64.89 142.22C64.89 141.33 65.62 140.61 66.51 140.61C67.4 140.61 68.12 141.33 68.12 142.22ZM77.8 142.22C77.8 143.11 77.07 143.83 76.18 143.83C75.29 143.83 74.57 143.11 74.57 142.22C74.57 141.33 75.29 140.61 76.18 140.61C77.07 140.61 77.8 141.33 77.8 142.22ZM87.47 142.22C87.47 143.11 86.75 143.83 85.86 143.83C84.97 143.83 84.25 143.11 84.25 142.22C84.25 141.33 84.97 140.61 85.86 140.61C86.75 140.61 87.47 141.33 87.47 142.22ZM97.15 142.22C97.15 143.11 96.43 143.83 95.54 143.83C94.65 143.83 93.92 143.11 93.92 142.22C93.92 141.33 94.65 140.61 95.54 140.61C96.43 140.61 97.15 141.33 97.15 142.22ZM106.82 142.22C106.82 143.11 106.1 143.83 105.21 143.83C104.32 143.83 103.6 143.11 103.6 142.22C103.6 141.33 104.32 140.61 105.21 140.61C106.1 140.61 106.82 141.33 106.82 142.22ZM116.5 142.22C116.5 143.11 115.78 143.83 114.89 143.83C114 143.83 113.28 143.11 113.28 142.22C113.28 141.33 114 140.61 114.89 140.61C115.78 140.61 116.5 141.33 116.5 142.22ZM19.74 151.88C19.74 152.77 19.02 153.5 18.13 153.5C17.24 153.5 16.51 152.77 16.51 151.88C16.51 150.99 17.24 150.27 18.13 150.27C19.02 150.27 19.74 150.99 19.74 151.88ZM29.42 151.88C29.42 152.77 28.69 153.5 27.8 153.5C26.91 153.5 26.19 152.77 26.19 151.88C26.19 150.99 26.91 150.27 27.8 150.27C28.69 150.27 29.42 150.99 29.42 151.88ZM39.09 151.88C39.09 152.77 38.37 153.5 37.48 153.5C36.59 153.5 35.87 152.77 35.87 151.88C35.87 150.99 36.59 150.27 37.48 150.27C38.37 150.27 39.09 150.99 39.09 151.88ZM48.77 151.88C48.77 152.77 48.05 153.5 47.16 153.5C46.26 153.5 45.54 152.77 45.54 151.88C45.54 150.99 46.26 150.27 47.16 150.27C48.05 150.27 48.77 150.99 48.77 151.88ZM58.44 151.88C58.44 152.77 57.72 153.5 56.83 153.5C55.94 153.5 55.22 152.77 55.22 151.88C55.22 150.99 55.94 150.27 56.83 150.27C57.72 150.27 58.44 150.99 58.44 151.88ZM68.12 151.88C68.12 152.77 67.4 153.5 66.51 153.5C65.62 153.5 64.89 152.77 64.89 151.88C64.89 150.99 65.62 150.27 66.51 150.27C67.4 150.27 68.12 150.99 68.12 151.88ZM77.8 151.88C77.8 152.77 77.07 153.5 76.18 153.5C75.29 153.5 74.57 152.77 74.57 151.88C74.57 150.99 75.29 150.27 76.18 150.27C77.07 150.27 77.8 150.99 77.8 151.88ZM87.47 151.88C87.47 152.77 86.75 153.5 85.86 153.5C84.97 153.5 84.25 152.77 84.25 151.88C84.25 150.99 84.97 150.27 85.86 150.27C86.75 150.27 87.47 150.99 87.47 151.88ZM97.15 151.88C97.15 152.77 96.43 153.5 95.54 153.5C94.65 153.5 93.92 152.77 93.92 151.88C93.92 150.99 94.65 150.27 95.54 150.27C96.43 150.27 97.15 150.99 97.15 151.88ZM106.82 151.88C106.82 152.77 106.1 153.5 105.21 153.5C104.32 153.5 103.6 152.77 103.6 151.88C103.6 150.99 104.32 150.27 105.21 150.27C106.1 150.27 106.82 150.99 106.82 151.88ZM116.5 151.88C116.5 152.77 115.78 153.5 114.89 153.5C114 153.5 113.28 152.77 113.28 151.88C113.28 150.99 114 150.27 114.89 150.27C115.78 150.27 116.5 150.99 116.5 151.88ZM19.74 161.55C19.74 162.44 19.02 163.16 18.13 163.16C17.24 163.16 16.51 162.44 16.51 161.55C16.51 160.66 17.24 159.94 18.13 159.94C19.02 159.94 19.74 160.66 19.74 161.55ZM29.42 161.55C29.42 162.44 28.69 163.16 27.8 163.16C26.91 163.16 26.19 162.44 26.19 161.55C26.19 160.66 26.91 159.94 27.8 159.94C28.69 159.94 29.42 160.66 29.42 161.55ZM39.09 161.55C39.09 162.44 38.37 163.16 37.48 163.16C36.59 163.16 35.87 162.44 35.87 161.55C35.87 160.66 36.59 159.94 37.48 159.94C38.37 159.94 39.09 160.66 39.09 161.55ZM48.77 161.55C48.77 162.44 48.05 163.16 47.16 163.16C46.26 163.16 45.54 162.44 45.54 161.55C45.54 160.66 46.26 159.94 47.16 159.94C48.05 159.94 48.77 160.66 48.77 161.55ZM58.44 161.55C58.44 162.44 57.72 163.16 56.83 163.16C55.94 163.16 55.22 162.44 55.22 161.55C55.22 160.66 55.94 159.94 56.83 159.94C57.72 159.94 58.44 160.66 58.44 161.55ZM68.12 161.55C68.12 162.44 67.4 163.16 66.51 163.16C65.62 163.16 64.89 162.44 64.89 161.55C64.89 160.66 65.62 159.94 66.51 159.94C67.4 159.94 68.12 160.66 68.12 161.55ZM77.8 161.55C77.8 162.44 77.07 163.16 76.18 163.16C75.29 163.16 74.57 162.44 74.57 161.55C74.57 160.66 75.29 159.94 76.18 159.94C77.07 159.94 77.8 160.66 77.8 161.55ZM87.47 161.55C87.47 162.44 86.75 163.16 85.86 163.16C84.97 163.16 84.25 162.44 84.25 161.55C84.25 160.66 84.97 159.94 85.86 159.94C86.75 159.94 87.47 160.66 87.47 161.55ZM97.15 161.55C97.15 162.44 96.43 163.16 95.54 163.16C94.65 163.16 93.92 162.44 93.92 161.55C93.92 160.66 94.65 159.94 95.54 159.94C96.43 159.94 97.15 160.66 97.15 161.55ZM106.82 161.55C106.82 162.44 106.1 163.16 105.21 163.16C104.32 163.16 103.6 162.44 103.6 161.55C103.6 160.66 104.32 159.94 105.21 159.94C106.1 159.94 106.82 160.66 106.82 161.55ZM116.5 161.55C116.5 162.44 115.78 163.16 114.89 163.16C114 163.16 113.28 162.44 113.28 161.55C113.28 160.66 114 159.94 114.89 159.94C115.78 159.94 116.5 160.66 116.5 161.55Z" fill="#8B57C2" fill-opacity="1.000000" fill-rule="evenodd"/>
	<path id="Vector" d="M123.87 23.03C136.87 26.22 149.69 26.04 162.37 30.33C180.95 36.62 204.73 36.94 214.76 53.8C224.87 70.79 220.38 94.3 210.67 111.53C201.66 127.53 180.69 130.32 165.69 140.9C151.01 151.25 141.82 172.1 123.87 172.76C105.89 173.42 95.05 153.5 79.74 144.06C62.57 133.49 38.37 131.98 28.82 114.21C18.94 95.81 23.6 72.69 30.9 53.12C37.98 34.12 49.38 13.6 68.67 7.36C87.32 1.32 104.82 18.36 123.87 23.03Z" fill="url(#paint_linear_32_755_0)" fill-opacity="1.000000" fill-rule="evenodd"/>
	<path id="Vector" d="M69.41 40.19C50.09 45.42 25.36 45.69 14.93 59.73C4.42 73.89 9.09 93.46 19.18 107.81C28.55 121.13 50.36 123.46 65.96 132.27C81.23 140.89 90.79 158.25 109.46 158.8C128.15 159.35 139.42 142.76 155.35 134.9C173.21 126.09 198.38 124.84 208.3 110.04C218.58 94.72 213.73 75.46 206.14 59.17C198.78 43.35 186.92 26.26 166.86 21.06C147.46 16.03 129.26 30.22 109.46 34.1C95.93 36.76 82.61 36.61 69.41 40.19Z" stroke="#8B57C2" stroke-opacity="1.000000" stroke-width="3.000000"/>
	<path id="Знижки до" d="M159.45 60.02Q159.89 59.03 159.89 57.7Q159.89 56.37 159.45 55.38Q159.2 54.81 158.8 54.39Q158.5 54.07 158.11 53.84Q157.21 53.29 155.82 53.29Q154.42 53.29 153.51 53.84Q153.11 54.08 152.8 54.41Q152.41 54.82 152.17 55.37Q151.73 56.36 151.73 57.69Q151.73 59.02 152.17 60.01Q152.42 60.58 152.82 61.01Q153.12 61.33 153.51 61.56Q154.42 62.12 155.81 62.12Q157.21 62.12 158.11 61.56Q158.51 61.32 158.81 61Q159.21 60.58 159.45 60.02ZM89.78 56.34Q89.99 55.94 89.99 55.43Q89.99 55.07 89.87 54.76Q89.67 54.27 89.18 53.91Q88.37 53.31 86.92 53.31Q85.82 53.31 85.01 53.56Q84.21 53.81 83.55 54.24L84.34 55.46Q84.34 55.45 84.35 55.45Q84.85 55.14 85.42 54.95Q86.01 54.76 86.67 54.76Q87.45 54.76 87.84 55.02Q88.05 55.16 88.15 55.36Q88.23 55.52 88.23 55.72Q88.23 55.91 88.16 56.07Q88.1 56.21 88 56.32Q87.77 56.57 87.21 56.7Q86.64 56.84 85.62 56.84L84.9 56.84L84.9 58.25L85.71 58.25Q86.97 58.25 87.71 58.54Q88.23 58.73 88.39 59.09Q88.46 59.24 88.46 59.43Q88.46 59.72 88.34 59.95Q88.21 60.19 87.95 60.36Q87.44 60.69 86.29 60.69Q85.89 60.69 85.41 60.62Q85.18 60.59 84.96 60.54Q84.7 60.49 84.46 60.43Q83.99 60.3 83.62 60.12L83.62 61.65Q84.17 61.87 84.92 62Q85.67 62.12 86.64 62.12Q88.42 62.12 89.33 61.4Q89.83 61.02 90.06 60.51Q90.25 60.08 90.25 59.56Q90.25 59.1 90.07 58.72Q89.91 58.42 89.62 58.17Q89 57.64 87.82 57.52L87.82 57.48Q88.75 57.35 89.36 56.84Q89.37 56.83 89.38 56.82Q89.63 56.61 89.78 56.34ZM97.06 62L98.87 62L98.87 53.43L97.06 53.43L97.06 56.79L93.66 56.79L93.66 53.43L91.85 53.43L91.85 62L93.66 62L93.66 58.3L97.06 58.3L97.06 62ZM102.66 53.43L101.03 53.43L101.03 62L103.22 62L107.19 55.43L107.23 55.43Q107.22 55.51 107.21 55.78Q107.19 56.05 107.17 56.41Q107.15 56.77 107.14 57.16Q107.13 57.55 107.13 57.88L107.13 62L108.75 62L108.75 53.43L106.58 53.43L102.61 59.93L102.58 59.93Q102.59 59.84 102.6 59.58Q102.61 59.32 102.63 58.97Q102.64 58.61 102.65 58.24Q102.66 57.87 102.66 57.57L102.66 53.43ZM109.99 53.43L112.87 57.54L109.83 62L111.77 62L114.64 57.65L114.64 62L116.33 62L116.33 57.65L119.2 62L121.14 62L118.1 57.54L120.97 53.43L119.1 53.43L116.33 57.58L116.33 53.43L114.64 53.43L114.64 57.58L111.87 53.43L109.99 53.43ZM127.14 62L129.21 62L125.92 57.54L129.04 53.43L127.11 53.43L124.04 57.58L124.04 53.43L122.22 53.43L122.22 62L124.04 62L124.04 57.65L127.14 62ZM131.92 53.43L130.29 53.43L130.29 62L132.47 62L136.44 55.43L136.49 55.43Q136.48 55.51 136.46 55.78Q136.44 56.05 136.43 56.41Q136.41 56.77 136.39 57.16Q136.38 57.55 136.38 57.88L136.38 62L138 62L138 53.43L135.83 53.43L131.87 59.93L131.84 59.93Q131.85 59.84 131.86 59.58Q131.87 59.32 131.88 58.97Q131.9 58.61 131.91 58.24Q131.92 57.87 131.92 57.57L131.92 53.43ZM149.65 60.48L149.65 53.43L144.66 53.43Q144.47 55.01 144.15 56.27Q143.83 57.53 143.44 58.56Q143.04 59.58 142.59 60.48L141.92 60.48L141.92 64.49L143.68 64.49L143.68 62L149.04 62L149.04 64.49L150.79 64.49L150.79 60.48L149.65 60.48ZM154.15 59.82Q153.64 59.04 153.64 57.7Q153.64 56.34 154.15 55.58Q154.29 55.37 154.47 55.23Q154.97 54.81 155.82 54.81Q156.68 54.81 157.17 55.23Q157.35 55.38 157.48 55.58Q157.98 56.34 157.98 57.7Q157.98 59.04 157.48 59.82Q157.35 60.02 157.18 60.16Q156.68 60.59 155.81 60.59Q154.99 60.59 154.49 60.19Q154.3 60.03 154.15 59.82ZM145.76 56.73Q145.99 55.77 146.1 54.94L147.84 54.94L147.84 60.48L144.49 60.48Q144.88 59.63 145.2 58.67Q145.53 57.7 145.76 56.73Z" fill="#FFFFFF" fill-opacity="1.000000" fill-rule="evenodd"/>
	<path id="-50 %" d="M147.31 81.25C144.19 81.25 142.51 79.04 142.51 76.42L142.51 75.27C142.51 72.63 144.26 70.42 147.31 70.42C150.45 70.42 152.12 72.63 152.12 75.27L152.12 76.42C152.12 79.06 150.4 81.25 147.31 81.25ZM131.52 82.1C131.52 89.3 128.21 93.47 122.71 93.47C117.22 93.46 113.89 89.27 113.91 82.1C113.92 74.96 117.24 70.88 122.71 70.88C128.18 70.88 131.54 74.97 131.52 82.1ZM110.94 85.72C110.96 90.13 107.66 93.3 102.79 93.3C98.28 93.3 94.98 90.6 94.9 86.83L99.38 86.83C99.48 88.52 100.96 89.67 102.79 89.67C104.96 89.67 106.51 88.1 106.51 85.84C106.51 83.55 104.92 81.96 102.73 81.95C101.44 81.95 100.14 82.51 99.47 83.41L95.37 82.68L96.4 71.18L109.74 71.18L109.74 74.95L100.21 74.95L99.64 80.41L99.77 80.41C100.54 79.34 102.19 78.54 104.1 78.54C108.04 78.54 110.96 81.54 110.94 85.72ZM146.71 93L143.93 93L158.93 71.18L161.71 71.18L146.71 93ZM147.31 73.15C146.04 73.15 145.63 74.25 145.63 75.27L145.63 76.42C145.63 77.46 146.05 78.51 147.31 78.51C148.6 78.51 149 77.46 149 76.42L149 75.27C149 74.22 148.65 73.15 147.31 73.15ZM118.6 82.1C118.6 87.14 120.22 89.65 122.71 89.65C125.21 89.65 126.83 87.14 126.82 82.1C126.82 77.15 125.2 74.66 122.71 74.66C120.22 74.66 118.61 77.15 118.6 82.1ZM81.05 80.29L91 80.29L91 83.88L81.05 83.88L81.05 80.29ZM158.51 93.75C155.39 93.75 153.71 91.52 153.71 88.9L153.71 87.75C153.71 85.14 155.44 82.91 158.51 82.91C161.65 82.91 163.32 85.11 163.32 87.75L163.32 88.9C163.32 91.52 161.6 93.75 158.51 93.75ZM158.51 85.63C157.23 85.63 156.81 86.71 156.81 87.75L156.81 88.9C156.81 89.92 157.22 91 158.51 91C159.81 91 160.2 89.95 160.2 88.9L160.2 87.75C160.2 86.71 159.85 85.63 158.51 85.63Z" fill="#FFFFFF" fill-opacity="1.000000" fill-rule="evenodd"/>
	<path id="на навчання" d="M90.88 112.96L91.5 115L93.45 115L90.42 106.39L88.2 106.39L85.18 115L87.13 115L87.76 112.96L90.88 112.96ZM111.12 112.96L111.74 115L113.7 115L110.66 106.39L108.44 106.39L105.42 115L107.38 115L108 112.96L111.12 112.96ZM136.2 112.96L136.82 115L138.78 115L135.74 106.39L133.52 106.39L130.5 115L132.46 115L133.08 112.96L136.2 112.96ZM82.28 115L84.1 115L84.1 106.43L82.28 106.43L82.28 109.79L78.89 109.79L78.89 106.43L77.08 106.43L77.08 115L78.89 115L78.89 111.3L82.28 111.3L82.28 115ZM102.53 115L104.34 115L104.34 106.43L102.53 106.43L102.53 109.79L99.13 109.79L99.13 106.43L97.32 106.43L97.32 115L99.13 115L99.13 111.3L102.53 111.3L102.53 115ZM120.04 106.91Q119.16 106.43 117.44 106.43L114.78 106.43L114.78 115L117.98 115Q119.45 115 120.28 114.34Q120.61 114.08 120.81 113.74Q121.12 113.22 121.12 112.51Q121.12 111.84 120.92 111.43Q120.75 111.08 120.47 110.88Q120.42 110.84 120.37 110.81Q120.02 110.59 119.59 110.51L119.59 110.45Q119.97 110.38 120.24 110.18Q120.43 110.04 120.57 109.84Q120.57 109.83 120.58 109.82Q120.91 109.32 120.91 108.6Q120.91 107.77 120.5 107.29Q120.31 107.06 120.04 106.91ZM127.61 115L129.42 115L129.42 106.43L127.61 106.43L127.61 110.27Q126.98 110.48 126.48 110.59Q125.98 110.7 125.47 110.7Q124.79 110.7 124.5 110.39Q124.21 110.08 124.21 109.45L124.21 106.43L122.4 106.43L122.4 109.97Q122.4 110.79 122.79 111.32Q122.91 111.49 123.07 111.63Q123.75 112.21 124.96 112.21Q125.09 112.21 125.23 112.21Q125.73 112.18 126.22 112.08Q126.85 111.95 127.61 111.68L127.61 115ZM145.07 115L146.88 115L146.88 106.43L145.07 106.43L145.07 109.79L141.67 109.79L141.67 106.43L139.86 106.43L139.86 115L141.67 115L141.67 111.3L145.07 111.3L145.07 115ZM154.25 115L156.06 115L156.06 106.43L154.25 106.43L154.25 109.79L150.85 109.79L150.85 106.43L149.04 106.43L149.04 115L150.85 115L150.85 111.3L154.25 111.3L154.25 115ZM159.1 115L161.1 111.71L162.23 111.71L162.23 115L164.04 115L164.04 106.43L161.25 106.43Q159.72 106.43 158.87 107.06Q158.56 107.29 158.36 107.59Q158.01 108.12 158.01 108.88Q158.01 109.57 158.24 110.05Q158.47 110.52 158.82 110.8Q159.17 111.08 159.51 111.23L157.08 115L159.1 115ZM89.66 108.93Q89.76 109.24 89.82 109.44L90.44 111.43L88.21 111.43L88.82 109.44Q88.87 109.31 88.96 108.99Q89.05 108.67 89.15 108.32Q89.26 107.96 89.31 107.72Q89.38 107.96 89.47 108.29Q89.57 108.61 89.66 108.93ZM109.91 108.93Q110 109.24 110.06 109.44L110.69 111.43L108.45 111.43L109.07 109.44Q109.12 109.31 109.2 108.99Q109.29 108.67 109.4 108.32Q109.5 107.96 109.56 107.72Q109.62 107.96 109.71 108.29Q109.81 108.61 109.91 108.93ZM134.99 108.93Q135.08 109.24 135.14 109.44L135.77 111.43L133.53 111.43L134.14 109.44Q134.2 109.31 134.28 108.99Q134.37 108.67 134.48 108.32Q134.58 107.96 134.64 107.72Q134.7 107.96 134.79 108.29Q134.89 108.61 134.99 108.93ZM118.74 109.57Q118.44 109.82 117.65 109.82L116.59 109.82L116.59 107.91L117.55 107.91Q118.33 107.91 118.69 108.13Q118.81 108.21 118.89 108.31Q119.05 108.52 119.05 108.84Q119.05 109.2 118.88 109.43Q118.82 109.51 118.74 109.57ZM160.24 108.17Q160.63 107.91 161.33 107.91L162.23 107.91L162.23 110.23L161.37 110.23Q160.61 110.23 160.23 109.9Q160.1 109.79 160.02 109.66Q159.85 109.39 159.85 109.01Q159.85 108.57 160.07 108.31Q160.14 108.23 160.24 108.17ZM116.59 113.5L116.59 111.26L117.72 111.26Q118.58 111.26 118.91 111.56Q119.04 111.67 119.11 111.81Q119.24 112.03 119.24 112.33Q119.24 112.72 119.06 113Q119 113.09 118.92 113.18Q118.59 113.5 117.78 113.5L116.59 113.5Z" fill="#FFFFFF" fill-opacity="1.000000" fill-rule="evenodd"/>
</svg>
